<?xml version="1.0" encoding="utf-8"?>
<!-- Generator: Adobe Illustrator 19.0.0, SVG Export Plug-In . SVG Version: 6.00 Build 0)  -->
<!DOCTYPE svg PUBLIC "-//W3C//DTD SVG 1.1//EN" "http://www.w3.org/Graphics/SVG/1.1/DTD/svg11.dtd">
<svg version="1.1" id="Layer_1" xmlns="http://www.w3.org/2000/svg" xmlns:xlink="http://www.w3.org/1999/xlink" x="0px" y="0px"
	 viewBox="333 -266 792 612" style="enable-background:new 333 -266 792 612;" xml:space="preserve">
<style type="text/css">
	.st0{fill:#FFFFFF;}
</style>
<circle cx="705.9" cy="40.8" r="259"/>
<g id="XMLID_2_">
	<g id="XMLID_896_">
		<path id="XMLID_897_" class="st0" d="M705.2,309.5c-148.6,0-269.5-120.9-269.5-269.5s120.9-269.5,269.5-269.5
			S974.7-108.6,974.7,40S853.8,309.5,705.2,309.5z M705.2-207.3C568.9-207.3,457.9-96.4,457.9,40c0,136.3,110.9,247.3,247.3,247.3
			c136.3,0,247.3-110.9,247.3-247.3S841.5-207.3,705.2-207.3z"/>
	</g>
	<g id="XMLID_3_">
		<g id="XMLID_892_">
			<path id="XMLID_893_" class="st0" d="M552.3,149L552.3,149c-5.1,0-9.3-4.2-9.3-9.3V-44.9c0-5.1,4.2-9.3,9.3-9.3
				c1.8,0,3.6,0.5,5.1,1.6l139,92.3c2.6,1.7,4.1,4.6,4.1,7.7s-1.5,6-4.1,7.7l-139,92.3C555.9,148.4,554.2,149,552.3,149z
				 M554.2-41.5v177.8L688,47.4L554.2-41.5z"/>
		</g>
		<g id="XMLID_670_">
			<g id="XMLID_672_">
				<path id="XMLID_891_" class="st0" d="M649-28.2L649-28.2L649-28.2z"/>
				<path id="XMLID_890_" class="st0" d="M650-28.2L650-28.2L650-28.2z"/>
				<path id="XMLID_889_" class="st0" d="M651-28.2L651-28.2L651-28.2z"/>
				<path id="XMLID_888_" class="st0" d="M651.9-28.2L651.9-28.2L651.9-28.2z"/>
				<path id="XMLID_887_" class="st0" d="M652.9-28.2L652.9-28.2L652.9-28.2z"/>
				<path id="XMLID_886_" class="st0" d="M653.9-28.2L653.9-28.2L653.9-28.2z"/>
				<path id="XMLID_885_" class="st0" d="M654.9-28.2L654.9-28.2L654.9-28.2z"/>
				<path id="XMLID_884_" class="st0" d="M655.9-28.2L655.9-28.2L655.9-28.2z"/>
				<path id="XMLID_883_" class="st0" d="M656.8-28.2L656.8-28.2L656.8-28.2z"/>
				<path id="XMLID_882_" class="st0" d="M657.8-28.2L657.8-28.2L657.8-28.2z"/>
				<path id="XMLID_881_" class="st0" d="M658.8-28.2L658.8-28.2L658.8-28.2z"/>
				<path id="XMLID_880_" class="st0" d="M659.8-28.2L659.8-28.2L659.8-28.2z"/>
				<path id="XMLID_879_" class="st0" d="M660.8-28.2L660.8-28.2L660.8-28.2z"/>
				<path id="XMLID_878_" class="st0" d="M661.7-28.2L661.7-28.2L661.7-28.2z"/>
				<path id="XMLID_877_" class="st0" d="M662.7-28.2L662.7-28.2L662.7-28.2z"/>
				<path id="XMLID_876_" class="st0" d="M663.7-28.2L663.7-28.2L663.7-28.2z"/>
				<path id="XMLID_875_" class="st0" d="M664.7-28.2L664.7-28.2L664.7-28.2z"/>
				<path id="XMLID_874_" class="st0" d="M665.7-28.2L665.7-28.2L665.7-28.2z"/>
				<path id="XMLID_873_" class="st0" d="M666.6-28.2L666.6-28.2L666.6-28.2z"/>
				<path id="XMLID_872_" class="st0" d="M667.6-28.2L667.6-28.2L667.6-28.2z"/>
				<path id="XMLID_871_" class="st0" d="M668.6-28.2L668.6-28.2L668.6-28.2z"/>
				<path id="XMLID_870_" class="st0" d="M669.6-28.2L669.6-28.2L669.6-28.2z"/>
				<path id="XMLID_869_" class="st0" d="M670.6-28.2L670.6-28.2L670.6-28.2z"/>
				<path id="XMLID_868_" class="st0" d="M671.6-28.2L671.6-28.2L671.6-28.2z"/>
				<path id="XMLID_867_" class="st0" d="M672.5-28.2L672.5-28.2L672.5-28.2z"/>
				<path id="XMLID_866_" class="st0" d="M673.5-28.2L673.5-28.2L673.5-28.2z"/>
				<path id="XMLID_865_" class="st0" d="M674.5-28.2L674.5-28.2L674.5-28.2z"/>
				<path id="XMLID_864_" class="st0" d="M675.5-28.2L675.5-28.2L675.5-28.2z"/>
				<path id="XMLID_863_" class="st0" d="M676.5-28.2L676.5-28.2L676.5-28.2z"/>
				<path id="XMLID_862_" class="st0" d="M677.4-28.2L677.4-28.2L677.4-28.2z"/>
				<path id="XMLID_861_" class="st0" d="M678.4-28.2L678.4-28.2L678.4-28.2z"/>
				<path id="XMLID_860_" class="st0" d="M679.4-28.2L679.4-28.2L679.4-28.2z"/>
				<path id="XMLID_859_" class="st0" d="M680.4-28.2L680.4-28.2L680.4-28.2z"/>
				<path id="XMLID_858_" class="st0" d="M681.4-28.2L681.4-28.2L681.4-28.2z"/>
				<path id="XMLID_857_" class="st0" d="M682.3-28.2L682.3-28.2L682.3-28.2z"/>
				<path id="XMLID_856_" class="st0" d="M683.3-28.2L683.3-28.2L683.3-28.2z"/>
				<path id="XMLID_855_" class="st0" d="M684.3-28.2L684.3-28.2L684.3-28.2z"/>
				<path id="XMLID_854_" class="st0" d="M685.3-28.2L685.3-28.2L685.3-28.2z"/>
				<path id="XMLID_853_" class="st0" d="M686.3-28.2L686.3-28.2L686.3-28.2z"/>
				<path id="XMLID_852_" class="st0" d="M687.2-28.2L687.2-28.2L687.2-28.2z"/>
				<path id="XMLID_851_" class="st0" d="M688.2-28.2L688.2-28.2L688.2-28.2z"/>
				<path id="XMLID_850_" class="st0" d="M689.2-28.2L689.2-28.2L689.2-28.2z"/>
				<path id="XMLID_849_" class="st0" d="M690.2-28.2L690.2-28.2L690.2-28.2z"/>
				<path id="XMLID_848_" class="st0" d="M691.2-28.2L691.2-28.2L691.2-28.2z"/>
				<path id="XMLID_847_" class="st0" d="M692.1-28.2L692.1-28.2L692.1-28.2z"/>
				<path id="XMLID_846_" class="st0" d="M693.1-28.2L693.1-28.2L693.1-28.2z"/>
				<path id="XMLID_845_" class="st0" d="M694.1-28.2L694.1-28.2L694.1-28.2z"/>
				<path id="XMLID_844_" class="st0" d="M695.1-28.2L695.1-28.2L695.1-28.2z"/>
				<path id="XMLID_843_" class="st0" d="M696.1-28.2L696.1-28.2L696.1-28.2z"/>
				<path id="XMLID_842_" class="st0" d="M697-28.2L697-28.2L697-28.2z"/>
				<path id="XMLID_841_" class="st0" d="M698-28.2L698-28.2L698-28.2z"/>
				<path id="XMLID_840_" class="st0" d="M699-28.2L699-28.2L699-28.2z"/>
				<path id="XMLID_839_" class="st0" d="M700-28.2L700-28.2L700-28.2z"/>
				<path id="XMLID_838_" class="st0" d="M701-28.2L701-28.2L701-28.2z"/>
				<path id="XMLID_837_" class="st0" d="M701.9-28.2L701.9-28.2L701.9-28.2z"/>
				<path id="XMLID_836_" class="st0" d="M702.9-28.2L702.9-28.2L702.9-28.2z"/>
				<path id="XMLID_835_" class="st0" d="M703.9-28.2L703.9-28.2L703.9-28.2z"/>
				<path id="XMLID_834_" class="st0" d="M704.9-28.2L704.9-28.2L704.9-28.2z"/>
				<path id="XMLID_833_" class="st0" d="M705.9-28.2L705.9-28.2L705.9-28.2z"/>
				<path id="XMLID_832_" class="st0" d="M706.9-28.2L706.9-28.2L706.9-28.2z"/>
				<path id="XMLID_831_" class="st0" d="M707.8-28.2L707.8-28.2L707.8-28.2z"/>
				<path id="XMLID_830_" class="st0" d="M708.8-28.2L708.8-28.2L708.8-28.2z"/>
				<path id="XMLID_829_" class="st0" d="M709.8-28.2L709.8-28.2L709.8-28.2z"/>
				<path id="XMLID_828_" class="st0" d="M710.8-28.2L710.8-28.2L710.8-28.2z"/>
				<path id="XMLID_827_" class="st0" d="M711.8-28.2L711.8-28.2L711.8-28.2z"/>
				<path id="XMLID_826_" class="st0" d="M712.7-28.2L712.7-28.2L712.7-28.2z"/>
				<path id="XMLID_825_" class="st0" d="M713.7-28.2L713.7-28.2L713.7-28.2z"/>
				<path id="XMLID_824_" class="st0" d="M714.7-28.2L714.7-28.2L714.7-28.2z"/>
				<path id="XMLID_823_" class="st0" d="M715.7-28.2L715.7-28.2L715.7-28.2z"/>
				<path id="XMLID_822_" class="st0" d="M716.7-28.2L716.7-28.2L716.7-28.2z"/>
				<path id="XMLID_821_" class="st0" d="M717.6-28.2L717.6-28.2L717.6-28.2z"/>
				<path id="XMLID_820_" class="st0" d="M718.6-28.2L718.6-28.2L718.6-28.2z"/>
				<path id="XMLID_819_" class="st0" d="M719.6-28.2L719.6-28.2L719.6-28.2z"/>
				<path id="XMLID_818_" class="st0" d="M720.6-28.2L720.6-28.2L720.6-28.2z"/>
				<path id="XMLID_817_" class="st0" d="M721.6-28.2L721.6-28.2L721.6-28.2z"/>
				<path id="XMLID_816_" class="st0" d="M722.5-28.2L722.5-28.2L722.5-28.2z"/>
				<path id="XMLID_815_" class="st0" d="M723.5-28.2L723.5-28.2L723.5-28.2z"/>
				<path id="XMLID_814_" class="st0" d="M724.5-28.2L724.5-28.2L724.5-28.2z"/>
				<path id="XMLID_813_" class="st0" d="M725.5-28.2L725.5-28.2L725.5-28.2z"/>
				<path id="XMLID_812_" class="st0" d="M726.5-28.2L726.5-28.2L726.5-28.2z"/>
				<path id="XMLID_811_" class="st0" d="M727.4-28.2L727.4-28.2L727.4-28.2z"/>
				<path id="XMLID_810_" class="st0" d="M728.4-28.2L728.4-28.2L728.4-28.2z"/>
				<path id="XMLID_809_" class="st0" d="M729.4-28.2L729.4-28.2L729.4-28.2z"/>
				<path id="XMLID_808_" class="st0" d="M730.4-28.2L730.4-28.2L730.4-28.2z"/>
				<path id="XMLID_807_" class="st0" d="M731.4-28.2L731.4-28.2L731.4-28.2z"/>
				<path id="XMLID_806_" class="st0" d="M732.3-28.2L732.3-28.2L732.3-28.2z"/>
				<path id="XMLID_805_" class="st0" d="M733.3-28.2L733.3-28.2L733.3-28.2z"/>
				<path id="XMLID_804_" class="st0" d="M734.3-28.2L734.3-28.2L734.3-28.2z"/>
				<path id="XMLID_803_" class="st0" d="M735.3-28.2L735.3-28.2L735.3-28.2z"/>
				<path id="XMLID_802_" class="st0" d="M736.3-28.2L736.3-28.2L736.3-28.2z"/>
				<path id="XMLID_801_" class="st0" d="M737.2-28.2L737.2-28.2L737.2-28.2z"/>
				<path id="XMLID_800_" class="st0" d="M738.2-28.2L738.2-28.2L738.2-28.2z"/>
				<path id="XMLID_799_" class="st0" d="M739.2-28.2L739.2-28.2L739.2-28.2z"/>
				<path id="XMLID_798_" class="st0" d="M740.2-28.2L740.2-28.2L740.2-28.2z"/>
				<path id="XMLID_797_" class="st0" d="M741.2-28.2L741.2-28.2L741.2-28.2z"/>
				<path id="XMLID_796_" class="st0" d="M742.2-28.2L742.2-28.2L742.2-28.2z"/>
				<path id="XMLID_795_" class="st0" d="M743.1-28.2L743.1-28.2L743.1-28.2z"/>
				<path id="XMLID_794_" class="st0" d="M744.1-28.2L744.1-28.2L744.1-28.2z"/>
				<path id="XMLID_793_" class="st0" d="M745.1-28.2L745.1-28.2L745.1-28.2z"/>
				<path id="XMLID_792_" class="st0" d="M746.1-28.2L746.1-28.2L746.1-28.2z"/>
				<path id="XMLID_791_" class="st0" d="M747.1-28.2L747.1-28.2L747.1-28.2z"/>
				<path id="XMLID_790_" class="st0" d="M748-28.2L748-28.2L748-28.2z"/>
				<path id="XMLID_789_" class="st0" d="M749-28.2L749-28.2L749-28.2z"/>
				<path id="XMLID_788_" class="st0" d="M750-28.2L750-28.2L750-28.2z"/>
				<path id="XMLID_787_" class="st0" d="M751-28.2L751-28.2L751-28.2z"/>
				<path id="XMLID_786_" class="st0" d="M752-28.2L752-28.2L752-28.2z"/>
				<path id="XMLID_785_" class="st0" d="M752.9-28.2L752.9-28.2L752.9-28.2z"/>
				<path id="XMLID_784_" class="st0" d="M753.9-28.2L753.9-28.2L753.9-28.2z"/>
				<path id="XMLID_783_" class="st0" d="M754.9-28.2L754.9-28.2L754.9-28.2z"/>
				<path id="XMLID_782_" class="st0" d="M755.9-28.2L755.9-28.2L755.9-28.2z"/>
				<path id="XMLID_781_" class="st0" d="M756.9-28.2L756.9-28.2L756.9-28.2z"/>
				<path id="XMLID_780_" class="st0" d="M757.8-28.2L757.8-28.2L757.8-28.2z"/>
				<path id="XMLID_779_" class="st0" d="M758.8-28.2L758.8-28.2L758.8-28.2z"/>
				<path id="XMLID_778_" class="st0" d="M759.8-28.2L759.8-28.2L759.8-28.2z"/>
				<path id="XMLID_777_" class="st0" d="M760.8-28.2L760.8-28.2L760.8-28.2z"/>
				<path id="XMLID_776_" class="st0" d="M761.8-28.2L761.8-28.2L761.8-28.2z"/>
				<path id="XMLID_775_" class="st0" d="M762.7-28.2L762.7-28.2L762.7-28.2z"/>
				<path id="XMLID_774_" class="st0" d="M763.7-28.2L763.7-28.2L763.7-28.2z"/>
				<path id="XMLID_773_" class="st0" d="M764.7-28.2L764.7-28.2L764.7-28.2z"/>
				<path id="XMLID_772_" class="st0" d="M765.7-28.2L765.7-28.2L765.7-28.2z"/>
				<path id="XMLID_771_" class="st0" d="M766.7-28.2L766.7-28.2L766.7-28.2z"/>
				<path id="XMLID_770_" class="st0" d="M767.6-28.2L767.6-28.2L767.6-28.2z"/>
				<path id="XMLID_769_" class="st0" d="M768.6-28.2L768.6-28.2L768.6-28.2z"/>
				<path id="XMLID_768_" class="st0" d="M769.6-28.2L769.6-28.2L769.6-28.2z"/>
				<path id="XMLID_767_" class="st0" d="M770.6-28.2L770.6-28.2L770.6-28.2z"/>
				<path id="XMLID_766_" class="st0" d="M771.6-28.2L771.6-28.2L771.6-28.2z"/>
				<path id="XMLID_765_" class="st0" d="M772.5-28.2L772.5-28.2L772.5-28.2z"/>
				<path id="XMLID_764_" class="st0" d="M773.5-28.2L773.5-28.2L773.5-28.2z"/>
				<path id="XMLID_763_" class="st0" d="M774.5-28.2L774.5-28.2L774.5-28.2z"/>
				<path id="XMLID_762_" class="st0" d="M775.5-28.2L775.5-28.2L775.5-28.2z"/>
				<path id="XMLID_761_" class="st0" d="M776.5-28.2L776.5-28.2L776.5-28.2z"/>
				<path id="XMLID_760_" class="st0" d="M777.5-28.2L777.5-28.2L777.5-28.2z"/>
				<path id="XMLID_759_" class="st0" d="M778.4-28.2L778.4-28.2L778.4-28.2z"/>
				<path id="XMLID_758_" class="st0" d="M779.4-28.2L779.4-28.2L779.4-28.2z"/>
				<path id="XMLID_757_" class="st0" d="M780.4-28.2L780.4-28.2L780.4-28.2z"/>
				<path id="XMLID_756_" class="st0" d="M781.4-28.2L781.4-28.2L781.4-28.2z"/>
				<path id="XMLID_755_" class="st0" d="M782.4-28.2L782.4-28.2L782.4-28.2z"/>
				<path id="XMLID_754_" class="st0" d="M783.3-28.2L783.3-28.2L783.3-28.2z"/>
				<path id="XMLID_753_" class="st0" d="M784.3-28.2L784.3-28.2L784.3-28.2z"/>
				<path id="XMLID_752_" class="st0" d="M785.3-28.2L785.3-28.2L785.3-28.2z"/>
				<path id="XMLID_751_" class="st0" d="M786.3-28.2L786.3-28.2L786.3-28.2z"/>
				<path id="XMLID_750_" class="st0" d="M787.3-28.2L787.3-28.2L787.3-28.2z"/>
				<path id="XMLID_749_" class="st0" d="M788.2-28.2L788.2-28.2L788.2-28.2z"/>
				<path id="XMLID_748_" class="st0" d="M789.2-28.2L789.2-28.2L789.2-28.2z"/>
				<path id="XMLID_747_" class="st0" d="M790.2-28.2L790.2-28.2L790.2-28.2z"/>
				<path id="XMLID_746_" class="st0" d="M791.2-28.2L791.2-28.2L791.2-28.2z"/>
				<path id="XMLID_745_" class="st0" d="M792.2-28.2L792.2-28.2L792.2-28.2z"/>
				<path id="XMLID_744_" class="st0" d="M793.1-28.2L793.1-28.2L793.1-28.2z"/>
				<path id="XMLID_743_" class="st0" d="M794.1-28.2L794.1-28.2L794.1-28.2z"/>
				<path id="XMLID_742_" class="st0" d="M795.1-28.2L795.1-28.2L795.1-28.2z"/>
				<path id="XMLID_741_" class="st0" d="M796.1-28.2L796.1-28.2L796.1-28.2z"/>
				<path id="XMLID_740_" class="st0" d="M797.1-28.2L797.1-28.2L797.1-28.2z"/>
				<path id="XMLID_739_" class="st0" d="M798-28.2L798-28.2L798-28.2z"/>
				<path id="XMLID_738_" class="st0" d="M799-28.2L799-28.2L799-28.2z"/>
				<path id="XMLID_737_" class="st0" d="M800-28.2L800-28.2L800-28.2z"/>
				<path id="XMLID_736_" class="st0" d="M801-28.2L801-28.2L801-28.2z"/>
				<path id="XMLID_735_" class="st0" d="M802-28.2L802-28.2L802-28.2z"/>
				<path id="XMLID_734_" class="st0" d="M802.9-28.2L802.9-28.2L802.9-28.2z"/>
				<path id="XMLID_733_" class="st0" d="M803.9-28.2L803.9-28.2L803.9-28.2z"/>
				<path id="XMLID_732_" class="st0" d="M804.9-28.2L804.9-28.2L804.9-28.2z"/>
				<path id="XMLID_731_" class="st0" d="M805.9-28.2L805.9-28.2L805.9-28.2z"/>
				<path id="XMLID_730_" class="st0" d="M806.9-28.2L806.9-28.2L806.9-28.2z"/>
				<path id="XMLID_729_" class="st0" d="M807.8-28.2L807.8-28.2L807.8-28.2z"/>
				<path id="XMLID_728_" class="st0" d="M808.8-28.2L808.8-28.2L808.8-28.2z"/>
				<path id="XMLID_727_" class="st0" d="M809.8-28.2L809.8-28.2L809.8-28.2z"/>
				<path id="XMLID_726_" class="st0" d="M810.8-28.2L810.8-28.2L810.8-28.2z"/>
				<path id="XMLID_725_" class="st0" d="M811.8-28.2L811.8-28.2L811.8-28.2z"/>
				<path id="XMLID_724_" class="st0" d="M812.8-28.2L812.8-28.2L812.8-28.2z"/>
				<path id="XMLID_723_" class="st0" d="M813.7-28.2L813.7-28.2L813.7-28.2z"/>
				<path id="XMLID_722_" class="st0" d="M814.7-28.2L814.7-28.2L814.7-28.2z"/>
				<path id="XMLID_721_" class="st0" d="M815.7-28.2L815.7-28.2L815.7-28.2z"/>
				<path id="XMLID_720_" class="st0" d="M816.7-28.2L816.7-28.2L816.7-28.2z"/>
				<path id="XMLID_719_" class="st0" d="M817.7-28.2L817.7-28.2L817.7-28.2z"/>
				<path id="XMLID_718_" class="st0" d="M818.6-28.2L818.6-28.2L818.6-28.2z"/>
				<path id="XMLID_717_" class="st0" d="M819.6-28.2L819.6-28.2L819.6-28.2z"/>
				<path id="XMLID_716_" class="st0" d="M820.6-28.2L820.6-28.2L820.6-28.2z"/>
				<path id="XMLID_715_" class="st0" d="M821.6-28.2L821.6-28.2L821.6-28.2z"/>
				<path id="XMLID_714_" class="st0" d="M822.6-28.2L822.6-28.2L822.6-28.2z"/>
				<path id="XMLID_713_" class="st0" d="M823.5-28.2L823.5-28.2L823.5-28.2z"/>
				<path id="XMLID_712_" class="st0" d="M824.5-28.2L824.5-28.2L824.5-28.2z"/>
				<path id="XMLID_711_" class="st0" d="M825.5-28.2L825.5-28.2L825.5-28.2z"/>
				<path id="XMLID_710_" class="st0" d="M826.5-28.2L826.5-28.2L826.5-28.2z"/>
				<path id="XMLID_709_" class="st0" d="M827.5-28.2L827.5-28.2L827.5-28.2z"/>
				<path id="XMLID_708_" class="st0" d="M828.4-28.2L828.4-28.2L828.4-28.2z"/>
				<path id="XMLID_707_" class="st0" d="M829.4-28.2L829.4-28.2L829.4-28.2z"/>
				<path id="XMLID_706_" class="st0" d="M830.4-28.2L830.4-28.2L830.4-28.2z"/>
				<path id="XMLID_705_" class="st0" d="M831.4-28.2L831.4-28.2L831.4-28.2z"/>
				<path id="XMLID_704_" class="st0" d="M832.4-28.2L832.4-28.2L832.4-28.2z"/>
				<path id="XMLID_703_" class="st0" d="M833.3-28.2L833.3-28.2L833.3-28.2z"/>
				<path id="XMLID_702_" class="st0" d="M834.3-28.2L834.3-28.2L834.3-28.2z"/>
				<path id="XMLID_701_" class="st0" d="M835.3-28.2L835.3-28.2L835.3-28.2z"/>
				<path id="XMLID_700_" class="st0" d="M836.3-28.2L836.3-28.2L836.3-28.2z"/>
				<path id="XMLID_699_" class="st0" d="M837.3-28.2L837.3-28.2L837.3-28.2z"/>
				<path id="XMLID_698_" class="st0" d="M838.2-28.2L838.2-28.2L838.2-28.2z"/>
				<path id="XMLID_697_" class="st0" d="M839.2-28.2L839.2-28.2L839.2-28.2z"/>
				<path id="XMLID_696_" class="st0" d="M840.2-28.2L840.2-28.2L840.2-28.2z"/>
				<path id="XMLID_695_" class="st0" d="M841.2-28.2L841.2-28.2L841.2-28.2z"/>
				<path id="XMLID_694_" class="st0" d="M842.2-28.2L842.2-28.2L842.2-28.2z"/>
				<path id="XMLID_693_" class="st0" d="M843.1-28.2L843.1-28.2L843.1-28.2z"/>
				<path id="XMLID_692_" class="st0" d="M844.1-28.2L844.1-28.2L844.1-28.2z"/>
				<path id="XMLID_691_" class="st0" d="M845.1-28.2L845.1-28.2L845.1-28.2z"/>
				<path id="XMLID_690_" class="st0" d="M846.1-28.2L846.1-28.2L846.1-28.2z"/>
				<path id="XMLID_689_" class="st0" d="M847.1-28.2L847.1-28.2L847.1-28.2z"/>
				<path id="XMLID_688_" class="st0" d="M848.1-28.2L848.1-28.2L848.1-28.2z"/>
				<path id="XMLID_687_" class="st0" d="M849-28.2L849-28.2L849-28.2z"/>
				<path id="XMLID_686_" class="st0" d="M850-28.2L850-28.2L850-28.2z"/>
				<path id="XMLID_685_" class="st0" d="M851-28.2L851-28.2L851-28.2z"/>
				<path id="XMLID_684_" class="st0" d="M852-28.2L852-28.2L852-28.2z"/>
				<path id="XMLID_683_" class="st0" d="M853-28.2L853-28.2L853-28.2z"/>
				<path id="XMLID_682_" class="st0" d="M853.9-28.2L853.9-28.2L853.9-28.2z"/>
				<path id="XMLID_681_" class="st0" d="M854.9-28.2L854.9-28.2L854.9-28.2z"/>
				<path id="XMLID_680_" class="st0" d="M855.9-28.2L855.9-28.2L855.9-28.2z"/>
				<path id="XMLID_679_" class="st0" d="M856.9-28.2L856.9-28.2L856.9-28.2z"/>
				<path id="XMLID_678_" class="st0" d="M857.9-28.2L857.9-28.2L857.9-28.2z"/>
				<path id="XMLID_677_" class="st0" d="M858.8-28.2L858.8-28.2L858.8-28.2z"/>
				<path id="XMLID_676_" class="st0" d="M859.8-28.2L859.8-28.2L859.8-28.2z"/>
				<path id="XMLID_675_" class="st0" d="M860.8-28.2L860.8-28.2L860.8-28.2z"/>
				<path id="XMLID_674_" class="st0" d="M861.8-28.2L861.8-28.2L861.8-28.2z"/>
				<path id="XMLID_673_" class="st0" d="M861.8-28.2L861.8-28.2L861.8-28.2z"/>
			</g>
			<rect id="XMLID_671_" x="649" y="-32.9" class="st0" width="212.8" height="9.3"/>
		</g>
		<g id="XMLID_448_">
			<g id="XMLID_450_">
				<path id="XMLID_669_" class="st0" d="M717.6,22.2L717.6,22.2L717.6,22.2z"/>
				<path id="XMLID_668_" class="st0" d="M718.2,22.2L718.2,22.2L718.2,22.2z"/>
				<path id="XMLID_667_" class="st0" d="M718.9,22.2L718.9,22.2L718.9,22.2z"/>
				<path id="XMLID_666_" class="st0" d="M719.6,22.2L719.6,22.2L719.6,22.2z"/>
				<path id="XMLID_665_" class="st0" d="M720.2,22.2L720.2,22.2L720.2,22.2z"/>
				<path id="XMLID_664_" class="st0" d="M720.9,22.2L720.9,22.2L720.9,22.2z"/>
				<path id="XMLID_663_" class="st0" d="M721.5,22.2L721.5,22.2L721.5,22.2z"/>
				<path id="XMLID_662_" class="st0" d="M722.2,22.2L722.2,22.2L722.2,22.2z"/>
				<path id="XMLID_661_" class="st0" d="M722.9,22.2L722.9,22.2L722.9,22.2z"/>
				<path id="XMLID_660_" class="st0" d="M723.5,22.2L723.5,22.2L723.5,22.2z"/>
				<path id="XMLID_659_" class="st0" d="M724.2,22.2L724.2,22.2L724.2,22.2z"/>
				<path id="XMLID_658_" class="st0" d="M724.9,22.2L724.9,22.2L724.9,22.2z"/>
				<path id="XMLID_657_" class="st0" d="M725.5,22.2L725.5,22.2L725.5,22.2z"/>
				<path id="XMLID_656_" class="st0" d="M726.2,22.2L726.2,22.2L726.2,22.2z"/>
				<path id="XMLID_655_" class="st0" d="M726.9,22.2L726.9,22.2L726.9,22.2z"/>
				<path id="XMLID_654_" class="st0" d="M727.5,22.2L727.5,22.2L727.5,22.2z"/>
				<path id="XMLID_653_" class="st0" d="M728.2,22.2L728.2,22.2L728.2,22.2z"/>
				<path id="XMLID_652_" class="st0" d="M728.9,22.2L728.9,22.2L728.9,22.2z"/>
				<path id="XMLID_651_" class="st0" d="M729.5,22.2L729.5,22.2L729.5,22.2z"/>
				<path id="XMLID_650_" class="st0" d="M730.2,22.2L730.2,22.2L730.2,22.2z"/>
				<path id="XMLID_649_" class="st0" d="M730.9,22.2L730.9,22.2L730.9,22.2z"/>
				<path id="XMLID_648_" class="st0" d="M731.5,22.2L731.5,22.2L731.5,22.2z"/>
				<path id="XMLID_647_" class="st0" d="M732.2,22.2L732.2,22.2L732.2,22.2z"/>
				<path id="XMLID_646_" class="st0" d="M732.8,22.2L732.8,22.2L732.8,22.2z"/>
				<path id="XMLID_645_" class="st0" d="M733.5,22.2L733.5,22.2L733.5,22.2z"/>
				<path id="XMLID_644_" class="st0" d="M734.2,22.2L734.2,22.2L734.2,22.2z"/>
				<path id="XMLID_643_" class="st0" d="M734.8,22.2L734.8,22.2L734.8,22.2z"/>
				<path id="XMLID_642_" class="st0" d="M735.5,22.2L735.5,22.2L735.5,22.2z"/>
				<path id="XMLID_641_" class="st0" d="M736.2,22.2L736.2,22.2L736.2,22.2z"/>
				<path id="XMLID_640_" class="st0" d="M736.8,22.2L736.8,22.2L736.8,22.2z"/>
				<path id="XMLID_639_" class="st0" d="M737.5,22.2L737.5,22.2L737.5,22.2z"/>
				<path id="XMLID_638_" class="st0" d="M738.2,22.2L738.2,22.2L738.2,22.2z"/>
				<path id="XMLID_637_" class="st0" d="M738.8,22.2L738.8,22.2L738.8,22.2z"/>
				<path id="XMLID_636_" class="st0" d="M739.5,22.2L739.5,22.2L739.5,22.2z"/>
				<path id="XMLID_635_" class="st0" d="M740.2,22.2L740.2,22.2L740.2,22.2z"/>
				<path id="XMLID_634_" class="st0" d="M740.8,22.2L740.8,22.2L740.8,22.2z"/>
				<path id="XMLID_633_" class="st0" d="M741.5,22.2L741.5,22.2L741.5,22.2z"/>
				<path id="XMLID_632_" class="st0" d="M742.2,22.2L742.2,22.2L742.2,22.2z"/>
				<path id="XMLID_631_" class="st0" d="M742.8,22.2L742.8,22.2L742.8,22.2z"/>
				<path id="XMLID_630_" class="st0" d="M743.5,22.2L743.5,22.2L743.5,22.2z"/>
				<path id="XMLID_629_" class="st0" d="M744.1,22.2L744.1,22.2L744.1,22.2z"/>
				<path id="XMLID_628_" class="st0" d="M744.8,22.2L744.8,22.2L744.8,22.2z"/>
				<path id="XMLID_627_" class="st0" d="M745.5,22.2L745.5,22.2L745.5,22.2z"/>
				<path id="XMLID_626_" class="st0" d="M746.1,22.2L746.1,22.2L746.1,22.2z"/>
				<path id="XMLID_625_" class="st0" d="M746.8,22.2L746.8,22.2L746.8,22.2z"/>
				<path id="XMLID_624_" class="st0" d="M747.5,22.2L747.5,22.2L747.5,22.2z"/>
				<path id="XMLID_623_" class="st0" d="M748.1,22.2L748.1,22.2L748.1,22.2z"/>
				<path id="XMLID_622_" class="st0" d="M748.8,22.2L748.8,22.2L748.8,22.2z"/>
				<path id="XMLID_621_" class="st0" d="M749.5,22.2L749.5,22.2L749.5,22.2z"/>
				<path id="XMLID_620_" class="st0" d="M750.1,22.2L750.1,22.2L750.1,22.2z"/>
				<path id="XMLID_619_" class="st0" d="M750.8,22.2L750.8,22.2L750.8,22.2z"/>
				<path id="XMLID_618_" class="st0" d="M751.5,22.2L751.5,22.2L751.5,22.2z"/>
				<path id="XMLID_617_" class="st0" d="M752.1,22.2L752.1,22.2L752.1,22.2z"/>
				<path id="XMLID_616_" class="st0" d="M752.8,22.2L752.8,22.2L752.8,22.2z"/>
				<path id="XMLID_615_" class="st0" d="M753.4,22.2L753.4,22.2L753.4,22.2z"/>
				<path id="XMLID_614_" class="st0" d="M754.1,22.2L754.1,22.2L754.1,22.2z"/>
				<path id="XMLID_613_" class="st0" d="M754.8,22.2L754.8,22.2L754.8,22.2z"/>
				<path id="XMLID_612_" class="st0" d="M755.4,22.2L755.4,22.2L755.4,22.2z"/>
				<path id="XMLID_611_" class="st0" d="M756.1,22.2L756.1,22.2L756.1,22.2z"/>
				<path id="XMLID_610_" class="st0" d="M756.8,22.2L756.8,22.2L756.8,22.2z"/>
				<path id="XMLID_609_" class="st0" d="M757.4,22.2L757.4,22.2L757.4,22.2z"/>
				<path id="XMLID_608_" class="st0" d="M758.1,22.2L758.1,22.2L758.1,22.2z"/>
				<path id="XMLID_607_" class="st0" d="M758.8,22.2L758.8,22.2L758.8,22.2z"/>
				<path id="XMLID_606_" class="st0" d="M759.4,22.2L759.4,22.2L759.4,22.2z"/>
				<path id="XMLID_605_" class="st0" d="M760.1,22.2L760.1,22.2L760.1,22.2z"/>
				<path id="XMLID_604_" class="st0" d="M760.8,22.2L760.8,22.2L760.8,22.2z"/>
				<path id="XMLID_603_" class="st0" d="M761.4,22.2L761.4,22.2L761.4,22.2z"/>
				<path id="XMLID_602_" class="st0" d="M762.1,22.2L762.1,22.2L762.1,22.2z"/>
				<path id="XMLID_601_" class="st0" d="M762.8,22.2L762.8,22.2L762.8,22.2z"/>
				<path id="XMLID_600_" class="st0" d="M763.4,22.2L763.4,22.2L763.4,22.2z"/>
				<path id="XMLID_599_" class="st0" d="M764.1,22.2L764.1,22.2L764.1,22.2z"/>
				<path id="XMLID_598_" class="st0" d="M764.7,22.2L764.7,22.2L764.7,22.2z"/>
				<path id="XMLID_597_" class="st0" d="M765.4,22.2L765.4,22.2L765.4,22.2z"/>
				<path id="XMLID_596_" class="st0" d="M766.1,22.2L766.1,22.2L766.1,22.2z"/>
				<path id="XMLID_595_" class="st0" d="M766.7,22.2L766.7,22.2L766.7,22.2z"/>
				<path id="XMLID_594_" class="st0" d="M767.4,22.2L767.4,22.2L767.4,22.2z"/>
				<path id="XMLID_593_" class="st0" d="M768.1,22.2L768.1,22.2L768.1,22.2z"/>
				<path id="XMLID_592_" class="st0" d="M768.7,22.2L768.7,22.2L768.7,22.2z"/>
				<path id="XMLID_591_" class="st0" d="M769.4,22.2L769.4,22.2L769.4,22.2z"/>
				<path id="XMLID_590_" class="st0" d="M770.1,22.2L770.1,22.2L770.1,22.2z"/>
				<path id="XMLID_589_" class="st0" d="M770.7,22.2L770.7,22.2L770.7,22.2z"/>
				<path id="XMLID_588_" class="st0" d="M771.4,22.2L771.4,22.2L771.4,22.2z"/>
				<path id="XMLID_587_" class="st0" d="M772.1,22.2L772.1,22.2L772.1,22.2z"/>
				<path id="XMLID_586_" class="st0" d="M772.7,22.2L772.7,22.2L772.7,22.2z"/>
				<path id="XMLID_585_" class="st0" d="M773.4,22.2L773.4,22.2L773.4,22.2z"/>
				<path id="XMLID_584_" class="st0" d="M774.1,22.2L774.1,22.2L774.1,22.2z"/>
				<path id="XMLID_583_" class="st0" d="M774.7,22.2L774.7,22.2L774.7,22.2z"/>
				<path id="XMLID_582_" class="st0" d="M775.4,22.2L775.4,22.2L775.4,22.2z"/>
				<path id="XMLID_581_" class="st0" d="M776,22.2L776,22.2L776,22.2z"/>
				<path id="XMLID_580_" class="st0" d="M776.7,22.2L776.7,22.2L776.7,22.2z"/>
				<path id="XMLID_579_" class="st0" d="M777.4,22.2L777.4,22.2L777.4,22.2z"/>
				<path id="XMLID_578_" class="st0" d="M778,22.2L778,22.2L778,22.2z"/>
				<path id="XMLID_577_" class="st0" d="M778.7,22.2L778.7,22.2L778.7,22.2z"/>
				<path id="XMLID_576_" class="st0" d="M779.4,22.2L779.4,22.2L779.4,22.2z"/>
				<path id="XMLID_575_" class="st0" d="M780,22.2L780,22.2L780,22.2z"/>
				<path id="XMLID_574_" class="st0" d="M780.7,22.2L780.7,22.2L780.7,22.2z"/>
				<path id="XMLID_573_" class="st0" d="M781.4,22.2L781.4,22.2L781.4,22.2z"/>
				<path id="XMLID_572_" class="st0" d="M782,22.2L782,22.2L782,22.2z"/>
				<path id="XMLID_571_" class="st0" d="M782.7,22.2L782.7,22.2L782.7,22.2z"/>
				<path id="XMLID_570_" class="st0" d="M783.4,22.2L783.4,22.2L783.4,22.2z"/>
				<path id="XMLID_569_" class="st0" d="M784,22.2L784,22.2L784,22.2z"/>
				<path id="XMLID_568_" class="st0" d="M784.7,22.2L784.7,22.2L784.7,22.2z"/>
				<path id="XMLID_567_" class="st0" d="M785.4,22.2L785.4,22.2L785.4,22.2z"/>
				<path id="XMLID_566_" class="st0" d="M786,22.2L786,22.2L786,22.2z"/>
				<path id="XMLID_565_" class="st0" d="M786.7,22.2L786.7,22.2L786.7,22.2z"/>
				<path id="XMLID_564_" class="st0" d="M787.3,22.2L787.3,22.2L787.3,22.2z"/>
				<path id="XMLID_563_" class="st0" d="M788,22.2L788,22.2L788,22.2z"/>
				<path id="XMLID_562_" class="st0" d="M788.7,22.2L788.7,22.2L788.7,22.2z"/>
				<path id="XMLID_561_" class="st0" d="M789.3,22.2L789.3,22.2L789.3,22.2z"/>
				<path id="XMLID_560_" class="st0" d="M790,22.2L790,22.2L790,22.2z"/>
				<path id="XMLID_559_" class="st0" d="M790.7,22.2L790.7,22.2L790.7,22.2z"/>
				<path id="XMLID_558_" class="st0" d="M791.3,22.2L791.3,22.2L791.3,22.2z"/>
				<path id="XMLID_557_" class="st0" d="M792,22.2L792,22.2L792,22.2z"/>
				<path id="XMLID_556_" class="st0" d="M792.7,22.2L792.7,22.2L792.7,22.2z"/>
				<path id="XMLID_555_" class="st0" d="M793.3,22.2L793.3,22.2L793.3,22.2z"/>
				<path id="XMLID_554_" class="st0" d="M794,22.2L794,22.2L794,22.2z"/>
				<path id="XMLID_553_" class="st0" d="M794.7,22.2L794.7,22.2L794.7,22.2z"/>
				<path id="XMLID_552_" class="st0" d="M795.3,22.2L795.3,22.2L795.3,22.2z"/>
				<path id="XMLID_551_" class="st0" d="M796,22.2L796,22.2L796,22.2z"/>
				<path id="XMLID_550_" class="st0" d="M796.6,22.2L796.6,22.2L796.6,22.2z"/>
				<path id="XMLID_549_" class="st0" d="M797.3,22.2L797.3,22.2L797.3,22.2z"/>
				<path id="XMLID_548_" class="st0" d="M798,22.2L798,22.2L798,22.2z"/>
				<path id="XMLID_547_" class="st0" d="M798.6,22.2L798.6,22.2L798.6,22.2z"/>
				<path id="XMLID_546_" class="st0" d="M799.3,22.2L799.3,22.2L799.3,22.2z"/>
				<path id="XMLID_545_" class="st0" d="M800,22.2L800,22.2L800,22.2z"/>
				<path id="XMLID_544_" class="st0" d="M800.6,22.2L800.6,22.2L800.6,22.2z"/>
				<path id="XMLID_543_" class="st0" d="M801.3,22.2L801.3,22.2L801.3,22.2z"/>
				<path id="XMLID_542_" class="st0" d="M802,22.2L802,22.2L802,22.2z"/>
				<path id="XMLID_541_" class="st0" d="M802.6,22.2L802.6,22.2L802.6,22.2z"/>
				<path id="XMLID_540_" class="st0" d="M803.3,22.2L803.3,22.2L803.3,22.2z"/>
				<path id="XMLID_539_" class="st0" d="M804,22.2L804,22.2L804,22.2z"/>
				<path id="XMLID_538_" class="st0" d="M804.6,22.2L804.6,22.2L804.6,22.2z"/>
				<path id="XMLID_537_" class="st0" d="M805.3,22.2L805.3,22.2L805.3,22.2z"/>
				<path id="XMLID_536_" class="st0" d="M806,22.2L806,22.2L806,22.2z"/>
				<path id="XMLID_535_" class="st0" d="M806.6,22.2L806.6,22.2L806.6,22.2z"/>
				<path id="XMLID_534_" class="st0" d="M807.3,22.2L807.3,22.2L807.3,22.2z"/>
				<path id="XMLID_533_" class="st0" d="M807.9,22.2L807.9,22.2L807.9,22.2z"/>
				<path id="XMLID_532_" class="st0" d="M808.6,22.2L808.6,22.2L808.6,22.2z"/>
				<path id="XMLID_531_" class="st0" d="M809.3,22.2L809.3,22.2L809.3,22.2z"/>
				<path id="XMLID_530_" class="st0" d="M809.9,22.2L809.9,22.2L809.9,22.2z"/>
				<path id="XMLID_529_" class="st0" d="M810.6,22.2L810.6,22.2L810.6,22.2z"/>
				<path id="XMLID_528_" class="st0" d="M811.3,22.2L811.3,22.2L811.3,22.2z"/>
				<path id="XMLID_527_" class="st0" d="M811.9,22.2L811.9,22.2L811.9,22.2z"/>
				<path id="XMLID_526_" class="st0" d="M812.6,22.2L812.6,22.2L812.6,22.2z"/>
				<path id="XMLID_525_" class="st0" d="M813.3,22.2L813.3,22.2L813.3,22.2z"/>
				<path id="XMLID_524_" class="st0" d="M813.9,22.2L813.9,22.2L813.9,22.2z"/>
				<path id="XMLID_523_" class="st0" d="M814.6,22.2L814.6,22.2L814.6,22.2z"/>
				<path id="XMLID_522_" class="st0" d="M815.3,22.2L815.3,22.2L815.3,22.2z"/>
				<path id="XMLID_521_" class="st0" d="M815.9,22.2L815.9,22.2L815.9,22.2z"/>
				<path id="XMLID_520_" class="st0" d="M816.6,22.2L816.6,22.2L816.6,22.2z"/>
				<path id="XMLID_519_" class="st0" d="M817.3,22.2L817.3,22.2L817.3,22.2z"/>
				<path id="XMLID_518_" class="st0" d="M817.9,22.2L817.9,22.2L817.9,22.2z"/>
				<path id="XMLID_517_" class="st0" d="M818.6,22.2L818.6,22.2L818.6,22.2z"/>
				<path id="XMLID_516_" class="st0" d="M819.2,22.2L819.2,22.2L819.2,22.2z"/>
				<path id="XMLID_515_" class="st0" d="M819.9,22.2L819.9,22.2L819.9,22.2z"/>
				<path id="XMLID_514_" class="st0" d="M820.6,22.2L820.6,22.2L820.6,22.2z"/>
				<path id="XMLID_513_" class="st0" d="M821.2,22.2L821.2,22.2L821.2,22.2z"/>
				<path id="XMLID_512_" class="st0" d="M821.9,22.2L821.9,22.2L821.9,22.2z"/>
				<path id="XMLID_511_" class="st0" d="M822.6,22.2L822.6,22.2L822.6,22.2z"/>
				<path id="XMLID_510_" class="st0" d="M823.2,22.2L823.2,22.2L823.2,22.2z"/>
				<path id="XMLID_509_" class="st0" d="M823.9,22.2L823.9,22.2L823.9,22.2z"/>
				<path id="XMLID_508_" class="st0" d="M824.6,22.2L824.6,22.2L824.6,22.2z"/>
				<path id="XMLID_507_" class="st0" d="M825.2,22.2L825.2,22.2L825.2,22.2z"/>
				<path id="XMLID_506_" class="st0" d="M825.9,22.2L825.9,22.2L825.9,22.2z"/>
				<path id="XMLID_505_" class="st0" d="M826.6,22.2L826.6,22.2L826.6,22.2z"/>
				<path id="XMLID_504_" class="st0" d="M827.2,22.2L827.2,22.2L827.2,22.2z"/>
				<path id="XMLID_503_" class="st0" d="M827.9,22.2L827.9,22.2L827.9,22.2z"/>
				<path id="XMLID_502_" class="st0" d="M828.5,22.2L828.5,22.2L828.5,22.2z"/>
				<path id="XMLID_501_" class="st0" d="M829.2,22.2L829.2,22.2L829.2,22.2z"/>
				<path id="XMLID_500_" class="st0" d="M829.9,22.2L829.9,22.2L829.9,22.2z"/>
				<path id="XMLID_499_" class="st0" d="M830.5,22.2L830.5,22.2L830.5,22.2z"/>
				<path id="XMLID_498_" class="st0" d="M831.2,22.2L831.2,22.2L831.2,22.2z"/>
				<path id="XMLID_497_" class="st0" d="M831.9,22.2L831.9,22.2L831.9,22.2z"/>
				<path id="XMLID_496_" class="st0" d="M832.5,22.2L832.5,22.2L832.5,22.2z"/>
				<path id="XMLID_495_" class="st0" d="M833.2,22.2L833.2,22.2L833.2,22.2z"/>
				<path id="XMLID_494_" class="st0" d="M833.9,22.2L833.9,22.2L833.9,22.2z"/>
				<path id="XMLID_493_" class="st0" d="M834.5,22.2L834.5,22.2L834.5,22.2z"/>
				<path id="XMLID_492_" class="st0" d="M835.2,22.2L835.2,22.2L835.2,22.2z"/>
				<path id="XMLID_491_" class="st0" d="M835.9,22.2L835.9,22.2L835.9,22.2z"/>
				<path id="XMLID_490_" class="st0" d="M836.5,22.2L836.5,22.2L836.5,22.2z"/>
				<path id="XMLID_489_" class="st0" d="M837.2,22.2L837.2,22.2L837.2,22.2z"/>
				<path id="XMLID_488_" class="st0" d="M837.9,22.2L837.9,22.2L837.9,22.2z"/>
				<path id="XMLID_487_" class="st0" d="M838.5,22.2L838.5,22.2L838.5,22.2z"/>
				<path id="XMLID_486_" class="st0" d="M839.2,22.2L839.2,22.2L839.2,22.2z"/>
				<path id="XMLID_485_" class="st0" d="M839.8,22.2L839.8,22.2L839.8,22.2z"/>
				<path id="XMLID_484_" class="st0" d="M840.5,22.2L840.5,22.2L840.5,22.2z"/>
				<path id="XMLID_483_" class="st0" d="M841.2,22.2L841.2,22.2L841.2,22.2z"/>
				<path id="XMLID_482_" class="st0" d="M841.8,22.2L841.8,22.2L841.8,22.2z"/>
				<path id="XMLID_481_" class="st0" d="M842.5,22.2L842.5,22.2L842.5,22.2z"/>
				<path id="XMLID_480_" class="st0" d="M843.2,22.2L843.2,22.2L843.2,22.2z"/>
				<path id="XMLID_479_" class="st0" d="M843.8,22.2L843.8,22.2L843.8,22.2z"/>
				<path id="XMLID_478_" class="st0" d="M844.5,22.2L844.5,22.2L844.5,22.2z"/>
				<path id="XMLID_477_" class="st0" d="M845.2,22.2L845.2,22.2L845.2,22.2z"/>
				<path id="XMLID_476_" class="st0" d="M845.8,22.2L845.8,22.2L845.8,22.2z"/>
				<path id="XMLID_475_" class="st0" d="M846.5,22.2L846.5,22.2L846.5,22.2z"/>
				<path id="XMLID_474_" class="st0" d="M847.2,22.2L847.2,22.2L847.2,22.2z"/>
				<path id="XMLID_473_" class="st0" d="M847.8,22.2L847.8,22.2L847.8,22.2z"/>
				<path id="XMLID_472_" class="st0" d="M848.5,22.2L848.5,22.2L848.5,22.2z"/>
				<path id="XMLID_471_" class="st0" d="M849.2,22.2L849.2,22.2L849.2,22.2z"/>
				<path id="XMLID_470_" class="st0" d="M849.8,22.2L849.8,22.2L849.8,22.2z"/>
				<path id="XMLID_469_" class="st0" d="M850.5,22.2L850.5,22.2L850.5,22.2z"/>
				<path id="XMLID_468_" class="st0" d="M851.1,22.2L851.1,22.2L851.1,22.2z"/>
				<path id="XMLID_467_" class="st0" d="M851.8,22.2L851.8,22.2L851.8,22.2z"/>
				<path id="XMLID_466_" class="st0" d="M852.5,22.2L852.5,22.2L852.5,22.2z"/>
				<path id="XMLID_465_" class="st0" d="M853.1,22.2L853.1,22.2L853.1,22.2z"/>
				<path id="XMLID_464_" class="st0" d="M853.8,22.2L853.8,22.2L853.8,22.2z"/>
				<path id="XMLID_463_" class="st0" d="M854.5,22.2L854.5,22.2L854.5,22.2z"/>
				<path id="XMLID_462_" class="st0" d="M855.1,22.2L855.1,22.2L855.1,22.2z"/>
				<path id="XMLID_461_" class="st0" d="M855.8,22.2L855.8,22.2L855.8,22.2z"/>
				<path id="XMLID_460_" class="st0" d="M856.5,22.2L856.5,22.2L856.5,22.2z"/>
				<path id="XMLID_459_" class="st0" d="M857.1,22.2L857.1,22.2L857.1,22.2z"/>
				<path id="XMLID_458_" class="st0" d="M857.8,22.2L857.8,22.2L857.8,22.2z"/>
				<path id="XMLID_457_" class="st0" d="M858.5,22.2L858.5,22.2L858.5,22.2z"/>
				<path id="XMLID_456_" class="st0" d="M859.1,22.2L859.1,22.2L859.1,22.2z"/>
				<path id="XMLID_455_" class="st0" d="M859.8,22.2L859.8,22.2L859.8,22.2z"/>
				<path id="XMLID_454_" class="st0" d="M860.4,22.2L860.4,22.2L860.4,22.2z"/>
				<path id="XMLID_453_" class="st0" d="M861.1,22.2L861.1,22.2L861.1,22.2z"/>
				<path id="XMLID_452_" class="st0" d="M861.8,22.2L861.8,22.2L861.8,22.2z"/>
				<path id="XMLID_451_" class="st0" d="M861.8,22.2L861.8,22.2L861.8,22.2z"/>
			</g>
			<rect id="XMLID_449_" x="717.6" y="17.6" class="st0" width="144.2" height="9.3"/>
		</g>
		<g id="XMLID_226_">
			<g id="XMLID_228_">
				<path id="XMLID_447_" class="st0" d="M717.6,72.6L717.6,72.6L717.6,72.6z"/>
				<path id="XMLID_446_" class="st0" d="M718.2,72.6L718.2,72.6L718.2,72.6z"/>
				<path id="XMLID_445_" class="st0" d="M718.9,72.6L718.9,72.6L718.9,72.6z"/>
				<path id="XMLID_444_" class="st0" d="M719.6,72.6L719.6,72.6L719.6,72.6z"/>
				<path id="XMLID_443_" class="st0" d="M720.2,72.6L720.2,72.6L720.2,72.6z"/>
				<path id="XMLID_442_" class="st0" d="M720.9,72.6L720.9,72.6L720.9,72.6z"/>
				<path id="XMLID_441_" class="st0" d="M721.5,72.6L721.5,72.6L721.5,72.6z"/>
				<path id="XMLID_440_" class="st0" d="M722.2,72.6L722.2,72.6L722.2,72.6z"/>
				<path id="XMLID_439_" class="st0" d="M722.9,72.6L722.9,72.6L722.9,72.6z"/>
				<path id="XMLID_438_" class="st0" d="M723.5,72.6L723.5,72.6L723.5,72.6z"/>
				<path id="XMLID_437_" class="st0" d="M724.2,72.6L724.2,72.6L724.2,72.6z"/>
				<path id="XMLID_436_" class="st0" d="M724.9,72.6L724.9,72.6L724.9,72.6z"/>
				<path id="XMLID_435_" class="st0" d="M725.5,72.6L725.5,72.6L725.5,72.6z"/>
				<path id="XMLID_434_" class="st0" d="M726.2,72.6L726.2,72.6L726.2,72.6z"/>
				<path id="XMLID_433_" class="st0" d="M726.9,72.6L726.9,72.6L726.9,72.6z"/>
				<path id="XMLID_432_" class="st0" d="M727.5,72.6L727.5,72.6L727.5,72.6z"/>
				<path id="XMLID_431_" class="st0" d="M728.2,72.6L728.2,72.6L728.2,72.6z"/>
				<path id="XMLID_430_" class="st0" d="M728.9,72.6L728.9,72.6L728.9,72.6z"/>
				<path id="XMLID_429_" class="st0" d="M729.5,72.6L729.5,72.6L729.5,72.6z"/>
				<path id="XMLID_428_" class="st0" d="M730.2,72.6L730.2,72.6L730.2,72.6z"/>
				<path id="XMLID_427_" class="st0" d="M730.9,72.6L730.9,72.6L730.9,72.6z"/>
				<path id="XMLID_426_" class="st0" d="M731.5,72.6L731.5,72.6L731.5,72.6z"/>
				<path id="XMLID_425_" class="st0" d="M732.2,72.6L732.2,72.6L732.2,72.6z"/>
				<path id="XMLID_424_" class="st0" d="M732.8,72.6L732.8,72.6L732.8,72.6z"/>
				<path id="XMLID_423_" class="st0" d="M733.5,72.6L733.5,72.6L733.5,72.6z"/>
				<path id="XMLID_422_" class="st0" d="M734.2,72.6L734.2,72.6L734.2,72.6z"/>
				<path id="XMLID_421_" class="st0" d="M734.8,72.6L734.8,72.6L734.8,72.6z"/>
				<path id="XMLID_420_" class="st0" d="M735.5,72.6L735.5,72.6L735.5,72.6z"/>
				<path id="XMLID_419_" class="st0" d="M736.2,72.6L736.2,72.6L736.2,72.6z"/>
				<path id="XMLID_418_" class="st0" d="M736.8,72.6L736.8,72.6L736.8,72.6z"/>
				<path id="XMLID_417_" class="st0" d="M737.5,72.6L737.5,72.6L737.5,72.6z"/>
				<path id="XMLID_416_" class="st0" d="M738.2,72.6L738.2,72.6L738.2,72.6z"/>
				<path id="XMLID_415_" class="st0" d="M738.8,72.6L738.8,72.6L738.8,72.6z"/>
				<path id="XMLID_414_" class="st0" d="M739.5,72.6L739.5,72.6L739.5,72.6z"/>
				<path id="XMLID_413_" class="st0" d="M740.2,72.6L740.2,72.6L740.2,72.6z"/>
				<path id="XMLID_412_" class="st0" d="M740.8,72.6L740.8,72.6L740.8,72.6z"/>
				<path id="XMLID_411_" class="st0" d="M741.5,72.6L741.5,72.6L741.5,72.6z"/>
				<path id="XMLID_410_" class="st0" d="M742.2,72.6L742.2,72.6L742.2,72.6z"/>
				<path id="XMLID_409_" class="st0" d="M742.8,72.6L742.8,72.6L742.8,72.6z"/>
				<path id="XMLID_408_" class="st0" d="M743.5,72.6L743.5,72.6L743.5,72.6z"/>
				<path id="XMLID_407_" class="st0" d="M744.1,72.6L744.1,72.6L744.1,72.6z"/>
				<path id="XMLID_406_" class="st0" d="M744.8,72.6L744.8,72.6L744.8,72.6z"/>
				<path id="XMLID_405_" class="st0" d="M745.5,72.6L745.5,72.6L745.5,72.6z"/>
				<path id="XMLID_404_" class="st0" d="M746.1,72.6L746.1,72.6L746.1,72.6z"/>
				<path id="XMLID_403_" class="st0" d="M746.8,72.6L746.8,72.6L746.8,72.6z"/>
				<path id="XMLID_402_" class="st0" d="M747.5,72.6L747.5,72.6L747.5,72.6z"/>
				<path id="XMLID_401_" class="st0" d="M748.1,72.6L748.1,72.6L748.1,72.6z"/>
				<path id="XMLID_400_" class="st0" d="M748.8,72.6L748.8,72.6L748.8,72.6z"/>
				<path id="XMLID_399_" class="st0" d="M749.5,72.6L749.5,72.6L749.5,72.6z"/>
				<path id="XMLID_398_" class="st0" d="M750.1,72.6L750.1,72.6L750.1,72.6z"/>
				<path id="XMLID_397_" class="st0" d="M750.8,72.6L750.8,72.6L750.8,72.6z"/>
				<path id="XMLID_396_" class="st0" d="M751.5,72.6L751.5,72.6L751.5,72.6z"/>
				<path id="XMLID_395_" class="st0" d="M752.1,72.6L752.1,72.6L752.1,72.6z"/>
				<path id="XMLID_394_" class="st0" d="M752.8,72.6L752.8,72.6L752.8,72.6z"/>
				<path id="XMLID_393_" class="st0" d="M753.4,72.6L753.4,72.6L753.4,72.6z"/>
				<path id="XMLID_392_" class="st0" d="M754.1,72.6L754.1,72.6L754.1,72.6z"/>
				<path id="XMLID_391_" class="st0" d="M754.8,72.6L754.8,72.6L754.8,72.6z"/>
				<path id="XMLID_390_" class="st0" d="M755.4,72.6L755.4,72.6L755.4,72.6z"/>
				<path id="XMLID_389_" class="st0" d="M756.1,72.6L756.1,72.6L756.1,72.6z"/>
				<path id="XMLID_388_" class="st0" d="M756.8,72.6L756.8,72.6L756.8,72.6z"/>
				<path id="XMLID_387_" class="st0" d="M757.4,72.6L757.4,72.6L757.4,72.6z"/>
				<path id="XMLID_386_" class="st0" d="M758.1,72.6L758.1,72.6L758.1,72.6z"/>
				<path id="XMLID_385_" class="st0" d="M758.8,72.6L758.8,72.6L758.8,72.6z"/>
				<path id="XMLID_384_" class="st0" d="M759.4,72.6L759.4,72.6L759.4,72.6z"/>
				<path id="XMLID_383_" class="st0" d="M760.1,72.6L760.1,72.6L760.1,72.6z"/>
				<path id="XMLID_382_" class="st0" d="M760.8,72.6L760.8,72.6L760.8,72.6z"/>
				<path id="XMLID_381_" class="st0" d="M761.4,72.6L761.4,72.6L761.4,72.6z"/>
				<path id="XMLID_380_" class="st0" d="M762.1,72.6L762.1,72.6L762.1,72.6z"/>
				<path id="XMLID_379_" class="st0" d="M762.8,72.6L762.8,72.6L762.8,72.6z"/>
				<path id="XMLID_378_" class="st0" d="M763.4,72.6L763.4,72.6L763.4,72.6z"/>
				<path id="XMLID_377_" class="st0" d="M764.1,72.6L764.1,72.6L764.1,72.6z"/>
				<path id="XMLID_376_" class="st0" d="M764.7,72.6L764.7,72.6L764.7,72.6z"/>
				<path id="XMLID_375_" class="st0" d="M765.4,72.6L765.4,72.6L765.4,72.6z"/>
				<path id="XMLID_374_" class="st0" d="M766.1,72.6L766.1,72.6L766.1,72.6z"/>
				<path id="XMLID_373_" class="st0" d="M766.7,72.6L766.7,72.6L766.7,72.6z"/>
				<path id="XMLID_372_" class="st0" d="M767.4,72.6L767.4,72.6L767.4,72.6z"/>
				<path id="XMLID_371_" class="st0" d="M768.1,72.6L768.1,72.6L768.1,72.6z"/>
				<path id="XMLID_370_" class="st0" d="M768.7,72.6L768.7,72.6L768.7,72.6z"/>
				<path id="XMLID_369_" class="st0" d="M769.4,72.6L769.4,72.6L769.4,72.6z"/>
				<path id="XMLID_368_" class="st0" d="M770.1,72.6L770.1,72.6L770.1,72.6z"/>
				<path id="XMLID_367_" class="st0" d="M770.7,72.6L770.7,72.6L770.7,72.6z"/>
				<path id="XMLID_366_" class="st0" d="M771.4,72.6L771.4,72.6L771.4,72.6z"/>
				<path id="XMLID_365_" class="st0" d="M772.1,72.6L772.1,72.6L772.1,72.6z"/>
				<path id="XMLID_364_" class="st0" d="M772.7,72.6L772.7,72.6L772.7,72.6z"/>
				<path id="XMLID_363_" class="st0" d="M773.4,72.6L773.4,72.6L773.4,72.6z"/>
				<path id="XMLID_362_" class="st0" d="M774.1,72.6L774.1,72.6L774.1,72.6z"/>
				<path id="XMLID_361_" class="st0" d="M774.7,72.6L774.7,72.6L774.7,72.6z"/>
				<path id="XMLID_360_" class="st0" d="M775.4,72.6L775.4,72.6L775.4,72.6z"/>
				<path id="XMLID_359_" class="st0" d="M776,72.6L776,72.6L776,72.6z"/>
				<path id="XMLID_358_" class="st0" d="M776.7,72.6L776.7,72.6L776.7,72.6z"/>
				<path id="XMLID_357_" class="st0" d="M777.4,72.6L777.4,72.6L777.4,72.6z"/>
				<path id="XMLID_356_" class="st0" d="M778,72.6L778,72.6L778,72.6z"/>
				<path id="XMLID_355_" class="st0" d="M778.7,72.6L778.7,72.6L778.7,72.6z"/>
				<path id="XMLID_354_" class="st0" d="M779.4,72.6L779.4,72.6L779.4,72.6z"/>
				<path id="XMLID_353_" class="st0" d="M780,72.6L780,72.6L780,72.6z"/>
				<path id="XMLID_352_" class="st0" d="M780.7,72.6L780.7,72.6L780.7,72.6z"/>
				<path id="XMLID_351_" class="st0" d="M781.4,72.6L781.4,72.6L781.4,72.6z"/>
				<path id="XMLID_350_" class="st0" d="M782,72.6L782,72.6L782,72.6z"/>
				<path id="XMLID_349_" class="st0" d="M782.7,72.6L782.7,72.6L782.7,72.6z"/>
				<path id="XMLID_348_" class="st0" d="M783.4,72.6L783.4,72.6L783.4,72.6z"/>
				<path id="XMLID_347_" class="st0" d="M784,72.6L784,72.6L784,72.6z"/>
				<path id="XMLID_346_" class="st0" d="M784.7,72.6L784.7,72.6L784.7,72.6z"/>
				<path id="XMLID_345_" class="st0" d="M785.4,72.6L785.4,72.6L785.4,72.6z"/>
				<path id="XMLID_344_" class="st0" d="M786,72.6L786,72.6L786,72.6z"/>
				<path id="XMLID_343_" class="st0" d="M786.7,72.6L786.7,72.6L786.7,72.6z"/>
				<path id="XMLID_342_" class="st0" d="M787.3,72.6L787.3,72.6L787.3,72.6z"/>
				<path id="XMLID_341_" class="st0" d="M788,72.6L788,72.6L788,72.6z"/>
				<path id="XMLID_340_" class="st0" d="M788.7,72.6L788.7,72.6L788.7,72.6z"/>
				<path id="XMLID_339_" class="st0" d="M789.3,72.6L789.3,72.6L789.3,72.6z"/>
				<path id="XMLID_338_" class="st0" d="M790,72.6L790,72.6L790,72.6z"/>
				<path id="XMLID_337_" class="st0" d="M790.7,72.6L790.7,72.6L790.7,72.6z"/>
				<path id="XMLID_336_" class="st0" d="M791.3,72.6L791.3,72.6L791.3,72.6z"/>
				<path id="XMLID_335_" class="st0" d="M792,72.6L792,72.6L792,72.6z"/>
				<path id="XMLID_334_" class="st0" d="M792.7,72.6L792.7,72.6L792.7,72.6z"/>
				<path id="XMLID_333_" class="st0" d="M793.3,72.6L793.3,72.6L793.3,72.6z"/>
				<path id="XMLID_332_" class="st0" d="M794,72.6L794,72.6L794,72.6z"/>
				<path id="XMLID_331_" class="st0" d="M794.7,72.6L794.7,72.6L794.7,72.6z"/>
				<path id="XMLID_330_" class="st0" d="M795.3,72.6L795.3,72.6L795.3,72.6z"/>
				<path id="XMLID_329_" class="st0" d="M796,72.6L796,72.6L796,72.6z"/>
				<path id="XMLID_328_" class="st0" d="M796.6,72.6L796.6,72.6L796.6,72.6z"/>
				<path id="XMLID_327_" class="st0" d="M797.3,72.6L797.3,72.6L797.3,72.6z"/>
				<path id="XMLID_326_" class="st0" d="M798,72.6L798,72.6L798,72.6z"/>
				<path id="XMLID_325_" class="st0" d="M798.6,72.6L798.6,72.6L798.6,72.6z"/>
				<path id="XMLID_324_" class="st0" d="M799.3,72.6L799.3,72.6L799.3,72.6z"/>
				<path id="XMLID_323_" class="st0" d="M800,72.6L800,72.6L800,72.6z"/>
				<path id="XMLID_322_" class="st0" d="M800.6,72.6L800.6,72.6L800.6,72.6z"/>
				<path id="XMLID_321_" class="st0" d="M801.3,72.6L801.3,72.6L801.3,72.6z"/>
				<path id="XMLID_320_" class="st0" d="M802,72.6L802,72.6L802,72.6z"/>
				<path id="XMLID_319_" class="st0" d="M802.6,72.6L802.6,72.6L802.6,72.6z"/>
				<path id="XMLID_318_" class="st0" d="M803.3,72.6L803.3,72.6L803.3,72.6z"/>
				<path id="XMLID_317_" class="st0" d="M804,72.6L804,72.6L804,72.6z"/>
				<path id="XMLID_316_" class="st0" d="M804.6,72.6L804.6,72.6L804.6,72.6z"/>
				<path id="XMLID_315_" class="st0" d="M805.3,72.6L805.3,72.6L805.3,72.6z"/>
				<path id="XMLID_314_" class="st0" d="M806,72.6L806,72.6L806,72.6z"/>
				<path id="XMLID_313_" class="st0" d="M806.6,72.6L806.6,72.6L806.6,72.6z"/>
				<path id="XMLID_312_" class="st0" d="M807.3,72.6L807.3,72.6L807.3,72.6z"/>
				<path id="XMLID_311_" class="st0" d="M807.9,72.6L807.9,72.6L807.9,72.6z"/>
				<path id="XMLID_310_" class="st0" d="M808.6,72.6L808.6,72.6L808.6,72.6z"/>
				<path id="XMLID_309_" class="st0" d="M809.3,72.6L809.3,72.6L809.3,72.6z"/>
				<path id="XMLID_308_" class="st0" d="M809.9,72.6L809.9,72.6L809.9,72.6z"/>
				<path id="XMLID_307_" class="st0" d="M810.6,72.6L810.6,72.6L810.6,72.6z"/>
				<path id="XMLID_306_" class="st0" d="M811.3,72.6L811.3,72.6L811.3,72.6z"/>
				<path id="XMLID_305_" class="st0" d="M811.9,72.6L811.9,72.6L811.9,72.6z"/>
				<path id="XMLID_304_" class="st0" d="M812.6,72.6L812.6,72.6L812.6,72.6z"/>
				<path id="XMLID_303_" class="st0" d="M813.3,72.6L813.3,72.6L813.3,72.6z"/>
				<path id="XMLID_302_" class="st0" d="M813.9,72.6L813.9,72.6L813.9,72.6z"/>
				<path id="XMLID_301_" class="st0" d="M814.6,72.6L814.6,72.6L814.6,72.6z"/>
				<path id="XMLID_300_" class="st0" d="M815.3,72.6L815.3,72.6L815.3,72.6z"/>
				<path id="XMLID_299_" class="st0" d="M815.9,72.6L815.9,72.6L815.9,72.6z"/>
				<path id="XMLID_298_" class="st0" d="M816.6,72.6L816.6,72.6L816.6,72.6z"/>
				<path id="XMLID_297_" class="st0" d="M817.3,72.6L817.3,72.6L817.3,72.6z"/>
				<path id="XMLID_296_" class="st0" d="M817.9,72.6L817.9,72.6L817.9,72.6z"/>
				<path id="XMLID_295_" class="st0" d="M818.6,72.6L818.6,72.6L818.6,72.6z"/>
				<path id="XMLID_294_" class="st0" d="M819.2,72.6L819.2,72.6L819.2,72.6z"/>
				<path id="XMLID_293_" class="st0" d="M819.9,72.6L819.9,72.6L819.9,72.6z"/>
				<path id="XMLID_292_" class="st0" d="M820.6,72.6L820.6,72.6L820.6,72.6z"/>
				<path id="XMLID_291_" class="st0" d="M821.2,72.6L821.2,72.6L821.2,72.6z"/>
				<path id="XMLID_290_" class="st0" d="M821.9,72.6L821.9,72.6L821.9,72.6z"/>
				<path id="XMLID_289_" class="st0" d="M822.6,72.6L822.6,72.6L822.6,72.6z"/>
				<path id="XMLID_288_" class="st0" d="M823.2,72.6L823.2,72.6L823.2,72.6z"/>
				<path id="XMLID_287_" class="st0" d="M823.9,72.6L823.9,72.6L823.9,72.6z"/>
				<path id="XMLID_286_" class="st0" d="M824.6,72.6L824.6,72.6L824.6,72.6z"/>
				<path id="XMLID_285_" class="st0" d="M825.2,72.6L825.2,72.6L825.2,72.6z"/>
				<path id="XMLID_284_" class="st0" d="M825.9,72.6L825.9,72.6L825.9,72.6z"/>
				<path id="XMLID_283_" class="st0" d="M826.6,72.6L826.6,72.6L826.6,72.6z"/>
				<path id="XMLID_282_" class="st0" d="M827.2,72.6L827.2,72.6L827.2,72.6z"/>
				<path id="XMLID_281_" class="st0" d="M827.9,72.6L827.9,72.6L827.9,72.6z"/>
				<path id="XMLID_280_" class="st0" d="M828.5,72.6L828.5,72.6L828.5,72.6z"/>
				<path id="XMLID_279_" class="st0" d="M829.2,72.6L829.2,72.6L829.2,72.6z"/>
				<path id="XMLID_278_" class="st0" d="M829.9,72.6L829.9,72.6L829.9,72.6z"/>
				<path id="XMLID_277_" class="st0" d="M830.5,72.6L830.5,72.6L830.5,72.6z"/>
				<path id="XMLID_276_" class="st0" d="M831.2,72.6L831.2,72.6L831.2,72.6z"/>
				<path id="XMLID_275_" class="st0" d="M831.9,72.6L831.9,72.6L831.9,72.6z"/>
				<path id="XMLID_274_" class="st0" d="M832.5,72.6L832.5,72.6L832.5,72.6z"/>
				<path id="XMLID_273_" class="st0" d="M833.2,72.6L833.2,72.6L833.2,72.6z"/>
				<path id="XMLID_272_" class="st0" d="M833.9,72.6L833.9,72.6L833.9,72.6z"/>
				<path id="XMLID_271_" class="st0" d="M834.5,72.6L834.5,72.6L834.5,72.6z"/>
				<path id="XMLID_270_" class="st0" d="M835.2,72.6L835.2,72.6L835.2,72.6z"/>
				<path id="XMLID_269_" class="st0" d="M835.9,72.6L835.9,72.6L835.9,72.6z"/>
				<path id="XMLID_268_" class="st0" d="M836.5,72.6L836.5,72.6L836.5,72.6z"/>
				<path id="XMLID_267_" class="st0" d="M837.2,72.6L837.2,72.6L837.2,72.6z"/>
				<path id="XMLID_266_" class="st0" d="M837.9,72.6L837.9,72.6L837.9,72.6z"/>
				<path id="XMLID_265_" class="st0" d="M838.5,72.6L838.5,72.6L838.5,72.6z"/>
				<path id="XMLID_264_" class="st0" d="M839.2,72.6L839.2,72.6L839.2,72.6z"/>
				<path id="XMLID_263_" class="st0" d="M839.8,72.6L839.8,72.6L839.8,72.6z"/>
				<path id="XMLID_262_" class="st0" d="M840.5,72.6L840.5,72.6L840.5,72.6z"/>
				<path id="XMLID_261_" class="st0" d="M841.2,72.6L841.2,72.6L841.2,72.6z"/>
				<path id="XMLID_260_" class="st0" d="M841.8,72.6L841.8,72.6L841.8,72.6z"/>
				<path id="XMLID_259_" class="st0" d="M842.5,72.6L842.5,72.6L842.5,72.6z"/>
				<path id="XMLID_258_" class="st0" d="M843.2,72.6L843.2,72.6L843.2,72.6z"/>
				<path id="XMLID_257_" class="st0" d="M843.8,72.6L843.8,72.6L843.8,72.6z"/>
				<path id="XMLID_256_" class="st0" d="M844.5,72.6L844.5,72.6L844.5,72.6z"/>
				<path id="XMLID_255_" class="st0" d="M845.2,72.6L845.2,72.6L845.2,72.6z"/>
				<path id="XMLID_254_" class="st0" d="M845.8,72.6L845.8,72.6L845.8,72.6z"/>
				<path id="XMLID_253_" class="st0" d="M846.5,72.6L846.5,72.6L846.5,72.6z"/>
				<path id="XMLID_252_" class="st0" d="M847.2,72.6L847.2,72.6L847.2,72.6z"/>
				<path id="XMLID_251_" class="st0" d="M847.8,72.6L847.8,72.6L847.8,72.6z"/>
				<path id="XMLID_250_" class="st0" d="M848.5,72.6L848.5,72.6L848.5,72.6z"/>
				<path id="XMLID_249_" class="st0" d="M849.2,72.6L849.2,72.6L849.2,72.6z"/>
				<path id="XMLID_248_" class="st0" d="M849.8,72.6L849.8,72.6L849.8,72.6z"/>
				<path id="XMLID_247_" class="st0" d="M850.5,72.6L850.5,72.6L850.5,72.6z"/>
				<path id="XMLID_246_" class="st0" d="M851.1,72.6L851.1,72.6L851.1,72.6z"/>
				<path id="XMLID_245_" class="st0" d="M851.8,72.6L851.8,72.6L851.8,72.6z"/>
				<path id="XMLID_244_" class="st0" d="M852.5,72.6L852.5,72.6L852.5,72.6z"/>
				<path id="XMLID_243_" class="st0" d="M853.1,72.6L853.1,72.6L853.1,72.6z"/>
				<path id="XMLID_242_" class="st0" d="M853.8,72.6L853.8,72.6L853.8,72.6z"/>
				<path id="XMLID_241_" class="st0" d="M854.5,72.6L854.5,72.6L854.5,72.6z"/>
				<path id="XMLID_240_" class="st0" d="M855.1,72.6L855.1,72.6L855.1,72.6z"/>
				<path id="XMLID_239_" class="st0" d="M855.8,72.6L855.8,72.6L855.8,72.6z"/>
				<path id="XMLID_238_" class="st0" d="M856.5,72.6L856.5,72.6L856.5,72.6z"/>
				<path id="XMLID_237_" class="st0" d="M857.1,72.6L857.1,72.6L857.1,72.6z"/>
				<path id="XMLID_236_" class="st0" d="M857.8,72.6L857.8,72.6L857.8,72.6z"/>
				<path id="XMLID_235_" class="st0" d="M858.5,72.6L858.5,72.6L858.5,72.6z"/>
				<path id="XMLID_234_" class="st0" d="M859.1,72.6L859.1,72.6L859.1,72.6z"/>
				<path id="XMLID_233_" class="st0" d="M859.8,72.6L859.8,72.6L859.8,72.6z"/>
				<path id="XMLID_232_" class="st0" d="M860.4,72.6L860.4,72.6L860.4,72.6z"/>
				<path id="XMLID_231_" class="st0" d="M861.1,72.6L861.1,72.6L861.1,72.6z"/>
				<path id="XMLID_230_" class="st0" d="M861.8,72.6L861.8,72.6L861.8,72.6z"/>
				<path id="XMLID_229_" class="st0" d="M861.8,72.6L861.8,72.6L861.8,72.6z"/>
			</g>
			<rect id="XMLID_227_" x="717.6" y="68" class="st0" width="144.2" height="9.3"/>
		</g>
		<g id="XMLID_4_">
			<g id="XMLID_6_">
				<path id="XMLID_225_" class="st0" d="M649,123L649,123L649,123z"/>
				<path id="XMLID_224_" class="st0" d="M650,123L650,123L650,123z"/>
				<path id="XMLID_223_" class="st0" d="M651,123L651,123L651,123z"/>
				<path id="XMLID_222_" class="st0" d="M651.9,123L651.9,123L651.9,123z"/>
				<path id="XMLID_221_" class="st0" d="M652.9,123L652.9,123L652.9,123z"/>
				<path id="XMLID_220_" class="st0" d="M653.9,123L653.9,123L653.9,123z"/>
				<path id="XMLID_219_" class="st0" d="M654.9,123L654.9,123L654.9,123z"/>
				<path id="XMLID_218_" class="st0" d="M655.9,123L655.9,123L655.9,123z"/>
				<path id="XMLID_217_" class="st0" d="M656.8,123L656.8,123L656.8,123z"/>
				<path id="XMLID_216_" class="st0" d="M657.8,123L657.8,123L657.8,123z"/>
				<path id="XMLID_215_" class="st0" d="M658.8,123L658.8,123L658.8,123z"/>
				<path id="XMLID_214_" class="st0" d="M659.8,123L659.8,123L659.8,123z"/>
				<path id="XMLID_213_" class="st0" d="M660.8,123L660.8,123L660.8,123z"/>
				<path id="XMLID_212_" class="st0" d="M661.7,123L661.7,123L661.7,123z"/>
				<path id="XMLID_211_" class="st0" d="M662.7,123L662.7,123L662.7,123z"/>
				<path id="XMLID_210_" class="st0" d="M663.7,123L663.7,123L663.7,123z"/>
				<path id="XMLID_209_" class="st0" d="M664.7,123L664.7,123L664.7,123z"/>
				<path id="XMLID_208_" class="st0" d="M665.7,123L665.7,123L665.7,123z"/>
				<path id="XMLID_207_" class="st0" d="M666.6,123L666.6,123L666.6,123z"/>
				<path id="XMLID_206_" class="st0" d="M667.6,123L667.6,123L667.6,123z"/>
				<path id="XMLID_205_" class="st0" d="M668.6,123L668.6,123L668.6,123z"/>
				<path id="XMLID_204_" class="st0" d="M669.6,123L669.6,123L669.6,123z"/>
				<path id="XMLID_203_" class="st0" d="M670.6,123L670.6,123L670.6,123z"/>
				<path id="XMLID_202_" class="st0" d="M671.6,123L671.6,123L671.6,123z"/>
				<path id="XMLID_201_" class="st0" d="M672.5,123L672.5,123L672.5,123z"/>
				<path id="XMLID_200_" class="st0" d="M673.5,123L673.5,123L673.5,123z"/>
				<path id="XMLID_199_" class="st0" d="M674.5,123L674.5,123L674.5,123z"/>
				<path id="XMLID_198_" class="st0" d="M675.5,123L675.5,123L675.5,123z"/>
				<path id="XMLID_197_" class="st0" d="M676.5,123L676.5,123L676.5,123z"/>
				<path id="XMLID_196_" class="st0" d="M677.4,123L677.4,123L677.4,123z"/>
				<path id="XMLID_195_" class="st0" d="M678.4,123L678.4,123L678.4,123z"/>
				<path id="XMLID_194_" class="st0" d="M679.4,123L679.4,123L679.4,123z"/>
				<path id="XMLID_193_" class="st0" d="M680.4,123L680.4,123L680.4,123z"/>
				<path id="XMLID_192_" class="st0" d="M681.4,123L681.4,123L681.4,123z"/>
				<path id="XMLID_191_" class="st0" d="M682.3,123L682.3,123L682.3,123z"/>
				<path id="XMLID_190_" class="st0" d="M683.3,123L683.3,123L683.3,123z"/>
				<path id="XMLID_189_" class="st0" d="M684.3,123L684.3,123L684.3,123z"/>
				<path id="XMLID_188_" class="st0" d="M685.3,123L685.3,123L685.3,123z"/>
				<path id="XMLID_187_" class="st0" d="M686.3,123L686.3,123L686.3,123z"/>
				<path id="XMLID_186_" class="st0" d="M687.2,123L687.2,123L687.2,123z"/>
				<path id="XMLID_185_" class="st0" d="M688.2,123L688.2,123L688.2,123z"/>
				<path id="XMLID_184_" class="st0" d="M689.2,123L689.2,123L689.2,123z"/>
				<path id="XMLID_183_" class="st0" d="M690.2,123L690.2,123L690.2,123z"/>
				<path id="XMLID_182_" class="st0" d="M691.2,123L691.2,123L691.2,123z"/>
				<path id="XMLID_181_" class="st0" d="M692.1,123L692.1,123L692.1,123z"/>
				<path id="XMLID_180_" class="st0" d="M693.1,123L693.1,123L693.1,123z"/>
				<path id="XMLID_179_" class="st0" d="M694.1,123L694.1,123L694.1,123z"/>
				<path id="XMLID_178_" class="st0" d="M695.1,123L695.1,123L695.1,123z"/>
				<path id="XMLID_177_" class="st0" d="M696.1,123L696.1,123L696.1,123z"/>
				<path id="XMLID_176_" class="st0" d="M697,123L697,123L697,123z"/>
				<path id="XMLID_175_" class="st0" d="M698,123L698,123L698,123z"/>
				<path id="XMLID_174_" class="st0" d="M699,123L699,123L699,123z"/>
				<path id="XMLID_173_" class="st0" d="M700,123L700,123L700,123z"/>
				<path id="XMLID_172_" class="st0" d="M701,123L701,123L701,123z"/>
				<path id="XMLID_171_" class="st0" d="M701.9,123L701.9,123L701.9,123z"/>
				<path id="XMLID_170_" class="st0" d="M702.9,123L702.9,123L702.9,123z"/>
				<path id="XMLID_169_" class="st0" d="M703.9,123L703.9,123L703.9,123z"/>
				<path id="XMLID_168_" class="st0" d="M704.9,123L704.9,123L704.9,123z"/>
				<path id="XMLID_167_" class="st0" d="M705.9,123L705.9,123L705.9,123z"/>
				<path id="XMLID_166_" class="st0" d="M706.9,123L706.9,123L706.9,123z"/>
				<path id="XMLID_165_" class="st0" d="M707.8,123L707.8,123L707.8,123z"/>
				<path id="XMLID_164_" class="st0" d="M708.8,123L708.8,123L708.8,123z"/>
				<path id="XMLID_163_" class="st0" d="M709.8,123L709.8,123L709.8,123z"/>
				<path id="XMLID_162_" class="st0" d="M710.8,123L710.8,123L710.8,123z"/>
				<path id="XMLID_161_" class="st0" d="M711.8,123L711.8,123L711.8,123z"/>
				<path id="XMLID_160_" class="st0" d="M712.7,123L712.7,123L712.7,123z"/>
				<path id="XMLID_159_" class="st0" d="M713.7,123L713.7,123L713.7,123z"/>
				<path id="XMLID_158_" class="st0" d="M714.7,123L714.7,123L714.7,123z"/>
				<path id="XMLID_157_" class="st0" d="M715.7,123L715.7,123L715.7,123z"/>
				<path id="XMLID_156_" class="st0" d="M716.7,123L716.7,123L716.7,123z"/>
				<path id="XMLID_155_" class="st0" d="M717.6,123L717.6,123L717.6,123z"/>
				<path id="XMLID_154_" class="st0" d="M718.6,123L718.6,123L718.6,123z"/>
				<path id="XMLID_153_" class="st0" d="M719.6,123L719.6,123L719.6,123z"/>
				<path id="XMLID_152_" class="st0" d="M720.6,123L720.6,123L720.6,123z"/>
				<path id="XMLID_151_" class="st0" d="M721.6,123L721.6,123L721.6,123z"/>
				<path id="XMLID_150_" class="st0" d="M722.5,123L722.5,123L722.5,123z"/>
				<path id="XMLID_149_" class="st0" d="M723.5,123L723.5,123L723.5,123z"/>
				<path id="XMLID_148_" class="st0" d="M724.5,123L724.5,123L724.5,123z"/>
				<path id="XMLID_147_" class="st0" d="M725.5,123L725.5,123L725.5,123z"/>
				<path id="XMLID_146_" class="st0" d="M726.5,123L726.5,123L726.5,123z"/>
				<path id="XMLID_145_" class="st0" d="M727.4,123L727.4,123L727.4,123z"/>
				<path id="XMLID_144_" class="st0" d="M728.4,123L728.4,123L728.4,123z"/>
				<path id="XMLID_143_" class="st0" d="M729.4,123L729.4,123L729.4,123z"/>
				<path id="XMLID_142_" class="st0" d="M730.4,123L730.4,123L730.4,123z"/>
				<path id="XMLID_141_" class="st0" d="M731.4,123L731.4,123L731.4,123z"/>
				<path id="XMLID_140_" class="st0" d="M732.3,123L732.3,123L732.3,123z"/>
				<path id="XMLID_139_" class="st0" d="M733.3,123L733.3,123L733.3,123z"/>
				<path id="XMLID_138_" class="st0" d="M734.3,123L734.3,123L734.3,123z"/>
				<path id="XMLID_137_" class="st0" d="M735.3,123L735.3,123L735.3,123z"/>
				<path id="XMLID_136_" class="st0" d="M736.3,123L736.3,123L736.3,123z"/>
				<path id="XMLID_135_" class="st0" d="M737.2,123L737.2,123L737.2,123z"/>
				<path id="XMLID_134_" class="st0" d="M738.2,123L738.2,123L738.2,123z"/>
				<path id="XMLID_133_" class="st0" d="M739.2,123L739.2,123L739.2,123z"/>
				<path id="XMLID_132_" class="st0" d="M740.2,123L740.2,123L740.2,123z"/>
				<path id="XMLID_131_" class="st0" d="M741.2,123L741.2,123L741.2,123z"/>
				<path id="XMLID_130_" class="st0" d="M742.2,123L742.2,123L742.2,123z"/>
				<path id="XMLID_129_" class="st0" d="M743.1,123L743.1,123L743.1,123z"/>
				<path id="XMLID_128_" class="st0" d="M744.1,123L744.1,123L744.1,123z"/>
				<path id="XMLID_127_" class="st0" d="M745.1,123L745.1,123L745.1,123z"/>
				<path id="XMLID_126_" class="st0" d="M746.1,123L746.1,123L746.1,123z"/>
				<path id="XMLID_125_" class="st0" d="M747.1,123L747.1,123L747.1,123z"/>
				<path id="XMLID_124_" class="st0" d="M748,123L748,123L748,123z"/>
				<path id="XMLID_123_" class="st0" d="M749,123L749,123L749,123z"/>
				<path id="XMLID_122_" class="st0" d="M750,123L750,123L750,123z"/>
				<path id="XMLID_121_" class="st0" d="M751,123L751,123L751,123z"/>
				<path id="XMLID_120_" class="st0" d="M752,123L752,123L752,123z"/>
				<path id="XMLID_119_" class="st0" d="M752.9,123L752.9,123L752.9,123z"/>
				<path id="XMLID_118_" class="st0" d="M753.9,123L753.9,123L753.9,123z"/>
				<path id="XMLID_117_" class="st0" d="M754.9,123L754.9,123L754.9,123z"/>
				<path id="XMLID_116_" class="st0" d="M755.9,123L755.9,123L755.9,123z"/>
				<path id="XMLID_115_" class="st0" d="M756.9,123L756.9,123L756.9,123z"/>
				<path id="XMLID_114_" class="st0" d="M757.8,123L757.8,123L757.8,123z"/>
				<path id="XMLID_113_" class="st0" d="M758.8,123L758.8,123L758.8,123z"/>
				<path id="XMLID_112_" class="st0" d="M759.8,123L759.8,123L759.8,123z"/>
				<path id="XMLID_111_" class="st0" d="M760.8,123L760.8,123L760.8,123z"/>
				<path id="XMLID_110_" class="st0" d="M761.8,123L761.8,123L761.8,123z"/>
				<path id="XMLID_109_" class="st0" d="M762.7,123L762.7,123L762.7,123z"/>
				<path id="XMLID_108_" class="st0" d="M763.7,123L763.7,123L763.7,123z"/>
				<path id="XMLID_107_" class="st0" d="M764.7,123L764.7,123L764.7,123z"/>
				<path id="XMLID_106_" class="st0" d="M765.7,123L765.7,123L765.7,123z"/>
				<path id="XMLID_105_" class="st0" d="M766.7,123L766.7,123L766.7,123z"/>
				<path id="XMLID_104_" class="st0" d="M767.6,123L767.6,123L767.6,123z"/>
				<path id="XMLID_103_" class="st0" d="M768.6,123L768.6,123L768.6,123z"/>
				<path id="XMLID_102_" class="st0" d="M769.6,123L769.6,123L769.6,123z"/>
				<path id="XMLID_101_" class="st0" d="M770.6,123L770.6,123L770.6,123z"/>
				<path id="XMLID_100_" class="st0" d="M771.6,123L771.6,123L771.6,123z"/>
				<path id="XMLID_99_" class="st0" d="M772.5,123L772.5,123L772.5,123z"/>
				<path id="XMLID_98_" class="st0" d="M773.5,123L773.5,123L773.5,123z"/>
				<path id="XMLID_97_" class="st0" d="M774.5,123L774.5,123L774.5,123z"/>
				<path id="XMLID_96_" class="st0" d="M775.5,123L775.5,123L775.5,123z"/>
				<path id="XMLID_95_" class="st0" d="M776.5,123L776.5,123L776.5,123z"/>
				<path id="XMLID_94_" class="st0" d="M777.5,123L777.5,123L777.5,123z"/>
				<path id="XMLID_93_" class="st0" d="M778.4,123L778.4,123L778.4,123z"/>
				<path id="XMLID_92_" class="st0" d="M779.4,123L779.4,123L779.4,123z"/>
				<path id="XMLID_91_" class="st0" d="M780.4,123L780.4,123L780.4,123z"/>
				<path id="XMLID_90_" class="st0" d="M781.4,123L781.4,123L781.4,123z"/>
				<path id="XMLID_89_" class="st0" d="M782.4,123L782.4,123L782.4,123z"/>
				<path id="XMLID_88_" class="st0" d="M783.3,123L783.3,123L783.3,123z"/>
				<path id="XMLID_87_" class="st0" d="M784.3,123L784.3,123L784.3,123z"/>
				<path id="XMLID_86_" class="st0" d="M785.3,123L785.3,123L785.3,123z"/>
				<path id="XMLID_85_" class="st0" d="M786.3,123L786.3,123L786.3,123z"/>
				<path id="XMLID_84_" class="st0" d="M787.3,123L787.3,123L787.3,123z"/>
				<path id="XMLID_83_" class="st0" d="M788.2,123L788.2,123L788.2,123z"/>
				<path id="XMLID_82_" class="st0" d="M789.2,123L789.2,123L789.2,123z"/>
				<path id="XMLID_81_" class="st0" d="M790.2,123L790.2,123L790.2,123z"/>
				<path id="XMLID_80_" class="st0" d="M791.2,123L791.2,123L791.2,123z"/>
				<path id="XMLID_79_" class="st0" d="M792.2,123L792.2,123L792.2,123z"/>
				<path id="XMLID_78_" class="st0" d="M793.1,123L793.1,123L793.1,123z"/>
				<path id="XMLID_77_" class="st0" d="M794.1,123L794.1,123L794.1,123z"/>
				<path id="XMLID_76_" class="st0" d="M795.1,123L795.1,123L795.1,123z"/>
				<path id="XMLID_75_" class="st0" d="M796.1,123L796.1,123L796.1,123z"/>
				<path id="XMLID_74_" class="st0" d="M797.1,123L797.1,123L797.1,123z"/>
				<path id="XMLID_73_" class="st0" d="M798,123L798,123L798,123z"/>
				<path id="XMLID_72_" class="st0" d="M799,123L799,123L799,123z"/>
				<path id="XMLID_71_" class="st0" d="M800,123L800,123L800,123z"/>
				<path id="XMLID_70_" class="st0" d="M801,123L801,123L801,123z"/>
				<path id="XMLID_69_" class="st0" d="M802,123L802,123L802,123z"/>
				<path id="XMLID_68_" class="st0" d="M802.9,123L802.9,123L802.9,123z"/>
				<path id="XMLID_67_" class="st0" d="M803.9,123L803.9,123L803.9,123z"/>
				<path id="XMLID_66_" class="st0" d="M804.9,123L804.9,123L804.9,123z"/>
				<path id="XMLID_65_" class="st0" d="M805.9,123L805.9,123L805.9,123z"/>
				<path id="XMLID_64_" class="st0" d="M806.9,123L806.9,123L806.9,123z"/>
				<path id="XMLID_63_" class="st0" d="M807.8,123L807.8,123L807.8,123z"/>
				<path id="XMLID_62_" class="st0" d="M808.8,123L808.8,123L808.8,123z"/>
				<path id="XMLID_61_" class="st0" d="M809.8,123L809.8,123L809.8,123z"/>
				<path id="XMLID_60_" class="st0" d="M810.8,123L810.8,123L810.8,123z"/>
				<path id="XMLID_59_" class="st0" d="M811.8,123L811.8,123L811.8,123z"/>
				<path id="XMLID_58_" class="st0" d="M812.8,123L812.8,123L812.8,123z"/>
				<path id="XMLID_57_" class="st0" d="M813.7,123L813.7,123L813.7,123z"/>
				<path id="XMLID_56_" class="st0" d="M814.7,123L814.7,123L814.7,123z"/>
				<path id="XMLID_55_" class="st0" d="M815.7,123L815.7,123L815.7,123z"/>
				<path id="XMLID_54_" class="st0" d="M816.7,123L816.7,123L816.7,123z"/>
				<path id="XMLID_53_" class="st0" d="M817.7,123L817.7,123L817.7,123z"/>
				<path id="XMLID_52_" class="st0" d="M818.6,123L818.6,123L818.6,123z"/>
				<path id="XMLID_51_" class="st0" d="M819.6,123L819.6,123L819.6,123z"/>
				<path id="XMLID_50_" class="st0" d="M820.6,123L820.6,123L820.6,123z"/>
				<path id="XMLID_49_" class="st0" d="M821.6,123L821.6,123L821.6,123z"/>
				<path id="XMLID_48_" class="st0" d="M822.6,123L822.6,123L822.6,123z"/>
				<path id="XMLID_47_" class="st0" d="M823.5,123L823.5,123L823.5,123z"/>
				<path id="XMLID_46_" class="st0" d="M824.5,123L824.5,123L824.5,123z"/>
				<path id="XMLID_45_" class="st0" d="M825.5,123L825.5,123L825.5,123z"/>
				<path id="XMLID_44_" class="st0" d="M826.5,123L826.5,123L826.5,123z"/>
				<path id="XMLID_43_" class="st0" d="M827.5,123L827.5,123L827.5,123z"/>
				<path id="XMLID_42_" class="st0" d="M828.4,123L828.4,123L828.4,123z"/>
				<path id="XMLID_41_" class="st0" d="M829.4,123L829.4,123L829.4,123z"/>
				<path id="XMLID_40_" class="st0" d="M830.4,123L830.4,123L830.4,123z"/>
				<path id="XMLID_39_" class="st0" d="M831.4,123L831.4,123L831.4,123z"/>
				<path id="XMLID_38_" class="st0" d="M832.4,123L832.4,123L832.4,123z"/>
				<path id="XMLID_37_" class="st0" d="M833.3,123L833.3,123L833.3,123z"/>
				<path id="XMLID_36_" class="st0" d="M834.3,123L834.3,123L834.3,123z"/>
				<path id="XMLID_35_" class="st0" d="M835.3,123L835.3,123L835.3,123z"/>
				<path id="XMLID_34_" class="st0" d="M836.3,123L836.3,123L836.3,123z"/>
				<path id="XMLID_33_" class="st0" d="M837.3,123L837.3,123L837.3,123z"/>
				<path id="XMLID_32_" class="st0" d="M838.2,123L838.2,123L838.2,123z"/>
				<path id="XMLID_31_" class="st0" d="M839.2,123L839.2,123L839.2,123z"/>
				<path id="XMLID_30_" class="st0" d="M840.2,123L840.2,123L840.2,123z"/>
				<path id="XMLID_29_" class="st0" d="M841.2,123L841.2,123L841.2,123z"/>
				<path id="XMLID_28_" class="st0" d="M842.2,123L842.2,123L842.2,123z"/>
				<path id="XMLID_27_" class="st0" d="M843.1,123L843.1,123L843.1,123z"/>
				<path id="XMLID_26_" class="st0" d="M844.1,123L844.1,123L844.1,123z"/>
				<path id="XMLID_25_" class="st0" d="M845.1,123L845.1,123L845.1,123z"/>
				<path id="XMLID_24_" class="st0" d="M846.1,123L846.1,123L846.1,123z"/>
				<path id="XMLID_23_" class="st0" d="M847.1,123L847.1,123L847.1,123z"/>
				<path id="XMLID_22_" class="st0" d="M848.1,123L848.1,123L848.1,123z"/>
				<path id="XMLID_21_" class="st0" d="M849,123L849,123L849,123z"/>
				<path id="XMLID_20_" class="st0" d="M850,123L850,123L850,123z"/>
				<path id="XMLID_19_" class="st0" d="M851,123L851,123L851,123z"/>
				<path id="XMLID_18_" class="st0" d="M852,123L852,123L852,123z"/>
				<path id="XMLID_17_" class="st0" d="M853,123L853,123L853,123z"/>
				<path id="XMLID_16_" class="st0" d="M853.9,123L853.9,123L853.9,123z"/>
				<path id="XMLID_15_" class="st0" d="M854.9,123L854.9,123L854.9,123z"/>
				<path id="XMLID_14_" class="st0" d="M855.9,123L855.9,123L855.9,123z"/>
				<path id="XMLID_13_" class="st0" d="M856.9,123L856.9,123L856.9,123z"/>
				<path id="XMLID_12_" class="st0" d="M857.9,123L857.9,123L857.9,123z"/>
				<path id="XMLID_11_" class="st0" d="M858.8,123L858.8,123L858.8,123z"/>
				<path id="XMLID_10_" class="st0" d="M859.8,123L859.8,123L859.8,123z"/>
				<path id="XMLID_9_" class="st0" d="M860.8,123L860.8,123L860.8,123z"/>
				<path id="XMLID_8_" class="st0" d="M861.8,123L861.8,123L861.8,123z"/>
				<path id="XMLID_7_" class="st0" d="M861.8,123L861.8,123L861.8,123z"/>
			</g>
			<rect id="XMLID_5_" x="649" y="118.4" class="st0" width="212.8" height="9.3"/>
		</g>
	</g>
</g>
</svg>
