<?xml version="1.0" encoding="utf-8"?>
<!-- Generator: Adobe Illustrator 19.0.0, SVG Export Plug-In . SVG Version: 6.00 Build 0)  -->
<!DOCTYPE svg PUBLIC "-//W3C//DTD SVG 1.1//EN" "http://www.w3.org/Graphics/SVG/1.1/DTD/svg11.dtd">
<svg version="1.1" id="Layer_1" xmlns="http://www.w3.org/2000/svg" xmlns:xlink="http://www.w3.org/1999/xlink" x="0px" y="0px"
	 viewBox="0 0 792 612" style="enable-background:new 0 0 792 612;" xml:space="preserve">
<style type="text/css">
	.st0{fill:#272626;}
	.st1{fill:#FFFFFF;}
	.st2{fill:#FDFEFF;}
	.st3{fill:#FBFCFC;}
	.st4{fill:#FAFAFA;}
	.st5{fill:#F9F9FA;}
	.st6{fill:#F7F8F8;}
	.st7{fill:#F6F6F6;}
	.st8{fill:#F5F6F6;}
	.st9{fill:#F4F4F4;}
	.st10{fill:#F3F3F3;}
	.st11{fill:#F2F2F2;}
	.st12{fill:#F1F0F0;}
	.st13{fill:#F0EFEF;}
	.st14{fill:#EFEEEE;}
	.st15{fill:#EDEDED;}
	.st16{fill:#ECECEC;}
	.st17{fill:#EBEBEB;}
	.st18{fill:#EAEAEA;}
	.st19{fill:#E9E9E9;}
	.st20{fill:#E8E8E8;}
	.st21{fill:#E7E7E7;}
	.st22{fill:#E6E6E5;}
	.st23{fill:#E5E5E5;}
	.st24{fill:#E4E4E4;}
	.st25{fill:#E3E3E3;}
	.st26{fill:#E2E2E2;}
	.st27{fill:#E1E1E1;}
	.st28{fill:#E0E1E0;}
	.st29{fill:#E0E0DF;}
	.st30{fill:#DFDFDE;}
	.st31{fill:#DEDEDD;}
	.st32{fill:#DDDDDC;}
	.st33{fill:#DCDBDB;}
	.st34{fill:#DBDADA;}
	.st35{fill:#D9D9D8;}
	.st36{fill:#D8D9D8;}
	.st37{fill:#D7D7D7;}
	.st38{fill:#D7D6D6;}
	.st39{fill:#D6D5D5;}
	.st40{fill:#D4D4D4;}
	.st41{fill:#D3D3D3;}
	.st42{fill:#D2D3D3;}
	.st43{fill:#D1D2D2;}
	.st44{fill:#D0D1D1;}
	.st45{fill:#CFD0D0;}
	.st46{fill:#CFCFCE;}
	.st47{fill:#CECECD;}
	.st48{fill:#CDCCCC;}
	.st49{fill:#CBCBCB;}
	.st50{fill:#CACACA;}
	.st51{fill:#C9C9C9;}
	.st52{fill:#C8C8C8;}
	.st53{fill:#C8C7C7;}
	.st54{fill:#C7C6C6;}
	.st55{fill:#C6C5C5;}
	.st56{fill:#C4C4C4;}
	.st57{fill:#C3C3C3;}
	.st58{fill:#C2C2C2;}
	.st59{fill:#C2C1C1;}
	.st60{fill:#C1C0C0;}
	.st61{fill:#C0BFBF;}
	.st62{fill:#BFBEBE;}
	.st63{fill:#BDBDBD;}
	.st64{fill:#BCBCBC;}
	.st65{fill:#BCBCBB;}
	.st66{fill:#BBBBBB;}
	.st67{fill:#BABABA;}
	.st68{fill:#B9B9B9;}
	.st69{fill:#B7B7B8;}
	.st70{fill:#B6B7B7;}
	.st71{fill:#B5B6B6;}
	.st72{fill:#B5B5B5;}
	.st73{fill:#B4B4B4;}
	.st74{fill:#B3B3B3;}
	.st75{fill:#B2B2B2;}
	.st76{fill:#B0B1B1;}
	.st77{fill:#B0B0B0;}
	.st78{fill:#AFAFAF;}
	.st79{fill:#AEAEAE;}
	.st80{fill:#ADADAD;}
	.st81{fill:#ACACAC;}
	.st82{fill:#ABABAB;}
	.st83{fill:#AAAAAA;}
	.st84{fill:#A9A8A8;}
	.st85{fill:#A8A7A8;}
	.st86{fill:#A7A6A6;}
	.st87{fill:#A5A5A5;}
	.st88{fill:#A4A4A4;}
	.st89{fill:#A3A3A2;}
	.st90{fill:#A2A2A1;}
	.st91{fill:#A1A1A0;}
	.st92{fill:#A09F9F;}
	.st93{fill:#9F9F9F;}
	.st94{fill:#9E9E9E;}
	.st95{fill:#9C9C9D;}
	.st96{fill:#9B9C9C;}
	.st97{fill:#9B9B9B;}
	.st98{fill:#9A9A9A;}
	.st99{fill:#989898;}
	.st100{fill:#989798;}
	.st101{fill:#979797;}
	.st102{fill:#969696;}
	.st103{fill:#959595;}
	.st104{fill:#959494;}
	.st105{fill:#939393;}
	.st106{fill:#919191;}
	.st107{fill:#919090;}
	.st108{fill:#908F8F;}
	.st109{fill:#8F8F8E;}
	.st110{fill:#8E8D8D;}
	.st111{fill:#8C8C8C;}
	.st112{fill:#8B8B8B;}
	.st113{fill:#8B8A8A;}
	.st114{fill:#898989;}
	.st115{fill:#888888;}
	.st116{fill:#878787;}
	.st117{fill:#868686;}
	.st118{fill:#858585;}
	.st119{fill:#848484;}
	.st120{fill:#838384;}
	.st121{fill:#838383;}
	.st122{fill:#828282;}
	.st123{fill:#818181;}
	.st124{fill:#808080;}
	.st125{fill:#7F7F7F;}
	.st126{fill:#7E7E7E;}
	.st127{fill:#7D7D7D;}
	.st128{fill:#7C7C7C;}
	.st129{fill:#7B7B7B;}
	.st130{fill:#7A7A7A;}
	.st131{fill:#797979;}
	.st132{fill:#787878;}
	.st133{fill:#777777;}
	.st134{fill:#767677;}
	.st135{fill:#757575;}
	.st136{fill:#747474;}
	.st137{fill:#737373;}
	.st138{fill:#727272;}
	.st139{fill:#717171;}
	.st140{fill:#6F7070;}
	.st141{fill:#6F6F6F;}
	.st142{fill:#6E6D6E;}
	.st143{fill:#6C6D6D;}
	.st144{fill:#6B6C6C;}
	.st145{fill:#6B6B6A;}
	.st146{fill:#6A6A6A;}
	.st147{fill:#686969;}
	.st148{fill:#676868;}
	.st149{fill:#676767;}
	.st150{fill:#666666;}
	.st151{fill:#656565;}
	.st152{fill:#636464;}
	.st153{fill:#636363;}
	.st154{fill:#616262;}
	.st155{fill:#616161;}
	.st156{fill:#606060;}
	.st157{fill:#5E5F5F;}
	.st158{fill:#5E5E5E;}
	.st159{fill:#5D5D5D;}
	.st160{fill:#5C5C5C;}
	.st161{fill:#5B5B5B;}
	.st162{fill:#5A5A5A;}
	.st163{fill:#595959;}
	.st164{fill:#575858;}
	.st165{fill:#575757;}
	.st166{fill:#565656;}
	.st167{fill:#555555;}
	.st168{fill:#535454;}
	.st169{fill:#535353;}
	.st170{fill:#525252;}
	.st171{fill:#515151;}
	.st172{fill:#505050;}
	.st173{fill:#4F4F4F;}
	.st174{fill:#4E4E4E;}
	.st175{fill:#4D4D4D;}
	.st176{fill:#4C4C4C;}
	.st177{fill:#4B4B4B;}
	.st178{fill:#4A4A4A;}
	.st179{fill:#494949;}
	.st180{fill:#484848;}
	.st181{fill:#474747;}
	.st182{fill:#464646;}
	.st183{fill:#454545;}
	.st184{fill:#444444;}
	.st185{fill:#434343;}
	.st186{fill:#424242;}
	.st187{fill:#414141;}
	.st188{fill:#404040;}
	.st189{fill:#3F3F3F;}
	.st190{fill:#3E3E3E;}
	.st191{fill:#3D3D3D;}
	.st192{fill:#3C3C3B;}
	.st193{fill:#3A3B3B;}
	.st194{fill:#3A3A39;}
	.st195{fill:#383938;}
	.st196{fill:#373737;}
	.st197{fill:#373636;}
	.st198{fill:#353635;}
	.st199{fill:#343434;}
	.st200{fill:#333333;}
	.st201{fill:#333332;}
	.st202{fill:#313131;}
	.st203{fill:#303030;}
	.st204{fill:#302F2F;}
	.st205{fill:#2E2E2E;}
	.st206{fill:#2D2E2D;}
	.st207{fill:#2D2C2C;}
	.st208{fill:#2B2C2B;}
	.st209{fill:#2A2A2A;}
	.st210{fill:#292929;}
	.st211{fill:#282828;}
	.st212{fill:#272727;}
</style>
<g id="XMLID_2_">
	<g id="XMLID_896_">
		<path id="XMLID_897_" class="st0" d="M402.2,574.7c-148.6,0-269.5-120.9-269.5-269.5c0-148.6,120.9-269.5,269.5-269.5
			c148.6,0,269.5,120.9,269.5,269.5C671.7,453.8,550.8,574.7,402.2,574.7z M402.2,57.9c-136.3,0-247.3,110.9-247.3,247.3
			c0,136.3,110.9,247.3,247.3,247.3c136.3,0,247.3-110.9,247.3-247.3C649.5,168.8,538.5,57.9,402.2,57.9z"/>
	</g>
	<g id="XMLID_3_">
		<g id="XMLID_892_">
			<path id="XMLID_893_" class="st0" d="M249.3,414.2L249.3,414.2c-5.1,0-9.3-4.2-9.3-9.3V220.3c0-5.1,4.2-9.3,9.3-9.3
				c1.8,0,3.6,0.5,5.1,1.6l139,92.3c2.6,1.7,4.1,4.6,4.1,7.7c0,3.1-1.5,6-4.1,7.7l-139,92.3C252.9,413.6,251.2,414.2,249.3,414.2z
				 M251.2,223.7v177.8L385,312.6L251.2,223.7z"/>
		</g>
		<g id="XMLID_670_">
			<g id="XMLID_672_">
				<path id="XMLID_891_" class="st1" d="M346,237L346,237L346,237z"/>
				<path id="XMLID_890_" class="st1" d="M347,237L347,237L347,237z"/>
				<path id="XMLID_889_" class="st1" d="M348,237L348,237L348,237z"/>
				<path id="XMLID_888_" class="st1" d="M348.9,237L348.9,237L348.9,237z"/>
				<path id="XMLID_887_" class="st2" d="M349.9,237L349.9,237L349.9,237z"/>
				<path id="XMLID_886_" class="st3" d="M350.9,237L350.9,237L350.9,237z"/>
				<path id="XMLID_885_" class="st4" d="M351.9,237L351.9,237L351.9,237z"/>
				<path id="XMLID_884_" class="st5" d="M352.9,237L352.9,237L352.9,237z"/>
				<path id="XMLID_883_" class="st6" d="M353.8,237L353.8,237L353.8,237z"/>
				<path id="XMLID_882_" class="st6" d="M354.8,237L354.8,237L354.8,237z"/>
				<path id="XMLID_881_" class="st7" d="M355.8,237L355.8,237L355.8,237z"/>
				<path id="XMLID_880_" class="st8" d="M356.8,237L356.8,237L356.8,237z"/>
				<path id="XMLID_879_" class="st9" d="M357.8,237L357.8,237L357.8,237z"/>
				<path id="XMLID_878_" class="st10" d="M358.7,237L358.7,237L358.7,237z"/>
				<path id="XMLID_877_" class="st10" d="M359.7,237L359.7,237L359.7,237z"/>
				<path id="XMLID_876_" class="st11" d="M360.7,237L360.7,237L360.7,237z"/>
				<path id="XMLID_875_" class="st12" d="M361.7,237L361.7,237L361.7,237z"/>
				<path id="XMLID_874_" class="st13" d="M362.7,237L362.7,237L362.7,237z"/>
				<path id="XMLID_873_" class="st14" d="M363.6,237L363.6,237L363.6,237z"/>
				<path id="XMLID_872_" class="st15" d="M364.6,237L364.6,237L364.6,237z"/>
				<path id="XMLID_871_" class="st16" d="M365.6,237L365.6,237L365.6,237z"/>
				<path id="XMLID_870_" class="st17" d="M366.6,237L366.6,237L366.6,237z"/>
				<path id="XMLID_869_" class="st18" d="M367.6,237L367.6,237L367.6,237z"/>
				<path id="XMLID_868_" class="st19" d="M368.6,237L368.6,237L368.6,237z"/>
				<path id="XMLID_867_" class="st20" d="M369.5,237L369.5,237L369.5,237z"/>
				<path id="XMLID_866_" class="st21" d="M370.5,237L370.5,237L370.5,237z"/>
				<path id="XMLID_865_" class="st22" d="M371.5,237L371.5,237L371.5,237z"/>
				<path id="XMLID_864_" class="st23" d="M372.5,237L372.5,237L372.5,237z"/>
				<path id="XMLID_863_" class="st24" d="M373.5,237L373.5,237L373.5,237z"/>
				<path id="XMLID_862_" class="st25" d="M374.4,237L374.4,237L374.4,237z"/>
				<path id="XMLID_861_" class="st26" d="M375.4,237L375.4,237L375.4,237z"/>
				<path id="XMLID_860_" class="st27" d="M376.4,237L376.4,237L376.4,237z"/>
				<path id="XMLID_859_" class="st28" d="M377.4,237L377.4,237L377.4,237z"/>
				<path id="XMLID_858_" class="st29" d="M378.4,237L378.4,237L378.4,237z"/>
				<path id="XMLID_857_" class="st30" d="M379.3,237L379.3,237L379.3,237z"/>
				<path id="XMLID_856_" class="st31" d="M380.3,237L380.3,237L380.3,237z"/>
				<path id="XMLID_855_" class="st32" d="M381.3,237L381.3,237L381.3,237z"/>
				<path id="XMLID_854_" class="st33" d="M382.3,237L382.3,237L382.3,237z"/>
				<path id="XMLID_853_" class="st34" d="M383.3,237L383.3,237L383.3,237z"/>
				<path id="XMLID_852_" class="st35" d="M384.2,237L384.2,237L384.2,237z"/>
				<path id="XMLID_851_" class="st36" d="M385.2,237L385.2,237L385.2,237z"/>
				<path id="XMLID_850_" class="st37" d="M386.2,237L386.2,237L386.2,237z"/>
				<path id="XMLID_849_" class="st38" d="M387.2,237L387.2,237L387.2,237z"/>
				<path id="XMLID_848_" class="st39" d="M388.2,237L388.2,237L388.2,237z"/>
				<path id="XMLID_847_" class="st40" d="M389.1,237L389.1,237L389.1,237z"/>
				<path id="XMLID_846_" class="st41" d="M390.1,237L390.1,237L390.1,237z"/>
				<path id="XMLID_845_" class="st42" d="M391.1,237L391.1,237L391.1,237z"/>
				<path id="XMLID_844_" class="st43" d="M392.1,237L392.1,237L392.1,237z"/>
				<path id="XMLID_843_" class="st44" d="M393.1,237L393.1,237L393.1,237z"/>
				<path id="XMLID_842_" class="st45" d="M394,237L394,237L394,237z"/>
				<path id="XMLID_841_" class="st46" d="M395,237L395,237L395,237z"/>
				<path id="XMLID_840_" class="st47" d="M396,237L396,237L396,237z"/>
				<path id="XMLID_839_" class="st48" d="M397,237L397,237L397,237z"/>
				<path id="XMLID_838_" class="st49" d="M398,237L398,237L398,237z"/>
				<path id="XMLID_837_" class="st50" d="M398.9,237L398.9,237L398.9,237z"/>
				<path id="XMLID_836_" class="st51" d="M399.9,237L399.9,237L399.9,237z"/>
				<path id="XMLID_835_" class="st52" d="M400.9,237L400.9,237L400.9,237z"/>
				<path id="XMLID_834_" class="st53" d="M401.9,237L401.9,237L401.9,237z"/>
				<path id="XMLID_833_" class="st54" d="M402.9,237L402.9,237L402.9,237z"/>
				<path id="XMLID_832_" class="st55" d="M403.9,237L403.9,237L403.9,237z"/>
				<path id="XMLID_831_" class="st56" d="M404.8,237L404.8,237L404.8,237z"/>
				<path id="XMLID_830_" class="st57" d="M405.8,237L405.8,237L405.8,237z"/>
				<path id="XMLID_829_" class="st58" d="M406.8,237L406.8,237L406.8,237z"/>
				<path id="XMLID_828_" class="st59" d="M407.8,237L407.8,237L407.8,237z"/>
				<path id="XMLID_827_" class="st60" d="M408.8,237L408.8,237L408.8,237z"/>
				<path id="XMLID_826_" class="st61" d="M409.7,237L409.7,237L409.7,237z"/>
				<path id="XMLID_825_" class="st62" d="M410.7,237L410.7,237L410.7,237z"/>
				<path id="XMLID_824_" class="st63" d="M411.7,237L411.7,237L411.7,237z"/>
				<path id="XMLID_823_" class="st64" d="M412.7,237L412.7,237L412.7,237z"/>
				<path id="XMLID_822_" class="st65" d="M413.7,237L413.7,237L413.7,237z"/>
				<path id="XMLID_821_" class="st66" d="M414.6,237L414.6,237L414.6,237z"/>
				<path id="XMLID_820_" class="st67" d="M415.6,237L415.6,237L415.6,237z"/>
				<path id="XMLID_819_" class="st68" d="M416.6,237L416.6,237L416.6,237z"/>
				<path id="XMLID_818_" class="st69" d="M417.6,237L417.6,237L417.6,237z"/>
				<path id="XMLID_817_" class="st70" d="M418.6,237L418.6,237L418.6,237z"/>
				<path id="XMLID_816_" class="st71" d="M419.5,237L419.5,237L419.5,237z"/>
				<path id="XMLID_815_" class="st72" d="M420.5,237L420.5,237L420.5,237z"/>
				<path id="XMLID_814_" class="st73" d="M421.5,237L421.5,237L421.5,237z"/>
				<path id="XMLID_813_" class="st74" d="M422.5,237L422.5,237L422.5,237z"/>
				<path id="XMLID_812_" class="st75" d="M423.5,237L423.5,237L423.5,237z"/>
				<path id="XMLID_811_" class="st76" d="M424.4,237L424.4,237L424.4,237z"/>
				<path id="XMLID_810_" class="st77" d="M425.4,237L425.4,237L425.4,237z"/>
				<path id="XMLID_809_" class="st78" d="M426.4,237L426.4,237L426.4,237z"/>
				<path id="XMLID_808_" class="st79" d="M427.4,237L427.4,237L427.4,237z"/>
				<path id="XMLID_807_" class="st80" d="M428.4,237L428.4,237L428.4,237z"/>
				<path id="XMLID_806_" class="st81" d="M429.3,237L429.3,237L429.3,237z"/>
				<path id="XMLID_805_" class="st82" d="M430.3,237L430.3,237L430.3,237z"/>
				<path id="XMLID_804_" class="st83" d="M431.3,237L431.3,237L431.3,237z"/>
				<path id="XMLID_803_" class="st84" d="M432.3,237L432.3,237L432.3,237z"/>
				<path id="XMLID_802_" class="st85" d="M433.3,237L433.3,237L433.3,237z"/>
				<path id="XMLID_801_" class="st86" d="M434.2,237L434.2,237L434.2,237z"/>
				<path id="XMLID_800_" class="st87" d="M435.2,237L435.2,237L435.2,237z"/>
				<path id="XMLID_799_" class="st88" d="M436.2,237L436.2,237L436.2,237z"/>
				<path id="XMLID_798_" class="st89" d="M437.2,237L437.2,237L437.2,237z"/>
				<path id="XMLID_797_" class="st90" d="M438.2,237L438.2,237L438.2,237z"/>
				<path id="XMLID_796_" class="st91" d="M439.2,237L439.2,237L439.2,237z"/>
				<path id="XMLID_795_" class="st92" d="M440.1,237L440.1,237L440.1,237z"/>
				<path id="XMLID_794_" class="st93" d="M441.1,237L441.1,237L441.1,237z"/>
				<path id="XMLID_793_" class="st94" d="M442.1,237L442.1,237L442.1,237z"/>
				<path id="XMLID_792_" class="st95" d="M443.1,237L443.1,237L443.1,237z"/>
				<path id="XMLID_791_" class="st96" d="M444.1,237L444.1,237L444.1,237z"/>
				<path id="XMLID_790_" class="st97" d="M445,237L445,237L445,237z"/>
				<path id="XMLID_789_" class="st98" d="M446,237L446,237L446,237z"/>
				<path id="XMLID_788_" class="st99" d="M447,237L447,237L447,237z"/>
				<path id="XMLID_787_" class="st100" d="M448,237L448,237L448,237z"/>
				<path id="XMLID_786_" class="st101" d="M449,237L449,237L449,237z"/>
				<path id="XMLID_785_" class="st102" d="M449.9,237L449.9,237L449.9,237z"/>
				<path id="XMLID_784_" class="st103" d="M450.9,237L450.9,237L450.9,237z"/>
				<path id="XMLID_783_" class="st104" d="M451.9,237L451.9,237L451.9,237z"/>
				<path id="XMLID_782_" class="st105" d="M452.9,237L452.9,237L452.9,237z"/>
				<path id="XMLID_781_" class="st106" d="M453.9,237L453.9,237L453.9,237z"/>
				<path id="XMLID_780_" class="st107" d="M454.8,237L454.8,237L454.8,237z"/>
				<path id="XMLID_779_" class="st108" d="M455.8,237L455.8,237L455.8,237z"/>
				<path id="XMLID_778_" class="st109" d="M456.8,237L456.8,237L456.8,237z"/>
				<path id="XMLID_777_" class="st110" d="M457.8,237L457.8,237L457.8,237z"/>
				<path id="XMLID_776_" class="st111" d="M458.8,237L458.8,237L458.8,237z"/>
				<path id="XMLID_775_" class="st112" d="M459.7,237L459.7,237L459.7,237z"/>
				<path id="XMLID_774_" class="st113" d="M460.7,237L460.7,237L460.7,237z"/>
				<path id="XMLID_773_" class="st114" d="M461.7,237L461.7,237L461.7,237z"/>
				<path id="XMLID_772_" class="st115" d="M462.7,237L462.7,237L462.7,237z"/>
				<path id="XMLID_771_" class="st116" d="M463.7,237L463.7,237L463.7,237z"/>
				<path id="XMLID_770_" class="st117" d="M464.6,237L464.6,237L464.6,237z"/>
				<path id="XMLID_769_" class="st118" d="M465.6,237L465.6,237L465.6,237z"/>
				<path id="XMLID_768_" class="st119" d="M466.6,237L466.6,237L466.6,237z"/>
				<path id="XMLID_767_" class="st120" d="M467.6,237L467.6,237L467.6,237z"/>
				<path id="XMLID_766_" class="st121" d="M468.6,237L468.6,237L468.6,237z"/>
				<path id="XMLID_765_" class="st122" d="M469.5,237L469.5,237L469.5,237z"/>
				<path id="XMLID_764_" class="st123" d="M470.5,237L470.5,237L470.5,237z"/>
				<path id="XMLID_763_" class="st124" d="M471.5,237L471.5,237L471.5,237z"/>
				<path id="XMLID_762_" class="st125" d="M472.5,237L472.5,237L472.5,237z"/>
				<path id="XMLID_761_" class="st126" d="M473.5,237L473.5,237L473.5,237z"/>
				<path id="XMLID_760_" class="st127" d="M474.5,237L474.5,237L474.5,237z"/>
				<path id="XMLID_759_" class="st128" d="M475.4,237L475.4,237L475.4,237z"/>
				<path id="XMLID_758_" class="st129" d="M476.4,237L476.4,237L476.4,237z"/>
				<path id="XMLID_757_" class="st130" d="M477.4,237L477.4,237L477.4,237z"/>
				<path id="XMLID_756_" class="st131" d="M478.4,237L478.4,237L478.4,237z"/>
				<path id="XMLID_755_" class="st132" d="M479.4,237L479.4,237L479.4,237z"/>
				<path id="XMLID_754_" class="st133" d="M480.3,237L480.3,237L480.3,237z"/>
				<path id="XMLID_753_" class="st134" d="M481.3,237L481.3,237L481.3,237z"/>
				<path id="XMLID_752_" class="st135" d="M482.3,237L482.3,237L482.3,237z"/>
				<path id="XMLID_751_" class="st136" d="M483.3,237L483.3,237L483.3,237z"/>
				<path id="XMLID_750_" class="st137" d="M484.3,237L484.3,237L484.3,237z"/>
				<path id="XMLID_749_" class="st138" d="M485.2,237L485.2,237L485.2,237z"/>
				<path id="XMLID_748_" class="st139" d="M486.2,237L486.2,237L486.2,237z"/>
				<path id="XMLID_747_" class="st140" d="M487.2,237L487.2,237L487.2,237z"/>
				<path id="XMLID_746_" class="st141" d="M488.2,237L488.2,237L488.2,237z"/>
				<path id="XMLID_745_" class="st142" d="M489.2,237L489.2,237L489.2,237z"/>
				<path id="XMLID_744_" class="st143" d="M490.1,237L490.1,237L490.1,237z"/>
				<path id="XMLID_743_" class="st144" d="M491.1,237L491.1,237L491.1,237z"/>
				<path id="XMLID_742_" class="st145" d="M492.1,237L492.1,237L492.1,237z"/>
				<path id="XMLID_741_" class="st146" d="M493.1,237L493.1,237L493.1,237z"/>
				<path id="XMLID_740_" class="st147" d="M494.1,237L494.1,237L494.1,237z"/>
				<path id="XMLID_739_" class="st148" d="M495,237L495,237L495,237z"/>
				<path id="XMLID_738_" class="st149" d="M496,237L496,237L496,237z"/>
				<path id="XMLID_737_" class="st150" d="M497,237L497,237L497,237z"/>
				<path id="XMLID_736_" class="st151" d="M498,237L498,237L498,237z"/>
				<path id="XMLID_735_" class="st152" d="M499,237L499,237L499,237z"/>
				<path id="XMLID_734_" class="st153" d="M499.9,237L499.9,237L499.9,237z"/>
				<path id="XMLID_733_" class="st154" d="M500.9,237L500.9,237L500.9,237z"/>
				<path id="XMLID_732_" class="st155" d="M501.9,237L501.9,237L501.9,237z"/>
				<path id="XMLID_731_" class="st156" d="M502.9,237L502.9,237L502.9,237z"/>
				<path id="XMLID_730_" class="st157" d="M503.9,237L503.9,237L503.9,237z"/>
				<path id="XMLID_729_" class="st158" d="M504.8,237L504.8,237L504.8,237z"/>
				<path id="XMLID_728_" class="st159" d="M505.8,237L505.8,237L505.8,237z"/>
				<path id="XMLID_727_" class="st160" d="M506.8,237L506.8,237L506.8,237z"/>
				<path id="XMLID_726_" class="st161" d="M507.8,237L507.8,237L507.8,237z"/>
				<path id="XMLID_725_" class="st162" d="M508.8,237L508.8,237L508.8,237z"/>
				<path id="XMLID_724_" class="st163" d="M509.8,237L509.8,237L509.8,237z"/>
				<path id="XMLID_723_" class="st164" d="M510.7,237L510.7,237L510.7,237z"/>
				<path id="XMLID_722_" class="st165" d="M511.7,237L511.7,237L511.7,237z"/>
				<path id="XMLID_721_" class="st166" d="M512.7,237L512.7,237L512.7,237z"/>
				<path id="XMLID_720_" class="st167" d="M513.7,237L513.7,237L513.7,237z"/>
				<path id="XMLID_719_" class="st168" d="M514.7,237L514.7,237L514.7,237z"/>
				<path id="XMLID_718_" class="st169" d="M515.6,237L515.6,237L515.6,237z"/>
				<path id="XMLID_717_" class="st170" d="M516.6,237L516.6,237L516.6,237z"/>
				<path id="XMLID_716_" class="st171" d="M517.6,237L517.6,237L517.6,237z"/>
				<path id="XMLID_715_" class="st172" d="M518.6,237L518.6,237L518.6,237z"/>
				<path id="XMLID_714_" class="st173" d="M519.6,237L519.6,237L519.6,237z"/>
				<path id="XMLID_713_" class="st174" d="M520.5,237L520.5,237L520.5,237z"/>
				<path id="XMLID_712_" class="st175" d="M521.5,237L521.5,237L521.5,237z"/>
				<path id="XMLID_711_" class="st176" d="M522.5,237L522.5,237L522.5,237z"/>
				<path id="XMLID_710_" class="st177" d="M523.5,237L523.5,237L523.5,237z"/>
				<path id="XMLID_709_" class="st178" d="M524.5,237L524.5,237L524.5,237z"/>
				<path id="XMLID_708_" class="st179" d="M525.4,237L525.4,237L525.4,237z"/>
				<path id="XMLID_707_" class="st180" d="M526.4,237L526.4,237L526.4,237z"/>
				<path id="XMLID_706_" class="st181" d="M527.4,237L527.4,237L527.4,237z"/>
				<path id="XMLID_705_" class="st182" d="M528.4,237L528.4,237L528.4,237z"/>
				<path id="XMLID_704_" class="st183" d="M529.4,237L529.4,237L529.4,237z"/>
				<path id="XMLID_703_" class="st184" d="M530.3,237L530.3,237L530.3,237z"/>
				<path id="XMLID_702_" class="st185" d="M531.3,237L531.3,237L531.3,237z"/>
				<path id="XMLID_701_" class="st186" d="M532.3,237L532.3,237L532.3,237z"/>
				<path id="XMLID_700_" class="st187" d="M533.3,237L533.3,237L533.3,237z"/>
				<path id="XMLID_699_" class="st188" d="M534.3,237L534.3,237L534.3,237z"/>
				<path id="XMLID_698_" class="st189" d="M535.2,237L535.2,237L535.2,237z"/>
				<path id="XMLID_697_" class="st190" d="M536.2,237L536.2,237L536.2,237z"/>
				<path id="XMLID_696_" class="st191" d="M537.2,237L537.2,237L537.2,237z"/>
				<path id="XMLID_695_" class="st192" d="M538.2,237L538.2,237L538.2,237z"/>
				<path id="XMLID_694_" class="st193" d="M539.2,237L539.2,237L539.2,237z"/>
				<path id="XMLID_693_" class="st194" d="M540.1,237L540.1,237L540.1,237z"/>
				<path id="XMLID_692_" class="st195" d="M541.1,237L541.1,237L541.1,237z"/>
				<path id="XMLID_691_" class="st196" d="M542.1,237L542.1,237L542.1,237z"/>
				<path id="XMLID_690_" class="st197" d="M543.1,237L543.1,237L543.1,237z"/>
				<path id="XMLID_689_" class="st198" d="M544.1,237L544.1,237L544.1,237z"/>
				<path id="XMLID_688_" class="st199" d="M545.1,237L545.1,237L545.1,237z"/>
				<path id="XMLID_687_" class="st200" d="M546,237L546,237L546,237z"/>
				<path id="XMLID_686_" class="st201" d="M547,237L547,237L547,237z"/>
				<path id="XMLID_685_" class="st202" d="M548,237L548,237L548,237z"/>
				<path id="XMLID_684_" class="st203" d="M549,237L549,237L549,237z"/>
				<path id="XMLID_683_" class="st204" d="M550,237L550,237L550,237z"/>
				<path id="XMLID_682_" class="st205" d="M550.9,237L550.9,237L550.9,237z"/>
				<path id="XMLID_681_" class="st206" d="M551.9,237L551.9,237L551.9,237z"/>
				<path id="XMLID_680_" class="st207" d="M552.9,237L552.9,237L552.9,237z"/>
				<path id="XMLID_679_" class="st208" d="M553.9,237L553.9,237L553.9,237z"/>
				<path id="XMLID_678_" class="st209" d="M554.9,237L554.9,237L554.9,237z"/>
				<path id="XMLID_677_" class="st210" d="M555.8,237L555.8,237L555.8,237z"/>
				<path id="XMLID_676_" class="st211" d="M556.8,237L556.8,237L556.8,237z"/>
				<path id="XMLID_675_" class="st212" d="M557.8,237L557.8,237L557.8,237z"/>
				<path id="XMLID_674_" class="st0" d="M558.8,237L558.8,237L558.8,237z"/>
				<path id="XMLID_673_" class="st0" d="M558.8,237L558.8,237L558.8,237z"/>
			</g>
			<rect id="XMLID_671_" x="346" y="232.3" class="st0" width="212.8" height="9.3"/>
		</g>
		<g id="XMLID_448_">
			<g id="XMLID_450_">
				<path id="XMLID_669_" class="st1" d="M414.6,287.4L414.6,287.4L414.6,287.4z"/>
				<path id="XMLID_668_" class="st1" d="M415.2,287.4L415.2,287.4L415.2,287.4z"/>
				<path id="XMLID_667_" class="st1" d="M415.9,287.4L415.9,287.4L415.9,287.4z"/>
				<path id="XMLID_666_" class="st1" d="M416.6,287.4L416.6,287.4L416.6,287.4z"/>
				<path id="XMLID_665_" class="st2" d="M417.2,287.4L417.2,287.4L417.2,287.4z"/>
				<path id="XMLID_664_" class="st3" d="M417.9,287.4L417.9,287.4L417.9,287.4z"/>
				<path id="XMLID_663_" class="st4" d="M418.5,287.4L418.5,287.4L418.5,287.4z"/>
				<path id="XMLID_662_" class="st5" d="M419.2,287.4L419.2,287.4L419.2,287.4z"/>
				<path id="XMLID_661_" class="st6" d="M419.9,287.4L419.9,287.4L419.9,287.4z"/>
				<path id="XMLID_660_" class="st6" d="M420.5,287.4L420.5,287.4L420.5,287.4z"/>
				<path id="XMLID_659_" class="st7" d="M421.2,287.4L421.2,287.4L421.2,287.4z"/>
				<path id="XMLID_658_" class="st8" d="M421.9,287.4L421.9,287.4L421.9,287.4z"/>
				<path id="XMLID_657_" class="st9" d="M422.5,287.4L422.5,287.4L422.5,287.4z"/>
				<path id="XMLID_656_" class="st10" d="M423.2,287.4L423.2,287.4L423.2,287.4z"/>
				<path id="XMLID_655_" class="st10" d="M423.9,287.4L423.9,287.4L423.9,287.4z"/>
				<path id="XMLID_654_" class="st11" d="M424.5,287.4L424.5,287.4L424.5,287.4z"/>
				<path id="XMLID_653_" class="st12" d="M425.2,287.4L425.2,287.4L425.2,287.4z"/>
				<path id="XMLID_652_" class="st13" d="M425.9,287.4L425.9,287.4L425.9,287.4z"/>
				<path id="XMLID_651_" class="st14" d="M426.5,287.4L426.5,287.4L426.5,287.4z"/>
				<path id="XMLID_650_" class="st15" d="M427.2,287.4L427.2,287.4L427.2,287.4z"/>
				<path id="XMLID_649_" class="st16" d="M427.9,287.4L427.9,287.4L427.9,287.4z"/>
				<path id="XMLID_648_" class="st17" d="M428.5,287.4L428.5,287.4L428.5,287.4z"/>
				<path id="XMLID_647_" class="st18" d="M429.2,287.4L429.2,287.4L429.2,287.4z"/>
				<path id="XMLID_646_" class="st19" d="M429.8,287.4L429.8,287.4L429.8,287.4z"/>
				<path id="XMLID_645_" class="st20" d="M430.5,287.4L430.5,287.4L430.5,287.4z"/>
				<path id="XMLID_644_" class="st21" d="M431.2,287.4L431.2,287.4L431.2,287.4z"/>
				<path id="XMLID_643_" class="st22" d="M431.8,287.4L431.8,287.4L431.8,287.4z"/>
				<path id="XMLID_642_" class="st23" d="M432.5,287.4L432.5,287.4L432.5,287.4z"/>
				<path id="XMLID_641_" class="st24" d="M433.2,287.4L433.2,287.4L433.2,287.4z"/>
				<path id="XMLID_640_" class="st25" d="M433.8,287.4L433.8,287.4L433.8,287.4z"/>
				<path id="XMLID_639_" class="st26" d="M434.5,287.4L434.5,287.4L434.5,287.4z"/>
				<path id="XMLID_638_" class="st27" d="M435.2,287.4L435.2,287.4L435.2,287.4z"/>
				<path id="XMLID_637_" class="st28" d="M435.8,287.4L435.8,287.4L435.8,287.4z"/>
				<path id="XMLID_636_" class="st29" d="M436.5,287.4L436.5,287.4L436.5,287.4z"/>
				<path id="XMLID_635_" class="st30" d="M437.2,287.4L437.2,287.4L437.2,287.4z"/>
				<path id="XMLID_634_" class="st31" d="M437.8,287.4L437.8,287.4L437.8,287.4z"/>
				<path id="XMLID_633_" class="st32" d="M438.5,287.4L438.5,287.4L438.5,287.4z"/>
				<path id="XMLID_632_" class="st33" d="M439.2,287.4L439.2,287.4L439.2,287.4z"/>
				<path id="XMLID_631_" class="st34" d="M439.8,287.4L439.8,287.4L439.8,287.4z"/>
				<path id="XMLID_630_" class="st35" d="M440.5,287.4L440.5,287.4L440.5,287.4z"/>
				<path id="XMLID_629_" class="st36" d="M441.1,287.4L441.1,287.4L441.1,287.4z"/>
				<path id="XMLID_628_" class="st37" d="M441.8,287.4L441.8,287.4L441.8,287.4z"/>
				<path id="XMLID_627_" class="st38" d="M442.5,287.4L442.5,287.4L442.5,287.4z"/>
				<path id="XMLID_626_" class="st39" d="M443.1,287.4L443.1,287.4L443.1,287.4z"/>
				<path id="XMLID_625_" class="st40" d="M443.8,287.4L443.8,287.4L443.8,287.4z"/>
				<path id="XMLID_624_" class="st41" d="M444.5,287.4L444.5,287.4L444.5,287.4z"/>
				<path id="XMLID_623_" class="st42" d="M445.1,287.4L445.1,287.4L445.1,287.4z"/>
				<path id="XMLID_622_" class="st43" d="M445.8,287.4L445.8,287.4L445.8,287.4z"/>
				<path id="XMLID_621_" class="st44" d="M446.5,287.4L446.5,287.4L446.5,287.4z"/>
				<path id="XMLID_620_" class="st45" d="M447.1,287.4L447.1,287.4L447.1,287.4z"/>
				<path id="XMLID_619_" class="st46" d="M447.8,287.4L447.8,287.4L447.8,287.4z"/>
				<path id="XMLID_618_" class="st47" d="M448.5,287.4L448.5,287.4L448.5,287.4z"/>
				<path id="XMLID_617_" class="st48" d="M449.1,287.4L449.1,287.4L449.1,287.4z"/>
				<path id="XMLID_616_" class="st49" d="M449.8,287.4L449.8,287.4L449.8,287.4z"/>
				<path id="XMLID_615_" class="st50" d="M450.4,287.4L450.4,287.4L450.4,287.4z"/>
				<path id="XMLID_614_" class="st51" d="M451.1,287.4L451.1,287.4L451.1,287.4z"/>
				<path id="XMLID_613_" class="st52" d="M451.8,287.4L451.8,287.4L451.8,287.4z"/>
				<path id="XMLID_612_" class="st53" d="M452.4,287.4L452.4,287.4L452.4,287.4z"/>
				<path id="XMLID_611_" class="st54" d="M453.1,287.4L453.1,287.4L453.1,287.4z"/>
				<path id="XMLID_610_" class="st55" d="M453.8,287.4L453.8,287.4L453.8,287.4z"/>
				<path id="XMLID_609_" class="st56" d="M454.4,287.4L454.4,287.4L454.4,287.4z"/>
				<path id="XMLID_608_" class="st57" d="M455.1,287.4L455.1,287.4L455.1,287.4z"/>
				<path id="XMLID_607_" class="st58" d="M455.8,287.4L455.8,287.4L455.8,287.4z"/>
				<path id="XMLID_606_" class="st59" d="M456.4,287.4L456.4,287.4L456.4,287.4z"/>
				<path id="XMLID_605_" class="st60" d="M457.1,287.4L457.1,287.4L457.1,287.4z"/>
				<path id="XMLID_604_" class="st61" d="M457.8,287.4L457.8,287.4L457.8,287.4z"/>
				<path id="XMLID_603_" class="st62" d="M458.4,287.4L458.4,287.4L458.4,287.4z"/>
				<path id="XMLID_602_" class="st63" d="M459.1,287.4L459.1,287.4L459.1,287.4z"/>
				<path id="XMLID_601_" class="st64" d="M459.8,287.4L459.8,287.4L459.8,287.4z"/>
				<path id="XMLID_600_" class="st65" d="M460.4,287.4L460.4,287.4L460.4,287.4z"/>
				<path id="XMLID_599_" class="st66" d="M461.1,287.4L461.1,287.4L461.1,287.4z"/>
				<path id="XMLID_598_" class="st67" d="M461.7,287.4L461.7,287.4L461.7,287.4z"/>
				<path id="XMLID_597_" class="st68" d="M462.4,287.4L462.4,287.4L462.4,287.4z"/>
				<path id="XMLID_596_" class="st69" d="M463.1,287.4L463.1,287.4L463.1,287.4z"/>
				<path id="XMLID_595_" class="st70" d="M463.7,287.4L463.7,287.4L463.7,287.4z"/>
				<path id="XMLID_594_" class="st71" d="M464.4,287.4L464.4,287.4L464.4,287.4z"/>
				<path id="XMLID_593_" class="st72" d="M465.1,287.4L465.1,287.4L465.1,287.4z"/>
				<path id="XMLID_592_" class="st73" d="M465.7,287.4L465.7,287.4L465.7,287.4z"/>
				<path id="XMLID_591_" class="st74" d="M466.4,287.4L466.4,287.4L466.4,287.4z"/>
				<path id="XMLID_590_" class="st75" d="M467.1,287.4L467.1,287.4L467.1,287.4z"/>
				<path id="XMLID_589_" class="st76" d="M467.7,287.4L467.7,287.4L467.7,287.4z"/>
				<path id="XMLID_588_" class="st77" d="M468.4,287.4L468.4,287.4L468.4,287.4z"/>
				<path id="XMLID_587_" class="st78" d="M469.1,287.4L469.1,287.4L469.1,287.4z"/>
				<path id="XMLID_586_" class="st79" d="M469.7,287.4L469.7,287.4L469.7,287.4z"/>
				<path id="XMLID_585_" class="st80" d="M470.4,287.4L470.4,287.4L470.4,287.4z"/>
				<path id="XMLID_584_" class="st81" d="M471.1,287.4L471.1,287.4L471.1,287.4z"/>
				<path id="XMLID_583_" class="st82" d="M471.7,287.4L471.7,287.4L471.7,287.4z"/>
				<path id="XMLID_582_" class="st83" d="M472.4,287.4L472.4,287.4L472.4,287.4z"/>
				<path id="XMLID_581_" class="st84" d="M473,287.4L473,287.4L473,287.4z"/>
				<path id="XMLID_580_" class="st85" d="M473.7,287.4L473.7,287.4L473.7,287.4z"/>
				<path id="XMLID_579_" class="st86" d="M474.4,287.4L474.4,287.4L474.4,287.4z"/>
				<path id="XMLID_578_" class="st87" d="M475,287.4L475,287.4L475,287.4z"/>
				<path id="XMLID_577_" class="st88" d="M475.7,287.4L475.7,287.4L475.7,287.4z"/>
				<path id="XMLID_576_" class="st89" d="M476.4,287.4L476.4,287.4L476.4,287.4z"/>
				<path id="XMLID_575_" class="st90" d="M477,287.4L477,287.4L477,287.4z"/>
				<path id="XMLID_574_" class="st91" d="M477.7,287.4L477.7,287.4L477.7,287.4z"/>
				<path id="XMLID_573_" class="st92" d="M478.4,287.4L478.4,287.4L478.4,287.4z"/>
				<path id="XMLID_572_" class="st93" d="M479,287.4L479,287.4L479,287.4z"/>
				<path id="XMLID_571_" class="st94" d="M479.7,287.4L479.7,287.4L479.7,287.4z"/>
				<path id="XMLID_570_" class="st95" d="M480.4,287.4L480.4,287.4L480.4,287.4z"/>
				<path id="XMLID_569_" class="st96" d="M481,287.4L481,287.4L481,287.4z"/>
				<path id="XMLID_568_" class="st97" d="M481.7,287.4L481.7,287.4L481.7,287.4z"/>
				<path id="XMLID_567_" class="st98" d="M482.4,287.4L482.4,287.4L482.4,287.4z"/>
				<path id="XMLID_566_" class="st99" d="M483,287.4L483,287.4L483,287.4z"/>
				<path id="XMLID_565_" class="st100" d="M483.7,287.4L483.7,287.4L483.7,287.4z"/>
				<path id="XMLID_564_" class="st101" d="M484.3,287.4L484.3,287.4L484.3,287.4z"/>
				<path id="XMLID_563_" class="st102" d="M485,287.4L485,287.4L485,287.4z"/>
				<path id="XMLID_562_" class="st103" d="M485.7,287.4L485.7,287.4L485.7,287.4z"/>
				<path id="XMLID_561_" class="st104" d="M486.3,287.4L486.3,287.4L486.3,287.4z"/>
				<path id="XMLID_560_" class="st105" d="M487,287.4L487,287.4L487,287.4z"/>
				<path id="XMLID_559_" class="st106" d="M487.7,287.4L487.7,287.4L487.7,287.4z"/>
				<path id="XMLID_558_" class="st107" d="M488.3,287.4L488.3,287.4L488.3,287.4z"/>
				<path id="XMLID_557_" class="st108" d="M489,287.4L489,287.4L489,287.4z"/>
				<path id="XMLID_556_" class="st109" d="M489.7,287.4L489.7,287.4L489.7,287.4z"/>
				<path id="XMLID_555_" class="st110" d="M490.3,287.4L490.3,287.4L490.3,287.4z"/>
				<path id="XMLID_554_" class="st111" d="M491,287.4L491,287.4L491,287.4z"/>
				<path id="XMLID_553_" class="st112" d="M491.7,287.4L491.7,287.4L491.7,287.4z"/>
				<path id="XMLID_552_" class="st113" d="M492.3,287.4L492.3,287.4L492.3,287.4z"/>
				<path id="XMLID_551_" class="st114" d="M493,287.4L493,287.4L493,287.4z"/>
				<path id="XMLID_550_" class="st115" d="M493.6,287.4L493.6,287.4L493.6,287.4z"/>
				<path id="XMLID_549_" class="st116" d="M494.3,287.4L494.3,287.4L494.3,287.4z"/>
				<path id="XMLID_548_" class="st117" d="M495,287.4L495,287.4L495,287.4z"/>
				<path id="XMLID_547_" class="st118" d="M495.6,287.4L495.6,287.4L495.6,287.4z"/>
				<path id="XMLID_546_" class="st119" d="M496.3,287.4L496.3,287.4L496.3,287.4z"/>
				<path id="XMLID_545_" class="st120" d="M497,287.4L497,287.4L497,287.4z"/>
				<path id="XMLID_544_" class="st121" d="M497.6,287.4L497.6,287.4L497.6,287.4z"/>
				<path id="XMLID_543_" class="st122" d="M498.3,287.4L498.3,287.4L498.3,287.4z"/>
				<path id="XMLID_542_" class="st123" d="M499,287.4L499,287.4L499,287.4z"/>
				<path id="XMLID_541_" class="st124" d="M499.6,287.4L499.6,287.4L499.6,287.4z"/>
				<path id="XMLID_540_" class="st125" d="M500.3,287.4L500.3,287.4L500.3,287.4z"/>
				<path id="XMLID_539_" class="st126" d="M501,287.4L501,287.4L501,287.4z"/>
				<path id="XMLID_538_" class="st127" d="M501.6,287.4L501.6,287.4L501.6,287.4z"/>
				<path id="XMLID_537_" class="st128" d="M502.3,287.4L502.3,287.4L502.3,287.4z"/>
				<path id="XMLID_536_" class="st129" d="M503,287.4L503,287.4L503,287.4z"/>
				<path id="XMLID_535_" class="st130" d="M503.6,287.4L503.6,287.4L503.6,287.4z"/>
				<path id="XMLID_534_" class="st131" d="M504.3,287.4L504.3,287.4L504.3,287.4z"/>
				<path id="XMLID_533_" class="st132" d="M504.9,287.4L504.9,287.4L504.9,287.4z"/>
				<path id="XMLID_532_" class="st133" d="M505.6,287.4L505.6,287.4L505.6,287.4z"/>
				<path id="XMLID_531_" class="st134" d="M506.3,287.4L506.3,287.4L506.3,287.4z"/>
				<path id="XMLID_530_" class="st135" d="M506.9,287.4L506.9,287.4L506.9,287.4z"/>
				<path id="XMLID_529_" class="st136" d="M507.6,287.4L507.6,287.4L507.6,287.4z"/>
				<path id="XMLID_528_" class="st137" d="M508.3,287.4L508.3,287.4L508.3,287.4z"/>
				<path id="XMLID_527_" class="st138" d="M508.9,287.4L508.9,287.4L508.9,287.4z"/>
				<path id="XMLID_526_" class="st139" d="M509.6,287.4L509.6,287.4L509.6,287.4z"/>
				<path id="XMLID_525_" class="st140" d="M510.3,287.4L510.3,287.4L510.3,287.4z"/>
				<path id="XMLID_524_" class="st141" d="M510.9,287.4L510.9,287.4L510.9,287.4z"/>
				<path id="XMLID_523_" class="st142" d="M511.6,287.4L511.6,287.4L511.6,287.4z"/>
				<path id="XMLID_522_" class="st143" d="M512.3,287.4L512.3,287.4L512.3,287.4z"/>
				<path id="XMLID_521_" class="st144" d="M512.9,287.4L512.9,287.4L512.9,287.4z"/>
				<path id="XMLID_520_" class="st145" d="M513.6,287.4L513.6,287.4L513.6,287.4z"/>
				<path id="XMLID_519_" class="st146" d="M514.3,287.4L514.3,287.4L514.3,287.4z"/>
				<path id="XMLID_518_" class="st147" d="M514.9,287.4L514.9,287.4L514.9,287.4z"/>
				<path id="XMLID_517_" class="st148" d="M515.6,287.4L515.6,287.4L515.6,287.4z"/>
				<path id="XMLID_516_" class="st149" d="M516.2,287.4L516.2,287.4L516.2,287.4z"/>
				<path id="XMLID_515_" class="st150" d="M516.9,287.4L516.9,287.4L516.9,287.4z"/>
				<path id="XMLID_514_" class="st151" d="M517.6,287.4L517.6,287.4L517.6,287.4z"/>
				<path id="XMLID_513_" class="st152" d="M518.2,287.4L518.2,287.4L518.2,287.4z"/>
				<path id="XMLID_512_" class="st153" d="M518.9,287.4L518.9,287.4L518.9,287.4z"/>
				<path id="XMLID_511_" class="st154" d="M519.6,287.4L519.6,287.4L519.6,287.4z"/>
				<path id="XMLID_510_" class="st155" d="M520.2,287.4L520.2,287.4L520.2,287.4z"/>
				<path id="XMLID_509_" class="st156" d="M520.9,287.4L520.9,287.4L520.9,287.4z"/>
				<path id="XMLID_508_" class="st157" d="M521.6,287.4L521.6,287.4L521.6,287.4z"/>
				<path id="XMLID_507_" class="st158" d="M522.2,287.4L522.2,287.4L522.2,287.4z"/>
				<path id="XMLID_506_" class="st159" d="M522.9,287.4L522.9,287.4L522.9,287.4z"/>
				<path id="XMLID_505_" class="st160" d="M523.6,287.4L523.6,287.4L523.6,287.4z"/>
				<path id="XMLID_504_" class="st161" d="M524.2,287.4L524.2,287.4L524.2,287.4z"/>
				<path id="XMLID_503_" class="st162" d="M524.9,287.4L524.9,287.4L524.9,287.4z"/>
				<path id="XMLID_502_" class="st163" d="M525.5,287.4L525.5,287.4L525.5,287.4z"/>
				<path id="XMLID_501_" class="st164" d="M526.2,287.4L526.2,287.4L526.2,287.4z"/>
				<path id="XMLID_500_" class="st165" d="M526.9,287.4L526.9,287.4L526.9,287.4z"/>
				<path id="XMLID_499_" class="st166" d="M527.5,287.4L527.5,287.4L527.5,287.4z"/>
				<path id="XMLID_498_" class="st167" d="M528.2,287.4L528.2,287.4L528.2,287.4z"/>
				<path id="XMLID_497_" class="st168" d="M528.9,287.4L528.9,287.4L528.9,287.4z"/>
				<path id="XMLID_496_" class="st169" d="M529.5,287.4L529.5,287.4L529.5,287.4z"/>
				<path id="XMLID_495_" class="st170" d="M530.2,287.4L530.2,287.4L530.2,287.4z"/>
				<path id="XMLID_494_" class="st171" d="M530.9,287.4L530.9,287.4L530.9,287.4z"/>
				<path id="XMLID_493_" class="st172" d="M531.5,287.4L531.5,287.4L531.5,287.4z"/>
				<path id="XMLID_492_" class="st173" d="M532.2,287.4L532.2,287.4L532.2,287.4z"/>
				<path id="XMLID_491_" class="st174" d="M532.9,287.4L532.9,287.4L532.9,287.4z"/>
				<path id="XMLID_490_" class="st175" d="M533.5,287.4L533.5,287.4L533.5,287.4z"/>
				<path id="XMLID_489_" class="st176" d="M534.2,287.4L534.2,287.4L534.2,287.4z"/>
				<path id="XMLID_488_" class="st177" d="M534.9,287.4L534.9,287.4L534.9,287.4z"/>
				<path id="XMLID_487_" class="st178" d="M535.5,287.4L535.5,287.4L535.5,287.4z"/>
				<path id="XMLID_486_" class="st179" d="M536.2,287.4L536.2,287.4L536.2,287.4z"/>
				<path id="XMLID_485_" class="st180" d="M536.8,287.4L536.8,287.4L536.8,287.4z"/>
				<path id="XMLID_484_" class="st181" d="M537.5,287.4L537.5,287.4L537.5,287.4z"/>
				<path id="XMLID_483_" class="st182" d="M538.2,287.4L538.2,287.4L538.2,287.4z"/>
				<path id="XMLID_482_" class="st183" d="M538.8,287.4L538.8,287.4L538.8,287.4z"/>
				<path id="XMLID_481_" class="st184" d="M539.5,287.4L539.5,287.4L539.5,287.4z"/>
				<path id="XMLID_480_" class="st185" d="M540.2,287.4L540.2,287.4L540.2,287.4z"/>
				<path id="XMLID_479_" class="st186" d="M540.8,287.4L540.8,287.4L540.8,287.4z"/>
				<path id="XMLID_478_" class="st187" d="M541.5,287.4L541.5,287.4L541.5,287.4z"/>
				<path id="XMLID_477_" class="st188" d="M542.2,287.4L542.2,287.4L542.2,287.4z"/>
				<path id="XMLID_476_" class="st189" d="M542.8,287.4L542.8,287.4L542.8,287.4z"/>
				<path id="XMLID_475_" class="st190" d="M543.5,287.4L543.5,287.4L543.5,287.4z"/>
				<path id="XMLID_474_" class="st191" d="M544.2,287.4L544.2,287.4L544.2,287.4z"/>
				<path id="XMLID_473_" class="st192" d="M544.8,287.4L544.8,287.4L544.8,287.4z"/>
				<path id="XMLID_472_" class="st193" d="M545.5,287.4L545.5,287.4L545.5,287.4z"/>
				<path id="XMLID_471_" class="st194" d="M546.2,287.4L546.2,287.4L546.2,287.4z"/>
				<path id="XMLID_470_" class="st195" d="M546.8,287.4L546.8,287.4L546.8,287.4z"/>
				<path id="XMLID_469_" class="st196" d="M547.5,287.4L547.5,287.4L547.5,287.4z"/>
				<path id="XMLID_468_" class="st197" d="M548.1,287.4L548.1,287.4L548.1,287.4z"/>
				<path id="XMLID_467_" class="st198" d="M548.8,287.4L548.8,287.4L548.8,287.4z"/>
				<path id="XMLID_466_" class="st199" d="M549.5,287.4L549.5,287.4L549.5,287.4z"/>
				<path id="XMLID_465_" class="st200" d="M550.1,287.4L550.1,287.4L550.1,287.4z"/>
				<path id="XMLID_464_" class="st201" d="M550.8,287.4L550.8,287.4L550.8,287.4z"/>
				<path id="XMLID_463_" class="st202" d="M551.5,287.4L551.5,287.4L551.5,287.4z"/>
				<path id="XMLID_462_" class="st203" d="M552.1,287.4L552.1,287.4L552.1,287.4z"/>
				<path id="XMLID_461_" class="st204" d="M552.8,287.4L552.8,287.4L552.8,287.4z"/>
				<path id="XMLID_460_" class="st205" d="M553.5,287.4L553.5,287.4L553.5,287.4z"/>
				<path id="XMLID_459_" class="st206" d="M554.1,287.4L554.1,287.4L554.1,287.4z"/>
				<path id="XMLID_458_" class="st207" d="M554.8,287.4L554.8,287.4L554.8,287.4z"/>
				<path id="XMLID_457_" class="st208" d="M555.5,287.4L555.5,287.4L555.5,287.4z"/>
				<path id="XMLID_456_" class="st209" d="M556.1,287.4L556.1,287.4L556.1,287.4z"/>
				<path id="XMLID_455_" class="st210" d="M556.8,287.4L556.8,287.4L556.8,287.4z"/>
				<path id="XMLID_454_" class="st211" d="M557.4,287.4L557.4,287.4L557.4,287.4z"/>
				<path id="XMLID_453_" class="st212" d="M558.1,287.4L558.1,287.4L558.1,287.4z"/>
				<path id="XMLID_452_" class="st0" d="M558.8,287.4L558.8,287.4L558.8,287.4z"/>
				<path id="XMLID_451_" class="st0" d="M558.8,287.4L558.8,287.4L558.8,287.4z"/>
			</g>
			<rect id="XMLID_449_" x="414.6" y="282.8" class="st0" width="144.2" height="9.3"/>
		</g>
		<g id="XMLID_226_">
			<g id="XMLID_228_">
				<path id="XMLID_447_" class="st1" d="M414.6,337.8L414.6,337.8L414.6,337.8z"/>
				<path id="XMLID_446_" class="st1" d="M415.2,337.8L415.2,337.8L415.2,337.8z"/>
				<path id="XMLID_445_" class="st1" d="M415.9,337.8L415.9,337.8L415.9,337.8z"/>
				<path id="XMLID_444_" class="st1" d="M416.6,337.8L416.6,337.8L416.6,337.8z"/>
				<path id="XMLID_443_" class="st2" d="M417.2,337.8L417.2,337.8L417.2,337.8z"/>
				<path id="XMLID_442_" class="st3" d="M417.9,337.8L417.9,337.8L417.9,337.8z"/>
				<path id="XMLID_441_" class="st4" d="M418.5,337.8L418.5,337.8L418.5,337.8z"/>
				<path id="XMLID_440_" class="st5" d="M419.2,337.8L419.2,337.8L419.2,337.8z"/>
				<path id="XMLID_439_" class="st6" d="M419.9,337.8L419.9,337.8L419.9,337.8z"/>
				<path id="XMLID_438_" class="st6" d="M420.5,337.8L420.5,337.8L420.5,337.8z"/>
				<path id="XMLID_437_" class="st7" d="M421.2,337.8L421.2,337.8L421.2,337.8z"/>
				<path id="XMLID_436_" class="st8" d="M421.9,337.8L421.9,337.8L421.9,337.8z"/>
				<path id="XMLID_435_" class="st9" d="M422.5,337.8L422.5,337.8L422.5,337.8z"/>
				<path id="XMLID_434_" class="st10" d="M423.2,337.8L423.2,337.8L423.2,337.8z"/>
				<path id="XMLID_433_" class="st10" d="M423.9,337.8L423.9,337.8L423.9,337.8z"/>
				<path id="XMLID_432_" class="st11" d="M424.5,337.8L424.5,337.8L424.5,337.8z"/>
				<path id="XMLID_431_" class="st12" d="M425.2,337.8L425.2,337.8L425.2,337.8z"/>
				<path id="XMLID_430_" class="st13" d="M425.9,337.8L425.9,337.8L425.9,337.8z"/>
				<path id="XMLID_429_" class="st14" d="M426.5,337.8L426.5,337.8L426.5,337.8z"/>
				<path id="XMLID_428_" class="st15" d="M427.2,337.8L427.2,337.8L427.2,337.8z"/>
				<path id="XMLID_427_" class="st16" d="M427.9,337.8L427.9,337.8L427.9,337.8z"/>
				<path id="XMLID_426_" class="st17" d="M428.5,337.8L428.5,337.8L428.5,337.8z"/>
				<path id="XMLID_425_" class="st18" d="M429.2,337.8L429.2,337.8L429.2,337.8z"/>
				<path id="XMLID_424_" class="st19" d="M429.8,337.8L429.8,337.8L429.8,337.8z"/>
				<path id="XMLID_423_" class="st20" d="M430.5,337.8L430.5,337.8L430.5,337.8z"/>
				<path id="XMLID_422_" class="st21" d="M431.2,337.8L431.2,337.8L431.2,337.8z"/>
				<path id="XMLID_421_" class="st22" d="M431.8,337.8L431.8,337.8L431.8,337.8z"/>
				<path id="XMLID_420_" class="st23" d="M432.5,337.8L432.5,337.8L432.5,337.8z"/>
				<path id="XMLID_419_" class="st24" d="M433.2,337.8L433.2,337.8L433.2,337.8z"/>
				<path id="XMLID_418_" class="st25" d="M433.8,337.8L433.8,337.8L433.8,337.8z"/>
				<path id="XMLID_417_" class="st26" d="M434.5,337.8L434.5,337.8L434.5,337.8z"/>
				<path id="XMLID_416_" class="st27" d="M435.2,337.8L435.2,337.8L435.2,337.8z"/>
				<path id="XMLID_415_" class="st28" d="M435.8,337.8L435.8,337.8L435.8,337.8z"/>
				<path id="XMLID_414_" class="st29" d="M436.5,337.8L436.5,337.8L436.5,337.8z"/>
				<path id="XMLID_413_" class="st30" d="M437.2,337.8L437.2,337.8L437.2,337.8z"/>
				<path id="XMLID_412_" class="st31" d="M437.8,337.8L437.8,337.8L437.8,337.8z"/>
				<path id="XMLID_411_" class="st32" d="M438.5,337.8L438.5,337.8L438.5,337.8z"/>
				<path id="XMLID_410_" class="st33" d="M439.2,337.8L439.2,337.8L439.2,337.8z"/>
				<path id="XMLID_409_" class="st34" d="M439.8,337.8L439.8,337.8L439.8,337.8z"/>
				<path id="XMLID_408_" class="st35" d="M440.5,337.8L440.5,337.8L440.5,337.8z"/>
				<path id="XMLID_407_" class="st36" d="M441.1,337.8L441.1,337.8L441.1,337.8z"/>
				<path id="XMLID_406_" class="st37" d="M441.8,337.8L441.8,337.8L441.8,337.8z"/>
				<path id="XMLID_405_" class="st38" d="M442.5,337.8L442.5,337.8L442.5,337.8z"/>
				<path id="XMLID_404_" class="st39" d="M443.1,337.8L443.1,337.8L443.1,337.8z"/>
				<path id="XMLID_403_" class="st40" d="M443.8,337.8L443.8,337.8L443.8,337.8z"/>
				<path id="XMLID_402_" class="st41" d="M444.5,337.8L444.5,337.8L444.5,337.8z"/>
				<path id="XMLID_401_" class="st42" d="M445.1,337.8L445.1,337.8L445.1,337.8z"/>
				<path id="XMLID_400_" class="st43" d="M445.8,337.8L445.8,337.8L445.8,337.8z"/>
				<path id="XMLID_399_" class="st44" d="M446.5,337.8L446.5,337.8L446.5,337.8z"/>
				<path id="XMLID_398_" class="st45" d="M447.1,337.8L447.1,337.8L447.1,337.8z"/>
				<path id="XMLID_397_" class="st46" d="M447.8,337.8L447.8,337.8L447.8,337.8z"/>
				<path id="XMLID_396_" class="st47" d="M448.5,337.8L448.5,337.8L448.5,337.8z"/>
				<path id="XMLID_395_" class="st48" d="M449.1,337.8L449.1,337.8L449.1,337.8z"/>
				<path id="XMLID_394_" class="st49" d="M449.8,337.8L449.8,337.8L449.8,337.8z"/>
				<path id="XMLID_393_" class="st50" d="M450.4,337.8L450.4,337.8L450.4,337.8z"/>
				<path id="XMLID_392_" class="st51" d="M451.1,337.8L451.1,337.8L451.1,337.8z"/>
				<path id="XMLID_391_" class="st52" d="M451.8,337.8L451.8,337.8L451.8,337.8z"/>
				<path id="XMLID_390_" class="st53" d="M452.4,337.8L452.4,337.8L452.4,337.8z"/>
				<path id="XMLID_389_" class="st54" d="M453.1,337.8L453.1,337.8L453.1,337.8z"/>
				<path id="XMLID_388_" class="st55" d="M453.8,337.8L453.8,337.8L453.8,337.8z"/>
				<path id="XMLID_387_" class="st56" d="M454.4,337.8L454.4,337.8L454.4,337.8z"/>
				<path id="XMLID_386_" class="st57" d="M455.1,337.8L455.1,337.8L455.1,337.8z"/>
				<path id="XMLID_385_" class="st58" d="M455.8,337.8L455.8,337.8L455.8,337.8z"/>
				<path id="XMLID_384_" class="st59" d="M456.4,337.8L456.4,337.8L456.4,337.8z"/>
				<path id="XMLID_383_" class="st60" d="M457.1,337.8L457.1,337.8L457.1,337.8z"/>
				<path id="XMLID_382_" class="st61" d="M457.8,337.8L457.8,337.8L457.8,337.8z"/>
				<path id="XMLID_381_" class="st62" d="M458.4,337.8L458.4,337.8L458.4,337.8z"/>
				<path id="XMLID_380_" class="st63" d="M459.1,337.8L459.1,337.8L459.1,337.8z"/>
				<path id="XMLID_379_" class="st64" d="M459.8,337.8L459.8,337.8L459.8,337.8z"/>
				<path id="XMLID_378_" class="st65" d="M460.4,337.8L460.4,337.8L460.4,337.8z"/>
				<path id="XMLID_377_" class="st66" d="M461.1,337.8L461.1,337.8L461.1,337.8z"/>
				<path id="XMLID_376_" class="st67" d="M461.7,337.8L461.7,337.8L461.7,337.8z"/>
				<path id="XMLID_375_" class="st68" d="M462.4,337.8L462.4,337.8L462.4,337.8z"/>
				<path id="XMLID_374_" class="st69" d="M463.1,337.8L463.1,337.8L463.1,337.8z"/>
				<path id="XMLID_373_" class="st70" d="M463.7,337.8L463.7,337.8L463.7,337.8z"/>
				<path id="XMLID_372_" class="st71" d="M464.4,337.8L464.4,337.8L464.4,337.8z"/>
				<path id="XMLID_371_" class="st72" d="M465.1,337.8L465.1,337.8L465.1,337.8z"/>
				<path id="XMLID_370_" class="st73" d="M465.7,337.8L465.7,337.8L465.7,337.8z"/>
				<path id="XMLID_369_" class="st74" d="M466.4,337.8L466.4,337.8L466.4,337.8z"/>
				<path id="XMLID_368_" class="st75" d="M467.1,337.8L467.1,337.8L467.1,337.8z"/>
				<path id="XMLID_367_" class="st76" d="M467.7,337.8L467.7,337.8L467.7,337.8z"/>
				<path id="XMLID_366_" class="st77" d="M468.4,337.8L468.4,337.8L468.4,337.8z"/>
				<path id="XMLID_365_" class="st78" d="M469.1,337.8L469.1,337.8L469.1,337.8z"/>
				<path id="XMLID_364_" class="st79" d="M469.7,337.8L469.7,337.8L469.7,337.8z"/>
				<path id="XMLID_363_" class="st80" d="M470.4,337.8L470.4,337.8L470.4,337.8z"/>
				<path id="XMLID_362_" class="st81" d="M471.1,337.8L471.1,337.8L471.1,337.8z"/>
				<path id="XMLID_361_" class="st82" d="M471.7,337.8L471.7,337.8L471.7,337.8z"/>
				<path id="XMLID_360_" class="st83" d="M472.4,337.8L472.4,337.8L472.4,337.8z"/>
				<path id="XMLID_359_" class="st84" d="M473,337.8L473,337.8L473,337.8z"/>
				<path id="XMLID_358_" class="st85" d="M473.7,337.8L473.7,337.8L473.7,337.8z"/>
				<path id="XMLID_357_" class="st86" d="M474.4,337.8L474.4,337.8L474.4,337.8z"/>
				<path id="XMLID_356_" class="st87" d="M475,337.8L475,337.8L475,337.8z"/>
				<path id="XMLID_355_" class="st88" d="M475.7,337.8L475.7,337.8L475.7,337.8z"/>
				<path id="XMLID_354_" class="st89" d="M476.4,337.8L476.4,337.8L476.4,337.8z"/>
				<path id="XMLID_353_" class="st90" d="M477,337.8L477,337.8L477,337.8z"/>
				<path id="XMLID_352_" class="st91" d="M477.7,337.8L477.7,337.8L477.7,337.8z"/>
				<path id="XMLID_351_" class="st92" d="M478.4,337.8L478.4,337.8L478.4,337.8z"/>
				<path id="XMLID_350_" class="st93" d="M479,337.8L479,337.8L479,337.8z"/>
				<path id="XMLID_349_" class="st94" d="M479.7,337.8L479.7,337.8L479.7,337.8z"/>
				<path id="XMLID_348_" class="st95" d="M480.4,337.8L480.4,337.8L480.4,337.8z"/>
				<path id="XMLID_347_" class="st96" d="M481,337.8L481,337.8L481,337.8z"/>
				<path id="XMLID_346_" class="st97" d="M481.7,337.8L481.7,337.8L481.7,337.8z"/>
				<path id="XMLID_345_" class="st98" d="M482.4,337.8L482.4,337.8L482.4,337.8z"/>
				<path id="XMLID_344_" class="st99" d="M483,337.8L483,337.8L483,337.8z"/>
				<path id="XMLID_343_" class="st100" d="M483.7,337.8L483.7,337.8L483.7,337.8z"/>
				<path id="XMLID_342_" class="st101" d="M484.3,337.8L484.3,337.8L484.3,337.8z"/>
				<path id="XMLID_341_" class="st102" d="M485,337.8L485,337.8L485,337.8z"/>
				<path id="XMLID_340_" class="st103" d="M485.7,337.8L485.7,337.8L485.7,337.8z"/>
				<path id="XMLID_339_" class="st104" d="M486.3,337.8L486.3,337.8L486.3,337.8z"/>
				<path id="XMLID_338_" class="st105" d="M487,337.8L487,337.8L487,337.8z"/>
				<path id="XMLID_337_" class="st106" d="M487.7,337.8L487.7,337.8L487.7,337.8z"/>
				<path id="XMLID_336_" class="st107" d="M488.3,337.8L488.3,337.8L488.3,337.8z"/>
				<path id="XMLID_335_" class="st108" d="M489,337.8L489,337.8L489,337.8z"/>
				<path id="XMLID_334_" class="st109" d="M489.7,337.8L489.7,337.8L489.7,337.8z"/>
				<path id="XMLID_333_" class="st110" d="M490.3,337.8L490.3,337.8L490.3,337.8z"/>
				<path id="XMLID_332_" class="st111" d="M491,337.8L491,337.8L491,337.8z"/>
				<path id="XMLID_331_" class="st112" d="M491.7,337.8L491.7,337.8L491.7,337.8z"/>
				<path id="XMLID_330_" class="st113" d="M492.3,337.8L492.3,337.8L492.3,337.8z"/>
				<path id="XMLID_329_" class="st114" d="M493,337.8L493,337.8L493,337.8z"/>
				<path id="XMLID_328_" class="st115" d="M493.6,337.8L493.6,337.8L493.6,337.8z"/>
				<path id="XMLID_327_" class="st116" d="M494.3,337.8L494.3,337.8L494.3,337.8z"/>
				<path id="XMLID_326_" class="st117" d="M495,337.8L495,337.8L495,337.8z"/>
				<path id="XMLID_325_" class="st118" d="M495.6,337.8L495.6,337.8L495.6,337.8z"/>
				<path id="XMLID_324_" class="st119" d="M496.3,337.8L496.3,337.8L496.3,337.8z"/>
				<path id="XMLID_323_" class="st120" d="M497,337.8L497,337.8L497,337.8z"/>
				<path id="XMLID_322_" class="st121" d="M497.6,337.8L497.6,337.8L497.6,337.8z"/>
				<path id="XMLID_321_" class="st122" d="M498.3,337.8L498.3,337.8L498.3,337.8z"/>
				<path id="XMLID_320_" class="st123" d="M499,337.8L499,337.8L499,337.8z"/>
				<path id="XMLID_319_" class="st124" d="M499.6,337.8L499.6,337.8L499.6,337.8z"/>
				<path id="XMLID_318_" class="st125" d="M500.3,337.8L500.3,337.8L500.3,337.8z"/>
				<path id="XMLID_317_" class="st126" d="M501,337.8L501,337.8L501,337.8z"/>
				<path id="XMLID_316_" class="st127" d="M501.6,337.8L501.6,337.8L501.6,337.8z"/>
				<path id="XMLID_315_" class="st128" d="M502.3,337.8L502.3,337.8L502.3,337.8z"/>
				<path id="XMLID_314_" class="st129" d="M503,337.8L503,337.8L503,337.8z"/>
				<path id="XMLID_313_" class="st130" d="M503.6,337.8L503.6,337.8L503.6,337.8z"/>
				<path id="XMLID_312_" class="st131" d="M504.3,337.8L504.3,337.8L504.3,337.8z"/>
				<path id="XMLID_311_" class="st132" d="M504.9,337.8L504.9,337.8L504.9,337.8z"/>
				<path id="XMLID_310_" class="st133" d="M505.6,337.8L505.6,337.8L505.6,337.8z"/>
				<path id="XMLID_309_" class="st134" d="M506.3,337.8L506.3,337.8L506.3,337.8z"/>
				<path id="XMLID_308_" class="st135" d="M506.9,337.8L506.9,337.8L506.9,337.8z"/>
				<path id="XMLID_307_" class="st136" d="M507.6,337.8L507.6,337.8L507.6,337.8z"/>
				<path id="XMLID_306_" class="st137" d="M508.3,337.8L508.3,337.8L508.3,337.8z"/>
				<path id="XMLID_305_" class="st138" d="M508.9,337.8L508.9,337.8L508.9,337.8z"/>
				<path id="XMLID_304_" class="st139" d="M509.6,337.8L509.6,337.8L509.6,337.8z"/>
				<path id="XMLID_303_" class="st140" d="M510.3,337.8L510.3,337.8L510.3,337.8z"/>
				<path id="XMLID_302_" class="st141" d="M510.9,337.8L510.9,337.8L510.9,337.8z"/>
				<path id="XMLID_301_" class="st142" d="M511.6,337.8L511.6,337.8L511.6,337.8z"/>
				<path id="XMLID_300_" class="st143" d="M512.3,337.8L512.3,337.8L512.3,337.8z"/>
				<path id="XMLID_299_" class="st144" d="M512.9,337.8L512.9,337.8L512.9,337.8z"/>
				<path id="XMLID_298_" class="st145" d="M513.6,337.8L513.6,337.8L513.6,337.8z"/>
				<path id="XMLID_297_" class="st146" d="M514.3,337.8L514.3,337.8L514.3,337.8z"/>
				<path id="XMLID_296_" class="st147" d="M514.9,337.8L514.9,337.8L514.9,337.8z"/>
				<path id="XMLID_295_" class="st148" d="M515.6,337.8L515.6,337.8L515.6,337.8z"/>
				<path id="XMLID_294_" class="st149" d="M516.2,337.8L516.2,337.8L516.2,337.8z"/>
				<path id="XMLID_293_" class="st150" d="M516.9,337.8L516.9,337.8L516.9,337.8z"/>
				<path id="XMLID_292_" class="st151" d="M517.6,337.8L517.6,337.8L517.6,337.8z"/>
				<path id="XMLID_291_" class="st152" d="M518.2,337.8L518.2,337.8L518.2,337.8z"/>
				<path id="XMLID_290_" class="st153" d="M518.9,337.8L518.9,337.8L518.9,337.8z"/>
				<path id="XMLID_289_" class="st154" d="M519.6,337.8L519.6,337.8L519.6,337.8z"/>
				<path id="XMLID_288_" class="st155" d="M520.2,337.8L520.2,337.8L520.2,337.8z"/>
				<path id="XMLID_287_" class="st156" d="M520.9,337.8L520.9,337.8L520.9,337.8z"/>
				<path id="XMLID_286_" class="st157" d="M521.6,337.8L521.6,337.8L521.6,337.8z"/>
				<path id="XMLID_285_" class="st158" d="M522.2,337.8L522.2,337.8L522.2,337.8z"/>
				<path id="XMLID_284_" class="st159" d="M522.9,337.8L522.9,337.8L522.9,337.8z"/>
				<path id="XMLID_283_" class="st160" d="M523.6,337.8L523.6,337.8L523.6,337.8z"/>
				<path id="XMLID_282_" class="st161" d="M524.2,337.8L524.2,337.8L524.2,337.8z"/>
				<path id="XMLID_281_" class="st162" d="M524.9,337.8L524.9,337.8L524.9,337.8z"/>
				<path id="XMLID_280_" class="st163" d="M525.5,337.8L525.5,337.8L525.5,337.8z"/>
				<path id="XMLID_279_" class="st164" d="M526.2,337.8L526.2,337.8L526.2,337.8z"/>
				<path id="XMLID_278_" class="st165" d="M526.9,337.8L526.9,337.8L526.9,337.8z"/>
				<path id="XMLID_277_" class="st166" d="M527.5,337.8L527.5,337.8L527.5,337.8z"/>
				<path id="XMLID_276_" class="st167" d="M528.2,337.8L528.2,337.8L528.2,337.8z"/>
				<path id="XMLID_275_" class="st168" d="M528.9,337.8L528.9,337.8L528.9,337.8z"/>
				<path id="XMLID_274_" class="st169" d="M529.5,337.8L529.5,337.8L529.5,337.8z"/>
				<path id="XMLID_273_" class="st170" d="M530.2,337.8L530.2,337.8L530.2,337.8z"/>
				<path id="XMLID_272_" class="st171" d="M530.9,337.8L530.9,337.8L530.9,337.8z"/>
				<path id="XMLID_271_" class="st172" d="M531.5,337.8L531.5,337.8L531.5,337.8z"/>
				<path id="XMLID_270_" class="st173" d="M532.2,337.8L532.2,337.8L532.2,337.8z"/>
				<path id="XMLID_269_" class="st174" d="M532.9,337.8L532.9,337.8L532.9,337.8z"/>
				<path id="XMLID_268_" class="st175" d="M533.5,337.8L533.5,337.8L533.5,337.8z"/>
				<path id="XMLID_267_" class="st176" d="M534.2,337.8L534.2,337.8L534.2,337.8z"/>
				<path id="XMLID_266_" class="st177" d="M534.9,337.8L534.9,337.8L534.9,337.8z"/>
				<path id="XMLID_265_" class="st178" d="M535.5,337.8L535.5,337.8L535.5,337.8z"/>
				<path id="XMLID_264_" class="st179" d="M536.2,337.8L536.2,337.8L536.2,337.8z"/>
				<path id="XMLID_263_" class="st180" d="M536.8,337.8L536.8,337.8L536.8,337.8z"/>
				<path id="XMLID_262_" class="st181" d="M537.5,337.8L537.5,337.8L537.5,337.8z"/>
				<path id="XMLID_261_" class="st182" d="M538.2,337.8L538.2,337.8L538.2,337.8z"/>
				<path id="XMLID_260_" class="st183" d="M538.8,337.8L538.8,337.8L538.8,337.8z"/>
				<path id="XMLID_259_" class="st184" d="M539.5,337.8L539.5,337.8L539.5,337.8z"/>
				<path id="XMLID_258_" class="st185" d="M540.2,337.8L540.2,337.8L540.2,337.8z"/>
				<path id="XMLID_257_" class="st186" d="M540.8,337.8L540.8,337.8L540.8,337.8z"/>
				<path id="XMLID_256_" class="st187" d="M541.5,337.8L541.5,337.8L541.5,337.8z"/>
				<path id="XMLID_255_" class="st188" d="M542.2,337.8L542.2,337.8L542.2,337.8z"/>
				<path id="XMLID_254_" class="st189" d="M542.8,337.8L542.8,337.8L542.8,337.8z"/>
				<path id="XMLID_253_" class="st190" d="M543.5,337.8L543.5,337.8L543.5,337.8z"/>
				<path id="XMLID_252_" class="st191" d="M544.2,337.8L544.2,337.8L544.2,337.8z"/>
				<path id="XMLID_251_" class="st192" d="M544.8,337.8L544.8,337.8L544.8,337.8z"/>
				<path id="XMLID_250_" class="st193" d="M545.5,337.8L545.5,337.8L545.5,337.8z"/>
				<path id="XMLID_249_" class="st194" d="M546.2,337.8L546.2,337.8L546.2,337.8z"/>
				<path id="XMLID_248_" class="st195" d="M546.8,337.8L546.8,337.8L546.8,337.8z"/>
				<path id="XMLID_247_" class="st196" d="M547.5,337.8L547.5,337.8L547.5,337.8z"/>
				<path id="XMLID_246_" class="st197" d="M548.1,337.8L548.1,337.8L548.1,337.8z"/>
				<path id="XMLID_245_" class="st198" d="M548.8,337.8L548.8,337.8L548.8,337.8z"/>
				<path id="XMLID_244_" class="st199" d="M549.5,337.8L549.5,337.8L549.5,337.8z"/>
				<path id="XMLID_243_" class="st200" d="M550.1,337.8L550.1,337.8L550.1,337.8z"/>
				<path id="XMLID_242_" class="st201" d="M550.8,337.8L550.8,337.8L550.8,337.8z"/>
				<path id="XMLID_241_" class="st202" d="M551.5,337.8L551.5,337.8L551.5,337.8z"/>
				<path id="XMLID_240_" class="st203" d="M552.1,337.8L552.1,337.8L552.1,337.8z"/>
				<path id="XMLID_239_" class="st204" d="M552.8,337.8L552.8,337.8L552.8,337.8z"/>
				<path id="XMLID_238_" class="st205" d="M553.5,337.8L553.5,337.8L553.5,337.8z"/>
				<path id="XMLID_237_" class="st206" d="M554.1,337.8L554.1,337.8L554.1,337.8z"/>
				<path id="XMLID_236_" class="st207" d="M554.8,337.8L554.8,337.8L554.8,337.8z"/>
				<path id="XMLID_235_" class="st208" d="M555.5,337.8L555.5,337.8L555.5,337.8z"/>
				<path id="XMLID_234_" class="st209" d="M556.1,337.8L556.1,337.8L556.1,337.8z"/>
				<path id="XMLID_233_" class="st210" d="M556.8,337.8L556.8,337.8L556.8,337.8z"/>
				<path id="XMLID_232_" class="st211" d="M557.4,337.8L557.4,337.8L557.4,337.8z"/>
				<path id="XMLID_231_" class="st212" d="M558.1,337.8L558.1,337.8L558.1,337.8z"/>
				<path id="XMLID_230_" class="st0" d="M558.8,337.8L558.8,337.8L558.8,337.8z"/>
				<path id="XMLID_229_" class="st0" d="M558.8,337.8L558.8,337.8L558.8,337.8z"/>
			</g>
			<rect id="XMLID_227_" x="414.6" y="333.2" class="st0" width="144.2" height="9.3"/>
		</g>
		<g id="XMLID_4_">
			<g id="XMLID_6_">
				<path id="XMLID_225_" class="st1" d="M346,388.2L346,388.2L346,388.2z"/>
				<path id="XMLID_224_" class="st1" d="M347,388.2L347,388.2L347,388.2z"/>
				<path id="XMLID_223_" class="st1" d="M348,388.2L348,388.2L348,388.2z"/>
				<path id="XMLID_222_" class="st1" d="M348.9,388.2L348.9,388.2L348.9,388.2z"/>
				<path id="XMLID_221_" class="st2" d="M349.9,388.2L349.9,388.2L349.9,388.2z"/>
				<path id="XMLID_220_" class="st3" d="M350.9,388.2L350.9,388.2L350.9,388.2z"/>
				<path id="XMLID_219_" class="st4" d="M351.9,388.2L351.9,388.2L351.9,388.2z"/>
				<path id="XMLID_218_" class="st5" d="M352.9,388.2L352.9,388.2L352.9,388.2z"/>
				<path id="XMLID_217_" class="st6" d="M353.8,388.2L353.8,388.2L353.8,388.2z"/>
				<path id="XMLID_216_" class="st6" d="M354.8,388.2L354.8,388.2L354.8,388.2z"/>
				<path id="XMLID_215_" class="st7" d="M355.8,388.2L355.8,388.2L355.8,388.2z"/>
				<path id="XMLID_214_" class="st8" d="M356.8,388.2L356.8,388.2L356.8,388.2z"/>
				<path id="XMLID_213_" class="st9" d="M357.8,388.2L357.8,388.2L357.8,388.2z"/>
				<path id="XMLID_212_" class="st10" d="M358.7,388.2L358.7,388.2L358.7,388.2z"/>
				<path id="XMLID_211_" class="st10" d="M359.7,388.2L359.7,388.2L359.7,388.2z"/>
				<path id="XMLID_210_" class="st11" d="M360.7,388.2L360.7,388.2L360.7,388.2z"/>
				<path id="XMLID_209_" class="st12" d="M361.7,388.2L361.7,388.2L361.7,388.2z"/>
				<path id="XMLID_208_" class="st13" d="M362.7,388.2L362.7,388.2L362.7,388.2z"/>
				<path id="XMLID_207_" class="st14" d="M363.6,388.2L363.6,388.2L363.6,388.2z"/>
				<path id="XMLID_206_" class="st15" d="M364.6,388.2L364.6,388.2L364.6,388.2z"/>
				<path id="XMLID_205_" class="st16" d="M365.6,388.2L365.6,388.2L365.6,388.2z"/>
				<path id="XMLID_204_" class="st17" d="M366.6,388.2L366.6,388.2L366.6,388.2z"/>
				<path id="XMLID_203_" class="st18" d="M367.6,388.2L367.6,388.2L367.6,388.2z"/>
				<path id="XMLID_202_" class="st19" d="M368.6,388.2L368.6,388.2L368.6,388.2z"/>
				<path id="XMLID_201_" class="st20" d="M369.5,388.2L369.5,388.2L369.5,388.2z"/>
				<path id="XMLID_200_" class="st21" d="M370.5,388.2L370.5,388.2L370.5,388.2z"/>
				<path id="XMLID_199_" class="st22" d="M371.5,388.2L371.5,388.2L371.5,388.2z"/>
				<path id="XMLID_198_" class="st23" d="M372.5,388.2L372.5,388.2L372.5,388.2z"/>
				<path id="XMLID_197_" class="st24" d="M373.5,388.2L373.5,388.2L373.5,388.2z"/>
				<path id="XMLID_196_" class="st25" d="M374.4,388.2L374.4,388.2L374.4,388.2z"/>
				<path id="XMLID_195_" class="st26" d="M375.4,388.2L375.4,388.2L375.4,388.2z"/>
				<path id="XMLID_194_" class="st27" d="M376.4,388.2L376.4,388.2L376.4,388.2z"/>
				<path id="XMLID_193_" class="st28" d="M377.4,388.2L377.4,388.2L377.4,388.2z"/>
				<path id="XMLID_192_" class="st29" d="M378.4,388.2L378.4,388.2L378.4,388.2z"/>
				<path id="XMLID_191_" class="st30" d="M379.3,388.2L379.3,388.2L379.3,388.2z"/>
				<path id="XMLID_190_" class="st31" d="M380.3,388.2L380.3,388.2L380.3,388.2z"/>
				<path id="XMLID_189_" class="st32" d="M381.3,388.2L381.3,388.2L381.3,388.2z"/>
				<path id="XMLID_188_" class="st33" d="M382.3,388.2L382.3,388.2L382.3,388.2z"/>
				<path id="XMLID_187_" class="st34" d="M383.3,388.2L383.3,388.2L383.3,388.2z"/>
				<path id="XMLID_186_" class="st35" d="M384.2,388.2L384.2,388.2L384.2,388.2z"/>
				<path id="XMLID_185_" class="st36" d="M385.2,388.2L385.2,388.2L385.2,388.2z"/>
				<path id="XMLID_184_" class="st37" d="M386.2,388.2L386.2,388.2L386.2,388.2z"/>
				<path id="XMLID_183_" class="st38" d="M387.2,388.2L387.2,388.2L387.2,388.2z"/>
				<path id="XMLID_182_" class="st39" d="M388.2,388.2L388.2,388.2L388.2,388.2z"/>
				<path id="XMLID_181_" class="st40" d="M389.1,388.2L389.1,388.2L389.1,388.2z"/>
				<path id="XMLID_180_" class="st41" d="M390.1,388.2L390.1,388.2L390.1,388.2z"/>
				<path id="XMLID_179_" class="st42" d="M391.1,388.2L391.1,388.2L391.1,388.2z"/>
				<path id="XMLID_178_" class="st43" d="M392.1,388.2L392.1,388.2L392.1,388.2z"/>
				<path id="XMLID_177_" class="st44" d="M393.1,388.2L393.1,388.2L393.1,388.2z"/>
				<path id="XMLID_176_" class="st45" d="M394,388.2L394,388.2L394,388.2z"/>
				<path id="XMLID_175_" class="st46" d="M395,388.2L395,388.2L395,388.2z"/>
				<path id="XMLID_174_" class="st47" d="M396,388.2L396,388.2L396,388.2z"/>
				<path id="XMLID_173_" class="st48" d="M397,388.2L397,388.2L397,388.2z"/>
				<path id="XMLID_172_" class="st49" d="M398,388.2L398,388.2L398,388.2z"/>
				<path id="XMLID_171_" class="st50" d="M398.9,388.2L398.9,388.2L398.9,388.2z"/>
				<path id="XMLID_170_" class="st51" d="M399.9,388.2L399.9,388.2L399.9,388.2z"/>
				<path id="XMLID_169_" class="st52" d="M400.9,388.2L400.9,388.2L400.9,388.2z"/>
				<path id="XMLID_168_" class="st53" d="M401.9,388.2L401.9,388.2L401.9,388.2z"/>
				<path id="XMLID_167_" class="st54" d="M402.9,388.2L402.9,388.2L402.9,388.2z"/>
				<path id="XMLID_166_" class="st55" d="M403.9,388.2L403.9,388.2L403.9,388.2z"/>
				<path id="XMLID_165_" class="st56" d="M404.8,388.2L404.8,388.2L404.8,388.2z"/>
				<path id="XMLID_164_" class="st57" d="M405.8,388.2L405.8,388.2L405.8,388.2z"/>
				<path id="XMLID_163_" class="st58" d="M406.8,388.2L406.8,388.2L406.8,388.2z"/>
				<path id="XMLID_162_" class="st59" d="M407.8,388.2L407.8,388.2L407.8,388.2z"/>
				<path id="XMLID_161_" class="st60" d="M408.8,388.2L408.8,388.2L408.8,388.2z"/>
				<path id="XMLID_160_" class="st61" d="M409.7,388.2L409.7,388.2L409.7,388.2z"/>
				<path id="XMLID_159_" class="st62" d="M410.7,388.2L410.7,388.2L410.7,388.2z"/>
				<path id="XMLID_158_" class="st63" d="M411.7,388.2L411.7,388.2L411.7,388.2z"/>
				<path id="XMLID_157_" class="st64" d="M412.7,388.2L412.7,388.2L412.7,388.2z"/>
				<path id="XMLID_156_" class="st65" d="M413.7,388.2L413.7,388.2L413.7,388.2z"/>
				<path id="XMLID_155_" class="st66" d="M414.6,388.2L414.6,388.2L414.6,388.2z"/>
				<path id="XMLID_154_" class="st67" d="M415.6,388.2L415.6,388.2L415.6,388.2z"/>
				<path id="XMLID_153_" class="st68" d="M416.6,388.2L416.6,388.2L416.6,388.2z"/>
				<path id="XMLID_152_" class="st69" d="M417.6,388.2L417.6,388.2L417.6,388.2z"/>
				<path id="XMLID_151_" class="st70" d="M418.6,388.2L418.6,388.2L418.6,388.2z"/>
				<path id="XMLID_150_" class="st71" d="M419.5,388.2L419.5,388.2L419.5,388.2z"/>
				<path id="XMLID_149_" class="st72" d="M420.5,388.2L420.5,388.2L420.5,388.2z"/>
				<path id="XMLID_148_" class="st73" d="M421.5,388.2L421.5,388.2L421.5,388.2z"/>
				<path id="XMLID_147_" class="st74" d="M422.5,388.2L422.5,388.2L422.5,388.2z"/>
				<path id="XMLID_146_" class="st75" d="M423.5,388.2L423.5,388.2L423.5,388.2z"/>
				<path id="XMLID_145_" class="st76" d="M424.4,388.2L424.4,388.2L424.4,388.2z"/>
				<path id="XMLID_144_" class="st77" d="M425.4,388.2L425.4,388.2L425.4,388.2z"/>
				<path id="XMLID_143_" class="st78" d="M426.4,388.2L426.4,388.2L426.4,388.2z"/>
				<path id="XMLID_142_" class="st79" d="M427.4,388.2L427.4,388.2L427.4,388.2z"/>
				<path id="XMLID_141_" class="st80" d="M428.4,388.2L428.4,388.2L428.4,388.2z"/>
				<path id="XMLID_140_" class="st81" d="M429.3,388.2L429.3,388.2L429.3,388.2z"/>
				<path id="XMLID_139_" class="st82" d="M430.3,388.2L430.3,388.2L430.3,388.2z"/>
				<path id="XMLID_138_" class="st83" d="M431.3,388.2L431.3,388.2L431.3,388.2z"/>
				<path id="XMLID_137_" class="st84" d="M432.3,388.2L432.3,388.2L432.3,388.2z"/>
				<path id="XMLID_136_" class="st85" d="M433.3,388.2L433.3,388.2L433.3,388.2z"/>
				<path id="XMLID_135_" class="st86" d="M434.2,388.2L434.2,388.2L434.2,388.2z"/>
				<path id="XMLID_134_" class="st87" d="M435.2,388.2L435.2,388.2L435.2,388.2z"/>
				<path id="XMLID_133_" class="st88" d="M436.2,388.2L436.2,388.2L436.2,388.2z"/>
				<path id="XMLID_132_" class="st89" d="M437.2,388.2L437.2,388.2L437.2,388.2z"/>
				<path id="XMLID_131_" class="st90" d="M438.2,388.2L438.2,388.2L438.2,388.2z"/>
				<path id="XMLID_130_" class="st91" d="M439.2,388.2L439.2,388.2L439.2,388.2z"/>
				<path id="XMLID_129_" class="st92" d="M440.1,388.2L440.1,388.2L440.1,388.2z"/>
				<path id="XMLID_128_" class="st93" d="M441.1,388.2L441.1,388.2L441.1,388.2z"/>
				<path id="XMLID_127_" class="st94" d="M442.1,388.2L442.1,388.2L442.1,388.2z"/>
				<path id="XMLID_126_" class="st95" d="M443.1,388.2L443.1,388.2L443.1,388.2z"/>
				<path id="XMLID_125_" class="st96" d="M444.1,388.2L444.1,388.2L444.1,388.2z"/>
				<path id="XMLID_124_" class="st97" d="M445,388.2L445,388.2L445,388.2z"/>
				<path id="XMLID_123_" class="st98" d="M446,388.2L446,388.2L446,388.2z"/>
				<path id="XMLID_122_" class="st99" d="M447,388.2L447,388.2L447,388.2z"/>
				<path id="XMLID_121_" class="st100" d="M448,388.2L448,388.2L448,388.2z"/>
				<path id="XMLID_120_" class="st101" d="M449,388.2L449,388.2L449,388.2z"/>
				<path id="XMLID_119_" class="st102" d="M449.9,388.2L449.9,388.2L449.9,388.2z"/>
				<path id="XMLID_118_" class="st103" d="M450.9,388.2L450.9,388.2L450.9,388.2z"/>
				<path id="XMLID_117_" class="st104" d="M451.9,388.2L451.9,388.2L451.9,388.2z"/>
				<path id="XMLID_116_" class="st105" d="M452.9,388.2L452.9,388.2L452.9,388.2z"/>
				<path id="XMLID_115_" class="st106" d="M453.9,388.2L453.9,388.2L453.9,388.2z"/>
				<path id="XMLID_114_" class="st107" d="M454.8,388.2L454.8,388.2L454.8,388.2z"/>
				<path id="XMLID_113_" class="st108" d="M455.8,388.2L455.8,388.2L455.8,388.2z"/>
				<path id="XMLID_112_" class="st109" d="M456.8,388.2L456.8,388.2L456.8,388.2z"/>
				<path id="XMLID_111_" class="st110" d="M457.8,388.2L457.8,388.2L457.8,388.2z"/>
				<path id="XMLID_110_" class="st111" d="M458.8,388.2L458.8,388.2L458.8,388.2z"/>
				<path id="XMLID_109_" class="st112" d="M459.7,388.2L459.7,388.2L459.7,388.2z"/>
				<path id="XMLID_108_" class="st113" d="M460.7,388.2L460.7,388.2L460.7,388.2z"/>
				<path id="XMLID_107_" class="st114" d="M461.7,388.2L461.7,388.2L461.7,388.2z"/>
				<path id="XMLID_106_" class="st115" d="M462.7,388.2L462.7,388.2L462.7,388.2z"/>
				<path id="XMLID_105_" class="st116" d="M463.7,388.2L463.7,388.2L463.7,388.2z"/>
				<path id="XMLID_104_" class="st117" d="M464.6,388.2L464.6,388.2L464.6,388.2z"/>
				<path id="XMLID_103_" class="st118" d="M465.6,388.2L465.6,388.2L465.6,388.2z"/>
				<path id="XMLID_102_" class="st119" d="M466.6,388.2L466.6,388.2L466.6,388.2z"/>
				<path id="XMLID_101_" class="st120" d="M467.6,388.2L467.6,388.2L467.6,388.2z"/>
				<path id="XMLID_100_" class="st121" d="M468.6,388.2L468.6,388.2L468.6,388.2z"/>
				<path id="XMLID_99_" class="st122" d="M469.5,388.2L469.5,388.2L469.5,388.2z"/>
				<path id="XMLID_98_" class="st123" d="M470.5,388.2L470.5,388.2L470.5,388.2z"/>
				<path id="XMLID_97_" class="st124" d="M471.5,388.2L471.5,388.2L471.5,388.2z"/>
				<path id="XMLID_96_" class="st125" d="M472.5,388.2L472.5,388.2L472.5,388.2z"/>
				<path id="XMLID_95_" class="st126" d="M473.5,388.2L473.5,388.2L473.5,388.2z"/>
				<path id="XMLID_94_" class="st127" d="M474.5,388.2L474.5,388.2L474.5,388.2z"/>
				<path id="XMLID_93_" class="st128" d="M475.4,388.2L475.4,388.2L475.4,388.2z"/>
				<path id="XMLID_92_" class="st129" d="M476.4,388.2L476.4,388.2L476.4,388.2z"/>
				<path id="XMLID_91_" class="st130" d="M477.4,388.2L477.4,388.2L477.4,388.2z"/>
				<path id="XMLID_90_" class="st131" d="M478.4,388.2L478.4,388.2L478.4,388.2z"/>
				<path id="XMLID_89_" class="st132" d="M479.4,388.2L479.4,388.2L479.4,388.2z"/>
				<path id="XMLID_88_" class="st133" d="M480.3,388.2L480.3,388.2L480.3,388.2z"/>
				<path id="XMLID_87_" class="st134" d="M481.3,388.2L481.3,388.2L481.3,388.2z"/>
				<path id="XMLID_86_" class="st135" d="M482.3,388.2L482.3,388.2L482.3,388.2z"/>
				<path id="XMLID_85_" class="st136" d="M483.3,388.2L483.3,388.2L483.3,388.2z"/>
				<path id="XMLID_84_" class="st137" d="M484.3,388.2L484.3,388.2L484.3,388.2z"/>
				<path id="XMLID_83_" class="st138" d="M485.2,388.2L485.2,388.2L485.2,388.2z"/>
				<path id="XMLID_82_" class="st139" d="M486.2,388.2L486.2,388.2L486.2,388.2z"/>
				<path id="XMLID_81_" class="st140" d="M487.2,388.2L487.2,388.2L487.2,388.2z"/>
				<path id="XMLID_80_" class="st141" d="M488.2,388.2L488.2,388.2L488.2,388.2z"/>
				<path id="XMLID_79_" class="st142" d="M489.2,388.2L489.2,388.2L489.2,388.2z"/>
				<path id="XMLID_78_" class="st143" d="M490.1,388.2L490.1,388.2L490.1,388.2z"/>
				<path id="XMLID_77_" class="st144" d="M491.1,388.2L491.1,388.2L491.1,388.2z"/>
				<path id="XMLID_76_" class="st145" d="M492.1,388.2L492.1,388.2L492.1,388.2z"/>
				<path id="XMLID_75_" class="st146" d="M493.1,388.2L493.1,388.2L493.1,388.2z"/>
				<path id="XMLID_74_" class="st147" d="M494.1,388.2L494.1,388.2L494.1,388.2z"/>
				<path id="XMLID_73_" class="st148" d="M495,388.2L495,388.2L495,388.2z"/>
				<path id="XMLID_72_" class="st149" d="M496,388.2L496,388.2L496,388.2z"/>
				<path id="XMLID_71_" class="st150" d="M497,388.2L497,388.2L497,388.2z"/>
				<path id="XMLID_70_" class="st151" d="M498,388.2L498,388.2L498,388.2z"/>
				<path id="XMLID_69_" class="st152" d="M499,388.2L499,388.2L499,388.2z"/>
				<path id="XMLID_68_" class="st153" d="M499.9,388.2L499.9,388.2L499.9,388.2z"/>
				<path id="XMLID_67_" class="st154" d="M500.9,388.2L500.9,388.2L500.9,388.2z"/>
				<path id="XMLID_66_" class="st155" d="M501.9,388.2L501.9,388.2L501.9,388.2z"/>
				<path id="XMLID_65_" class="st156" d="M502.9,388.2L502.9,388.2L502.9,388.2z"/>
				<path id="XMLID_64_" class="st157" d="M503.9,388.2L503.9,388.2L503.9,388.2z"/>
				<path id="XMLID_63_" class="st158" d="M504.8,388.2L504.8,388.2L504.8,388.2z"/>
				<path id="XMLID_62_" class="st159" d="M505.8,388.2L505.8,388.2L505.8,388.2z"/>
				<path id="XMLID_61_" class="st160" d="M506.8,388.2L506.8,388.2L506.8,388.2z"/>
				<path id="XMLID_60_" class="st161" d="M507.8,388.2L507.8,388.2L507.8,388.2z"/>
				<path id="XMLID_59_" class="st162" d="M508.8,388.2L508.8,388.2L508.8,388.2z"/>
				<path id="XMLID_58_" class="st163" d="M509.8,388.2L509.8,388.2L509.8,388.2z"/>
				<path id="XMLID_57_" class="st164" d="M510.7,388.2L510.7,388.2L510.7,388.2z"/>
				<path id="XMLID_56_" class="st165" d="M511.7,388.2L511.7,388.2L511.7,388.2z"/>
				<path id="XMLID_55_" class="st166" d="M512.7,388.2L512.7,388.2L512.7,388.2z"/>
				<path id="XMLID_54_" class="st167" d="M513.7,388.2L513.7,388.2L513.7,388.2z"/>
				<path id="XMLID_53_" class="st168" d="M514.7,388.2L514.7,388.2L514.7,388.2z"/>
				<path id="XMLID_52_" class="st169" d="M515.6,388.2L515.6,388.2L515.6,388.2z"/>
				<path id="XMLID_51_" class="st170" d="M516.6,388.2L516.6,388.2L516.6,388.2z"/>
				<path id="XMLID_50_" class="st171" d="M517.6,388.2L517.6,388.2L517.6,388.2z"/>
				<path id="XMLID_49_" class="st172" d="M518.6,388.2L518.6,388.2L518.6,388.2z"/>
				<path id="XMLID_48_" class="st173" d="M519.6,388.2L519.6,388.2L519.6,388.2z"/>
				<path id="XMLID_47_" class="st174" d="M520.5,388.2L520.5,388.2L520.5,388.2z"/>
				<path id="XMLID_46_" class="st175" d="M521.5,388.2L521.5,388.2L521.5,388.2z"/>
				<path id="XMLID_45_" class="st176" d="M522.5,388.2L522.5,388.2L522.5,388.2z"/>
				<path id="XMLID_44_" class="st177" d="M523.5,388.2L523.5,388.2L523.5,388.2z"/>
				<path id="XMLID_43_" class="st178" d="M524.5,388.2L524.5,388.2L524.5,388.2z"/>
				<path id="XMLID_42_" class="st179" d="M525.4,388.2L525.4,388.2L525.4,388.2z"/>
				<path id="XMLID_41_" class="st180" d="M526.4,388.2L526.4,388.2L526.4,388.2z"/>
				<path id="XMLID_40_" class="st181" d="M527.4,388.2L527.4,388.2L527.4,388.2z"/>
				<path id="XMLID_39_" class="st182" d="M528.4,388.2L528.4,388.2L528.4,388.2z"/>
				<path id="XMLID_38_" class="st183" d="M529.4,388.2L529.4,388.2L529.4,388.2z"/>
				<path id="XMLID_37_" class="st184" d="M530.3,388.2L530.3,388.2L530.3,388.2z"/>
				<path id="XMLID_36_" class="st185" d="M531.3,388.2L531.3,388.2L531.3,388.2z"/>
				<path id="XMLID_35_" class="st186" d="M532.3,388.2L532.3,388.2L532.3,388.2z"/>
				<path id="XMLID_34_" class="st187" d="M533.3,388.2L533.3,388.2L533.3,388.2z"/>
				<path id="XMLID_33_" class="st188" d="M534.3,388.2L534.3,388.2L534.3,388.2z"/>
				<path id="XMLID_32_" class="st189" d="M535.2,388.2L535.2,388.2L535.2,388.2z"/>
				<path id="XMLID_31_" class="st190" d="M536.2,388.2L536.2,388.2L536.2,388.2z"/>
				<path id="XMLID_30_" class="st191" d="M537.2,388.2L537.2,388.2L537.2,388.2z"/>
				<path id="XMLID_29_" class="st192" d="M538.2,388.2L538.2,388.2L538.2,388.2z"/>
				<path id="XMLID_28_" class="st193" d="M539.2,388.2L539.2,388.2L539.2,388.2z"/>
				<path id="XMLID_27_" class="st194" d="M540.1,388.2L540.1,388.2L540.1,388.2z"/>
				<path id="XMLID_26_" class="st195" d="M541.1,388.2L541.1,388.2L541.1,388.2z"/>
				<path id="XMLID_25_" class="st196" d="M542.1,388.2L542.1,388.2L542.1,388.2z"/>
				<path id="XMLID_24_" class="st197" d="M543.1,388.2L543.1,388.2L543.1,388.2z"/>
				<path id="XMLID_23_" class="st198" d="M544.1,388.2L544.1,388.2L544.1,388.2z"/>
				<path id="XMLID_22_" class="st199" d="M545.1,388.2L545.1,388.2L545.1,388.2z"/>
				<path id="XMLID_21_" class="st200" d="M546,388.2L546,388.2L546,388.2z"/>
				<path id="XMLID_20_" class="st201" d="M547,388.2L547,388.2L547,388.2z"/>
				<path id="XMLID_19_" class="st202" d="M548,388.2L548,388.2L548,388.2z"/>
				<path id="XMLID_18_" class="st203" d="M549,388.2L549,388.2L549,388.2z"/>
				<path id="XMLID_17_" class="st204" d="M550,388.2L550,388.2L550,388.2z"/>
				<path id="XMLID_16_" class="st205" d="M550.9,388.2L550.9,388.2L550.9,388.2z"/>
				<path id="XMLID_15_" class="st206" d="M551.9,388.2L551.9,388.2L551.9,388.2z"/>
				<path id="XMLID_14_" class="st207" d="M552.9,388.2L552.9,388.2L552.9,388.2z"/>
				<path id="XMLID_13_" class="st208" d="M553.9,388.2L553.9,388.2L553.9,388.2z"/>
				<path id="XMLID_12_" class="st209" d="M554.9,388.2L554.9,388.2L554.9,388.2z"/>
				<path id="XMLID_11_" class="st210" d="M555.8,388.2L555.8,388.2L555.8,388.2z"/>
				<path id="XMLID_10_" class="st211" d="M556.8,388.2L556.8,388.2L556.8,388.2z"/>
				<path id="XMLID_9_" class="st212" d="M557.8,388.2L557.8,388.2L557.8,388.2z"/>
				<path id="XMLID_8_" class="st0" d="M558.8,388.2L558.8,388.2L558.8,388.2z"/>
				<path id="XMLID_7_" class="st0" d="M558.8,388.2L558.8,388.2L558.8,388.2z"/>
			</g>
			<rect id="XMLID_5_" x="346" y="383.6" class="st0" width="212.8" height="9.3"/>
		</g>
	</g>
</g>
</svg>
