<?xml version="1.0" encoding="utf-8"?>
<!-- Generator: Adobe Illustrator 19.0.0, SVG Export Plug-In . SVG Version: 6.00 Build 0)  -->
<!DOCTYPE svg PUBLIC "-//W3C//DTD SVG 1.1//EN" "http://www.w3.org/Graphics/SVG/1.1/DTD/svg11.dtd">
<svg version="1.1" id="Layer_1" xmlns="http://www.w3.org/2000/svg" xmlns:xlink="http://www.w3.org/1999/xlink" x="0px" y="0px"
	 viewBox="0 0 792 612" style="enable-background:new 0 0 792 612;" xml:space="preserve">
<style type="text/css">
	.st0{fill:#1B181C;stroke:#1B181C;stroke-miterlimit:10;}
</style>
<path class="st0" d="M599,135.5c0-24.8-13.1-34.9-29.2-22.5l-110.5,85l-110.5,85c-16.1,12.4-16.1,32.5,0,45l110.5,85l110.5,85
	c16.1,12.4,29.2,2.4,29.2-22.5v-170V135.5z"/>
<path class="st0" d="M320.1,198l110.5-85c16.1-12.4,29.2-2.4,29.2,22.5v23c0,4-2.6,9.2-5.7,11.6L417.8,198l-110.5,85
	c-16.1,12.4-16.1,32.5,0,45l110.5,85l36.3,27.9c3.2,2.4,5.7,7.6,5.7,11.6v23c0,24.8-13.1,34.9-29.2,22.5l-110.5-85l-110.5-85
	c-16.1-12.4-16.1-32.5,0-45L320.1,198z"/>
</svg>
