<?xml version="1.0" encoding="utf-8"?>
<!-- Generator: Adobe Illustrator 19.0.0, SVG Export Plug-In . SVG Version: 6.00 Build 0)  -->
<!DOCTYPE svg PUBLIC "-//W3C//DTD SVG 1.1//EN" "http://www.w3.org/Graphics/SVG/1.1/DTD/svg11.dtd">
<svg version="1.1" id="Layer_1" xmlns="http://www.w3.org/2000/svg" xmlns:xlink="http://www.w3.org/1999/xlink" x="0px" y="0px"
	 viewBox="153.7 35.7 539 539" style="enable-background:new 153.7 35.7 539 539;" xml:space="preserve">
<style type="text/css">
	.st0{fill:#FFFFFF;}
</style>
<g id="XMLID_2_">
	<g id="XMLID_896_">
		<path id="XMLID_897_" class="st0" d="M423.2,574.7c-148.6,0-269.5-120.9-269.5-269.5S274.6,35.7,423.2,35.7
			s269.5,120.9,269.5,269.5S571.8,574.7,423.2,574.7z M423.2,57.9c-136.3,0-247.3,110.9-247.3,247.3
			c0,136.3,110.9,247.3,247.3,247.3c136.3,0,247.3-110.9,247.3-247.3S559.5,57.9,423.2,57.9z"/>
	</g>
	<g id="XMLID_3_">
		<g id="XMLID_892_">
			<path id="XMLID_893_" class="st0" d="M270.3,414.2L270.3,414.2c-5.1,0-9.3-4.2-9.3-9.3V220.3c0-5.1,4.2-9.3,9.3-9.3
				c1.8,0,3.6,0.5,5.1,1.6l139,92.3c2.6,1.7,4.1,4.6,4.1,7.7s-1.5,6-4.1,7.7l-139,92.3C273.9,413.6,272.2,414.2,270.3,414.2z
				 M272.2,223.7v177.8L406,312.6L272.2,223.7z"/>
		</g>
		<g id="XMLID_670_">
			<g id="XMLID_672_">
				<path id="XMLID_891_" class="st0" d="M367,237L367,237L367,237z"/>
				<path id="XMLID_890_" class="st0" d="M368,237L368,237L368,237z"/>
				<path id="XMLID_889_" class="st0" d="M369,237L369,237L369,237z"/>
				<path id="XMLID_888_" class="st0" d="M369.9,237L369.9,237L369.9,237z"/>
				<path id="XMLID_887_" class="st0" d="M370.9,237L370.9,237L370.9,237z"/>
				<path id="XMLID_886_" class="st0" d="M371.9,237L371.9,237L371.9,237z"/>
				<path id="XMLID_885_" class="st0" d="M372.9,237L372.9,237L372.9,237z"/>
				<path id="XMLID_884_" class="st0" d="M373.9,237L373.9,237L373.9,237z"/>
				<path id="XMLID_883_" class="st0" d="M374.8,237L374.8,237L374.8,237z"/>
				<path id="XMLID_882_" class="st0" d="M375.8,237L375.8,237L375.8,237z"/>
				<path id="XMLID_881_" class="st0" d="M376.8,237L376.8,237L376.8,237z"/>
				<path id="XMLID_880_" class="st0" d="M377.8,237L377.8,237L377.8,237z"/>
				<path id="XMLID_879_" class="st0" d="M378.8,237L378.8,237L378.8,237z"/>
				<path id="XMLID_878_" class="st0" d="M379.7,237L379.7,237L379.7,237z"/>
				<path id="XMLID_877_" class="st0" d="M380.7,237L380.7,237L380.7,237z"/>
				<path id="XMLID_876_" class="st0" d="M381.7,237L381.7,237L381.7,237z"/>
				<path id="XMLID_875_" class="st0" d="M382.7,237L382.7,237L382.7,237z"/>
				<path id="XMLID_874_" class="st0" d="M383.7,237L383.7,237L383.7,237z"/>
				<path id="XMLID_873_" class="st0" d="M384.6,237L384.6,237L384.6,237z"/>
				<path id="XMLID_872_" class="st0" d="M385.6,237L385.6,237L385.6,237z"/>
				<path id="XMLID_871_" class="st0" d="M386.6,237L386.6,237L386.6,237z"/>
				<path id="XMLID_870_" class="st0" d="M387.6,237L387.6,237L387.6,237z"/>
				<path id="XMLID_869_" class="st0" d="M388.6,237L388.6,237L388.6,237z"/>
				<path id="XMLID_868_" class="st0" d="M389.6,237L389.6,237L389.6,237z"/>
				<path id="XMLID_867_" class="st0" d="M390.5,237L390.5,237L390.5,237z"/>
				<path id="XMLID_866_" class="st0" d="M391.5,237L391.5,237L391.5,237z"/>
				<path id="XMLID_865_" class="st0" d="M392.5,237L392.5,237L392.5,237z"/>
				<path id="XMLID_864_" class="st0" d="M393.5,237L393.5,237L393.5,237z"/>
				<path id="XMLID_863_" class="st0" d="M394.5,237L394.5,237L394.5,237z"/>
				<path id="XMLID_862_" class="st0" d="M395.4,237L395.4,237L395.4,237z"/>
				<path id="XMLID_861_" class="st0" d="M396.4,237L396.4,237L396.4,237z"/>
				<path id="XMLID_860_" class="st0" d="M397.4,237L397.4,237L397.4,237z"/>
				<path id="XMLID_859_" class="st0" d="M398.4,237L398.4,237L398.4,237z"/>
				<path id="XMLID_858_" class="st0" d="M399.4,237L399.4,237L399.4,237z"/>
				<path id="XMLID_857_" class="st0" d="M400.3,237L400.3,237L400.3,237z"/>
				<path id="XMLID_856_" class="st0" d="M401.3,237L401.3,237L401.3,237z"/>
				<path id="XMLID_855_" class="st0" d="M402.3,237L402.3,237L402.3,237z"/>
				<path id="XMLID_854_" class="st0" d="M403.3,237L403.3,237L403.3,237z"/>
				<path id="XMLID_853_" class="st0" d="M404.3,237L404.3,237L404.3,237z"/>
				<path id="XMLID_852_" class="st0" d="M405.2,237L405.2,237L405.2,237z"/>
				<path id="XMLID_851_" class="st0" d="M406.2,237L406.2,237L406.2,237z"/>
				<path id="XMLID_850_" class="st0" d="M407.2,237L407.2,237L407.2,237z"/>
				<path id="XMLID_849_" class="st0" d="M408.2,237L408.2,237L408.2,237z"/>
				<path id="XMLID_848_" class="st0" d="M409.2,237L409.2,237L409.2,237z"/>
				<path id="XMLID_847_" class="st0" d="M410.1,237L410.1,237L410.1,237z"/>
				<path id="XMLID_846_" class="st0" d="M411.1,237L411.1,237L411.1,237z"/>
				<path id="XMLID_845_" class="st0" d="M412.1,237L412.1,237L412.1,237z"/>
				<path id="XMLID_844_" class="st0" d="M413.1,237L413.1,237L413.1,237z"/>
				<path id="XMLID_843_" class="st0" d="M414.1,237L414.1,237L414.1,237z"/>
				<path id="XMLID_842_" class="st0" d="M415,237L415,237L415,237z"/>
				<path id="XMLID_841_" class="st0" d="M416,237L416,237L416,237z"/>
				<path id="XMLID_840_" class="st0" d="M417,237L417,237L417,237z"/>
				<path id="XMLID_839_" class="st0" d="M418,237L418,237L418,237z"/>
				<path id="XMLID_838_" class="st0" d="M419,237L419,237L419,237z"/>
				<path id="XMLID_837_" class="st0" d="M419.9,237L419.9,237L419.9,237z"/>
				<path id="XMLID_836_" class="st0" d="M420.9,237L420.9,237L420.9,237z"/>
				<path id="XMLID_835_" class="st0" d="M421.9,237L421.9,237L421.9,237z"/>
				<path id="XMLID_834_" class="st0" d="M422.9,237L422.9,237L422.9,237z"/>
				<path id="XMLID_833_" class="st0" d="M423.9,237L423.9,237L423.9,237z"/>
				<path id="XMLID_832_" class="st0" d="M424.9,237L424.9,237L424.9,237z"/>
				<path id="XMLID_831_" class="st0" d="M425.8,237L425.8,237L425.8,237z"/>
				<path id="XMLID_830_" class="st0" d="M426.8,237L426.8,237L426.8,237z"/>
				<path id="XMLID_829_" class="st0" d="M427.8,237L427.8,237L427.8,237z"/>
				<path id="XMLID_828_" class="st0" d="M428.8,237L428.8,237L428.8,237z"/>
				<path id="XMLID_827_" class="st0" d="M429.8,237L429.8,237L429.8,237z"/>
				<path id="XMLID_826_" class="st0" d="M430.7,237L430.7,237L430.7,237z"/>
				<path id="XMLID_825_" class="st0" d="M431.7,237L431.7,237L431.7,237z"/>
				<path id="XMLID_824_" class="st0" d="M432.7,237L432.7,237L432.7,237z"/>
				<path id="XMLID_823_" class="st0" d="M433.7,237L433.7,237L433.7,237z"/>
				<path id="XMLID_822_" class="st0" d="M434.7,237L434.7,237L434.7,237z"/>
				<path id="XMLID_821_" class="st0" d="M435.6,237L435.6,237L435.6,237z"/>
				<path id="XMLID_820_" class="st0" d="M436.6,237L436.6,237L436.6,237z"/>
				<path id="XMLID_819_" class="st0" d="M437.6,237L437.6,237L437.6,237z"/>
				<path id="XMLID_818_" class="st0" d="M438.6,237L438.6,237L438.6,237z"/>
				<path id="XMLID_817_" class="st0" d="M439.6,237L439.6,237L439.6,237z"/>
				<path id="XMLID_816_" class="st0" d="M440.5,237L440.5,237L440.5,237z"/>
				<path id="XMLID_815_" class="st0" d="M441.5,237L441.5,237L441.5,237z"/>
				<path id="XMLID_814_" class="st0" d="M442.5,237L442.5,237L442.5,237z"/>
				<path id="XMLID_813_" class="st0" d="M443.5,237L443.5,237L443.5,237z"/>
				<path id="XMLID_812_" class="st0" d="M444.5,237L444.5,237L444.5,237z"/>
				<path id="XMLID_811_" class="st0" d="M445.4,237L445.4,237L445.4,237z"/>
				<path id="XMLID_810_" class="st0" d="M446.4,237L446.4,237L446.4,237z"/>
				<path id="XMLID_809_" class="st0" d="M447.4,237L447.4,237L447.4,237z"/>
				<path id="XMLID_808_" class="st0" d="M448.4,237L448.4,237L448.4,237z"/>
				<path id="XMLID_807_" class="st0" d="M449.4,237L449.4,237L449.4,237z"/>
				<path id="XMLID_806_" class="st0" d="M450.3,237L450.3,237L450.3,237z"/>
				<path id="XMLID_805_" class="st0" d="M451.3,237L451.3,237L451.3,237z"/>
				<path id="XMLID_804_" class="st0" d="M452.3,237L452.3,237L452.3,237z"/>
				<path id="XMLID_803_" class="st0" d="M453.3,237L453.3,237L453.3,237z"/>
				<path id="XMLID_802_" class="st0" d="M454.3,237L454.3,237L454.3,237z"/>
				<path id="XMLID_801_" class="st0" d="M455.2,237L455.2,237L455.2,237z"/>
				<path id="XMLID_800_" class="st0" d="M456.2,237L456.2,237L456.2,237z"/>
				<path id="XMLID_799_" class="st0" d="M457.2,237L457.2,237L457.2,237z"/>
				<path id="XMLID_798_" class="st0" d="M458.2,237L458.2,237L458.2,237z"/>
				<path id="XMLID_797_" class="st0" d="M459.2,237L459.2,237L459.2,237z"/>
				<path id="XMLID_796_" class="st0" d="M460.2,237L460.2,237L460.2,237z"/>
				<path id="XMLID_795_" class="st0" d="M461.1,237L461.1,237L461.1,237z"/>
				<path id="XMLID_794_" class="st0" d="M462.1,237L462.1,237L462.1,237z"/>
				<path id="XMLID_793_" class="st0" d="M463.1,237L463.1,237L463.1,237z"/>
				<path id="XMLID_792_" class="st0" d="M464.1,237L464.1,237L464.1,237z"/>
				<path id="XMLID_791_" class="st0" d="M465.1,237L465.1,237L465.1,237z"/>
				<path id="XMLID_790_" class="st0" d="M466,237L466,237L466,237z"/>
				<path id="XMLID_789_" class="st0" d="M467,237L467,237L467,237z"/>
				<path id="XMLID_788_" class="st0" d="M468,237L468,237L468,237z"/>
				<path id="XMLID_787_" class="st0" d="M469,237L469,237L469,237z"/>
				<path id="XMLID_786_" class="st0" d="M470,237L470,237L470,237z"/>
				<path id="XMLID_785_" class="st0" d="M470.9,237L470.9,237L470.9,237z"/>
				<path id="XMLID_784_" class="st0" d="M471.9,237L471.9,237L471.9,237z"/>
				<path id="XMLID_783_" class="st0" d="M472.9,237L472.9,237L472.9,237z"/>
				<path id="XMLID_782_" class="st0" d="M473.9,237L473.9,237L473.9,237z"/>
				<path id="XMLID_781_" class="st0" d="M474.9,237L474.9,237L474.9,237z"/>
				<path id="XMLID_780_" class="st0" d="M475.8,237L475.8,237L475.8,237z"/>
				<path id="XMLID_779_" class="st0" d="M476.8,237L476.8,237L476.8,237z"/>
				<path id="XMLID_778_" class="st0" d="M477.8,237L477.8,237L477.8,237z"/>
				<path id="XMLID_777_" class="st0" d="M478.8,237L478.8,237L478.8,237z"/>
				<path id="XMLID_776_" class="st0" d="M479.8,237L479.8,237L479.8,237z"/>
				<path id="XMLID_775_" class="st0" d="M480.7,237L480.7,237L480.7,237z"/>
				<path id="XMLID_774_" class="st0" d="M481.7,237L481.7,237L481.7,237z"/>
				<path id="XMLID_773_" class="st0" d="M482.7,237L482.7,237L482.7,237z"/>
				<path id="XMLID_772_" class="st0" d="M483.7,237L483.7,237L483.7,237z"/>
				<path id="XMLID_771_" class="st0" d="M484.7,237L484.7,237L484.7,237z"/>
				<path id="XMLID_770_" class="st0" d="M485.6,237L485.6,237L485.6,237z"/>
				<path id="XMLID_769_" class="st0" d="M486.6,237L486.6,237L486.6,237z"/>
				<path id="XMLID_768_" class="st0" d="M487.6,237L487.6,237L487.6,237z"/>
				<path id="XMLID_767_" class="st0" d="M488.6,237L488.6,237L488.6,237z"/>
				<path id="XMLID_766_" class="st0" d="M489.6,237L489.6,237L489.6,237z"/>
				<path id="XMLID_765_" class="st0" d="M490.5,237L490.5,237L490.5,237z"/>
				<path id="XMLID_764_" class="st0" d="M491.5,237L491.5,237L491.5,237z"/>
				<path id="XMLID_763_" class="st0" d="M492.5,237L492.5,237L492.5,237z"/>
				<path id="XMLID_762_" class="st0" d="M493.5,237L493.5,237L493.5,237z"/>
				<path id="XMLID_761_" class="st0" d="M494.5,237L494.5,237L494.5,237z"/>
				<path id="XMLID_760_" class="st0" d="M495.5,237L495.5,237L495.5,237z"/>
				<path id="XMLID_759_" class="st0" d="M496.4,237L496.4,237L496.4,237z"/>
				<path id="XMLID_758_" class="st0" d="M497.4,237L497.4,237L497.4,237z"/>
				<path id="XMLID_757_" class="st0" d="M498.4,237L498.4,237L498.4,237z"/>
				<path id="XMLID_756_" class="st0" d="M499.4,237L499.4,237L499.4,237z"/>
				<path id="XMLID_755_" class="st0" d="M500.4,237L500.4,237L500.4,237z"/>
				<path id="XMLID_754_" class="st0" d="M501.3,237L501.3,237L501.3,237z"/>
				<path id="XMLID_753_" class="st0" d="M502.3,237L502.3,237L502.3,237z"/>
				<path id="XMLID_752_" class="st0" d="M503.3,237L503.3,237L503.3,237z"/>
				<path id="XMLID_751_" class="st0" d="M504.3,237L504.3,237L504.3,237z"/>
				<path id="XMLID_750_" class="st0" d="M505.3,237L505.3,237L505.3,237z"/>
				<path id="XMLID_749_" class="st0" d="M506.2,237L506.2,237L506.2,237z"/>
				<path id="XMLID_748_" class="st0" d="M507.2,237L507.2,237L507.2,237z"/>
				<path id="XMLID_747_" class="st0" d="M508.2,237L508.2,237L508.2,237z"/>
				<path id="XMLID_746_" class="st0" d="M509.2,237L509.2,237L509.2,237z"/>
				<path id="XMLID_745_" class="st0" d="M510.2,237L510.2,237L510.2,237z"/>
				<path id="XMLID_744_" class="st0" d="M511.1,237L511.1,237L511.1,237z"/>
				<path id="XMLID_743_" class="st0" d="M512.1,237L512.1,237L512.1,237z"/>
				<path id="XMLID_742_" class="st0" d="M513.1,237L513.1,237L513.1,237z"/>
				<path id="XMLID_741_" class="st0" d="M514.1,237L514.1,237L514.1,237z"/>
				<path id="XMLID_740_" class="st0" d="M515.1,237L515.1,237L515.1,237z"/>
				<path id="XMLID_739_" class="st0" d="M516,237L516,237L516,237z"/>
				<path id="XMLID_738_" class="st0" d="M517,237L517,237L517,237z"/>
				<path id="XMLID_737_" class="st0" d="M518,237L518,237L518,237z"/>
				<path id="XMLID_736_" class="st0" d="M519,237L519,237L519,237z"/>
				<path id="XMLID_735_" class="st0" d="M520,237L520,237L520,237z"/>
				<path id="XMLID_734_" class="st0" d="M520.9,237L520.9,237L520.9,237z"/>
				<path id="XMLID_733_" class="st0" d="M521.9,237L521.9,237L521.9,237z"/>
				<path id="XMLID_732_" class="st0" d="M522.9,237L522.9,237L522.9,237z"/>
				<path id="XMLID_731_" class="st0" d="M523.9,237L523.9,237L523.9,237z"/>
				<path id="XMLID_730_" class="st0" d="M524.9,237L524.9,237L524.9,237z"/>
				<path id="XMLID_729_" class="st0" d="M525.8,237L525.8,237L525.8,237z"/>
				<path id="XMLID_728_" class="st0" d="M526.8,237L526.8,237L526.8,237z"/>
				<path id="XMLID_727_" class="st0" d="M527.8,237L527.8,237L527.8,237z"/>
				<path id="XMLID_726_" class="st0" d="M528.8,237L528.8,237L528.8,237z"/>
				<path id="XMLID_725_" class="st0" d="M529.8,237L529.8,237L529.8,237z"/>
				<path id="XMLID_724_" class="st0" d="M530.8,237L530.8,237L530.8,237z"/>
				<path id="XMLID_723_" class="st0" d="M531.7,237L531.7,237L531.7,237z"/>
				<path id="XMLID_722_" class="st0" d="M532.7,237L532.7,237L532.7,237z"/>
				<path id="XMLID_721_" class="st0" d="M533.7,237L533.7,237L533.7,237z"/>
				<path id="XMLID_720_" class="st0" d="M534.7,237L534.7,237L534.7,237z"/>
				<path id="XMLID_719_" class="st0" d="M535.7,237L535.7,237L535.7,237z"/>
				<path id="XMLID_718_" class="st0" d="M536.6,237L536.6,237L536.6,237z"/>
				<path id="XMLID_717_" class="st0" d="M537.6,237L537.6,237L537.6,237z"/>
				<path id="XMLID_716_" class="st0" d="M538.6,237L538.6,237L538.6,237z"/>
				<path id="XMLID_715_" class="st0" d="M539.6,237L539.6,237L539.6,237z"/>
				<path id="XMLID_714_" class="st0" d="M540.6,237L540.6,237L540.6,237z"/>
				<path id="XMLID_713_" class="st0" d="M541.5,237L541.5,237L541.5,237z"/>
				<path id="XMLID_712_" class="st0" d="M542.5,237L542.5,237L542.5,237z"/>
				<path id="XMLID_711_" class="st0" d="M543.5,237L543.5,237L543.5,237z"/>
				<path id="XMLID_710_" class="st0" d="M544.5,237L544.5,237L544.5,237z"/>
				<path id="XMLID_709_" class="st0" d="M545.5,237L545.5,237L545.5,237z"/>
				<path id="XMLID_708_" class="st0" d="M546.4,237L546.4,237L546.4,237z"/>
				<path id="XMLID_707_" class="st0" d="M547.4,237L547.4,237L547.4,237z"/>
				<path id="XMLID_706_" class="st0" d="M548.4,237L548.4,237L548.4,237z"/>
				<path id="XMLID_705_" class="st0" d="M549.4,237L549.4,237L549.4,237z"/>
				<path id="XMLID_704_" class="st0" d="M550.4,237L550.4,237L550.4,237z"/>
				<path id="XMLID_703_" class="st0" d="M551.3,237L551.3,237L551.3,237z"/>
				<path id="XMLID_702_" class="st0" d="M552.3,237L552.3,237L552.3,237z"/>
				<path id="XMLID_701_" class="st0" d="M553.3,237L553.3,237L553.3,237z"/>
				<path id="XMLID_700_" class="st0" d="M554.3,237L554.3,237L554.3,237z"/>
				<path id="XMLID_699_" class="st0" d="M555.3,237L555.3,237L555.3,237z"/>
				<path id="XMLID_698_" class="st0" d="M556.2,237L556.2,237L556.2,237z"/>
				<path id="XMLID_697_" class="st0" d="M557.2,237L557.2,237L557.2,237z"/>
				<path id="XMLID_696_" class="st0" d="M558.2,237L558.2,237L558.2,237z"/>
				<path id="XMLID_695_" class="st0" d="M559.2,237L559.2,237L559.2,237z"/>
				<path id="XMLID_694_" class="st0" d="M560.2,237L560.2,237L560.2,237z"/>
				<path id="XMLID_693_" class="st0" d="M561.1,237L561.1,237L561.1,237z"/>
				<path id="XMLID_692_" class="st0" d="M562.1,237L562.1,237L562.1,237z"/>
				<path id="XMLID_691_" class="st0" d="M563.1,237L563.1,237L563.1,237z"/>
				<path id="XMLID_690_" class="st0" d="M564.1,237L564.1,237L564.1,237z"/>
				<path id="XMLID_689_" class="st0" d="M565.1,237L565.1,237L565.1,237z"/>
				<path id="XMLID_688_" class="st0" d="M566.1,237L566.1,237L566.1,237z"/>
				<path id="XMLID_687_" class="st0" d="M567,237L567,237L567,237z"/>
				<path id="XMLID_686_" class="st0" d="M568,237L568,237L568,237z"/>
				<path id="XMLID_685_" class="st0" d="M569,237L569,237L569,237z"/>
				<path id="XMLID_684_" class="st0" d="M570,237L570,237L570,237z"/>
				<path id="XMLID_683_" class="st0" d="M571,237L571,237L571,237z"/>
				<path id="XMLID_682_" class="st0" d="M571.9,237L571.9,237L571.9,237z"/>
				<path id="XMLID_681_" class="st0" d="M572.9,237L572.9,237L572.9,237z"/>
				<path id="XMLID_680_" class="st0" d="M573.9,237L573.9,237L573.9,237z"/>
				<path id="XMLID_679_" class="st0" d="M574.9,237L574.9,237L574.9,237z"/>
				<path id="XMLID_678_" class="st0" d="M575.9,237L575.9,237L575.9,237z"/>
				<path id="XMLID_677_" class="st0" d="M576.8,237L576.8,237L576.8,237z"/>
				<path id="XMLID_676_" class="st0" d="M577.8,237L577.8,237L577.8,237z"/>
				<path id="XMLID_675_" class="st0" d="M578.8,237L578.8,237L578.8,237z"/>
				<path id="XMLID_674_" class="st0" d="M579.8,237L579.8,237L579.8,237z"/>
				<path id="XMLID_673_" class="st0" d="M579.8,237L579.8,237L579.8,237z"/>
			</g>
			<rect id="XMLID_671_" x="367" y="232.3" class="st0" width="212.8" height="9.3"/>
		</g>
		<g id="XMLID_448_">
			<g id="XMLID_450_">
				<path id="XMLID_669_" class="st0" d="M435.6,287.4L435.6,287.4L435.6,287.4z"/>
				<path id="XMLID_668_" class="st0" d="M436.2,287.4L436.2,287.4L436.2,287.4z"/>
				<path id="XMLID_667_" class="st0" d="M436.9,287.4L436.9,287.4L436.9,287.4z"/>
				<path id="XMLID_666_" class="st0" d="M437.6,287.4L437.6,287.4L437.6,287.4z"/>
				<path id="XMLID_665_" class="st0" d="M438.2,287.4L438.2,287.4L438.2,287.4z"/>
				<path id="XMLID_664_" class="st0" d="M438.9,287.4L438.9,287.4L438.9,287.4z"/>
				<path id="XMLID_663_" class="st0" d="M439.5,287.4L439.5,287.4L439.5,287.4z"/>
				<path id="XMLID_662_" class="st0" d="M440.2,287.4L440.2,287.4L440.2,287.4z"/>
				<path id="XMLID_661_" class="st0" d="M440.9,287.4L440.9,287.4L440.9,287.4z"/>
				<path id="XMLID_660_" class="st0" d="M441.5,287.4L441.5,287.4L441.5,287.4z"/>
				<path id="XMLID_659_" class="st0" d="M442.2,287.4L442.2,287.4L442.2,287.4z"/>
				<path id="XMLID_658_" class="st0" d="M442.9,287.4L442.9,287.4L442.9,287.4z"/>
				<path id="XMLID_657_" class="st0" d="M443.5,287.4L443.5,287.4L443.5,287.4z"/>
				<path id="XMLID_656_" class="st0" d="M444.2,287.4L444.2,287.4L444.2,287.4z"/>
				<path id="XMLID_655_" class="st0" d="M444.9,287.4L444.9,287.4L444.9,287.4z"/>
				<path id="XMLID_654_" class="st0" d="M445.5,287.4L445.5,287.4L445.5,287.4z"/>
				<path id="XMLID_653_" class="st0" d="M446.2,287.4L446.2,287.4L446.2,287.4z"/>
				<path id="XMLID_652_" class="st0" d="M446.9,287.4L446.9,287.4L446.9,287.4z"/>
				<path id="XMLID_651_" class="st0" d="M447.5,287.4L447.5,287.4L447.5,287.4z"/>
				<path id="XMLID_650_" class="st0" d="M448.2,287.4L448.2,287.4L448.2,287.4z"/>
				<path id="XMLID_649_" class="st0" d="M448.9,287.4L448.9,287.4L448.9,287.4z"/>
				<path id="XMLID_648_" class="st0" d="M449.5,287.4L449.5,287.4L449.5,287.4z"/>
				<path id="XMLID_647_" class="st0" d="M450.2,287.4L450.2,287.4L450.2,287.4z"/>
				<path id="XMLID_646_" class="st0" d="M450.8,287.4L450.8,287.4L450.8,287.4z"/>
				<path id="XMLID_645_" class="st0" d="M451.5,287.4L451.5,287.4L451.5,287.4z"/>
				<path id="XMLID_644_" class="st0" d="M452.2,287.4L452.2,287.4L452.2,287.4z"/>
				<path id="XMLID_643_" class="st0" d="M452.8,287.4L452.8,287.4L452.8,287.4z"/>
				<path id="XMLID_642_" class="st0" d="M453.5,287.4L453.5,287.4L453.5,287.4z"/>
				<path id="XMLID_641_" class="st0" d="M454.2,287.4L454.2,287.4L454.2,287.4z"/>
				<path id="XMLID_640_" class="st0" d="M454.8,287.4L454.8,287.4L454.8,287.4z"/>
				<path id="XMLID_639_" class="st0" d="M455.5,287.4L455.5,287.4L455.5,287.4z"/>
				<path id="XMLID_638_" class="st0" d="M456.2,287.4L456.2,287.4L456.2,287.4z"/>
				<path id="XMLID_637_" class="st0" d="M456.8,287.4L456.8,287.4L456.8,287.4z"/>
				<path id="XMLID_636_" class="st0" d="M457.5,287.4L457.5,287.4L457.5,287.4z"/>
				<path id="XMLID_635_" class="st0" d="M458.2,287.4L458.2,287.4L458.2,287.4z"/>
				<path id="XMLID_634_" class="st0" d="M458.8,287.4L458.8,287.4L458.8,287.4z"/>
				<path id="XMLID_633_" class="st0" d="M459.5,287.4L459.5,287.4L459.5,287.4z"/>
				<path id="XMLID_632_" class="st0" d="M460.2,287.4L460.2,287.4L460.2,287.4z"/>
				<path id="XMLID_631_" class="st0" d="M460.8,287.4L460.8,287.4L460.8,287.4z"/>
				<path id="XMLID_630_" class="st0" d="M461.5,287.4L461.5,287.4L461.5,287.4z"/>
				<path id="XMLID_629_" class="st0" d="M462.1,287.4L462.1,287.4L462.1,287.4z"/>
				<path id="XMLID_628_" class="st0" d="M462.8,287.4L462.8,287.4L462.8,287.4z"/>
				<path id="XMLID_627_" class="st0" d="M463.5,287.4L463.5,287.4L463.5,287.4z"/>
				<path id="XMLID_626_" class="st0" d="M464.1,287.4L464.1,287.4L464.1,287.4z"/>
				<path id="XMLID_625_" class="st0" d="M464.8,287.4L464.8,287.4L464.8,287.4z"/>
				<path id="XMLID_624_" class="st0" d="M465.5,287.4L465.5,287.4L465.5,287.4z"/>
				<path id="XMLID_623_" class="st0" d="M466.1,287.4L466.1,287.4L466.1,287.4z"/>
				<path id="XMLID_622_" class="st0" d="M466.8,287.4L466.8,287.4L466.8,287.4z"/>
				<path id="XMLID_621_" class="st0" d="M467.5,287.4L467.5,287.4L467.5,287.4z"/>
				<path id="XMLID_620_" class="st0" d="M468.1,287.4L468.1,287.4L468.1,287.4z"/>
				<path id="XMLID_619_" class="st0" d="M468.8,287.4L468.8,287.4L468.8,287.4z"/>
				<path id="XMLID_618_" class="st0" d="M469.5,287.4L469.5,287.4L469.5,287.4z"/>
				<path id="XMLID_617_" class="st0" d="M470.1,287.4L470.1,287.4L470.1,287.4z"/>
				<path id="XMLID_616_" class="st0" d="M470.8,287.4L470.8,287.4L470.8,287.4z"/>
				<path id="XMLID_615_" class="st0" d="M471.4,287.4L471.4,287.4L471.4,287.4z"/>
				<path id="XMLID_614_" class="st0" d="M472.1,287.4L472.1,287.4L472.1,287.4z"/>
				<path id="XMLID_613_" class="st0" d="M472.8,287.4L472.8,287.4L472.8,287.4z"/>
				<path id="XMLID_612_" class="st0" d="M473.4,287.4L473.4,287.4L473.4,287.4z"/>
				<path id="XMLID_611_" class="st0" d="M474.1,287.4L474.1,287.4L474.1,287.4z"/>
				<path id="XMLID_610_" class="st0" d="M474.8,287.4L474.8,287.4L474.8,287.4z"/>
				<path id="XMLID_609_" class="st0" d="M475.4,287.4L475.4,287.4L475.4,287.4z"/>
				<path id="XMLID_608_" class="st0" d="M476.1,287.4L476.1,287.4L476.1,287.4z"/>
				<path id="XMLID_607_" class="st0" d="M476.8,287.4L476.8,287.4L476.8,287.4z"/>
				<path id="XMLID_606_" class="st0" d="M477.4,287.4L477.4,287.4L477.4,287.4z"/>
				<path id="XMLID_605_" class="st0" d="M478.1,287.4L478.1,287.4L478.1,287.4z"/>
				<path id="XMLID_604_" class="st0" d="M478.8,287.4L478.8,287.4L478.8,287.4z"/>
				<path id="XMLID_603_" class="st0" d="M479.4,287.4L479.4,287.4L479.4,287.4z"/>
				<path id="XMLID_602_" class="st0" d="M480.1,287.4L480.1,287.4L480.1,287.4z"/>
				<path id="XMLID_601_" class="st0" d="M480.8,287.4L480.8,287.4L480.8,287.4z"/>
				<path id="XMLID_600_" class="st0" d="M481.4,287.4L481.4,287.4L481.4,287.4z"/>
				<path id="XMLID_599_" class="st0" d="M482.1,287.4L482.1,287.4L482.1,287.4z"/>
				<path id="XMLID_598_" class="st0" d="M482.7,287.4L482.7,287.4L482.7,287.4z"/>
				<path id="XMLID_597_" class="st0" d="M483.4,287.4L483.4,287.4L483.4,287.4z"/>
				<path id="XMLID_596_" class="st0" d="M484.1,287.4L484.1,287.4L484.1,287.4z"/>
				<path id="XMLID_595_" class="st0" d="M484.7,287.4L484.7,287.4L484.7,287.4z"/>
				<path id="XMLID_594_" class="st0" d="M485.4,287.4L485.4,287.4L485.4,287.4z"/>
				<path id="XMLID_593_" class="st0" d="M486.1,287.4L486.1,287.4L486.1,287.4z"/>
				<path id="XMLID_592_" class="st0" d="M486.7,287.4L486.7,287.4L486.7,287.4z"/>
				<path id="XMLID_591_" class="st0" d="M487.4,287.4L487.4,287.4L487.4,287.4z"/>
				<path id="XMLID_590_" class="st0" d="M488.1,287.4L488.1,287.4L488.1,287.4z"/>
				<path id="XMLID_589_" class="st0" d="M488.7,287.4L488.7,287.4L488.7,287.4z"/>
				<path id="XMLID_588_" class="st0" d="M489.4,287.4L489.4,287.4L489.4,287.4z"/>
				<path id="XMLID_587_" class="st0" d="M490.1,287.4L490.1,287.4L490.1,287.4z"/>
				<path id="XMLID_586_" class="st0" d="M490.7,287.4L490.7,287.4L490.7,287.4z"/>
				<path id="XMLID_585_" class="st0" d="M491.4,287.4L491.4,287.4L491.4,287.4z"/>
				<path id="XMLID_584_" class="st0" d="M492.1,287.4L492.1,287.4L492.1,287.4z"/>
				<path id="XMLID_583_" class="st0" d="M492.7,287.4L492.7,287.4L492.7,287.4z"/>
				<path id="XMLID_582_" class="st0" d="M493.4,287.4L493.4,287.4L493.4,287.4z"/>
				<path id="XMLID_581_" class="st0" d="M494,287.4L494,287.4L494,287.4z"/>
				<path id="XMLID_580_" class="st0" d="M494.7,287.4L494.7,287.4L494.7,287.4z"/>
				<path id="XMLID_579_" class="st0" d="M495.4,287.4L495.4,287.4L495.4,287.4z"/>
				<path id="XMLID_578_" class="st0" d="M496,287.4L496,287.4L496,287.4z"/>
				<path id="XMLID_577_" class="st0" d="M496.7,287.4L496.7,287.4L496.7,287.4z"/>
				<path id="XMLID_576_" class="st0" d="M497.4,287.4L497.4,287.4L497.4,287.4z"/>
				<path id="XMLID_575_" class="st0" d="M498,287.4L498,287.4L498,287.4z"/>
				<path id="XMLID_574_" class="st0" d="M498.7,287.4L498.7,287.4L498.7,287.4z"/>
				<path id="XMLID_573_" class="st0" d="M499.4,287.4L499.4,287.4L499.4,287.4z"/>
				<path id="XMLID_572_" class="st0" d="M500,287.4L500,287.4L500,287.4z"/>
				<path id="XMLID_571_" class="st0" d="M500.7,287.4L500.7,287.4L500.7,287.4z"/>
				<path id="XMLID_570_" class="st0" d="M501.4,287.4L501.4,287.4L501.4,287.4z"/>
				<path id="XMLID_569_" class="st0" d="M502,287.4L502,287.4L502,287.4z"/>
				<path id="XMLID_568_" class="st0" d="M502.7,287.4L502.7,287.4L502.7,287.4z"/>
				<path id="XMLID_567_" class="st0" d="M503.4,287.4L503.4,287.4L503.4,287.4z"/>
				<path id="XMLID_566_" class="st0" d="M504,287.4L504,287.4L504,287.4z"/>
				<path id="XMLID_565_" class="st0" d="M504.7,287.4L504.7,287.4L504.7,287.4z"/>
				<path id="XMLID_564_" class="st0" d="M505.3,287.4L505.3,287.4L505.3,287.4z"/>
				<path id="XMLID_563_" class="st0" d="M506,287.4L506,287.4L506,287.4z"/>
				<path id="XMLID_562_" class="st0" d="M506.7,287.4L506.7,287.4L506.7,287.4z"/>
				<path id="XMLID_561_" class="st0" d="M507.3,287.4L507.3,287.4L507.3,287.4z"/>
				<path id="XMLID_560_" class="st0" d="M508,287.4L508,287.4L508,287.4z"/>
				<path id="XMLID_559_" class="st0" d="M508.7,287.4L508.7,287.4L508.7,287.4z"/>
				<path id="XMLID_558_" class="st0" d="M509.3,287.4L509.3,287.4L509.3,287.4z"/>
				<path id="XMLID_557_" class="st0" d="M510,287.4L510,287.4L510,287.4z"/>
				<path id="XMLID_556_" class="st0" d="M510.7,287.4L510.7,287.4L510.7,287.4z"/>
				<path id="XMLID_555_" class="st0" d="M511.3,287.4L511.3,287.4L511.3,287.4z"/>
				<path id="XMLID_554_" class="st0" d="M512,287.4L512,287.4L512,287.4z"/>
				<path id="XMLID_553_" class="st0" d="M512.7,287.4L512.7,287.4L512.7,287.4z"/>
				<path id="XMLID_552_" class="st0" d="M513.3,287.4L513.3,287.4L513.3,287.4z"/>
				<path id="XMLID_551_" class="st0" d="M514,287.4L514,287.4L514,287.4z"/>
				<path id="XMLID_550_" class="st0" d="M514.6,287.4L514.6,287.4L514.6,287.4z"/>
				<path id="XMLID_549_" class="st0" d="M515.3,287.4L515.3,287.4L515.3,287.4z"/>
				<path id="XMLID_548_" class="st0" d="M516,287.4L516,287.4L516,287.4z"/>
				<path id="XMLID_547_" class="st0" d="M516.6,287.4L516.6,287.4L516.6,287.4z"/>
				<path id="XMLID_546_" class="st0" d="M517.3,287.4L517.3,287.4L517.3,287.4z"/>
				<path id="XMLID_545_" class="st0" d="M518,287.4L518,287.4L518,287.4z"/>
				<path id="XMLID_544_" class="st0" d="M518.6,287.4L518.6,287.4L518.6,287.4z"/>
				<path id="XMLID_543_" class="st0" d="M519.3,287.4L519.3,287.4L519.3,287.4z"/>
				<path id="XMLID_542_" class="st0" d="M520,287.4L520,287.4L520,287.4z"/>
				<path id="XMLID_541_" class="st0" d="M520.6,287.4L520.6,287.4L520.6,287.4z"/>
				<path id="XMLID_540_" class="st0" d="M521.3,287.4L521.3,287.4L521.3,287.4z"/>
				<path id="XMLID_539_" class="st0" d="M522,287.4L522,287.4L522,287.4z"/>
				<path id="XMLID_538_" class="st0" d="M522.6,287.4L522.6,287.4L522.6,287.4z"/>
				<path id="XMLID_537_" class="st0" d="M523.3,287.4L523.3,287.4L523.3,287.4z"/>
				<path id="XMLID_536_" class="st0" d="M524,287.4L524,287.4L524,287.4z"/>
				<path id="XMLID_535_" class="st0" d="M524.6,287.4L524.6,287.4L524.6,287.4z"/>
				<path id="XMLID_534_" class="st0" d="M525.3,287.4L525.3,287.4L525.3,287.4z"/>
				<path id="XMLID_533_" class="st0" d="M525.9,287.4L525.9,287.4L525.9,287.4z"/>
				<path id="XMLID_532_" class="st0" d="M526.6,287.4L526.6,287.4L526.6,287.4z"/>
				<path id="XMLID_531_" class="st0" d="M527.3,287.4L527.3,287.4L527.3,287.4z"/>
				<path id="XMLID_530_" class="st0" d="M527.9,287.4L527.9,287.4L527.9,287.4z"/>
				<path id="XMLID_529_" class="st0" d="M528.6,287.4L528.6,287.4L528.6,287.4z"/>
				<path id="XMLID_528_" class="st0" d="M529.3,287.4L529.3,287.4L529.3,287.4z"/>
				<path id="XMLID_527_" class="st0" d="M529.9,287.4L529.9,287.4L529.9,287.4z"/>
				<path id="XMLID_526_" class="st0" d="M530.6,287.4L530.6,287.4L530.6,287.4z"/>
				<path id="XMLID_525_" class="st0" d="M531.3,287.4L531.3,287.4L531.3,287.4z"/>
				<path id="XMLID_524_" class="st0" d="M531.9,287.4L531.9,287.4L531.9,287.4z"/>
				<path id="XMLID_523_" class="st0" d="M532.6,287.4L532.6,287.4L532.6,287.4z"/>
				<path id="XMLID_522_" class="st0" d="M533.3,287.4L533.3,287.4L533.3,287.4z"/>
				<path id="XMLID_521_" class="st0" d="M533.9,287.4L533.9,287.4L533.9,287.4z"/>
				<path id="XMLID_520_" class="st0" d="M534.6,287.4L534.6,287.4L534.6,287.4z"/>
				<path id="XMLID_519_" class="st0" d="M535.3,287.4L535.3,287.4L535.3,287.4z"/>
				<path id="XMLID_518_" class="st0" d="M535.9,287.4L535.9,287.4L535.9,287.4z"/>
				<path id="XMLID_517_" class="st0" d="M536.6,287.4L536.6,287.4L536.6,287.4z"/>
				<path id="XMLID_516_" class="st0" d="M537.2,287.4L537.2,287.4L537.2,287.4z"/>
				<path id="XMLID_515_" class="st0" d="M537.9,287.4L537.9,287.4L537.9,287.4z"/>
				<path id="XMLID_514_" class="st0" d="M538.6,287.4L538.6,287.4L538.6,287.4z"/>
				<path id="XMLID_513_" class="st0" d="M539.2,287.4L539.2,287.4L539.2,287.4z"/>
				<path id="XMLID_512_" class="st0" d="M539.9,287.4L539.9,287.4L539.9,287.4z"/>
				<path id="XMLID_511_" class="st0" d="M540.6,287.4L540.6,287.4L540.6,287.4z"/>
				<path id="XMLID_510_" class="st0" d="M541.2,287.4L541.2,287.4L541.2,287.4z"/>
				<path id="XMLID_509_" class="st0" d="M541.9,287.4L541.9,287.4L541.9,287.4z"/>
				<path id="XMLID_508_" class="st0" d="M542.6,287.4L542.6,287.4L542.6,287.4z"/>
				<path id="XMLID_507_" class="st0" d="M543.2,287.4L543.2,287.4L543.2,287.4z"/>
				<path id="XMLID_506_" class="st0" d="M543.9,287.4L543.9,287.4L543.9,287.4z"/>
				<path id="XMLID_505_" class="st0" d="M544.6,287.4L544.6,287.4L544.6,287.4z"/>
				<path id="XMLID_504_" class="st0" d="M545.2,287.4L545.2,287.4L545.2,287.4z"/>
				<path id="XMLID_503_" class="st0" d="M545.9,287.4L545.9,287.4L545.9,287.4z"/>
				<path id="XMLID_502_" class="st0" d="M546.5,287.4L546.5,287.4L546.5,287.4z"/>
				<path id="XMLID_501_" class="st0" d="M547.2,287.4L547.2,287.4L547.2,287.4z"/>
				<path id="XMLID_500_" class="st0" d="M547.9,287.4L547.9,287.4L547.9,287.4z"/>
				<path id="XMLID_499_" class="st0" d="M548.5,287.4L548.5,287.4L548.5,287.4z"/>
				<path id="XMLID_498_" class="st0" d="M549.2,287.4L549.2,287.4L549.2,287.4z"/>
				<path id="XMLID_497_" class="st0" d="M549.9,287.4L549.9,287.4L549.9,287.4z"/>
				<path id="XMLID_496_" class="st0" d="M550.5,287.4L550.5,287.4L550.5,287.4z"/>
				<path id="XMLID_495_" class="st0" d="M551.2,287.4L551.2,287.4L551.2,287.4z"/>
				<path id="XMLID_494_" class="st0" d="M551.9,287.4L551.9,287.4L551.9,287.4z"/>
				<path id="XMLID_493_" class="st0" d="M552.5,287.4L552.5,287.4L552.5,287.4z"/>
				<path id="XMLID_492_" class="st0" d="M553.2,287.4L553.2,287.4L553.2,287.4z"/>
				<path id="XMLID_491_" class="st0" d="M553.9,287.4L553.9,287.4L553.9,287.4z"/>
				<path id="XMLID_490_" class="st0" d="M554.5,287.4L554.5,287.4L554.5,287.4z"/>
				<path id="XMLID_489_" class="st0" d="M555.2,287.4L555.2,287.4L555.2,287.4z"/>
				<path id="XMLID_488_" class="st0" d="M555.9,287.4L555.9,287.4L555.9,287.4z"/>
				<path id="XMLID_487_" class="st0" d="M556.5,287.4L556.5,287.4L556.5,287.4z"/>
				<path id="XMLID_486_" class="st0" d="M557.2,287.4L557.2,287.4L557.2,287.4z"/>
				<path id="XMLID_485_" class="st0" d="M557.8,287.4L557.8,287.4L557.8,287.4z"/>
				<path id="XMLID_484_" class="st0" d="M558.5,287.4L558.5,287.4L558.5,287.4z"/>
				<path id="XMLID_483_" class="st0" d="M559.2,287.4L559.2,287.4L559.2,287.4z"/>
				<path id="XMLID_482_" class="st0" d="M559.8,287.4L559.8,287.4L559.8,287.4z"/>
				<path id="XMLID_481_" class="st0" d="M560.5,287.4L560.5,287.4L560.5,287.4z"/>
				<path id="XMLID_480_" class="st0" d="M561.2,287.4L561.2,287.4L561.2,287.4z"/>
				<path id="XMLID_479_" class="st0" d="M561.8,287.4L561.8,287.4L561.8,287.4z"/>
				<path id="XMLID_478_" class="st0" d="M562.5,287.4L562.5,287.4L562.5,287.4z"/>
				<path id="XMLID_477_" class="st0" d="M563.2,287.4L563.2,287.4L563.2,287.4z"/>
				<path id="XMLID_476_" class="st0" d="M563.8,287.4L563.8,287.4L563.8,287.4z"/>
				<path id="XMLID_475_" class="st0" d="M564.5,287.4L564.5,287.4L564.5,287.4z"/>
				<path id="XMLID_474_" class="st0" d="M565.2,287.4L565.2,287.4L565.2,287.4z"/>
				<path id="XMLID_473_" class="st0" d="M565.8,287.4L565.8,287.4L565.8,287.4z"/>
				<path id="XMLID_472_" class="st0" d="M566.5,287.4L566.5,287.4L566.5,287.4z"/>
				<path id="XMLID_471_" class="st0" d="M567.2,287.4L567.2,287.4L567.2,287.4z"/>
				<path id="XMLID_470_" class="st0" d="M567.8,287.4L567.8,287.4L567.8,287.4z"/>
				<path id="XMLID_469_" class="st0" d="M568.5,287.4L568.5,287.4L568.5,287.4z"/>
				<path id="XMLID_468_" class="st0" d="M569.1,287.4L569.1,287.4L569.1,287.4z"/>
				<path id="XMLID_467_" class="st0" d="M569.8,287.4L569.8,287.4L569.8,287.4z"/>
				<path id="XMLID_466_" class="st0" d="M570.5,287.4L570.5,287.4L570.5,287.4z"/>
				<path id="XMLID_465_" class="st0" d="M571.1,287.4L571.1,287.4L571.1,287.4z"/>
				<path id="XMLID_464_" class="st0" d="M571.8,287.4L571.8,287.4L571.8,287.4z"/>
				<path id="XMLID_463_" class="st0" d="M572.5,287.4L572.5,287.4L572.5,287.4z"/>
				<path id="XMLID_462_" class="st0" d="M573.1,287.4L573.1,287.4L573.1,287.4z"/>
				<path id="XMLID_461_" class="st0" d="M573.8,287.4L573.8,287.4L573.8,287.4z"/>
				<path id="XMLID_460_" class="st0" d="M574.5,287.4L574.5,287.4L574.5,287.4z"/>
				<path id="XMLID_459_" class="st0" d="M575.1,287.4L575.1,287.4L575.1,287.4z"/>
				<path id="XMLID_458_" class="st0" d="M575.8,287.4L575.8,287.4L575.8,287.4z"/>
				<path id="XMLID_457_" class="st0" d="M576.5,287.4L576.5,287.4L576.5,287.4z"/>
				<path id="XMLID_456_" class="st0" d="M577.1,287.4L577.1,287.4L577.1,287.4z"/>
				<path id="XMLID_455_" class="st0" d="M577.8,287.4L577.8,287.4L577.8,287.4z"/>
				<path id="XMLID_454_" class="st0" d="M578.4,287.4L578.4,287.4L578.4,287.4z"/>
				<path id="XMLID_453_" class="st0" d="M579.1,287.4L579.1,287.4L579.1,287.4z"/>
				<path id="XMLID_452_" class="st0" d="M579.8,287.4L579.8,287.4L579.8,287.4z"/>
				<path id="XMLID_451_" class="st0" d="M579.8,287.4L579.8,287.4L579.8,287.4z"/>
			</g>
			<rect id="XMLID_449_" x="435.6" y="282.8" class="st0" width="144.2" height="9.3"/>
		</g>
		<g id="XMLID_226_">
			<g id="XMLID_228_">
				<path id="XMLID_447_" class="st0" d="M435.6,337.8L435.6,337.8L435.6,337.8z"/>
				<path id="XMLID_446_" class="st0" d="M436.2,337.8L436.2,337.8L436.2,337.8z"/>
				<path id="XMLID_445_" class="st0" d="M436.9,337.8L436.9,337.8L436.9,337.8z"/>
				<path id="XMLID_444_" class="st0" d="M437.6,337.8L437.6,337.8L437.6,337.8z"/>
				<path id="XMLID_443_" class="st0" d="M438.2,337.8L438.2,337.8L438.2,337.8z"/>
				<path id="XMLID_442_" class="st0" d="M438.9,337.8L438.9,337.8L438.9,337.8z"/>
				<path id="XMLID_441_" class="st0" d="M439.5,337.8L439.5,337.8L439.5,337.8z"/>
				<path id="XMLID_440_" class="st0" d="M440.2,337.8L440.2,337.8L440.2,337.8z"/>
				<path id="XMLID_439_" class="st0" d="M440.9,337.8L440.9,337.8L440.9,337.8z"/>
				<path id="XMLID_438_" class="st0" d="M441.5,337.8L441.5,337.8L441.5,337.8z"/>
				<path id="XMLID_437_" class="st0" d="M442.2,337.8L442.2,337.8L442.2,337.8z"/>
				<path id="XMLID_436_" class="st0" d="M442.9,337.8L442.9,337.8L442.9,337.8z"/>
				<path id="XMLID_435_" class="st0" d="M443.5,337.8L443.5,337.8L443.5,337.8z"/>
				<path id="XMLID_434_" class="st0" d="M444.2,337.8L444.2,337.8L444.2,337.8z"/>
				<path id="XMLID_433_" class="st0" d="M444.9,337.8L444.9,337.8L444.9,337.8z"/>
				<path id="XMLID_432_" class="st0" d="M445.5,337.8L445.5,337.8L445.5,337.8z"/>
				<path id="XMLID_431_" class="st0" d="M446.2,337.8L446.2,337.8L446.2,337.8z"/>
				<path id="XMLID_430_" class="st0" d="M446.9,337.8L446.9,337.8L446.9,337.8z"/>
				<path id="XMLID_429_" class="st0" d="M447.5,337.8L447.5,337.8L447.5,337.8z"/>
				<path id="XMLID_428_" class="st0" d="M448.2,337.8L448.2,337.8L448.2,337.8z"/>
				<path id="XMLID_427_" class="st0" d="M448.9,337.8L448.9,337.8L448.9,337.8z"/>
				<path id="XMLID_426_" class="st0" d="M449.5,337.8L449.5,337.8L449.5,337.8z"/>
				<path id="XMLID_425_" class="st0" d="M450.2,337.8L450.2,337.8L450.2,337.8z"/>
				<path id="XMLID_424_" class="st0" d="M450.8,337.8L450.8,337.8L450.8,337.8z"/>
				<path id="XMLID_423_" class="st0" d="M451.5,337.8L451.5,337.8L451.5,337.8z"/>
				<path id="XMLID_422_" class="st0" d="M452.2,337.8L452.2,337.8L452.2,337.8z"/>
				<path id="XMLID_421_" class="st0" d="M452.8,337.8L452.8,337.8L452.8,337.8z"/>
				<path id="XMLID_420_" class="st0" d="M453.5,337.8L453.5,337.8L453.5,337.8z"/>
				<path id="XMLID_419_" class="st0" d="M454.2,337.8L454.2,337.8L454.2,337.8z"/>
				<path id="XMLID_418_" class="st0" d="M454.8,337.8L454.8,337.8L454.8,337.8z"/>
				<path id="XMLID_417_" class="st0" d="M455.5,337.8L455.5,337.8L455.5,337.8z"/>
				<path id="XMLID_416_" class="st0" d="M456.2,337.8L456.2,337.8L456.2,337.8z"/>
				<path id="XMLID_415_" class="st0" d="M456.8,337.8L456.8,337.8L456.8,337.8z"/>
				<path id="XMLID_414_" class="st0" d="M457.5,337.8L457.5,337.8L457.5,337.8z"/>
				<path id="XMLID_413_" class="st0" d="M458.2,337.8L458.2,337.8L458.2,337.8z"/>
				<path id="XMLID_412_" class="st0" d="M458.8,337.8L458.8,337.8L458.8,337.8z"/>
				<path id="XMLID_411_" class="st0" d="M459.5,337.8L459.5,337.8L459.5,337.8z"/>
				<path id="XMLID_410_" class="st0" d="M460.2,337.8L460.2,337.8L460.2,337.8z"/>
				<path id="XMLID_409_" class="st0" d="M460.8,337.8L460.8,337.8L460.8,337.8z"/>
				<path id="XMLID_408_" class="st0" d="M461.5,337.8L461.5,337.8L461.5,337.8z"/>
				<path id="XMLID_407_" class="st0" d="M462.1,337.8L462.1,337.8L462.1,337.8z"/>
				<path id="XMLID_406_" class="st0" d="M462.8,337.8L462.8,337.8L462.8,337.8z"/>
				<path id="XMLID_405_" class="st0" d="M463.5,337.8L463.5,337.8L463.5,337.8z"/>
				<path id="XMLID_404_" class="st0" d="M464.1,337.8L464.1,337.8L464.1,337.8z"/>
				<path id="XMLID_403_" class="st0" d="M464.8,337.8L464.8,337.8L464.8,337.8z"/>
				<path id="XMLID_402_" class="st0" d="M465.5,337.8L465.5,337.8L465.5,337.8z"/>
				<path id="XMLID_401_" class="st0" d="M466.1,337.8L466.1,337.8L466.1,337.8z"/>
				<path id="XMLID_400_" class="st0" d="M466.8,337.8L466.8,337.8L466.8,337.8z"/>
				<path id="XMLID_399_" class="st0" d="M467.5,337.8L467.5,337.8L467.5,337.8z"/>
				<path id="XMLID_398_" class="st0" d="M468.1,337.8L468.1,337.8L468.1,337.8z"/>
				<path id="XMLID_397_" class="st0" d="M468.8,337.8L468.8,337.8L468.8,337.8z"/>
				<path id="XMLID_396_" class="st0" d="M469.5,337.8L469.5,337.8L469.5,337.8z"/>
				<path id="XMLID_395_" class="st0" d="M470.1,337.8L470.1,337.8L470.1,337.8z"/>
				<path id="XMLID_394_" class="st0" d="M470.8,337.8L470.8,337.8L470.8,337.8z"/>
				<path id="XMLID_393_" class="st0" d="M471.4,337.8L471.4,337.8L471.4,337.8z"/>
				<path id="XMLID_392_" class="st0" d="M472.1,337.8L472.1,337.8L472.1,337.8z"/>
				<path id="XMLID_391_" class="st0" d="M472.8,337.8L472.8,337.8L472.8,337.8z"/>
				<path id="XMLID_390_" class="st0" d="M473.4,337.8L473.4,337.8L473.4,337.8z"/>
				<path id="XMLID_389_" class="st0" d="M474.1,337.8L474.1,337.8L474.1,337.8z"/>
				<path id="XMLID_388_" class="st0" d="M474.8,337.8L474.8,337.8L474.8,337.8z"/>
				<path id="XMLID_387_" class="st0" d="M475.4,337.8L475.4,337.8L475.4,337.8z"/>
				<path id="XMLID_386_" class="st0" d="M476.1,337.8L476.1,337.8L476.1,337.8z"/>
				<path id="XMLID_385_" class="st0" d="M476.8,337.8L476.8,337.8L476.8,337.8z"/>
				<path id="XMLID_384_" class="st0" d="M477.4,337.8L477.4,337.8L477.4,337.8z"/>
				<path id="XMLID_383_" class="st0" d="M478.1,337.8L478.1,337.8L478.1,337.8z"/>
				<path id="XMLID_382_" class="st0" d="M478.8,337.8L478.8,337.8L478.8,337.8z"/>
				<path id="XMLID_381_" class="st0" d="M479.4,337.8L479.4,337.8L479.4,337.8z"/>
				<path id="XMLID_380_" class="st0" d="M480.1,337.8L480.1,337.8L480.1,337.8z"/>
				<path id="XMLID_379_" class="st0" d="M480.8,337.8L480.8,337.8L480.8,337.8z"/>
				<path id="XMLID_378_" class="st0" d="M481.4,337.8L481.4,337.8L481.4,337.8z"/>
				<path id="XMLID_377_" class="st0" d="M482.1,337.8L482.1,337.8L482.1,337.8z"/>
				<path id="XMLID_376_" class="st0" d="M482.7,337.8L482.7,337.8L482.7,337.8z"/>
				<path id="XMLID_375_" class="st0" d="M483.4,337.8L483.4,337.8L483.4,337.8z"/>
				<path id="XMLID_374_" class="st0" d="M484.1,337.8L484.1,337.8L484.1,337.8z"/>
				<path id="XMLID_373_" class="st0" d="M484.7,337.8L484.7,337.8L484.7,337.8z"/>
				<path id="XMLID_372_" class="st0" d="M485.4,337.8L485.4,337.8L485.4,337.8z"/>
				<path id="XMLID_371_" class="st0" d="M486.1,337.8L486.1,337.8L486.1,337.8z"/>
				<path id="XMLID_370_" class="st0" d="M486.7,337.8L486.7,337.8L486.7,337.8z"/>
				<path id="XMLID_369_" class="st0" d="M487.4,337.8L487.4,337.8L487.4,337.8z"/>
				<path id="XMLID_368_" class="st0" d="M488.1,337.8L488.1,337.8L488.1,337.8z"/>
				<path id="XMLID_367_" class="st0" d="M488.7,337.8L488.7,337.8L488.7,337.8z"/>
				<path id="XMLID_366_" class="st0" d="M489.4,337.8L489.4,337.8L489.4,337.8z"/>
				<path id="XMLID_365_" class="st0" d="M490.1,337.8L490.1,337.8L490.1,337.8z"/>
				<path id="XMLID_364_" class="st0" d="M490.7,337.8L490.7,337.8L490.7,337.8z"/>
				<path id="XMLID_363_" class="st0" d="M491.4,337.8L491.4,337.8L491.4,337.8z"/>
				<path id="XMLID_362_" class="st0" d="M492.1,337.8L492.1,337.8L492.1,337.8z"/>
				<path id="XMLID_361_" class="st0" d="M492.7,337.8L492.7,337.8L492.7,337.8z"/>
				<path id="XMLID_360_" class="st0" d="M493.4,337.8L493.4,337.8L493.4,337.8z"/>
				<path id="XMLID_359_" class="st0" d="M494,337.8L494,337.8L494,337.8z"/>
				<path id="XMLID_358_" class="st0" d="M494.7,337.8L494.7,337.8L494.7,337.8z"/>
				<path id="XMLID_357_" class="st0" d="M495.4,337.8L495.4,337.8L495.4,337.8z"/>
				<path id="XMLID_356_" class="st0" d="M496,337.8L496,337.8L496,337.8z"/>
				<path id="XMLID_355_" class="st0" d="M496.7,337.8L496.7,337.8L496.7,337.8z"/>
				<path id="XMLID_354_" class="st0" d="M497.4,337.8L497.4,337.8L497.4,337.8z"/>
				<path id="XMLID_353_" class="st0" d="M498,337.8L498,337.8L498,337.8z"/>
				<path id="XMLID_352_" class="st0" d="M498.7,337.8L498.7,337.8L498.7,337.8z"/>
				<path id="XMLID_351_" class="st0" d="M499.4,337.8L499.4,337.8L499.4,337.8z"/>
				<path id="XMLID_350_" class="st0" d="M500,337.8L500,337.8L500,337.8z"/>
				<path id="XMLID_349_" class="st0" d="M500.7,337.8L500.7,337.8L500.7,337.8z"/>
				<path id="XMLID_348_" class="st0" d="M501.4,337.8L501.4,337.8L501.4,337.8z"/>
				<path id="XMLID_347_" class="st0" d="M502,337.8L502,337.8L502,337.8z"/>
				<path id="XMLID_346_" class="st0" d="M502.7,337.8L502.7,337.8L502.7,337.8z"/>
				<path id="XMLID_345_" class="st0" d="M503.4,337.8L503.4,337.8L503.4,337.8z"/>
				<path id="XMLID_344_" class="st0" d="M504,337.8L504,337.8L504,337.8z"/>
				<path id="XMLID_343_" class="st0" d="M504.7,337.8L504.7,337.8L504.7,337.8z"/>
				<path id="XMLID_342_" class="st0" d="M505.3,337.8L505.3,337.8L505.3,337.8z"/>
				<path id="XMLID_341_" class="st0" d="M506,337.8L506,337.8L506,337.8z"/>
				<path id="XMLID_340_" class="st0" d="M506.7,337.8L506.7,337.8L506.7,337.8z"/>
				<path id="XMLID_339_" class="st0" d="M507.3,337.8L507.3,337.8L507.3,337.8z"/>
				<path id="XMLID_338_" class="st0" d="M508,337.8L508,337.8L508,337.8z"/>
				<path id="XMLID_337_" class="st0" d="M508.7,337.8L508.7,337.8L508.7,337.8z"/>
				<path id="XMLID_336_" class="st0" d="M509.3,337.8L509.3,337.8L509.3,337.8z"/>
				<path id="XMLID_335_" class="st0" d="M510,337.8L510,337.8L510,337.8z"/>
				<path id="XMLID_334_" class="st0" d="M510.7,337.8L510.7,337.8L510.7,337.8z"/>
				<path id="XMLID_333_" class="st0" d="M511.3,337.8L511.3,337.8L511.3,337.8z"/>
				<path id="XMLID_332_" class="st0" d="M512,337.8L512,337.8L512,337.8z"/>
				<path id="XMLID_331_" class="st0" d="M512.7,337.8L512.7,337.8L512.7,337.8z"/>
				<path id="XMLID_330_" class="st0" d="M513.3,337.8L513.3,337.8L513.3,337.8z"/>
				<path id="XMLID_329_" class="st0" d="M514,337.8L514,337.8L514,337.8z"/>
				<path id="XMLID_328_" class="st0" d="M514.6,337.8L514.6,337.8L514.6,337.8z"/>
				<path id="XMLID_327_" class="st0" d="M515.3,337.8L515.3,337.8L515.3,337.8z"/>
				<path id="XMLID_326_" class="st0" d="M516,337.8L516,337.8L516,337.8z"/>
				<path id="XMLID_325_" class="st0" d="M516.6,337.8L516.6,337.8L516.6,337.8z"/>
				<path id="XMLID_324_" class="st0" d="M517.3,337.8L517.3,337.8L517.3,337.8z"/>
				<path id="XMLID_323_" class="st0" d="M518,337.8L518,337.8L518,337.8z"/>
				<path id="XMLID_322_" class="st0" d="M518.6,337.8L518.6,337.8L518.6,337.8z"/>
				<path id="XMLID_321_" class="st0" d="M519.3,337.8L519.3,337.8L519.3,337.8z"/>
				<path id="XMLID_320_" class="st0" d="M520,337.8L520,337.8L520,337.8z"/>
				<path id="XMLID_319_" class="st0" d="M520.6,337.8L520.6,337.8L520.6,337.8z"/>
				<path id="XMLID_318_" class="st0" d="M521.3,337.8L521.3,337.8L521.3,337.8z"/>
				<path id="XMLID_317_" class="st0" d="M522,337.8L522,337.8L522,337.8z"/>
				<path id="XMLID_316_" class="st0" d="M522.6,337.8L522.6,337.8L522.6,337.8z"/>
				<path id="XMLID_315_" class="st0" d="M523.3,337.8L523.3,337.8L523.3,337.8z"/>
				<path id="XMLID_314_" class="st0" d="M524,337.8L524,337.8L524,337.8z"/>
				<path id="XMLID_313_" class="st0" d="M524.6,337.8L524.6,337.8L524.6,337.8z"/>
				<path id="XMLID_312_" class="st0" d="M525.3,337.8L525.3,337.8L525.3,337.8z"/>
				<path id="XMLID_311_" class="st0" d="M525.9,337.8L525.9,337.8L525.9,337.8z"/>
				<path id="XMLID_310_" class="st0" d="M526.6,337.8L526.6,337.8L526.6,337.8z"/>
				<path id="XMLID_309_" class="st0" d="M527.3,337.8L527.3,337.8L527.3,337.8z"/>
				<path id="XMLID_308_" class="st0" d="M527.9,337.8L527.9,337.8L527.9,337.8z"/>
				<path id="XMLID_307_" class="st0" d="M528.6,337.8L528.6,337.8L528.6,337.8z"/>
				<path id="XMLID_306_" class="st0" d="M529.3,337.8L529.3,337.8L529.3,337.8z"/>
				<path id="XMLID_305_" class="st0" d="M529.9,337.8L529.9,337.8L529.9,337.8z"/>
				<path id="XMLID_304_" class="st0" d="M530.6,337.8L530.6,337.8L530.6,337.8z"/>
				<path id="XMLID_303_" class="st0" d="M531.3,337.8L531.3,337.8L531.3,337.8z"/>
				<path id="XMLID_302_" class="st0" d="M531.9,337.8L531.9,337.8L531.9,337.8z"/>
				<path id="XMLID_301_" class="st0" d="M532.6,337.8L532.6,337.8L532.6,337.8z"/>
				<path id="XMLID_300_" class="st0" d="M533.3,337.8L533.3,337.8L533.3,337.8z"/>
				<path id="XMLID_299_" class="st0" d="M533.9,337.8L533.9,337.8L533.9,337.8z"/>
				<path id="XMLID_298_" class="st0" d="M534.6,337.8L534.6,337.8L534.6,337.8z"/>
				<path id="XMLID_297_" class="st0" d="M535.3,337.8L535.3,337.8L535.3,337.8z"/>
				<path id="XMLID_296_" class="st0" d="M535.9,337.8L535.9,337.8L535.9,337.8z"/>
				<path id="XMLID_295_" class="st0" d="M536.6,337.8L536.6,337.8L536.6,337.8z"/>
				<path id="XMLID_294_" class="st0" d="M537.2,337.8L537.2,337.8L537.2,337.8z"/>
				<path id="XMLID_293_" class="st0" d="M537.9,337.8L537.9,337.8L537.9,337.8z"/>
				<path id="XMLID_292_" class="st0" d="M538.6,337.8L538.6,337.8L538.6,337.8z"/>
				<path id="XMLID_291_" class="st0" d="M539.2,337.8L539.2,337.8L539.2,337.8z"/>
				<path id="XMLID_290_" class="st0" d="M539.9,337.8L539.9,337.8L539.9,337.8z"/>
				<path id="XMLID_289_" class="st0" d="M540.6,337.8L540.6,337.8L540.6,337.8z"/>
				<path id="XMLID_288_" class="st0" d="M541.2,337.8L541.2,337.8L541.2,337.8z"/>
				<path id="XMLID_287_" class="st0" d="M541.9,337.8L541.9,337.8L541.9,337.8z"/>
				<path id="XMLID_286_" class="st0" d="M542.6,337.8L542.6,337.8L542.6,337.8z"/>
				<path id="XMLID_285_" class="st0" d="M543.2,337.8L543.2,337.8L543.2,337.8z"/>
				<path id="XMLID_284_" class="st0" d="M543.9,337.8L543.9,337.8L543.9,337.8z"/>
				<path id="XMLID_283_" class="st0" d="M544.6,337.8L544.6,337.8L544.6,337.8z"/>
				<path id="XMLID_282_" class="st0" d="M545.2,337.8L545.2,337.8L545.2,337.8z"/>
				<path id="XMLID_281_" class="st0" d="M545.9,337.8L545.9,337.8L545.9,337.8z"/>
				<path id="XMLID_280_" class="st0" d="M546.5,337.8L546.5,337.8L546.5,337.8z"/>
				<path id="XMLID_279_" class="st0" d="M547.2,337.8L547.2,337.8L547.2,337.8z"/>
				<path id="XMLID_278_" class="st0" d="M547.9,337.8L547.9,337.8L547.9,337.8z"/>
				<path id="XMLID_277_" class="st0" d="M548.5,337.8L548.5,337.8L548.5,337.8z"/>
				<path id="XMLID_276_" class="st0" d="M549.2,337.8L549.2,337.8L549.2,337.8z"/>
				<path id="XMLID_275_" class="st0" d="M549.9,337.8L549.9,337.8L549.9,337.8z"/>
				<path id="XMLID_274_" class="st0" d="M550.5,337.8L550.5,337.8L550.5,337.8z"/>
				<path id="XMLID_273_" class="st0" d="M551.2,337.8L551.2,337.8L551.2,337.8z"/>
				<path id="XMLID_272_" class="st0" d="M551.9,337.8L551.9,337.8L551.9,337.8z"/>
				<path id="XMLID_271_" class="st0" d="M552.5,337.8L552.5,337.8L552.5,337.8z"/>
				<path id="XMLID_270_" class="st0" d="M553.2,337.8L553.2,337.8L553.2,337.8z"/>
				<path id="XMLID_269_" class="st0" d="M553.9,337.8L553.9,337.8L553.9,337.8z"/>
				<path id="XMLID_268_" class="st0" d="M554.5,337.8L554.5,337.8L554.5,337.8z"/>
				<path id="XMLID_267_" class="st0" d="M555.2,337.8L555.2,337.8L555.2,337.8z"/>
				<path id="XMLID_266_" class="st0" d="M555.9,337.8L555.9,337.8L555.9,337.8z"/>
				<path id="XMLID_265_" class="st0" d="M556.5,337.8L556.5,337.8L556.5,337.8z"/>
				<path id="XMLID_264_" class="st0" d="M557.2,337.8L557.2,337.8L557.2,337.8z"/>
				<path id="XMLID_263_" class="st0" d="M557.8,337.8L557.8,337.8L557.8,337.8z"/>
				<path id="XMLID_262_" class="st0" d="M558.5,337.8L558.5,337.8L558.5,337.8z"/>
				<path id="XMLID_261_" class="st0" d="M559.2,337.8L559.2,337.8L559.2,337.8z"/>
				<path id="XMLID_260_" class="st0" d="M559.8,337.8L559.8,337.8L559.8,337.8z"/>
				<path id="XMLID_259_" class="st0" d="M560.5,337.8L560.5,337.8L560.5,337.8z"/>
				<path id="XMLID_258_" class="st0" d="M561.2,337.8L561.2,337.8L561.2,337.8z"/>
				<path id="XMLID_257_" class="st0" d="M561.8,337.8L561.8,337.8L561.8,337.8z"/>
				<path id="XMLID_256_" class="st0" d="M562.5,337.8L562.5,337.8L562.5,337.8z"/>
				<path id="XMLID_255_" class="st0" d="M563.2,337.8L563.2,337.8L563.2,337.8z"/>
				<path id="XMLID_254_" class="st0" d="M563.8,337.8L563.8,337.8L563.8,337.8z"/>
				<path id="XMLID_253_" class="st0" d="M564.5,337.8L564.5,337.8L564.5,337.8z"/>
				<path id="XMLID_252_" class="st0" d="M565.2,337.8L565.2,337.8L565.2,337.8z"/>
				<path id="XMLID_251_" class="st0" d="M565.8,337.8L565.8,337.8L565.8,337.8z"/>
				<path id="XMLID_250_" class="st0" d="M566.5,337.8L566.5,337.8L566.5,337.8z"/>
				<path id="XMLID_249_" class="st0" d="M567.2,337.8L567.2,337.8L567.2,337.8z"/>
				<path id="XMLID_248_" class="st0" d="M567.8,337.8L567.8,337.8L567.8,337.8z"/>
				<path id="XMLID_247_" class="st0" d="M568.5,337.8L568.5,337.8L568.5,337.8z"/>
				<path id="XMLID_246_" class="st0" d="M569.1,337.8L569.1,337.8L569.1,337.8z"/>
				<path id="XMLID_245_" class="st0" d="M569.8,337.8L569.8,337.8L569.8,337.8z"/>
				<path id="XMLID_244_" class="st0" d="M570.5,337.8L570.5,337.8L570.5,337.8z"/>
				<path id="XMLID_243_" class="st0" d="M571.1,337.8L571.1,337.8L571.1,337.8z"/>
				<path id="XMLID_242_" class="st0" d="M571.8,337.8L571.8,337.8L571.8,337.8z"/>
				<path id="XMLID_241_" class="st0" d="M572.5,337.8L572.5,337.8L572.5,337.8z"/>
				<path id="XMLID_240_" class="st0" d="M573.1,337.8L573.1,337.8L573.1,337.8z"/>
				<path id="XMLID_239_" class="st0" d="M573.8,337.8L573.8,337.8L573.8,337.8z"/>
				<path id="XMLID_238_" class="st0" d="M574.5,337.8L574.5,337.8L574.5,337.8z"/>
				<path id="XMLID_237_" class="st0" d="M575.1,337.8L575.1,337.8L575.1,337.8z"/>
				<path id="XMLID_236_" class="st0" d="M575.8,337.8L575.8,337.8L575.8,337.8z"/>
				<path id="XMLID_235_" class="st0" d="M576.5,337.8L576.5,337.8L576.5,337.8z"/>
				<path id="XMLID_234_" class="st0" d="M577.1,337.8L577.1,337.8L577.1,337.8z"/>
				<path id="XMLID_233_" class="st0" d="M577.8,337.8L577.8,337.8L577.8,337.8z"/>
				<path id="XMLID_232_" class="st0" d="M578.4,337.8L578.4,337.8L578.4,337.8z"/>
				<path id="XMLID_231_" class="st0" d="M579.1,337.8L579.1,337.8L579.1,337.8z"/>
				<path id="XMLID_230_" class="st0" d="M579.8,337.8L579.8,337.8L579.8,337.8z"/>
				<path id="XMLID_229_" class="st0" d="M579.8,337.8L579.8,337.8L579.8,337.8z"/>
			</g>
			<rect id="XMLID_227_" x="435.6" y="333.2" class="st0" width="144.2" height="9.3"/>
		</g>
		<g id="XMLID_4_">
			<g id="XMLID_6_">
				<path id="XMLID_225_" class="st0" d="M367,388.2L367,388.2L367,388.2z"/>
				<path id="XMLID_224_" class="st0" d="M368,388.2L368,388.2L368,388.2z"/>
				<path id="XMLID_223_" class="st0" d="M369,388.2L369,388.2L369,388.2z"/>
				<path id="XMLID_222_" class="st0" d="M369.9,388.2L369.9,388.2L369.9,388.2z"/>
				<path id="XMLID_221_" class="st0" d="M370.9,388.2L370.9,388.2L370.9,388.2z"/>
				<path id="XMLID_220_" class="st0" d="M371.9,388.2L371.9,388.2L371.9,388.2z"/>
				<path id="XMLID_219_" class="st0" d="M372.9,388.2L372.9,388.2L372.9,388.2z"/>
				<path id="XMLID_218_" class="st0" d="M373.9,388.2L373.9,388.2L373.9,388.2z"/>
				<path id="XMLID_217_" class="st0" d="M374.8,388.2L374.8,388.2L374.8,388.2z"/>
				<path id="XMLID_216_" class="st0" d="M375.8,388.2L375.8,388.2L375.8,388.2z"/>
				<path id="XMLID_215_" class="st0" d="M376.8,388.2L376.8,388.2L376.8,388.2z"/>
				<path id="XMLID_214_" class="st0" d="M377.8,388.2L377.8,388.2L377.8,388.2z"/>
				<path id="XMLID_213_" class="st0" d="M378.8,388.2L378.8,388.2L378.8,388.2z"/>
				<path id="XMLID_212_" class="st0" d="M379.7,388.2L379.7,388.2L379.7,388.2z"/>
				<path id="XMLID_211_" class="st0" d="M380.7,388.2L380.7,388.2L380.7,388.2z"/>
				<path id="XMLID_210_" class="st0" d="M381.7,388.2L381.7,388.2L381.7,388.2z"/>
				<path id="XMLID_209_" class="st0" d="M382.7,388.2L382.7,388.2L382.7,388.2z"/>
				<path id="XMLID_208_" class="st0" d="M383.7,388.2L383.7,388.2L383.7,388.2z"/>
				<path id="XMLID_207_" class="st0" d="M384.6,388.2L384.6,388.2L384.6,388.2z"/>
				<path id="XMLID_206_" class="st0" d="M385.6,388.2L385.6,388.2L385.6,388.2z"/>
				<path id="XMLID_205_" class="st0" d="M386.6,388.2L386.6,388.2L386.6,388.2z"/>
				<path id="XMLID_204_" class="st0" d="M387.6,388.2L387.6,388.2L387.6,388.2z"/>
				<path id="XMLID_203_" class="st0" d="M388.6,388.2L388.6,388.2L388.6,388.2z"/>
				<path id="XMLID_202_" class="st0" d="M389.6,388.2L389.6,388.2L389.6,388.2z"/>
				<path id="XMLID_201_" class="st0" d="M390.5,388.2L390.5,388.2L390.5,388.2z"/>
				<path id="XMLID_200_" class="st0" d="M391.5,388.2L391.5,388.2L391.5,388.2z"/>
				<path id="XMLID_199_" class="st0" d="M392.5,388.2L392.5,388.2L392.5,388.2z"/>
				<path id="XMLID_198_" class="st0" d="M393.5,388.2L393.5,388.2L393.5,388.2z"/>
				<path id="XMLID_197_" class="st0" d="M394.5,388.2L394.5,388.2L394.5,388.2z"/>
				<path id="XMLID_196_" class="st0" d="M395.4,388.2L395.4,388.2L395.4,388.2z"/>
				<path id="XMLID_195_" class="st0" d="M396.4,388.2L396.4,388.2L396.4,388.2z"/>
				<path id="XMLID_194_" class="st0" d="M397.4,388.2L397.4,388.2L397.4,388.2z"/>
				<path id="XMLID_193_" class="st0" d="M398.4,388.2L398.4,388.2L398.4,388.2z"/>
				<path id="XMLID_192_" class="st0" d="M399.4,388.2L399.4,388.2L399.4,388.2z"/>
				<path id="XMLID_191_" class="st0" d="M400.3,388.2L400.3,388.2L400.3,388.2z"/>
				<path id="XMLID_190_" class="st0" d="M401.3,388.2L401.3,388.2L401.3,388.2z"/>
				<path id="XMLID_189_" class="st0" d="M402.3,388.2L402.3,388.2L402.3,388.2z"/>
				<path id="XMLID_188_" class="st0" d="M403.3,388.2L403.3,388.2L403.3,388.2z"/>
				<path id="XMLID_187_" class="st0" d="M404.3,388.2L404.3,388.2L404.3,388.2z"/>
				<path id="XMLID_186_" class="st0" d="M405.2,388.2L405.2,388.2L405.2,388.2z"/>
				<path id="XMLID_185_" class="st0" d="M406.2,388.2L406.2,388.2L406.2,388.2z"/>
				<path id="XMLID_184_" class="st0" d="M407.2,388.2L407.2,388.2L407.2,388.2z"/>
				<path id="XMLID_183_" class="st0" d="M408.2,388.2L408.2,388.2L408.2,388.2z"/>
				<path id="XMLID_182_" class="st0" d="M409.2,388.2L409.2,388.2L409.2,388.2z"/>
				<path id="XMLID_181_" class="st0" d="M410.1,388.2L410.1,388.2L410.1,388.2z"/>
				<path id="XMLID_180_" class="st0" d="M411.1,388.2L411.1,388.2L411.1,388.2z"/>
				<path id="XMLID_179_" class="st0" d="M412.1,388.2L412.1,388.2L412.1,388.2z"/>
				<path id="XMLID_178_" class="st0" d="M413.1,388.2L413.1,388.2L413.1,388.2z"/>
				<path id="XMLID_177_" class="st0" d="M414.1,388.2L414.1,388.2L414.1,388.2z"/>
				<path id="XMLID_176_" class="st0" d="M415,388.2L415,388.2L415,388.2z"/>
				<path id="XMLID_175_" class="st0" d="M416,388.2L416,388.2L416,388.2z"/>
				<path id="XMLID_174_" class="st0" d="M417,388.2L417,388.2L417,388.2z"/>
				<path id="XMLID_173_" class="st0" d="M418,388.2L418,388.2L418,388.2z"/>
				<path id="XMLID_172_" class="st0" d="M419,388.2L419,388.2L419,388.2z"/>
				<path id="XMLID_171_" class="st0" d="M419.9,388.2L419.9,388.2L419.9,388.2z"/>
				<path id="XMLID_170_" class="st0" d="M420.9,388.2L420.9,388.2L420.9,388.2z"/>
				<path id="XMLID_169_" class="st0" d="M421.9,388.2L421.9,388.2L421.9,388.2z"/>
				<path id="XMLID_168_" class="st0" d="M422.9,388.2L422.9,388.2L422.9,388.2z"/>
				<path id="XMLID_167_" class="st0" d="M423.9,388.2L423.9,388.2L423.9,388.2z"/>
				<path id="XMLID_166_" class="st0" d="M424.9,388.2L424.9,388.2L424.9,388.2z"/>
				<path id="XMLID_165_" class="st0" d="M425.8,388.2L425.8,388.2L425.8,388.2z"/>
				<path id="XMLID_164_" class="st0" d="M426.8,388.2L426.8,388.2L426.8,388.2z"/>
				<path id="XMLID_163_" class="st0" d="M427.8,388.2L427.8,388.2L427.8,388.2z"/>
				<path id="XMLID_162_" class="st0" d="M428.8,388.2L428.8,388.2L428.8,388.2z"/>
				<path id="XMLID_161_" class="st0" d="M429.8,388.2L429.8,388.2L429.8,388.2z"/>
				<path id="XMLID_160_" class="st0" d="M430.7,388.2L430.7,388.2L430.7,388.2z"/>
				<path id="XMLID_159_" class="st0" d="M431.7,388.2L431.7,388.2L431.7,388.2z"/>
				<path id="XMLID_158_" class="st0" d="M432.7,388.2L432.7,388.2L432.7,388.2z"/>
				<path id="XMLID_157_" class="st0" d="M433.7,388.2L433.7,388.2L433.7,388.2z"/>
				<path id="XMLID_156_" class="st0" d="M434.7,388.2L434.7,388.2L434.7,388.2z"/>
				<path id="XMLID_155_" class="st0" d="M435.6,388.2L435.6,388.2L435.6,388.2z"/>
				<path id="XMLID_154_" class="st0" d="M436.6,388.2L436.6,388.2L436.6,388.2z"/>
				<path id="XMLID_153_" class="st0" d="M437.6,388.2L437.6,388.2L437.6,388.2z"/>
				<path id="XMLID_152_" class="st0" d="M438.6,388.2L438.6,388.2L438.6,388.2z"/>
				<path id="XMLID_151_" class="st0" d="M439.6,388.2L439.6,388.2L439.6,388.2z"/>
				<path id="XMLID_150_" class="st0" d="M440.5,388.2L440.5,388.2L440.5,388.2z"/>
				<path id="XMLID_149_" class="st0" d="M441.5,388.2L441.5,388.2L441.5,388.2z"/>
				<path id="XMLID_148_" class="st0" d="M442.5,388.2L442.5,388.2L442.5,388.2z"/>
				<path id="XMLID_147_" class="st0" d="M443.5,388.2L443.5,388.2L443.5,388.2z"/>
				<path id="XMLID_146_" class="st0" d="M444.5,388.2L444.5,388.2L444.5,388.2z"/>
				<path id="XMLID_145_" class="st0" d="M445.4,388.2L445.4,388.2L445.4,388.2z"/>
				<path id="XMLID_144_" class="st0" d="M446.4,388.2L446.4,388.2L446.4,388.2z"/>
				<path id="XMLID_143_" class="st0" d="M447.4,388.2L447.4,388.2L447.4,388.2z"/>
				<path id="XMLID_142_" class="st0" d="M448.4,388.2L448.4,388.2L448.4,388.2z"/>
				<path id="XMLID_141_" class="st0" d="M449.4,388.2L449.4,388.2L449.4,388.2z"/>
				<path id="XMLID_140_" class="st0" d="M450.3,388.2L450.3,388.2L450.3,388.2z"/>
				<path id="XMLID_139_" class="st0" d="M451.3,388.2L451.3,388.2L451.3,388.2z"/>
				<path id="XMLID_138_" class="st0" d="M452.3,388.2L452.3,388.2L452.3,388.2z"/>
				<path id="XMLID_137_" class="st0" d="M453.3,388.2L453.3,388.2L453.3,388.2z"/>
				<path id="XMLID_136_" class="st0" d="M454.3,388.2L454.3,388.2L454.3,388.2z"/>
				<path id="XMLID_135_" class="st0" d="M455.2,388.2L455.2,388.2L455.2,388.2z"/>
				<path id="XMLID_134_" class="st0" d="M456.2,388.2L456.2,388.2L456.2,388.2z"/>
				<path id="XMLID_133_" class="st0" d="M457.2,388.2L457.2,388.2L457.2,388.2z"/>
				<path id="XMLID_132_" class="st0" d="M458.2,388.2L458.2,388.2L458.2,388.2z"/>
				<path id="XMLID_131_" class="st0" d="M459.2,388.2L459.2,388.2L459.2,388.2z"/>
				<path id="XMLID_130_" class="st0" d="M460.2,388.2L460.2,388.2L460.2,388.2z"/>
				<path id="XMLID_129_" class="st0" d="M461.1,388.2L461.1,388.2L461.1,388.2z"/>
				<path id="XMLID_128_" class="st0" d="M462.1,388.2L462.1,388.2L462.1,388.2z"/>
				<path id="XMLID_127_" class="st0" d="M463.1,388.2L463.1,388.2L463.1,388.2z"/>
				<path id="XMLID_126_" class="st0" d="M464.1,388.2L464.1,388.2L464.1,388.2z"/>
				<path id="XMLID_125_" class="st0" d="M465.1,388.2L465.1,388.2L465.1,388.2z"/>
				<path id="XMLID_124_" class="st0" d="M466,388.2L466,388.2L466,388.2z"/>
				<path id="XMLID_123_" class="st0" d="M467,388.2L467,388.2L467,388.2z"/>
				<path id="XMLID_122_" class="st0" d="M468,388.2L468,388.2L468,388.2z"/>
				<path id="XMLID_121_" class="st0" d="M469,388.2L469,388.2L469,388.2z"/>
				<path id="XMLID_120_" class="st0" d="M470,388.2L470,388.2L470,388.2z"/>
				<path id="XMLID_119_" class="st0" d="M470.9,388.2L470.9,388.2L470.9,388.2z"/>
				<path id="XMLID_118_" class="st0" d="M471.9,388.2L471.9,388.2L471.9,388.2z"/>
				<path id="XMLID_117_" class="st0" d="M472.9,388.2L472.9,388.2L472.9,388.2z"/>
				<path id="XMLID_116_" class="st0" d="M473.9,388.2L473.9,388.2L473.9,388.2z"/>
				<path id="XMLID_115_" class="st0" d="M474.9,388.2L474.9,388.2L474.9,388.2z"/>
				<path id="XMLID_114_" class="st0" d="M475.8,388.2L475.8,388.2L475.8,388.2z"/>
				<path id="XMLID_113_" class="st0" d="M476.8,388.2L476.8,388.2L476.8,388.2z"/>
				<path id="XMLID_112_" class="st0" d="M477.8,388.2L477.8,388.2L477.8,388.2z"/>
				<path id="XMLID_111_" class="st0" d="M478.8,388.2L478.8,388.2L478.8,388.2z"/>
				<path id="XMLID_110_" class="st0" d="M479.8,388.2L479.8,388.2L479.8,388.2z"/>
				<path id="XMLID_109_" class="st0" d="M480.7,388.2L480.7,388.2L480.7,388.2z"/>
				<path id="XMLID_108_" class="st0" d="M481.7,388.2L481.7,388.2L481.7,388.2z"/>
				<path id="XMLID_107_" class="st0" d="M482.7,388.2L482.7,388.2L482.7,388.2z"/>
				<path id="XMLID_106_" class="st0" d="M483.7,388.2L483.7,388.2L483.7,388.2z"/>
				<path id="XMLID_105_" class="st0" d="M484.7,388.2L484.7,388.2L484.7,388.2z"/>
				<path id="XMLID_104_" class="st0" d="M485.6,388.2L485.6,388.2L485.6,388.2z"/>
				<path id="XMLID_103_" class="st0" d="M486.6,388.2L486.6,388.2L486.6,388.2z"/>
				<path id="XMLID_102_" class="st0" d="M487.6,388.2L487.6,388.2L487.6,388.2z"/>
				<path id="XMLID_101_" class="st0" d="M488.6,388.2L488.6,388.2L488.6,388.2z"/>
				<path id="XMLID_100_" class="st0" d="M489.6,388.2L489.6,388.2L489.6,388.2z"/>
				<path id="XMLID_99_" class="st0" d="M490.5,388.2L490.5,388.2L490.5,388.2z"/>
				<path id="XMLID_98_" class="st0" d="M491.5,388.2L491.5,388.2L491.5,388.2z"/>
				<path id="XMLID_97_" class="st0" d="M492.5,388.2L492.5,388.2L492.5,388.2z"/>
				<path id="XMLID_96_" class="st0" d="M493.5,388.2L493.5,388.2L493.5,388.2z"/>
				<path id="XMLID_95_" class="st0" d="M494.5,388.2L494.5,388.2L494.5,388.2z"/>
				<path id="XMLID_94_" class="st0" d="M495.5,388.2L495.5,388.2L495.5,388.2z"/>
				<path id="XMLID_93_" class="st0" d="M496.4,388.2L496.4,388.2L496.4,388.2z"/>
				<path id="XMLID_92_" class="st0" d="M497.4,388.2L497.4,388.2L497.4,388.2z"/>
				<path id="XMLID_91_" class="st0" d="M498.4,388.2L498.4,388.2L498.4,388.2z"/>
				<path id="XMLID_90_" class="st0" d="M499.4,388.2L499.4,388.2L499.4,388.2z"/>
				<path id="XMLID_89_" class="st0" d="M500.4,388.2L500.4,388.2L500.4,388.2z"/>
				<path id="XMLID_88_" class="st0" d="M501.3,388.2L501.3,388.2L501.3,388.2z"/>
				<path id="XMLID_87_" class="st0" d="M502.3,388.2L502.3,388.2L502.3,388.2z"/>
				<path id="XMLID_86_" class="st0" d="M503.3,388.2L503.3,388.2L503.3,388.2z"/>
				<path id="XMLID_85_" class="st0" d="M504.3,388.2L504.3,388.2L504.3,388.2z"/>
				<path id="XMLID_84_" class="st0" d="M505.3,388.2L505.3,388.2L505.3,388.2z"/>
				<path id="XMLID_83_" class="st0" d="M506.2,388.2L506.2,388.2L506.2,388.2z"/>
				<path id="XMLID_82_" class="st0" d="M507.2,388.2L507.2,388.2L507.2,388.2z"/>
				<path id="XMLID_81_" class="st0" d="M508.2,388.2L508.2,388.2L508.2,388.2z"/>
				<path id="XMLID_80_" class="st0" d="M509.2,388.2L509.2,388.2L509.2,388.2z"/>
				<path id="XMLID_79_" class="st0" d="M510.2,388.2L510.2,388.2L510.2,388.2z"/>
				<path id="XMLID_78_" class="st0" d="M511.1,388.2L511.1,388.2L511.1,388.2z"/>
				<path id="XMLID_77_" class="st0" d="M512.1,388.2L512.1,388.2L512.1,388.2z"/>
				<path id="XMLID_76_" class="st0" d="M513.1,388.2L513.1,388.2L513.1,388.2z"/>
				<path id="XMLID_75_" class="st0" d="M514.1,388.2L514.1,388.2L514.1,388.2z"/>
				<path id="XMLID_74_" class="st0" d="M515.1,388.2L515.1,388.2L515.1,388.2z"/>
				<path id="XMLID_73_" class="st0" d="M516,388.2L516,388.2L516,388.2z"/>
				<path id="XMLID_72_" class="st0" d="M517,388.2L517,388.2L517,388.2z"/>
				<path id="XMLID_71_" class="st0" d="M518,388.2L518,388.2L518,388.2z"/>
				<path id="XMLID_70_" class="st0" d="M519,388.2L519,388.2L519,388.2z"/>
				<path id="XMLID_69_" class="st0" d="M520,388.2L520,388.2L520,388.2z"/>
				<path id="XMLID_68_" class="st0" d="M520.9,388.2L520.9,388.2L520.9,388.2z"/>
				<path id="XMLID_67_" class="st0" d="M521.9,388.2L521.9,388.2L521.9,388.2z"/>
				<path id="XMLID_66_" class="st0" d="M522.9,388.2L522.9,388.2L522.9,388.2z"/>
				<path id="XMLID_65_" class="st0" d="M523.9,388.2L523.9,388.2L523.9,388.2z"/>
				<path id="XMLID_64_" class="st0" d="M524.9,388.2L524.9,388.2L524.9,388.2z"/>
				<path id="XMLID_63_" class="st0" d="M525.8,388.2L525.8,388.2L525.8,388.2z"/>
				<path id="XMLID_62_" class="st0" d="M526.8,388.2L526.8,388.2L526.8,388.2z"/>
				<path id="XMLID_61_" class="st0" d="M527.8,388.2L527.8,388.2L527.8,388.2z"/>
				<path id="XMLID_60_" class="st0" d="M528.8,388.2L528.8,388.2L528.8,388.2z"/>
				<path id="XMLID_59_" class="st0" d="M529.8,388.2L529.8,388.2L529.8,388.2z"/>
				<path id="XMLID_58_" class="st0" d="M530.8,388.2L530.8,388.2L530.8,388.2z"/>
				<path id="XMLID_57_" class="st0" d="M531.7,388.2L531.7,388.2L531.7,388.2z"/>
				<path id="XMLID_56_" class="st0" d="M532.7,388.2L532.7,388.2L532.7,388.2z"/>
				<path id="XMLID_55_" class="st0" d="M533.7,388.2L533.7,388.2L533.7,388.2z"/>
				<path id="XMLID_54_" class="st0" d="M534.7,388.2L534.7,388.2L534.7,388.2z"/>
				<path id="XMLID_53_" class="st0" d="M535.7,388.2L535.7,388.2L535.7,388.2z"/>
				<path id="XMLID_52_" class="st0" d="M536.6,388.2L536.6,388.2L536.6,388.2z"/>
				<path id="XMLID_51_" class="st0" d="M537.6,388.2L537.6,388.2L537.6,388.2z"/>
				<path id="XMLID_50_" class="st0" d="M538.6,388.2L538.6,388.2L538.6,388.2z"/>
				<path id="XMLID_49_" class="st0" d="M539.6,388.2L539.6,388.2L539.6,388.2z"/>
				<path id="XMLID_48_" class="st0" d="M540.6,388.2L540.6,388.2L540.6,388.2z"/>
				<path id="XMLID_47_" class="st0" d="M541.5,388.2L541.5,388.2L541.5,388.2z"/>
				<path id="XMLID_46_" class="st0" d="M542.5,388.2L542.5,388.2L542.5,388.2z"/>
				<path id="XMLID_45_" class="st0" d="M543.5,388.2L543.5,388.2L543.5,388.2z"/>
				<path id="XMLID_44_" class="st0" d="M544.5,388.2L544.5,388.2L544.5,388.2z"/>
				<path id="XMLID_43_" class="st0" d="M545.5,388.2L545.5,388.2L545.5,388.2z"/>
				<path id="XMLID_42_" class="st0" d="M546.4,388.2L546.4,388.2L546.4,388.2z"/>
				<path id="XMLID_41_" class="st0" d="M547.4,388.2L547.4,388.2L547.4,388.2z"/>
				<path id="XMLID_40_" class="st0" d="M548.4,388.2L548.4,388.2L548.4,388.2z"/>
				<path id="XMLID_39_" class="st0" d="M549.4,388.2L549.4,388.2L549.4,388.2z"/>
				<path id="XMLID_38_" class="st0" d="M550.4,388.2L550.4,388.2L550.4,388.2z"/>
				<path id="XMLID_37_" class="st0" d="M551.3,388.2L551.3,388.2L551.3,388.2z"/>
				<path id="XMLID_36_" class="st0" d="M552.3,388.2L552.3,388.2L552.3,388.2z"/>
				<path id="XMLID_35_" class="st0" d="M553.3,388.2L553.3,388.2L553.3,388.2z"/>
				<path id="XMLID_34_" class="st0" d="M554.3,388.2L554.3,388.2L554.3,388.2z"/>
				<path id="XMLID_33_" class="st0" d="M555.3,388.2L555.3,388.2L555.3,388.2z"/>
				<path id="XMLID_32_" class="st0" d="M556.2,388.2L556.2,388.2L556.2,388.2z"/>
				<path id="XMLID_31_" class="st0" d="M557.2,388.2L557.2,388.2L557.2,388.2z"/>
				<path id="XMLID_30_" class="st0" d="M558.2,388.2L558.2,388.2L558.2,388.2z"/>
				<path id="XMLID_29_" class="st0" d="M559.2,388.2L559.2,388.2L559.2,388.2z"/>
				<path id="XMLID_28_" class="st0" d="M560.2,388.2L560.2,388.2L560.2,388.2z"/>
				<path id="XMLID_27_" class="st0" d="M561.1,388.2L561.1,388.2L561.1,388.2z"/>
				<path id="XMLID_26_" class="st0" d="M562.1,388.2L562.1,388.2L562.1,388.2z"/>
				<path id="XMLID_25_" class="st0" d="M563.1,388.2L563.1,388.2L563.1,388.2z"/>
				<path id="XMLID_24_" class="st0" d="M564.1,388.2L564.1,388.2L564.1,388.2z"/>
				<path id="XMLID_23_" class="st0" d="M565.1,388.2L565.1,388.2L565.1,388.2z"/>
				<path id="XMLID_22_" class="st0" d="M566.1,388.2L566.1,388.2L566.1,388.2z"/>
				<path id="XMLID_21_" class="st0" d="M567,388.2L567,388.2L567,388.2z"/>
				<path id="XMLID_20_" class="st0" d="M568,388.2L568,388.2L568,388.2z"/>
				<path id="XMLID_19_" class="st0" d="M569,388.2L569,388.2L569,388.2z"/>
				<path id="XMLID_18_" class="st0" d="M570,388.2L570,388.2L570,388.2z"/>
				<path id="XMLID_17_" class="st0" d="M571,388.2L571,388.2L571,388.2z"/>
				<path id="XMLID_16_" class="st0" d="M571.9,388.2L571.9,388.2L571.9,388.2z"/>
				<path id="XMLID_15_" class="st0" d="M572.9,388.2L572.9,388.2L572.9,388.2z"/>
				<path id="XMLID_14_" class="st0" d="M573.9,388.2L573.9,388.2L573.9,388.2z"/>
				<path id="XMLID_13_" class="st0" d="M574.9,388.2L574.9,388.2L574.9,388.2z"/>
				<path id="XMLID_12_" class="st0" d="M575.9,388.2L575.9,388.2L575.9,388.2z"/>
				<path id="XMLID_11_" class="st0" d="M576.8,388.2L576.8,388.2L576.8,388.2z"/>
				<path id="XMLID_10_" class="st0" d="M577.8,388.2L577.8,388.2L577.8,388.2z"/>
				<path id="XMLID_9_" class="st0" d="M578.8,388.2L578.8,388.2L578.8,388.2z"/>
				<path id="XMLID_8_" class="st0" d="M579.8,388.2L579.8,388.2L579.8,388.2z"/>
				<path id="XMLID_7_" class="st0" d="M579.8,388.2L579.8,388.2L579.8,388.2z"/>
			</g>
			<rect id="XMLID_5_" x="367" y="383.6" class="st0" width="212.8" height="9.3"/>
		</g>
	</g>
</g>
</svg>
