<?xml version="1.0" encoding="utf-8"?>
<!-- Generator: Adobe Illustrator 19.0.0, SVG Export Plug-In . SVG Version: 6.00 Build 0)  -->
<!DOCTYPE svg PUBLIC "-//W3C//DTD SVG 1.1//EN" "http://www.w3.org/Graphics/SVG/1.1/DTD/svg11.dtd">
<svg version="1.1" id="Layer_1" xmlns="http://www.w3.org/2000/svg" xmlns:xlink="http://www.w3.org/1999/xlink" x="0px" y="0px"
	 viewBox="0 0 397.5 390.2" style="enable-background:new 0 0 397.5 390.2;" xml:space="preserve">
<style type="text/css">
	.st0{fill:#FFFFFF;}
</style>
<path id="XMLID_3_" class="st0" d="M329.9,174.2L225.3,113c-21.7-12.7-57.2-33.5-78.9-46.2L41.9,5.5C20.2-7.2,2.3,2.9,2.1,28.1
	L1.4,149.3c-0.2,25.1-0.4,66.3-0.6,91.4L0,361.9C-0.2,387,17.6,397.4,39.4,385l105.3-59.9c21.9-12.4,57.6-32.8,79.5-45.2l105.3-59.9
	C351.4,207.5,351.6,186.9,329.9,174.2z"/>
<path id="XMLID_2_" class="st0" d="M363.8,11c-18.6,0-33.7,15.1-33.7,33.7v307.5c0,18.6,15.1,33.7,33.7,33.7
	c18.6,0,33.7-15.1,33.7-33.7V44.8C397.5,26.1,382.4,11,363.8,11z"/>
</svg>
