<?xml version="1.0" encoding="utf-8"?>
<!-- Generator: Adobe Illustrator 19.0.0, SVG Export Plug-In . SVG Version: 6.00 Build 0)  -->
<!DOCTYPE svg PUBLIC "-//W3C//DTD SVG 1.1//EN" "http://www.w3.org/Graphics/SVG/1.1/DTD/svg11.dtd">
<svg version="1.1" id="Layer_1" xmlns="http://www.w3.org/2000/svg" xmlns:xlink="http://www.w3.org/1999/xlink" x="0px" y="0px"
	 viewBox="333 -266 792 612" style="enable-background:new 333 -266 792 612;" xml:space="preserve">
<style type="text/css">
	.st0{fill:#272626;}
	.st1{fill:#FFFFFF;}
</style>
<circle class="st0" cx="735.9" cy="40" r="259"/>
<g id="XMLID_2_">
	<g id="XMLID_896_">
		<path id="XMLID_897_" class="st1" d="M735.2,308.7c-148.6,0-269.5-120.9-269.5-269.5s120.9-269.5,269.5-269.5
			s269.5,120.9,269.5,269.5S883.8,308.7,735.2,308.7z M735.2-208.1c-136.3,0-247.3,110.9-247.3,247.3
			c0,136.3,110.9,247.3,247.3,247.3c136.3,0,247.3-110.9,247.3-247.3S871.5-208.1,735.2-208.1z"/>
	</g>
	<g id="XMLID_3_">
		<g id="XMLID_892_">
			<path id="XMLID_893_" class="st1" d="M582.3,148.2L582.3,148.2c-5.1,0-9.3-4.2-9.3-9.3V-45.7c0-5.1,4.2-9.3,9.3-9.3
				c1.8,0,3.6,0.5,5.1,1.6l139,92.3c2.6,1.7,4.1,4.6,4.1,7.7s-1.5,6-4.1,7.7l-139,92.3C585.9,147.6,584.2,148.2,582.3,148.2z
				 M584.2-42.3v177.8L718,46.6L584.2-42.3z"/>
		</g>
		<g id="XMLID_670_">
			<g id="XMLID_672_">
				<path id="XMLID_891_" class="st1" d="M679-29L679-29L679-29z"/>
				<path id="XMLID_890_" class="st1" d="M680-29L680-29L680-29z"/>
				<path id="XMLID_889_" class="st1" d="M681-29L681-29L681-29z"/>
				<path id="XMLID_888_" class="st1" d="M681.9-29L681.9-29L681.9-29z"/>
				<path id="XMLID_887_" class="st1" d="M682.9-29L682.9-29L682.9-29z"/>
				<path id="XMLID_886_" class="st1" d="M683.9-29L683.9-29L683.9-29z"/>
				<path id="XMLID_885_" class="st1" d="M684.9-29L684.9-29L684.9-29z"/>
				<path id="XMLID_884_" class="st1" d="M685.9-29L685.9-29L685.9-29z"/>
				<path id="XMLID_883_" class="st1" d="M686.8-29L686.8-29L686.8-29z"/>
				<path id="XMLID_882_" class="st1" d="M687.8-29L687.8-29L687.8-29z"/>
				<path id="XMLID_881_" class="st1" d="M688.8-29L688.8-29L688.8-29z"/>
				<path id="XMLID_880_" class="st1" d="M689.8-29L689.8-29L689.8-29z"/>
				<path id="XMLID_879_" class="st1" d="M690.8-29L690.8-29L690.8-29z"/>
				<path id="XMLID_878_" class="st1" d="M691.7-29L691.7-29L691.7-29z"/>
				<path id="XMLID_877_" class="st1" d="M692.7-29L692.7-29L692.7-29z"/>
				<path id="XMLID_876_" class="st1" d="M693.7-29L693.7-29L693.7-29z"/>
				<path id="XMLID_875_" class="st1" d="M694.7-29L694.7-29L694.7-29z"/>
				<path id="XMLID_874_" class="st1" d="M695.7-29L695.7-29L695.7-29z"/>
				<path id="XMLID_873_" class="st1" d="M696.6-29L696.6-29L696.6-29z"/>
				<path id="XMLID_872_" class="st1" d="M697.6-29L697.6-29L697.6-29z"/>
				<path id="XMLID_871_" class="st1" d="M698.6-29L698.6-29L698.6-29z"/>
				<path id="XMLID_870_" class="st1" d="M699.6-29L699.6-29L699.6-29z"/>
				<path id="XMLID_869_" class="st1" d="M700.6-29L700.6-29L700.6-29z"/>
				<path id="XMLID_868_" class="st1" d="M701.6-29L701.6-29L701.6-29z"/>
				<path id="XMLID_867_" class="st1" d="M702.5-29L702.5-29L702.5-29z"/>
				<path id="XMLID_866_" class="st1" d="M703.5-29L703.5-29L703.5-29z"/>
				<path id="XMLID_865_" class="st1" d="M704.5-29L704.5-29L704.5-29z"/>
				<path id="XMLID_864_" class="st1" d="M705.5-29L705.5-29L705.5-29z"/>
				<path id="XMLID_863_" class="st1" d="M706.5-29L706.5-29L706.5-29z"/>
				<path id="XMLID_862_" class="st1" d="M707.4-29L707.4-29L707.4-29z"/>
				<path id="XMLID_861_" class="st1" d="M708.4-29L708.4-29L708.4-29z"/>
				<path id="XMLID_860_" class="st1" d="M709.4-29L709.4-29L709.4-29z"/>
				<path id="XMLID_859_" class="st1" d="M710.4-29L710.4-29L710.4-29z"/>
				<path id="XMLID_858_" class="st1" d="M711.4-29L711.4-29L711.4-29z"/>
				<path id="XMLID_857_" class="st1" d="M712.3-29L712.3-29L712.3-29z"/>
				<path id="XMLID_856_" class="st1" d="M713.3-29L713.3-29L713.3-29z"/>
				<path id="XMLID_855_" class="st1" d="M714.3-29L714.3-29L714.3-29z"/>
				<path id="XMLID_854_" class="st1" d="M715.3-29L715.3-29L715.3-29z"/>
				<path id="XMLID_853_" class="st1" d="M716.3-29L716.3-29L716.3-29z"/>
				<path id="XMLID_852_" class="st1" d="M717.2-29L717.2-29L717.2-29z"/>
				<path id="XMLID_851_" class="st1" d="M718.2-29L718.2-29L718.2-29z"/>
				<path id="XMLID_850_" class="st1" d="M719.2-29L719.2-29L719.2-29z"/>
				<path id="XMLID_849_" class="st1" d="M720.2-29L720.2-29L720.2-29z"/>
				<path id="XMLID_848_" class="st1" d="M721.2-29L721.2-29L721.2-29z"/>
				<path id="XMLID_847_" class="st1" d="M722.1-29L722.1-29L722.1-29z"/>
				<path id="XMLID_846_" class="st1" d="M723.1-29L723.1-29L723.1-29z"/>
				<path id="XMLID_845_" class="st1" d="M724.1-29L724.1-29L724.1-29z"/>
				<path id="XMLID_844_" class="st1" d="M725.1-29L725.1-29L725.1-29z"/>
				<path id="XMLID_843_" class="st1" d="M726.1-29L726.1-29L726.1-29z"/>
				<path id="XMLID_842_" class="st1" d="M727-29L727-29L727-29z"/>
				<path id="XMLID_841_" class="st1" d="M728-29L728-29L728-29z"/>
				<path id="XMLID_840_" class="st1" d="M729-29L729-29L729-29z"/>
				<path id="XMLID_839_" class="st1" d="M730-29L730-29L730-29z"/>
				<path id="XMLID_838_" class="st1" d="M731-29L731-29L731-29z"/>
				<path id="XMLID_837_" class="st1" d="M731.9-29L731.9-29L731.9-29z"/>
				<path id="XMLID_836_" class="st1" d="M732.9-29L732.9-29L732.9-29z"/>
				<path id="XMLID_835_" class="st1" d="M733.9-29L733.9-29L733.9-29z"/>
				<path id="XMLID_834_" class="st1" d="M734.9-29L734.9-29L734.9-29z"/>
				<path id="XMLID_833_" class="st1" d="M735.9-29L735.9-29L735.9-29z"/>
				<path id="XMLID_832_" class="st1" d="M736.9-29L736.9-29L736.9-29z"/>
				<path id="XMLID_831_" class="st1" d="M737.8-29L737.8-29L737.8-29z"/>
				<path id="XMLID_830_" class="st1" d="M738.8-29L738.8-29L738.8-29z"/>
				<path id="XMLID_829_" class="st1" d="M739.8-29L739.8-29L739.8-29z"/>
				<path id="XMLID_828_" class="st1" d="M740.8-29L740.8-29L740.8-29z"/>
				<path id="XMLID_827_" class="st1" d="M741.8-29L741.8-29L741.8-29z"/>
				<path id="XMLID_826_" class="st1" d="M742.7-29L742.7-29L742.7-29z"/>
				<path id="XMLID_825_" class="st1" d="M743.7-29L743.7-29L743.7-29z"/>
				<path id="XMLID_824_" class="st1" d="M744.7-29L744.7-29L744.7-29z"/>
				<path id="XMLID_823_" class="st1" d="M745.7-29L745.7-29L745.7-29z"/>
				<path id="XMLID_822_" class="st1" d="M746.7-29L746.7-29L746.7-29z"/>
				<path id="XMLID_821_" class="st1" d="M747.6-29L747.6-29L747.6-29z"/>
				<path id="XMLID_820_" class="st1" d="M748.6-29L748.6-29L748.6-29z"/>
				<path id="XMLID_819_" class="st1" d="M749.6-29L749.6-29L749.6-29z"/>
				<path id="XMLID_818_" class="st1" d="M750.6-29L750.6-29L750.6-29z"/>
				<path id="XMLID_817_" class="st1" d="M751.6-29L751.6-29L751.6-29z"/>
				<path id="XMLID_816_" class="st1" d="M752.5-29L752.5-29L752.5-29z"/>
				<path id="XMLID_815_" class="st1" d="M753.5-29L753.5-29L753.5-29z"/>
				<path id="XMLID_814_" class="st1" d="M754.5-29L754.5-29L754.5-29z"/>
				<path id="XMLID_813_" class="st1" d="M755.5-29L755.5-29L755.5-29z"/>
				<path id="XMLID_812_" class="st1" d="M756.5-29L756.5-29L756.5-29z"/>
				<path id="XMLID_811_" class="st1" d="M757.4-29L757.4-29L757.4-29z"/>
				<path id="XMLID_810_" class="st1" d="M758.4-29L758.4-29L758.4-29z"/>
				<path id="XMLID_809_" class="st1" d="M759.4-29L759.4-29L759.4-29z"/>
				<path id="XMLID_808_" class="st1" d="M760.4-29L760.4-29L760.4-29z"/>
				<path id="XMLID_807_" class="st1" d="M761.4-29L761.4-29L761.4-29z"/>
				<path id="XMLID_806_" class="st1" d="M762.3-29L762.3-29L762.3-29z"/>
				<path id="XMLID_805_" class="st1" d="M763.3-29L763.3-29L763.3-29z"/>
				<path id="XMLID_804_" class="st1" d="M764.3-29L764.3-29L764.3-29z"/>
				<path id="XMLID_803_" class="st1" d="M765.3-29L765.3-29L765.3-29z"/>
				<path id="XMLID_802_" class="st1" d="M766.3-29L766.3-29L766.3-29z"/>
				<path id="XMLID_801_" class="st1" d="M767.2-29L767.2-29L767.2-29z"/>
				<path id="XMLID_800_" class="st1" d="M768.2-29L768.2-29L768.2-29z"/>
				<path id="XMLID_799_" class="st1" d="M769.2-29L769.2-29L769.2-29z"/>
				<path id="XMLID_798_" class="st1" d="M770.2-29L770.2-29L770.2-29z"/>
				<path id="XMLID_797_" class="st1" d="M771.2-29L771.2-29L771.2-29z"/>
				<path id="XMLID_796_" class="st1" d="M772.2-29L772.2-29L772.2-29z"/>
				<path id="XMLID_795_" class="st1" d="M773.1-29L773.1-29L773.1-29z"/>
				<path id="XMLID_794_" class="st1" d="M774.1-29L774.1-29L774.1-29z"/>
				<path id="XMLID_793_" class="st1" d="M775.1-29L775.1-29L775.1-29z"/>
				<path id="XMLID_792_" class="st1" d="M776.1-29L776.1-29L776.1-29z"/>
				<path id="XMLID_791_" class="st1" d="M777.1-29L777.1-29L777.1-29z"/>
				<path id="XMLID_790_" class="st1" d="M778-29L778-29L778-29z"/>
				<path id="XMLID_789_" class="st1" d="M779-29L779-29L779-29z"/>
				<path id="XMLID_788_" class="st1" d="M780-29L780-29L780-29z"/>
				<path id="XMLID_787_" class="st1" d="M781-29L781-29L781-29z"/>
				<path id="XMLID_786_" class="st1" d="M782-29L782-29L782-29z"/>
				<path id="XMLID_785_" class="st1" d="M782.9-29L782.9-29L782.9-29z"/>
				<path id="XMLID_784_" class="st1" d="M783.9-29L783.9-29L783.9-29z"/>
				<path id="XMLID_783_" class="st1" d="M784.9-29L784.9-29L784.9-29z"/>
				<path id="XMLID_782_" class="st1" d="M785.9-29L785.9-29L785.9-29z"/>
				<path id="XMLID_781_" class="st1" d="M786.9-29L786.9-29L786.9-29z"/>
				<path id="XMLID_780_" class="st1" d="M787.8-29L787.8-29L787.8-29z"/>
				<path id="XMLID_779_" class="st1" d="M788.8-29L788.8-29L788.8-29z"/>
				<path id="XMLID_778_" class="st1" d="M789.8-29L789.8-29L789.8-29z"/>
				<path id="XMLID_777_" class="st1" d="M790.8-29L790.8-29L790.8-29z"/>
				<path id="XMLID_776_" class="st1" d="M791.8-29L791.8-29L791.8-29z"/>
				<path id="XMLID_775_" class="st1" d="M792.7-29L792.7-29L792.7-29z"/>
				<path id="XMLID_774_" class="st1" d="M793.7-29L793.7-29L793.7-29z"/>
				<path id="XMLID_773_" class="st1" d="M794.7-29L794.7-29L794.7-29z"/>
				<path id="XMLID_772_" class="st1" d="M795.7-29L795.7-29L795.7-29z"/>
				<path id="XMLID_771_" class="st1" d="M796.7-29L796.7-29L796.7-29z"/>
				<path id="XMLID_770_" class="st1" d="M797.6-29L797.6-29L797.6-29z"/>
				<path id="XMLID_769_" class="st1" d="M798.6-29L798.6-29L798.6-29z"/>
				<path id="XMLID_768_" class="st1" d="M799.6-29L799.6-29L799.6-29z"/>
				<path id="XMLID_767_" class="st1" d="M800.6-29L800.6-29L800.6-29z"/>
				<path id="XMLID_766_" class="st1" d="M801.6-29L801.6-29L801.6-29z"/>
				<path id="XMLID_765_" class="st1" d="M802.5-29L802.5-29L802.5-29z"/>
				<path id="XMLID_764_" class="st1" d="M803.5-29L803.5-29L803.5-29z"/>
				<path id="XMLID_763_" class="st1" d="M804.5-29L804.5-29L804.5-29z"/>
				<path id="XMLID_762_" class="st1" d="M805.5-29L805.5-29L805.5-29z"/>
				<path id="XMLID_761_" class="st1" d="M806.5-29L806.5-29L806.5-29z"/>
				<path id="XMLID_760_" class="st1" d="M807.5-29L807.5-29L807.5-29z"/>
				<path id="XMLID_759_" class="st1" d="M808.4-29L808.4-29L808.4-29z"/>
				<path id="XMLID_758_" class="st1" d="M809.4-29L809.4-29L809.4-29z"/>
				<path id="XMLID_757_" class="st1" d="M810.4-29L810.4-29L810.4-29z"/>
				<path id="XMLID_756_" class="st1" d="M811.4-29L811.4-29L811.4-29z"/>
				<path id="XMLID_755_" class="st1" d="M812.4-29L812.4-29L812.4-29z"/>
				<path id="XMLID_754_" class="st1" d="M813.3-29L813.3-29L813.3-29z"/>
				<path id="XMLID_753_" class="st1" d="M814.3-29L814.3-29L814.3-29z"/>
				<path id="XMLID_752_" class="st1" d="M815.3-29L815.3-29L815.3-29z"/>
				<path id="XMLID_751_" class="st1" d="M816.3-29L816.3-29L816.3-29z"/>
				<path id="XMLID_750_" class="st1" d="M817.3-29L817.3-29L817.3-29z"/>
				<path id="XMLID_749_" class="st1" d="M818.2-29L818.2-29L818.2-29z"/>
				<path id="XMLID_748_" class="st1" d="M819.2-29L819.2-29L819.2-29z"/>
				<path id="XMLID_747_" class="st1" d="M820.2-29L820.2-29L820.2-29z"/>
				<path id="XMLID_746_" class="st1" d="M821.2-29L821.2-29L821.2-29z"/>
				<path id="XMLID_745_" class="st1" d="M822.2-29L822.2-29L822.2-29z"/>
				<path id="XMLID_744_" class="st1" d="M823.1-29L823.1-29L823.1-29z"/>
				<path id="XMLID_743_" class="st1" d="M824.1-29L824.1-29L824.1-29z"/>
				<path id="XMLID_742_" class="st1" d="M825.1-29L825.1-29L825.1-29z"/>
				<path id="XMLID_741_" class="st1" d="M826.1-29L826.1-29L826.1-29z"/>
				<path id="XMLID_740_" class="st1" d="M827.1-29L827.1-29L827.1-29z"/>
				<path id="XMLID_739_" class="st1" d="M828-29L828-29L828-29z"/>
				<path id="XMLID_738_" class="st1" d="M829-29L829-29L829-29z"/>
				<path id="XMLID_737_" class="st1" d="M830-29L830-29L830-29z"/>
				<path id="XMLID_736_" class="st1" d="M831-29L831-29L831-29z"/>
				<path id="XMLID_735_" class="st1" d="M832-29L832-29L832-29z"/>
				<path id="XMLID_734_" class="st1" d="M832.9-29L832.9-29L832.9-29z"/>
				<path id="XMLID_733_" class="st1" d="M833.9-29L833.9-29L833.9-29z"/>
				<path id="XMLID_732_" class="st1" d="M834.9-29L834.9-29L834.9-29z"/>
				<path id="XMLID_731_" class="st1" d="M835.9-29L835.9-29L835.9-29z"/>
				<path id="XMLID_730_" class="st1" d="M836.9-29L836.9-29L836.9-29z"/>
				<path id="XMLID_729_" class="st1" d="M837.8-29L837.8-29L837.8-29z"/>
				<path id="XMLID_728_" class="st1" d="M838.8-29L838.8-29L838.8-29z"/>
				<path id="XMLID_727_" class="st1" d="M839.8-29L839.8-29L839.8-29z"/>
				<path id="XMLID_726_" class="st1" d="M840.8-29L840.8-29L840.8-29z"/>
				<path id="XMLID_725_" class="st1" d="M841.8-29L841.8-29L841.8-29z"/>
				<path id="XMLID_724_" class="st1" d="M842.8-29L842.8-29L842.8-29z"/>
				<path id="XMLID_723_" class="st1" d="M843.7-29L843.7-29L843.7-29z"/>
				<path id="XMLID_722_" class="st1" d="M844.7-29L844.7-29L844.7-29z"/>
				<path id="XMLID_721_" class="st1" d="M845.7-29L845.7-29L845.7-29z"/>
				<path id="XMLID_720_" class="st1" d="M846.7-29L846.7-29L846.7-29z"/>
				<path id="XMLID_719_" class="st1" d="M847.7-29L847.7-29L847.7-29z"/>
				<path id="XMLID_718_" class="st1" d="M848.6-29L848.6-29L848.6-29z"/>
				<path id="XMLID_717_" class="st1" d="M849.6-29L849.6-29L849.6-29z"/>
				<path id="XMLID_716_" class="st1" d="M850.6-29L850.6-29L850.6-29z"/>
				<path id="XMLID_715_" class="st1" d="M851.6-29L851.6-29L851.6-29z"/>
				<path id="XMLID_714_" class="st1" d="M852.6-29L852.6-29L852.6-29z"/>
				<path id="XMLID_713_" class="st1" d="M853.5-29L853.5-29L853.5-29z"/>
				<path id="XMLID_712_" class="st1" d="M854.5-29L854.5-29L854.5-29z"/>
				<path id="XMLID_711_" class="st1" d="M855.5-29L855.5-29L855.5-29z"/>
				<path id="XMLID_710_" class="st1" d="M856.5-29L856.5-29L856.5-29z"/>
				<path id="XMLID_709_" class="st1" d="M857.5-29L857.5-29L857.5-29z"/>
				<path id="XMLID_708_" class="st1" d="M858.4-29L858.4-29L858.4-29z"/>
				<path id="XMLID_707_" class="st1" d="M859.4-29L859.4-29L859.4-29z"/>
				<path id="XMLID_706_" class="st1" d="M860.4-29L860.4-29L860.4-29z"/>
				<path id="XMLID_705_" class="st1" d="M861.4-29L861.4-29L861.4-29z"/>
				<path id="XMLID_704_" class="st1" d="M862.4-29L862.4-29L862.4-29z"/>
				<path id="XMLID_703_" class="st1" d="M863.3-29L863.3-29L863.3-29z"/>
				<path id="XMLID_702_" class="st1" d="M864.3-29L864.3-29L864.3-29z"/>
				<path id="XMLID_701_" class="st1" d="M865.3-29L865.3-29L865.3-29z"/>
				<path id="XMLID_700_" class="st1" d="M866.3-29L866.3-29L866.3-29z"/>
				<path id="XMLID_699_" class="st1" d="M867.3-29L867.3-29L867.3-29z"/>
				<path id="XMLID_698_" class="st1" d="M868.2-29L868.2-29L868.2-29z"/>
				<path id="XMLID_697_" class="st1" d="M869.2-29L869.2-29L869.2-29z"/>
				<path id="XMLID_696_" class="st1" d="M870.2-29L870.2-29L870.2-29z"/>
				<path id="XMLID_695_" class="st1" d="M871.2-29L871.2-29L871.2-29z"/>
				<path id="XMLID_694_" class="st1" d="M872.2-29L872.2-29L872.2-29z"/>
				<path id="XMLID_693_" class="st1" d="M873.1-29L873.1-29L873.1-29z"/>
				<path id="XMLID_692_" class="st1" d="M874.1-29L874.1-29L874.1-29z"/>
				<path id="XMLID_691_" class="st1" d="M875.1-29L875.1-29L875.1-29z"/>
				<path id="XMLID_690_" class="st1" d="M876.1-29L876.1-29L876.1-29z"/>
				<path id="XMLID_689_" class="st1" d="M877.1-29L877.1-29L877.1-29z"/>
				<path id="XMLID_688_" class="st1" d="M878.1-29L878.1-29L878.1-29z"/>
				<path id="XMLID_687_" class="st1" d="M879-29L879-29L879-29z"/>
				<path id="XMLID_686_" class="st1" d="M880-29L880-29L880-29z"/>
				<path id="XMLID_685_" class="st1" d="M881-29L881-29L881-29z"/>
				<path id="XMLID_684_" class="st1" d="M882-29L882-29L882-29z"/>
				<path id="XMLID_683_" class="st1" d="M883-29L883-29L883-29z"/>
				<path id="XMLID_682_" class="st1" d="M883.9-29L883.9-29L883.9-29z"/>
				<path id="XMLID_681_" class="st1" d="M884.9-29L884.9-29L884.9-29z"/>
				<path id="XMLID_680_" class="st1" d="M885.9-29L885.9-29L885.9-29z"/>
				<path id="XMLID_679_" class="st1" d="M886.9-29L886.9-29L886.9-29z"/>
				<path id="XMLID_678_" class="st1" d="M887.9-29L887.9-29L887.9-29z"/>
				<path id="XMLID_677_" class="st1" d="M888.8-29L888.8-29L888.8-29z"/>
				<path id="XMLID_676_" class="st1" d="M889.8-29L889.8-29L889.8-29z"/>
				<path id="XMLID_675_" class="st1" d="M890.8-29L890.8-29L890.8-29z"/>
				<path id="XMLID_674_" class="st1" d="M891.8-29L891.8-29L891.8-29z"/>
				<path id="XMLID_673_" class="st1" d="M891.8-29L891.8-29L891.8-29z"/>
			</g>
			<rect id="XMLID_671_" x="679" y="-33.7" class="st1" width="212.8" height="9.3"/>
		</g>
		<g id="XMLID_448_">
			<g id="XMLID_450_">
				<path id="XMLID_669_" class="st1" d="M747.6,21.4L747.6,21.4L747.6,21.4z"/>
				<path id="XMLID_668_" class="st1" d="M748.2,21.4L748.2,21.4L748.2,21.4z"/>
				<path id="XMLID_667_" class="st1" d="M748.9,21.4L748.9,21.4L748.9,21.4z"/>
				<path id="XMLID_666_" class="st1" d="M749.6,21.4L749.6,21.4L749.6,21.4z"/>
				<path id="XMLID_665_" class="st1" d="M750.2,21.4L750.2,21.4L750.2,21.4z"/>
				<path id="XMLID_664_" class="st1" d="M750.9,21.4L750.9,21.4L750.9,21.4z"/>
				<path id="XMLID_663_" class="st1" d="M751.5,21.4L751.5,21.4L751.5,21.4z"/>
				<path id="XMLID_662_" class="st1" d="M752.2,21.4L752.2,21.4L752.2,21.4z"/>
				<path id="XMLID_661_" class="st1" d="M752.9,21.4L752.9,21.4L752.9,21.4z"/>
				<path id="XMLID_660_" class="st1" d="M753.5,21.4L753.5,21.4L753.5,21.4z"/>
				<path id="XMLID_659_" class="st1" d="M754.2,21.4L754.2,21.4L754.2,21.4z"/>
				<path id="XMLID_658_" class="st1" d="M754.9,21.4L754.9,21.4L754.9,21.4z"/>
				<path id="XMLID_657_" class="st1" d="M755.5,21.4L755.5,21.4L755.5,21.4z"/>
				<path id="XMLID_656_" class="st1" d="M756.2,21.4L756.2,21.4L756.2,21.4z"/>
				<path id="XMLID_655_" class="st1" d="M756.9,21.4L756.9,21.4L756.9,21.4z"/>
				<path id="XMLID_654_" class="st1" d="M757.5,21.4L757.5,21.4L757.5,21.4z"/>
				<path id="XMLID_653_" class="st1" d="M758.2,21.4L758.2,21.4L758.2,21.4z"/>
				<path id="XMLID_652_" class="st1" d="M758.9,21.4L758.9,21.4L758.9,21.4z"/>
				<path id="XMLID_651_" class="st1" d="M759.5,21.4L759.5,21.4L759.5,21.4z"/>
				<path id="XMLID_650_" class="st1" d="M760.2,21.4L760.2,21.4L760.2,21.4z"/>
				<path id="XMLID_649_" class="st1" d="M760.9,21.4L760.9,21.4L760.9,21.4z"/>
				<path id="XMLID_648_" class="st1" d="M761.5,21.4L761.5,21.4L761.5,21.4z"/>
				<path id="XMLID_647_" class="st1" d="M762.2,21.4L762.2,21.4L762.2,21.4z"/>
				<path id="XMLID_646_" class="st1" d="M762.8,21.4L762.8,21.4L762.8,21.4z"/>
				<path id="XMLID_645_" class="st1" d="M763.5,21.4L763.5,21.4L763.5,21.4z"/>
				<path id="XMLID_644_" class="st1" d="M764.2,21.4L764.2,21.4L764.2,21.4z"/>
				<path id="XMLID_643_" class="st1" d="M764.8,21.4L764.8,21.4L764.8,21.4z"/>
				<path id="XMLID_642_" class="st1" d="M765.5,21.4L765.5,21.4L765.5,21.4z"/>
				<path id="XMLID_641_" class="st1" d="M766.2,21.4L766.2,21.4L766.2,21.4z"/>
				<path id="XMLID_640_" class="st1" d="M766.8,21.4L766.8,21.4L766.8,21.4z"/>
				<path id="XMLID_639_" class="st1" d="M767.5,21.4L767.5,21.4L767.5,21.4z"/>
				<path id="XMLID_638_" class="st1" d="M768.2,21.4L768.2,21.4L768.2,21.4z"/>
				<path id="XMLID_637_" class="st1" d="M768.8,21.4L768.8,21.4L768.8,21.4z"/>
				<path id="XMLID_636_" class="st1" d="M769.5,21.4L769.5,21.4L769.5,21.4z"/>
				<path id="XMLID_635_" class="st1" d="M770.2,21.4L770.2,21.4L770.2,21.4z"/>
				<path id="XMLID_634_" class="st1" d="M770.8,21.4L770.8,21.4L770.8,21.4z"/>
				<path id="XMLID_633_" class="st1" d="M771.5,21.4L771.5,21.4L771.5,21.4z"/>
				<path id="XMLID_632_" class="st1" d="M772.2,21.4L772.2,21.4L772.2,21.4z"/>
				<path id="XMLID_631_" class="st1" d="M772.8,21.4L772.8,21.4L772.8,21.4z"/>
				<path id="XMLID_630_" class="st1" d="M773.5,21.4L773.5,21.4L773.5,21.4z"/>
				<path id="XMLID_629_" class="st1" d="M774.1,21.4L774.1,21.4L774.1,21.4z"/>
				<path id="XMLID_628_" class="st1" d="M774.8,21.4L774.8,21.4L774.8,21.4z"/>
				<path id="XMLID_627_" class="st1" d="M775.5,21.4L775.5,21.4L775.5,21.4z"/>
				<path id="XMLID_626_" class="st1" d="M776.1,21.4L776.1,21.4L776.1,21.4z"/>
				<path id="XMLID_625_" class="st1" d="M776.8,21.4L776.8,21.4L776.8,21.4z"/>
				<path id="XMLID_624_" class="st1" d="M777.5,21.4L777.5,21.4L777.5,21.4z"/>
				<path id="XMLID_623_" class="st1" d="M778.1,21.4L778.1,21.4L778.1,21.4z"/>
				<path id="XMLID_622_" class="st1" d="M778.8,21.4L778.8,21.4L778.8,21.4z"/>
				<path id="XMLID_621_" class="st1" d="M779.5,21.4L779.5,21.4L779.5,21.4z"/>
				<path id="XMLID_620_" class="st1" d="M780.1,21.4L780.1,21.4L780.1,21.4z"/>
				<path id="XMLID_619_" class="st1" d="M780.8,21.4L780.8,21.4L780.8,21.4z"/>
				<path id="XMLID_618_" class="st1" d="M781.5,21.4L781.5,21.4L781.5,21.4z"/>
				<path id="XMLID_617_" class="st1" d="M782.1,21.4L782.1,21.4L782.1,21.4z"/>
				<path id="XMLID_616_" class="st1" d="M782.8,21.4L782.8,21.4L782.8,21.4z"/>
				<path id="XMLID_615_" class="st1" d="M783.4,21.4L783.4,21.4L783.4,21.4z"/>
				<path id="XMLID_614_" class="st1" d="M784.1,21.4L784.1,21.4L784.1,21.4z"/>
				<path id="XMLID_613_" class="st1" d="M784.8,21.4L784.8,21.4L784.8,21.4z"/>
				<path id="XMLID_612_" class="st1" d="M785.4,21.4L785.4,21.4L785.4,21.4z"/>
				<path id="XMLID_611_" class="st1" d="M786.1,21.4L786.1,21.4L786.1,21.4z"/>
				<path id="XMLID_610_" class="st1" d="M786.8,21.4L786.8,21.4L786.8,21.4z"/>
				<path id="XMLID_609_" class="st1" d="M787.4,21.4L787.4,21.4L787.4,21.4z"/>
				<path id="XMLID_608_" class="st1" d="M788.1,21.4L788.1,21.4L788.1,21.4z"/>
				<path id="XMLID_607_" class="st1" d="M788.8,21.4L788.8,21.4L788.8,21.4z"/>
				<path id="XMLID_606_" class="st1" d="M789.4,21.4L789.4,21.4L789.4,21.4z"/>
				<path id="XMLID_605_" class="st1" d="M790.1,21.4L790.1,21.4L790.1,21.4z"/>
				<path id="XMLID_604_" class="st1" d="M790.8,21.4L790.8,21.4L790.8,21.4z"/>
				<path id="XMLID_603_" class="st1" d="M791.4,21.4L791.4,21.4L791.4,21.4z"/>
				<path id="XMLID_602_" class="st1" d="M792.1,21.4L792.1,21.4L792.1,21.4z"/>
				<path id="XMLID_601_" class="st1" d="M792.8,21.4L792.8,21.4L792.8,21.4z"/>
				<path id="XMLID_600_" class="st1" d="M793.4,21.4L793.4,21.4L793.4,21.4z"/>
				<path id="XMLID_599_" class="st1" d="M794.1,21.4L794.1,21.4L794.1,21.4z"/>
				<path id="XMLID_598_" class="st1" d="M794.7,21.4L794.7,21.4L794.7,21.4z"/>
				<path id="XMLID_597_" class="st1" d="M795.4,21.4L795.4,21.4L795.4,21.4z"/>
				<path id="XMLID_596_" class="st1" d="M796.1,21.4L796.1,21.4L796.1,21.4z"/>
				<path id="XMLID_595_" class="st1" d="M796.7,21.4L796.7,21.4L796.7,21.4z"/>
				<path id="XMLID_594_" class="st1" d="M797.4,21.4L797.4,21.4L797.4,21.4z"/>
				<path id="XMLID_593_" class="st1" d="M798.1,21.4L798.1,21.4L798.1,21.4z"/>
				<path id="XMLID_592_" class="st1" d="M798.7,21.4L798.7,21.4L798.7,21.4z"/>
				<path id="XMLID_591_" class="st1" d="M799.4,21.4L799.4,21.4L799.4,21.4z"/>
				<path id="XMLID_590_" class="st1" d="M800.1,21.4L800.1,21.4L800.1,21.4z"/>
				<path id="XMLID_589_" class="st1" d="M800.7,21.4L800.7,21.4L800.7,21.4z"/>
				<path id="XMLID_588_" class="st1" d="M801.4,21.4L801.4,21.4L801.4,21.4z"/>
				<path id="XMLID_587_" class="st1" d="M802.1,21.4L802.1,21.4L802.1,21.4z"/>
				<path id="XMLID_586_" class="st1" d="M802.7,21.4L802.7,21.4L802.7,21.4z"/>
				<path id="XMLID_585_" class="st1" d="M803.4,21.4L803.4,21.4L803.4,21.4z"/>
				<path id="XMLID_584_" class="st1" d="M804.1,21.4L804.1,21.4L804.1,21.4z"/>
				<path id="XMLID_583_" class="st1" d="M804.7,21.4L804.7,21.4L804.7,21.4z"/>
				<path id="XMLID_582_" class="st1" d="M805.4,21.4L805.4,21.4L805.4,21.4z"/>
				<path id="XMLID_581_" class="st1" d="M806,21.4L806,21.4L806,21.4z"/>
				<path id="XMLID_580_" class="st1" d="M806.7,21.4L806.7,21.4L806.7,21.4z"/>
				<path id="XMLID_579_" class="st1" d="M807.4,21.4L807.4,21.4L807.4,21.4z"/>
				<path id="XMLID_578_" class="st1" d="M808,21.4L808,21.4L808,21.4z"/>
				<path id="XMLID_577_" class="st1" d="M808.7,21.4L808.7,21.4L808.7,21.4z"/>
				<path id="XMLID_576_" class="st1" d="M809.4,21.4L809.4,21.4L809.4,21.4z"/>
				<path id="XMLID_575_" class="st1" d="M810,21.4L810,21.4L810,21.4z"/>
				<path id="XMLID_574_" class="st1" d="M810.7,21.4L810.7,21.4L810.7,21.4z"/>
				<path id="XMLID_573_" class="st1" d="M811.4,21.4L811.4,21.4L811.4,21.4z"/>
				<path id="XMLID_572_" class="st1" d="M812,21.4L812,21.4L812,21.4z"/>
				<path id="XMLID_571_" class="st1" d="M812.7,21.4L812.7,21.4L812.7,21.4z"/>
				<path id="XMLID_570_" class="st1" d="M813.4,21.4L813.4,21.4L813.4,21.4z"/>
				<path id="XMLID_569_" class="st1" d="M814,21.4L814,21.4L814,21.4z"/>
				<path id="XMLID_568_" class="st1" d="M814.7,21.4L814.7,21.4L814.7,21.4z"/>
				<path id="XMLID_567_" class="st1" d="M815.4,21.4L815.4,21.4L815.4,21.4z"/>
				<path id="XMLID_566_" class="st1" d="M816,21.4L816,21.4L816,21.4z"/>
				<path id="XMLID_565_" class="st1" d="M816.7,21.4L816.7,21.4L816.7,21.4z"/>
				<path id="XMLID_564_" class="st1" d="M817.3,21.4L817.3,21.4L817.3,21.4z"/>
				<path id="XMLID_563_" class="st1" d="M818,21.4L818,21.4L818,21.4z"/>
				<path id="XMLID_562_" class="st1" d="M818.7,21.4L818.7,21.4L818.7,21.4z"/>
				<path id="XMLID_561_" class="st1" d="M819.3,21.4L819.3,21.4L819.3,21.4z"/>
				<path id="XMLID_560_" class="st1" d="M820,21.4L820,21.4L820,21.4z"/>
				<path id="XMLID_559_" class="st1" d="M820.7,21.4L820.7,21.4L820.7,21.4z"/>
				<path id="XMLID_558_" class="st1" d="M821.3,21.4L821.3,21.4L821.3,21.4z"/>
				<path id="XMLID_557_" class="st1" d="M822,21.4L822,21.4L822,21.4z"/>
				<path id="XMLID_556_" class="st1" d="M822.7,21.4L822.7,21.4L822.7,21.4z"/>
				<path id="XMLID_555_" class="st1" d="M823.3,21.4L823.3,21.4L823.3,21.4z"/>
				<path id="XMLID_554_" class="st1" d="M824,21.4L824,21.4L824,21.4z"/>
				<path id="XMLID_553_" class="st1" d="M824.7,21.4L824.7,21.4L824.7,21.4z"/>
				<path id="XMLID_552_" class="st1" d="M825.3,21.4L825.3,21.4L825.3,21.4z"/>
				<path id="XMLID_551_" class="st1" d="M826,21.4L826,21.4L826,21.4z"/>
				<path id="XMLID_550_" class="st1" d="M826.6,21.4L826.6,21.4L826.6,21.4z"/>
				<path id="XMLID_549_" class="st1" d="M827.3,21.4L827.3,21.4L827.3,21.4z"/>
				<path id="XMLID_548_" class="st1" d="M828,21.4L828,21.4L828,21.4z"/>
				<path id="XMLID_547_" class="st1" d="M828.6,21.4L828.6,21.4L828.6,21.4z"/>
				<path id="XMLID_546_" class="st1" d="M829.3,21.4L829.3,21.4L829.3,21.4z"/>
				<path id="XMLID_545_" class="st1" d="M830,21.4L830,21.4L830,21.4z"/>
				<path id="XMLID_544_" class="st1" d="M830.6,21.4L830.6,21.4L830.6,21.4z"/>
				<path id="XMLID_543_" class="st1" d="M831.3,21.4L831.3,21.4L831.3,21.4z"/>
				<path id="XMLID_542_" class="st1" d="M832,21.4L832,21.4L832,21.4z"/>
				<path id="XMLID_541_" class="st1" d="M832.6,21.4L832.6,21.4L832.6,21.4z"/>
				<path id="XMLID_540_" class="st1" d="M833.3,21.4L833.3,21.4L833.3,21.4z"/>
				<path id="XMLID_539_" class="st1" d="M834,21.4L834,21.4L834,21.4z"/>
				<path id="XMLID_538_" class="st1" d="M834.6,21.4L834.6,21.4L834.6,21.4z"/>
				<path id="XMLID_537_" class="st1" d="M835.3,21.4L835.3,21.4L835.3,21.4z"/>
				<path id="XMLID_536_" class="st1" d="M836,21.4L836,21.4L836,21.4z"/>
				<path id="XMLID_535_" class="st1" d="M836.6,21.4L836.6,21.4L836.6,21.4z"/>
				<path id="XMLID_534_" class="st1" d="M837.3,21.4L837.3,21.4L837.3,21.4z"/>
				<path id="XMLID_533_" class="st1" d="M837.9,21.4L837.9,21.4L837.9,21.4z"/>
				<path id="XMLID_532_" class="st1" d="M838.6,21.4L838.6,21.4L838.6,21.4z"/>
				<path id="XMLID_531_" class="st1" d="M839.3,21.4L839.3,21.4L839.3,21.4z"/>
				<path id="XMLID_530_" class="st1" d="M839.9,21.4L839.9,21.4L839.9,21.4z"/>
				<path id="XMLID_529_" class="st1" d="M840.6,21.4L840.6,21.4L840.6,21.4z"/>
				<path id="XMLID_528_" class="st1" d="M841.3,21.4L841.3,21.4L841.3,21.4z"/>
				<path id="XMLID_527_" class="st1" d="M841.9,21.4L841.9,21.4L841.9,21.4z"/>
				<path id="XMLID_526_" class="st1" d="M842.6,21.4L842.6,21.4L842.6,21.4z"/>
				<path id="XMLID_525_" class="st1" d="M843.3,21.4L843.3,21.4L843.3,21.4z"/>
				<path id="XMLID_524_" class="st1" d="M843.9,21.4L843.9,21.4L843.9,21.4z"/>
				<path id="XMLID_523_" class="st1" d="M844.6,21.4L844.6,21.4L844.6,21.4z"/>
				<path id="XMLID_522_" class="st1" d="M845.3,21.4L845.3,21.4L845.3,21.4z"/>
				<path id="XMLID_521_" class="st1" d="M845.9,21.4L845.9,21.4L845.9,21.4z"/>
				<path id="XMLID_520_" class="st1" d="M846.6,21.4L846.6,21.4L846.6,21.4z"/>
				<path id="XMLID_519_" class="st1" d="M847.3,21.4L847.3,21.4L847.3,21.4z"/>
				<path id="XMLID_518_" class="st1" d="M847.9,21.4L847.9,21.4L847.9,21.4z"/>
				<path id="XMLID_517_" class="st1" d="M848.6,21.4L848.6,21.4L848.6,21.4z"/>
				<path id="XMLID_516_" class="st1" d="M849.2,21.4L849.2,21.4L849.2,21.4z"/>
				<path id="XMLID_515_" class="st1" d="M849.9,21.4L849.9,21.4L849.9,21.4z"/>
				<path id="XMLID_514_" class="st1" d="M850.6,21.4L850.6,21.4L850.6,21.4z"/>
				<path id="XMLID_513_" class="st1" d="M851.2,21.4L851.2,21.4L851.2,21.4z"/>
				<path id="XMLID_512_" class="st1" d="M851.9,21.4L851.9,21.4L851.9,21.4z"/>
				<path id="XMLID_511_" class="st1" d="M852.6,21.4L852.6,21.4L852.6,21.4z"/>
				<path id="XMLID_510_" class="st1" d="M853.2,21.4L853.2,21.4L853.2,21.4z"/>
				<path id="XMLID_509_" class="st1" d="M853.9,21.4L853.9,21.4L853.9,21.4z"/>
				<path id="XMLID_508_" class="st1" d="M854.6,21.4L854.6,21.4L854.6,21.4z"/>
				<path id="XMLID_507_" class="st1" d="M855.2,21.4L855.2,21.4L855.2,21.4z"/>
				<path id="XMLID_506_" class="st1" d="M855.9,21.4L855.9,21.4L855.9,21.4z"/>
				<path id="XMLID_505_" class="st1" d="M856.6,21.4L856.6,21.4L856.6,21.4z"/>
				<path id="XMLID_504_" class="st1" d="M857.2,21.4L857.2,21.4L857.2,21.4z"/>
				<path id="XMLID_503_" class="st1" d="M857.9,21.4L857.9,21.4L857.9,21.4z"/>
				<path id="XMLID_502_" class="st1" d="M858.5,21.4L858.5,21.4L858.5,21.4z"/>
				<path id="XMLID_501_" class="st1" d="M859.2,21.4L859.2,21.4L859.2,21.4z"/>
				<path id="XMLID_500_" class="st1" d="M859.9,21.4L859.9,21.4L859.9,21.4z"/>
				<path id="XMLID_499_" class="st1" d="M860.5,21.4L860.5,21.4L860.5,21.4z"/>
				<path id="XMLID_498_" class="st1" d="M861.2,21.4L861.2,21.4L861.2,21.4z"/>
				<path id="XMLID_497_" class="st1" d="M861.9,21.4L861.9,21.4L861.9,21.4z"/>
				<path id="XMLID_496_" class="st1" d="M862.5,21.4L862.5,21.4L862.5,21.4z"/>
				<path id="XMLID_495_" class="st1" d="M863.2,21.4L863.2,21.4L863.2,21.4z"/>
				<path id="XMLID_494_" class="st1" d="M863.9,21.4L863.9,21.4L863.9,21.4z"/>
				<path id="XMLID_493_" class="st1" d="M864.5,21.4L864.5,21.4L864.5,21.4z"/>
				<path id="XMLID_492_" class="st1" d="M865.2,21.4L865.2,21.4L865.2,21.4z"/>
				<path id="XMLID_491_" class="st1" d="M865.9,21.4L865.9,21.4L865.9,21.4z"/>
				<path id="XMLID_490_" class="st1" d="M866.5,21.4L866.5,21.4L866.5,21.4z"/>
				<path id="XMLID_489_" class="st1" d="M867.2,21.4L867.2,21.4L867.2,21.4z"/>
				<path id="XMLID_488_" class="st1" d="M867.9,21.4L867.9,21.4L867.9,21.4z"/>
				<path id="XMLID_487_" class="st1" d="M868.5,21.4L868.5,21.4L868.5,21.4z"/>
				<path id="XMLID_486_" class="st1" d="M869.2,21.4L869.2,21.4L869.2,21.4z"/>
				<path id="XMLID_485_" class="st1" d="M869.8,21.4L869.8,21.4L869.8,21.4z"/>
				<path id="XMLID_484_" class="st1" d="M870.5,21.4L870.5,21.4L870.5,21.4z"/>
				<path id="XMLID_483_" class="st1" d="M871.2,21.4L871.2,21.4L871.2,21.4z"/>
				<path id="XMLID_482_" class="st1" d="M871.8,21.4L871.8,21.4L871.8,21.4z"/>
				<path id="XMLID_481_" class="st1" d="M872.5,21.4L872.5,21.4L872.5,21.4z"/>
				<path id="XMLID_480_" class="st1" d="M873.2,21.4L873.2,21.4L873.2,21.4z"/>
				<path id="XMLID_479_" class="st1" d="M873.8,21.4L873.8,21.4L873.8,21.4z"/>
				<path id="XMLID_478_" class="st1" d="M874.5,21.4L874.5,21.4L874.5,21.4z"/>
				<path id="XMLID_477_" class="st1" d="M875.2,21.4L875.2,21.4L875.2,21.4z"/>
				<path id="XMLID_476_" class="st1" d="M875.8,21.4L875.8,21.4L875.8,21.4z"/>
				<path id="XMLID_475_" class="st1" d="M876.5,21.4L876.5,21.4L876.5,21.4z"/>
				<path id="XMLID_474_" class="st1" d="M877.2,21.4L877.2,21.4L877.2,21.4z"/>
				<path id="XMLID_473_" class="st1" d="M877.8,21.4L877.8,21.4L877.8,21.4z"/>
				<path id="XMLID_472_" class="st1" d="M878.5,21.4L878.5,21.4L878.5,21.4z"/>
				<path id="XMLID_471_" class="st1" d="M879.2,21.4L879.2,21.4L879.2,21.4z"/>
				<path id="XMLID_470_" class="st1" d="M879.8,21.4L879.8,21.4L879.8,21.4z"/>
				<path id="XMLID_469_" class="st1" d="M880.5,21.4L880.5,21.4L880.5,21.4z"/>
				<path id="XMLID_468_" class="st1" d="M881.1,21.4L881.1,21.4L881.1,21.4z"/>
				<path id="XMLID_467_" class="st1" d="M881.8,21.4L881.8,21.4L881.8,21.4z"/>
				<path id="XMLID_466_" class="st1" d="M882.5,21.4L882.5,21.4L882.5,21.4z"/>
				<path id="XMLID_465_" class="st1" d="M883.1,21.4L883.1,21.4L883.1,21.4z"/>
				<path id="XMLID_464_" class="st1" d="M883.8,21.4L883.8,21.4L883.8,21.4z"/>
				<path id="XMLID_463_" class="st1" d="M884.5,21.4L884.5,21.4L884.5,21.4z"/>
				<path id="XMLID_462_" class="st1" d="M885.1,21.4L885.1,21.4L885.1,21.4z"/>
				<path id="XMLID_461_" class="st1" d="M885.8,21.4L885.8,21.4L885.8,21.4z"/>
				<path id="XMLID_460_" class="st1" d="M886.5,21.4L886.5,21.4L886.5,21.4z"/>
				<path id="XMLID_459_" class="st1" d="M887.1,21.4L887.1,21.4L887.1,21.4z"/>
				<path id="XMLID_458_" class="st1" d="M887.8,21.4L887.8,21.4L887.8,21.4z"/>
				<path id="XMLID_457_" class="st1" d="M888.5,21.4L888.5,21.4L888.5,21.4z"/>
				<path id="XMLID_456_" class="st1" d="M889.1,21.4L889.1,21.4L889.1,21.4z"/>
				<path id="XMLID_455_" class="st1" d="M889.8,21.4L889.8,21.4L889.8,21.4z"/>
				<path id="XMLID_454_" class="st1" d="M890.4,21.4L890.4,21.4L890.4,21.4z"/>
				<path id="XMLID_453_" class="st1" d="M891.1,21.4L891.1,21.4L891.1,21.4z"/>
				<path id="XMLID_452_" class="st1" d="M891.8,21.4L891.8,21.4L891.8,21.4z"/>
				<path id="XMLID_451_" class="st1" d="M891.8,21.4L891.8,21.4L891.8,21.4z"/>
			</g>
			<rect id="XMLID_449_" x="747.6" y="16.8" class="st1" width="144.2" height="9.3"/>
		</g>
		<g id="XMLID_226_">
			<g id="XMLID_228_">
				<path id="XMLID_447_" class="st1" d="M747.6,71.8L747.6,71.8L747.6,71.8z"/>
				<path id="XMLID_446_" class="st1" d="M748.2,71.8L748.2,71.8L748.2,71.8z"/>
				<path id="XMLID_445_" class="st1" d="M748.9,71.8L748.9,71.8L748.9,71.8z"/>
				<path id="XMLID_444_" class="st1" d="M749.6,71.8L749.6,71.8L749.6,71.8z"/>
				<path id="XMLID_443_" class="st1" d="M750.2,71.8L750.2,71.8L750.2,71.8z"/>
				<path id="XMLID_442_" class="st1" d="M750.9,71.8L750.9,71.8L750.9,71.8z"/>
				<path id="XMLID_441_" class="st1" d="M751.5,71.8L751.5,71.8L751.5,71.8z"/>
				<path id="XMLID_440_" class="st1" d="M752.2,71.8L752.2,71.8L752.2,71.8z"/>
				<path id="XMLID_439_" class="st1" d="M752.9,71.8L752.9,71.8L752.9,71.8z"/>
				<path id="XMLID_438_" class="st1" d="M753.5,71.8L753.5,71.8L753.5,71.8z"/>
				<path id="XMLID_437_" class="st1" d="M754.2,71.8L754.2,71.8L754.2,71.8z"/>
				<path id="XMLID_436_" class="st1" d="M754.9,71.8L754.9,71.8L754.9,71.8z"/>
				<path id="XMLID_435_" class="st1" d="M755.5,71.8L755.5,71.8L755.5,71.8z"/>
				<path id="XMLID_434_" class="st1" d="M756.2,71.8L756.2,71.8L756.2,71.8z"/>
				<path id="XMLID_433_" class="st1" d="M756.9,71.8L756.9,71.8L756.9,71.8z"/>
				<path id="XMLID_432_" class="st1" d="M757.5,71.8L757.5,71.8L757.5,71.8z"/>
				<path id="XMLID_431_" class="st1" d="M758.2,71.8L758.2,71.8L758.2,71.8z"/>
				<path id="XMLID_430_" class="st1" d="M758.9,71.8L758.9,71.8L758.9,71.8z"/>
				<path id="XMLID_429_" class="st1" d="M759.5,71.8L759.5,71.8L759.5,71.8z"/>
				<path id="XMLID_428_" class="st1" d="M760.2,71.8L760.2,71.8L760.2,71.8z"/>
				<path id="XMLID_427_" class="st1" d="M760.9,71.8L760.9,71.8L760.9,71.8z"/>
				<path id="XMLID_426_" class="st1" d="M761.5,71.8L761.5,71.8L761.5,71.8z"/>
				<path id="XMLID_425_" class="st1" d="M762.2,71.8L762.2,71.8L762.2,71.8z"/>
				<path id="XMLID_424_" class="st1" d="M762.8,71.8L762.8,71.8L762.8,71.8z"/>
				<path id="XMLID_423_" class="st1" d="M763.5,71.8L763.5,71.8L763.5,71.8z"/>
				<path id="XMLID_422_" class="st1" d="M764.2,71.8L764.2,71.8L764.2,71.8z"/>
				<path id="XMLID_421_" class="st1" d="M764.8,71.8L764.8,71.8L764.8,71.8z"/>
				<path id="XMLID_420_" class="st1" d="M765.5,71.8L765.5,71.8L765.5,71.8z"/>
				<path id="XMLID_419_" class="st1" d="M766.2,71.8L766.2,71.8L766.2,71.8z"/>
				<path id="XMLID_418_" class="st1" d="M766.8,71.8L766.8,71.8L766.8,71.8z"/>
				<path id="XMLID_417_" class="st1" d="M767.5,71.8L767.5,71.8L767.5,71.8z"/>
				<path id="XMLID_416_" class="st1" d="M768.2,71.8L768.2,71.8L768.2,71.8z"/>
				<path id="XMLID_415_" class="st1" d="M768.8,71.8L768.8,71.8L768.8,71.8z"/>
				<path id="XMLID_414_" class="st1" d="M769.5,71.8L769.5,71.8L769.5,71.8z"/>
				<path id="XMLID_413_" class="st1" d="M770.2,71.8L770.2,71.8L770.2,71.8z"/>
				<path id="XMLID_412_" class="st1" d="M770.8,71.8L770.8,71.8L770.8,71.8z"/>
				<path id="XMLID_411_" class="st1" d="M771.5,71.8L771.5,71.8L771.5,71.8z"/>
				<path id="XMLID_410_" class="st1" d="M772.2,71.8L772.2,71.8L772.2,71.8z"/>
				<path id="XMLID_409_" class="st1" d="M772.8,71.8L772.8,71.8L772.8,71.8z"/>
				<path id="XMLID_408_" class="st1" d="M773.5,71.8L773.5,71.8L773.5,71.8z"/>
				<path id="XMLID_407_" class="st1" d="M774.1,71.8L774.1,71.8L774.1,71.8z"/>
				<path id="XMLID_406_" class="st1" d="M774.8,71.8L774.8,71.8L774.8,71.8z"/>
				<path id="XMLID_405_" class="st1" d="M775.5,71.8L775.5,71.8L775.5,71.8z"/>
				<path id="XMLID_404_" class="st1" d="M776.1,71.8L776.1,71.8L776.1,71.8z"/>
				<path id="XMLID_403_" class="st1" d="M776.8,71.8L776.8,71.8L776.8,71.8z"/>
				<path id="XMLID_402_" class="st1" d="M777.5,71.8L777.5,71.8L777.5,71.8z"/>
				<path id="XMLID_401_" class="st1" d="M778.1,71.8L778.1,71.8L778.1,71.8z"/>
				<path id="XMLID_400_" class="st1" d="M778.8,71.8L778.8,71.8L778.8,71.8z"/>
				<path id="XMLID_399_" class="st1" d="M779.5,71.8L779.5,71.8L779.5,71.8z"/>
				<path id="XMLID_398_" class="st1" d="M780.1,71.8L780.1,71.8L780.1,71.8z"/>
				<path id="XMLID_397_" class="st1" d="M780.8,71.8L780.8,71.8L780.8,71.8z"/>
				<path id="XMLID_396_" class="st1" d="M781.5,71.8L781.5,71.8L781.5,71.8z"/>
				<path id="XMLID_395_" class="st1" d="M782.1,71.8L782.1,71.8L782.1,71.8z"/>
				<path id="XMLID_394_" class="st1" d="M782.8,71.8L782.8,71.8L782.8,71.8z"/>
				<path id="XMLID_393_" class="st1" d="M783.4,71.8L783.4,71.8L783.4,71.8z"/>
				<path id="XMLID_392_" class="st1" d="M784.1,71.8L784.1,71.8L784.1,71.8z"/>
				<path id="XMLID_391_" class="st1" d="M784.8,71.8L784.8,71.8L784.8,71.8z"/>
				<path id="XMLID_390_" class="st1" d="M785.4,71.8L785.4,71.8L785.4,71.8z"/>
				<path id="XMLID_389_" class="st1" d="M786.1,71.8L786.1,71.8L786.1,71.8z"/>
				<path id="XMLID_388_" class="st1" d="M786.8,71.8L786.8,71.8L786.8,71.8z"/>
				<path id="XMLID_387_" class="st1" d="M787.4,71.8L787.4,71.8L787.4,71.8z"/>
				<path id="XMLID_386_" class="st1" d="M788.1,71.8L788.1,71.8L788.1,71.8z"/>
				<path id="XMLID_385_" class="st1" d="M788.8,71.8L788.8,71.8L788.8,71.8z"/>
				<path id="XMLID_384_" class="st1" d="M789.4,71.8L789.4,71.8L789.4,71.8z"/>
				<path id="XMLID_383_" class="st1" d="M790.1,71.8L790.1,71.8L790.1,71.8z"/>
				<path id="XMLID_382_" class="st1" d="M790.8,71.8L790.8,71.8L790.8,71.8z"/>
				<path id="XMLID_381_" class="st1" d="M791.4,71.8L791.4,71.8L791.4,71.8z"/>
				<path id="XMLID_380_" class="st1" d="M792.1,71.8L792.1,71.8L792.1,71.8z"/>
				<path id="XMLID_379_" class="st1" d="M792.8,71.8L792.8,71.8L792.8,71.8z"/>
				<path id="XMLID_378_" class="st1" d="M793.4,71.8L793.4,71.8L793.4,71.8z"/>
				<path id="XMLID_377_" class="st1" d="M794.1,71.8L794.1,71.8L794.1,71.8z"/>
				<path id="XMLID_376_" class="st1" d="M794.7,71.8L794.7,71.8L794.7,71.8z"/>
				<path id="XMLID_375_" class="st1" d="M795.4,71.8L795.4,71.8L795.4,71.8z"/>
				<path id="XMLID_374_" class="st1" d="M796.1,71.8L796.1,71.8L796.1,71.8z"/>
				<path id="XMLID_373_" class="st1" d="M796.7,71.8L796.7,71.8L796.7,71.8z"/>
				<path id="XMLID_372_" class="st1" d="M797.4,71.8L797.4,71.8L797.4,71.8z"/>
				<path id="XMLID_371_" class="st1" d="M798.1,71.8L798.1,71.8L798.1,71.8z"/>
				<path id="XMLID_370_" class="st1" d="M798.7,71.8L798.7,71.8L798.7,71.8z"/>
				<path id="XMLID_369_" class="st1" d="M799.4,71.8L799.4,71.8L799.4,71.8z"/>
				<path id="XMLID_368_" class="st1" d="M800.1,71.8L800.1,71.8L800.1,71.8z"/>
				<path id="XMLID_367_" class="st1" d="M800.7,71.8L800.7,71.8L800.7,71.8z"/>
				<path id="XMLID_366_" class="st1" d="M801.4,71.8L801.4,71.8L801.4,71.8z"/>
				<path id="XMLID_365_" class="st1" d="M802.1,71.8L802.1,71.8L802.1,71.8z"/>
				<path id="XMLID_364_" class="st1" d="M802.7,71.8L802.7,71.8L802.7,71.8z"/>
				<path id="XMLID_363_" class="st1" d="M803.4,71.8L803.4,71.8L803.4,71.8z"/>
				<path id="XMLID_362_" class="st1" d="M804.1,71.8L804.1,71.8L804.1,71.8z"/>
				<path id="XMLID_361_" class="st1" d="M804.7,71.8L804.7,71.8L804.7,71.8z"/>
				<path id="XMLID_360_" class="st1" d="M805.4,71.8L805.4,71.8L805.4,71.8z"/>
				<path id="XMLID_359_" class="st1" d="M806,71.8L806,71.8L806,71.8z"/>
				<path id="XMLID_358_" class="st1" d="M806.7,71.8L806.7,71.8L806.7,71.8z"/>
				<path id="XMLID_357_" class="st1" d="M807.4,71.8L807.4,71.8L807.4,71.8z"/>
				<path id="XMLID_356_" class="st1" d="M808,71.8L808,71.8L808,71.8z"/>
				<path id="XMLID_355_" class="st1" d="M808.7,71.8L808.7,71.8L808.7,71.8z"/>
				<path id="XMLID_354_" class="st1" d="M809.4,71.8L809.4,71.8L809.4,71.8z"/>
				<path id="XMLID_353_" class="st1" d="M810,71.8L810,71.8L810,71.8z"/>
				<path id="XMLID_352_" class="st1" d="M810.7,71.8L810.7,71.8L810.7,71.8z"/>
				<path id="XMLID_351_" class="st1" d="M811.4,71.8L811.4,71.8L811.4,71.8z"/>
				<path id="XMLID_350_" class="st1" d="M812,71.8L812,71.8L812,71.8z"/>
				<path id="XMLID_349_" class="st1" d="M812.7,71.8L812.7,71.8L812.7,71.8z"/>
				<path id="XMLID_348_" class="st1" d="M813.4,71.8L813.4,71.8L813.4,71.8z"/>
				<path id="XMLID_347_" class="st1" d="M814,71.8L814,71.8L814,71.8z"/>
				<path id="XMLID_346_" class="st1" d="M814.7,71.8L814.7,71.8L814.7,71.8z"/>
				<path id="XMLID_345_" class="st1" d="M815.4,71.8L815.4,71.8L815.4,71.8z"/>
				<path id="XMLID_344_" class="st1" d="M816,71.8L816,71.8L816,71.8z"/>
				<path id="XMLID_343_" class="st1" d="M816.7,71.8L816.7,71.8L816.7,71.8z"/>
				<path id="XMLID_342_" class="st1" d="M817.3,71.8L817.3,71.8L817.3,71.8z"/>
				<path id="XMLID_341_" class="st1" d="M818,71.8L818,71.8L818,71.8z"/>
				<path id="XMLID_340_" class="st1" d="M818.7,71.8L818.7,71.8L818.7,71.8z"/>
				<path id="XMLID_339_" class="st1" d="M819.3,71.8L819.3,71.8L819.3,71.8z"/>
				<path id="XMLID_338_" class="st1" d="M820,71.8L820,71.8L820,71.8z"/>
				<path id="XMLID_337_" class="st1" d="M820.7,71.8L820.7,71.8L820.7,71.8z"/>
				<path id="XMLID_336_" class="st1" d="M821.3,71.8L821.3,71.8L821.3,71.8z"/>
				<path id="XMLID_335_" class="st1" d="M822,71.8L822,71.8L822,71.8z"/>
				<path id="XMLID_334_" class="st1" d="M822.7,71.8L822.7,71.8L822.7,71.8z"/>
				<path id="XMLID_333_" class="st1" d="M823.3,71.8L823.3,71.8L823.3,71.8z"/>
				<path id="XMLID_332_" class="st1" d="M824,71.8L824,71.8L824,71.8z"/>
				<path id="XMLID_331_" class="st1" d="M824.7,71.8L824.7,71.8L824.7,71.8z"/>
				<path id="XMLID_330_" class="st1" d="M825.3,71.8L825.3,71.8L825.3,71.8z"/>
				<path id="XMLID_329_" class="st1" d="M826,71.8L826,71.8L826,71.8z"/>
				<path id="XMLID_328_" class="st1" d="M826.6,71.8L826.6,71.8L826.6,71.8z"/>
				<path id="XMLID_327_" class="st1" d="M827.3,71.8L827.3,71.8L827.3,71.8z"/>
				<path id="XMLID_326_" class="st1" d="M828,71.8L828,71.8L828,71.8z"/>
				<path id="XMLID_325_" class="st1" d="M828.6,71.8L828.6,71.8L828.6,71.8z"/>
				<path id="XMLID_324_" class="st1" d="M829.3,71.8L829.3,71.8L829.3,71.8z"/>
				<path id="XMLID_323_" class="st1" d="M830,71.8L830,71.8L830,71.8z"/>
				<path id="XMLID_322_" class="st1" d="M830.6,71.8L830.6,71.8L830.6,71.8z"/>
				<path id="XMLID_321_" class="st1" d="M831.3,71.8L831.3,71.8L831.3,71.8z"/>
				<path id="XMLID_320_" class="st1" d="M832,71.8L832,71.8L832,71.8z"/>
				<path id="XMLID_319_" class="st1" d="M832.6,71.8L832.6,71.8L832.6,71.8z"/>
				<path id="XMLID_318_" class="st1" d="M833.3,71.8L833.3,71.8L833.3,71.8z"/>
				<path id="XMLID_317_" class="st1" d="M834,71.8L834,71.8L834,71.8z"/>
				<path id="XMLID_316_" class="st1" d="M834.6,71.8L834.6,71.8L834.6,71.8z"/>
				<path id="XMLID_315_" class="st1" d="M835.3,71.8L835.3,71.8L835.3,71.8z"/>
				<path id="XMLID_314_" class="st1" d="M836,71.8L836,71.8L836,71.8z"/>
				<path id="XMLID_313_" class="st1" d="M836.6,71.8L836.6,71.8L836.6,71.8z"/>
				<path id="XMLID_312_" class="st1" d="M837.3,71.8L837.3,71.8L837.3,71.8z"/>
				<path id="XMLID_311_" class="st1" d="M837.9,71.8L837.9,71.8L837.9,71.8z"/>
				<path id="XMLID_310_" class="st1" d="M838.6,71.8L838.6,71.8L838.6,71.8z"/>
				<path id="XMLID_309_" class="st1" d="M839.3,71.8L839.3,71.8L839.3,71.8z"/>
				<path id="XMLID_308_" class="st1" d="M839.9,71.8L839.9,71.8L839.9,71.8z"/>
				<path id="XMLID_307_" class="st1" d="M840.6,71.8L840.6,71.8L840.6,71.8z"/>
				<path id="XMLID_306_" class="st1" d="M841.3,71.8L841.3,71.8L841.3,71.8z"/>
				<path id="XMLID_305_" class="st1" d="M841.9,71.8L841.9,71.8L841.9,71.8z"/>
				<path id="XMLID_304_" class="st1" d="M842.6,71.8L842.6,71.8L842.6,71.8z"/>
				<path id="XMLID_303_" class="st1" d="M843.3,71.8L843.3,71.8L843.3,71.8z"/>
				<path id="XMLID_302_" class="st1" d="M843.9,71.8L843.9,71.8L843.9,71.8z"/>
				<path id="XMLID_301_" class="st1" d="M844.6,71.8L844.6,71.8L844.6,71.8z"/>
				<path id="XMLID_300_" class="st1" d="M845.3,71.8L845.3,71.8L845.3,71.8z"/>
				<path id="XMLID_299_" class="st1" d="M845.9,71.8L845.9,71.8L845.9,71.8z"/>
				<path id="XMLID_298_" class="st1" d="M846.6,71.8L846.6,71.8L846.6,71.8z"/>
				<path id="XMLID_297_" class="st1" d="M847.3,71.8L847.3,71.8L847.3,71.8z"/>
				<path id="XMLID_296_" class="st1" d="M847.9,71.8L847.9,71.8L847.9,71.8z"/>
				<path id="XMLID_295_" class="st1" d="M848.6,71.8L848.6,71.8L848.6,71.8z"/>
				<path id="XMLID_294_" class="st1" d="M849.2,71.8L849.2,71.8L849.2,71.8z"/>
				<path id="XMLID_293_" class="st1" d="M849.9,71.8L849.9,71.8L849.9,71.8z"/>
				<path id="XMLID_292_" class="st1" d="M850.6,71.8L850.6,71.8L850.6,71.8z"/>
				<path id="XMLID_291_" class="st1" d="M851.2,71.8L851.2,71.8L851.2,71.8z"/>
				<path id="XMLID_290_" class="st1" d="M851.9,71.8L851.9,71.8L851.9,71.8z"/>
				<path id="XMLID_289_" class="st1" d="M852.6,71.8L852.6,71.8L852.6,71.8z"/>
				<path id="XMLID_288_" class="st1" d="M853.2,71.8L853.2,71.8L853.2,71.8z"/>
				<path id="XMLID_287_" class="st1" d="M853.9,71.8L853.9,71.8L853.9,71.8z"/>
				<path id="XMLID_286_" class="st1" d="M854.6,71.8L854.6,71.8L854.6,71.8z"/>
				<path id="XMLID_285_" class="st1" d="M855.2,71.8L855.2,71.8L855.2,71.8z"/>
				<path id="XMLID_284_" class="st1" d="M855.9,71.8L855.9,71.8L855.9,71.8z"/>
				<path id="XMLID_283_" class="st1" d="M856.6,71.8L856.6,71.8L856.6,71.8z"/>
				<path id="XMLID_282_" class="st1" d="M857.2,71.8L857.2,71.8L857.2,71.8z"/>
				<path id="XMLID_281_" class="st1" d="M857.9,71.8L857.9,71.8L857.9,71.8z"/>
				<path id="XMLID_280_" class="st1" d="M858.5,71.8L858.5,71.8L858.5,71.8z"/>
				<path id="XMLID_279_" class="st1" d="M859.2,71.8L859.2,71.8L859.2,71.8z"/>
				<path id="XMLID_278_" class="st1" d="M859.9,71.8L859.9,71.8L859.9,71.8z"/>
				<path id="XMLID_277_" class="st1" d="M860.5,71.8L860.5,71.8L860.5,71.8z"/>
				<path id="XMLID_276_" class="st1" d="M861.2,71.8L861.2,71.8L861.2,71.8z"/>
				<path id="XMLID_275_" class="st1" d="M861.9,71.8L861.9,71.8L861.9,71.8z"/>
				<path id="XMLID_274_" class="st1" d="M862.5,71.8L862.5,71.8L862.5,71.8z"/>
				<path id="XMLID_273_" class="st1" d="M863.2,71.8L863.2,71.8L863.2,71.8z"/>
				<path id="XMLID_272_" class="st1" d="M863.9,71.8L863.9,71.8L863.9,71.8z"/>
				<path id="XMLID_271_" class="st1" d="M864.5,71.8L864.5,71.8L864.5,71.8z"/>
				<path id="XMLID_270_" class="st1" d="M865.2,71.8L865.2,71.8L865.2,71.8z"/>
				<path id="XMLID_269_" class="st1" d="M865.9,71.8L865.9,71.8L865.9,71.8z"/>
				<path id="XMLID_268_" class="st1" d="M866.5,71.8L866.5,71.8L866.5,71.8z"/>
				<path id="XMLID_267_" class="st1" d="M867.2,71.8L867.2,71.8L867.2,71.8z"/>
				<path id="XMLID_266_" class="st1" d="M867.9,71.8L867.9,71.8L867.9,71.8z"/>
				<path id="XMLID_265_" class="st1" d="M868.5,71.8L868.5,71.8L868.5,71.8z"/>
				<path id="XMLID_264_" class="st1" d="M869.2,71.8L869.2,71.8L869.2,71.8z"/>
				<path id="XMLID_263_" class="st1" d="M869.8,71.8L869.8,71.8L869.8,71.8z"/>
				<path id="XMLID_262_" class="st1" d="M870.5,71.8L870.5,71.8L870.5,71.8z"/>
				<path id="XMLID_261_" class="st1" d="M871.2,71.8L871.2,71.8L871.2,71.8z"/>
				<path id="XMLID_260_" class="st1" d="M871.8,71.8L871.8,71.8L871.8,71.8z"/>
				<path id="XMLID_259_" class="st1" d="M872.5,71.8L872.5,71.8L872.5,71.8z"/>
				<path id="XMLID_258_" class="st1" d="M873.2,71.8L873.2,71.8L873.2,71.8z"/>
				<path id="XMLID_257_" class="st1" d="M873.8,71.8L873.8,71.8L873.8,71.8z"/>
				<path id="XMLID_256_" class="st1" d="M874.5,71.8L874.5,71.8L874.5,71.8z"/>
				<path id="XMLID_255_" class="st1" d="M875.2,71.8L875.2,71.8L875.2,71.8z"/>
				<path id="XMLID_254_" class="st1" d="M875.8,71.8L875.8,71.8L875.8,71.8z"/>
				<path id="XMLID_253_" class="st1" d="M876.5,71.8L876.5,71.8L876.5,71.8z"/>
				<path id="XMLID_252_" class="st1" d="M877.2,71.8L877.2,71.8L877.2,71.8z"/>
				<path id="XMLID_251_" class="st1" d="M877.8,71.8L877.8,71.8L877.8,71.8z"/>
				<path id="XMLID_250_" class="st1" d="M878.5,71.8L878.5,71.8L878.5,71.8z"/>
				<path id="XMLID_249_" class="st1" d="M879.2,71.8L879.2,71.8L879.2,71.8z"/>
				<path id="XMLID_248_" class="st1" d="M879.8,71.8L879.8,71.8L879.8,71.8z"/>
				<path id="XMLID_247_" class="st1" d="M880.5,71.8L880.5,71.8L880.5,71.8z"/>
				<path id="XMLID_246_" class="st1" d="M881.1,71.8L881.1,71.8L881.1,71.8z"/>
				<path id="XMLID_245_" class="st1" d="M881.8,71.8L881.8,71.8L881.8,71.8z"/>
				<path id="XMLID_244_" class="st1" d="M882.5,71.8L882.5,71.8L882.5,71.8z"/>
				<path id="XMLID_243_" class="st1" d="M883.1,71.8L883.1,71.8L883.1,71.8z"/>
				<path id="XMLID_242_" class="st1" d="M883.8,71.8L883.8,71.8L883.8,71.8z"/>
				<path id="XMLID_241_" class="st1" d="M884.5,71.8L884.5,71.8L884.5,71.8z"/>
				<path id="XMLID_240_" class="st1" d="M885.1,71.8L885.1,71.8L885.1,71.8z"/>
				<path id="XMLID_239_" class="st1" d="M885.8,71.8L885.8,71.8L885.8,71.8z"/>
				<path id="XMLID_238_" class="st1" d="M886.5,71.8L886.5,71.8L886.5,71.8z"/>
				<path id="XMLID_237_" class="st1" d="M887.1,71.8L887.1,71.8L887.1,71.8z"/>
				<path id="XMLID_236_" class="st1" d="M887.8,71.8L887.8,71.8L887.8,71.8z"/>
				<path id="XMLID_235_" class="st1" d="M888.5,71.8L888.5,71.8L888.5,71.8z"/>
				<path id="XMLID_234_" class="st1" d="M889.1,71.8L889.1,71.8L889.1,71.8z"/>
				<path id="XMLID_233_" class="st1" d="M889.8,71.8L889.8,71.8L889.8,71.8z"/>
				<path id="XMLID_232_" class="st1" d="M890.4,71.8L890.4,71.8L890.4,71.8z"/>
				<path id="XMLID_231_" class="st1" d="M891.1,71.8L891.1,71.8L891.1,71.8z"/>
				<path id="XMLID_230_" class="st1" d="M891.8,71.8L891.8,71.8L891.8,71.8z"/>
				<path id="XMLID_229_" class="st1" d="M891.8,71.8L891.8,71.8L891.8,71.8z"/>
			</g>
			<rect id="XMLID_227_" x="747.6" y="67.2" class="st1" width="144.2" height="9.3"/>
		</g>
		<g id="XMLID_4_">
			<g id="XMLID_6_">
				<path id="XMLID_225_" class="st1" d="M679,122.2L679,122.2L679,122.2z"/>
				<path id="XMLID_224_" class="st1" d="M680,122.2L680,122.2L680,122.2z"/>
				<path id="XMLID_223_" class="st1" d="M681,122.2L681,122.2L681,122.2z"/>
				<path id="XMLID_222_" class="st1" d="M681.9,122.2L681.9,122.2L681.9,122.2z"/>
				<path id="XMLID_221_" class="st1" d="M682.9,122.2L682.9,122.2L682.9,122.2z"/>
				<path id="XMLID_220_" class="st1" d="M683.9,122.2L683.9,122.2L683.9,122.2z"/>
				<path id="XMLID_219_" class="st1" d="M684.9,122.2L684.9,122.2L684.9,122.2z"/>
				<path id="XMLID_218_" class="st1" d="M685.9,122.2L685.9,122.2L685.9,122.2z"/>
				<path id="XMLID_217_" class="st1" d="M686.8,122.2L686.8,122.2L686.8,122.2z"/>
				<path id="XMLID_216_" class="st1" d="M687.8,122.2L687.8,122.2L687.8,122.2z"/>
				<path id="XMLID_215_" class="st1" d="M688.8,122.2L688.8,122.2L688.8,122.2z"/>
				<path id="XMLID_214_" class="st1" d="M689.8,122.2L689.8,122.2L689.8,122.2z"/>
				<path id="XMLID_213_" class="st1" d="M690.8,122.2L690.8,122.2L690.8,122.2z"/>
				<path id="XMLID_212_" class="st1" d="M691.7,122.2L691.7,122.2L691.7,122.2z"/>
				<path id="XMLID_211_" class="st1" d="M692.7,122.2L692.7,122.2L692.7,122.2z"/>
				<path id="XMLID_210_" class="st1" d="M693.7,122.2L693.7,122.2L693.7,122.2z"/>
				<path id="XMLID_209_" class="st1" d="M694.7,122.2L694.7,122.2L694.7,122.2z"/>
				<path id="XMLID_208_" class="st1" d="M695.7,122.2L695.7,122.2L695.7,122.2z"/>
				<path id="XMLID_207_" class="st1" d="M696.6,122.2L696.6,122.2L696.6,122.2z"/>
				<path id="XMLID_206_" class="st1" d="M697.6,122.2L697.6,122.2L697.6,122.2z"/>
				<path id="XMLID_205_" class="st1" d="M698.6,122.2L698.6,122.2L698.6,122.2z"/>
				<path id="XMLID_204_" class="st1" d="M699.6,122.2L699.6,122.2L699.6,122.2z"/>
				<path id="XMLID_203_" class="st1" d="M700.6,122.2L700.6,122.2L700.6,122.2z"/>
				<path id="XMLID_202_" class="st1" d="M701.6,122.2L701.6,122.2L701.6,122.2z"/>
				<path id="XMLID_201_" class="st1" d="M702.5,122.2L702.5,122.2L702.5,122.2z"/>
				<path id="XMLID_200_" class="st1" d="M703.5,122.2L703.5,122.2L703.5,122.2z"/>
				<path id="XMLID_199_" class="st1" d="M704.5,122.2L704.5,122.2L704.5,122.2z"/>
				<path id="XMLID_198_" class="st1" d="M705.5,122.2L705.5,122.2L705.5,122.2z"/>
				<path id="XMLID_197_" class="st1" d="M706.5,122.2L706.5,122.2L706.5,122.2z"/>
				<path id="XMLID_196_" class="st1" d="M707.4,122.2L707.4,122.2L707.4,122.2z"/>
				<path id="XMLID_195_" class="st1" d="M708.4,122.2L708.4,122.2L708.4,122.2z"/>
				<path id="XMLID_194_" class="st1" d="M709.4,122.2L709.4,122.2L709.4,122.2z"/>
				<path id="XMLID_193_" class="st1" d="M710.4,122.2L710.4,122.2L710.4,122.2z"/>
				<path id="XMLID_192_" class="st1" d="M711.4,122.2L711.4,122.2L711.4,122.2z"/>
				<path id="XMLID_191_" class="st1" d="M712.3,122.2L712.3,122.2L712.3,122.2z"/>
				<path id="XMLID_190_" class="st1" d="M713.3,122.2L713.3,122.2L713.3,122.2z"/>
				<path id="XMLID_189_" class="st1" d="M714.3,122.2L714.3,122.2L714.3,122.2z"/>
				<path id="XMLID_188_" class="st1" d="M715.3,122.2L715.3,122.2L715.3,122.2z"/>
				<path id="XMLID_187_" class="st1" d="M716.3,122.2L716.3,122.2L716.3,122.2z"/>
				<path id="XMLID_186_" class="st1" d="M717.2,122.2L717.2,122.2L717.2,122.2z"/>
				<path id="XMLID_185_" class="st1" d="M718.2,122.2L718.2,122.2L718.2,122.2z"/>
				<path id="XMLID_184_" class="st1" d="M719.2,122.2L719.2,122.2L719.2,122.2z"/>
				<path id="XMLID_183_" class="st1" d="M720.2,122.2L720.2,122.2L720.2,122.2z"/>
				<path id="XMLID_182_" class="st1" d="M721.2,122.2L721.2,122.2L721.2,122.2z"/>
				<path id="XMLID_181_" class="st1" d="M722.1,122.2L722.1,122.2L722.1,122.2z"/>
				<path id="XMLID_180_" class="st1" d="M723.1,122.2L723.1,122.2L723.1,122.2z"/>
				<path id="XMLID_179_" class="st1" d="M724.1,122.2L724.1,122.2L724.1,122.2z"/>
				<path id="XMLID_178_" class="st1" d="M725.1,122.2L725.1,122.2L725.1,122.2z"/>
				<path id="XMLID_177_" class="st1" d="M726.1,122.2L726.1,122.2L726.1,122.2z"/>
				<path id="XMLID_176_" class="st1" d="M727,122.2L727,122.2L727,122.2z"/>
				<path id="XMLID_175_" class="st1" d="M728,122.2L728,122.2L728,122.2z"/>
				<path id="XMLID_174_" class="st1" d="M729,122.2L729,122.2L729,122.2z"/>
				<path id="XMLID_173_" class="st1" d="M730,122.2L730,122.2L730,122.2z"/>
				<path id="XMLID_172_" class="st1" d="M731,122.2L731,122.2L731,122.2z"/>
				<path id="XMLID_171_" class="st1" d="M731.9,122.2L731.9,122.2L731.9,122.2z"/>
				<path id="XMLID_170_" class="st1" d="M732.9,122.2L732.9,122.2L732.9,122.2z"/>
				<path id="XMLID_169_" class="st1" d="M733.9,122.2L733.9,122.2L733.9,122.2z"/>
				<path id="XMLID_168_" class="st1" d="M734.9,122.2L734.9,122.2L734.9,122.2z"/>
				<path id="XMLID_167_" class="st1" d="M735.9,122.2L735.9,122.2L735.9,122.2z"/>
				<path id="XMLID_166_" class="st1" d="M736.9,122.2L736.9,122.2L736.9,122.2z"/>
				<path id="XMLID_165_" class="st1" d="M737.8,122.2L737.8,122.2L737.8,122.2z"/>
				<path id="XMLID_164_" class="st1" d="M738.8,122.2L738.8,122.2L738.8,122.2z"/>
				<path id="XMLID_163_" class="st1" d="M739.8,122.2L739.8,122.2L739.8,122.2z"/>
				<path id="XMLID_162_" class="st1" d="M740.8,122.2L740.8,122.2L740.8,122.2z"/>
				<path id="XMLID_161_" class="st1" d="M741.8,122.2L741.8,122.2L741.8,122.2z"/>
				<path id="XMLID_160_" class="st1" d="M742.7,122.2L742.7,122.2L742.7,122.2z"/>
				<path id="XMLID_159_" class="st1" d="M743.7,122.2L743.7,122.2L743.7,122.2z"/>
				<path id="XMLID_158_" class="st1" d="M744.7,122.2L744.7,122.2L744.7,122.2z"/>
				<path id="XMLID_157_" class="st1" d="M745.7,122.2L745.7,122.2L745.7,122.2z"/>
				<path id="XMLID_156_" class="st1" d="M746.7,122.2L746.7,122.2L746.7,122.2z"/>
				<path id="XMLID_155_" class="st1" d="M747.6,122.2L747.6,122.2L747.6,122.2z"/>
				<path id="XMLID_154_" class="st1" d="M748.6,122.2L748.6,122.2L748.6,122.2z"/>
				<path id="XMLID_153_" class="st1" d="M749.6,122.2L749.6,122.2L749.6,122.2z"/>
				<path id="XMLID_152_" class="st1" d="M750.6,122.2L750.6,122.2L750.6,122.2z"/>
				<path id="XMLID_151_" class="st1" d="M751.6,122.2L751.6,122.2L751.6,122.2z"/>
				<path id="XMLID_150_" class="st1" d="M752.5,122.2L752.5,122.2L752.5,122.2z"/>
				<path id="XMLID_149_" class="st1" d="M753.5,122.2L753.5,122.2L753.5,122.2z"/>
				<path id="XMLID_148_" class="st1" d="M754.5,122.2L754.5,122.2L754.5,122.2z"/>
				<path id="XMLID_147_" class="st1" d="M755.5,122.2L755.5,122.2L755.5,122.2z"/>
				<path id="XMLID_146_" class="st1" d="M756.5,122.2L756.5,122.2L756.5,122.2z"/>
				<path id="XMLID_145_" class="st1" d="M757.4,122.2L757.4,122.2L757.4,122.2z"/>
				<path id="XMLID_144_" class="st1" d="M758.4,122.2L758.4,122.2L758.4,122.2z"/>
				<path id="XMLID_143_" class="st1" d="M759.4,122.2L759.4,122.2L759.4,122.2z"/>
				<path id="XMLID_142_" class="st1" d="M760.4,122.2L760.4,122.2L760.4,122.2z"/>
				<path id="XMLID_141_" class="st1" d="M761.4,122.2L761.4,122.2L761.4,122.2z"/>
				<path id="XMLID_140_" class="st1" d="M762.3,122.2L762.3,122.2L762.3,122.2z"/>
				<path id="XMLID_139_" class="st1" d="M763.3,122.2L763.3,122.2L763.3,122.2z"/>
				<path id="XMLID_138_" class="st1" d="M764.3,122.2L764.3,122.2L764.3,122.2z"/>
				<path id="XMLID_137_" class="st1" d="M765.3,122.2L765.3,122.2L765.3,122.2z"/>
				<path id="XMLID_136_" class="st1" d="M766.3,122.2L766.3,122.2L766.3,122.2z"/>
				<path id="XMLID_135_" class="st1" d="M767.2,122.2L767.2,122.2L767.2,122.2z"/>
				<path id="XMLID_134_" class="st1" d="M768.2,122.2L768.2,122.2L768.2,122.2z"/>
				<path id="XMLID_133_" class="st1" d="M769.2,122.2L769.2,122.2L769.2,122.2z"/>
				<path id="XMLID_132_" class="st1" d="M770.2,122.2L770.2,122.2L770.2,122.2z"/>
				<path id="XMLID_131_" class="st1" d="M771.2,122.2L771.2,122.2L771.2,122.2z"/>
				<path id="XMLID_130_" class="st1" d="M772.2,122.2L772.2,122.2L772.2,122.2z"/>
				<path id="XMLID_129_" class="st1" d="M773.1,122.2L773.1,122.2L773.1,122.2z"/>
				<path id="XMLID_128_" class="st1" d="M774.1,122.2L774.1,122.2L774.1,122.2z"/>
				<path id="XMLID_127_" class="st1" d="M775.1,122.2L775.1,122.2L775.1,122.2z"/>
				<path id="XMLID_126_" class="st1" d="M776.1,122.2L776.1,122.2L776.1,122.2z"/>
				<path id="XMLID_125_" class="st1" d="M777.1,122.2L777.1,122.2L777.1,122.2z"/>
				<path id="XMLID_124_" class="st1" d="M778,122.2L778,122.2L778,122.2z"/>
				<path id="XMLID_123_" class="st1" d="M779,122.2L779,122.2L779,122.2z"/>
				<path id="XMLID_122_" class="st1" d="M780,122.2L780,122.2L780,122.2z"/>
				<path id="XMLID_121_" class="st1" d="M781,122.2L781,122.2L781,122.2z"/>
				<path id="XMLID_120_" class="st1" d="M782,122.2L782,122.2L782,122.2z"/>
				<path id="XMLID_119_" class="st1" d="M782.9,122.2L782.9,122.2L782.9,122.2z"/>
				<path id="XMLID_118_" class="st1" d="M783.9,122.2L783.9,122.2L783.9,122.2z"/>
				<path id="XMLID_117_" class="st1" d="M784.9,122.2L784.9,122.2L784.9,122.2z"/>
				<path id="XMLID_116_" class="st1" d="M785.9,122.2L785.9,122.2L785.9,122.2z"/>
				<path id="XMLID_115_" class="st1" d="M786.9,122.2L786.9,122.2L786.9,122.2z"/>
				<path id="XMLID_114_" class="st1" d="M787.8,122.2L787.8,122.2L787.8,122.2z"/>
				<path id="XMLID_113_" class="st1" d="M788.8,122.2L788.8,122.2L788.8,122.2z"/>
				<path id="XMLID_112_" class="st1" d="M789.8,122.2L789.8,122.2L789.8,122.2z"/>
				<path id="XMLID_111_" class="st1" d="M790.8,122.2L790.8,122.2L790.8,122.2z"/>
				<path id="XMLID_110_" class="st1" d="M791.8,122.2L791.8,122.2L791.8,122.2z"/>
				<path id="XMLID_109_" class="st1" d="M792.7,122.2L792.7,122.2L792.7,122.2z"/>
				<path id="XMLID_108_" class="st1" d="M793.7,122.2L793.7,122.2L793.7,122.2z"/>
				<path id="XMLID_107_" class="st1" d="M794.7,122.2L794.7,122.2L794.7,122.2z"/>
				<path id="XMLID_106_" class="st1" d="M795.7,122.2L795.7,122.2L795.7,122.2z"/>
				<path id="XMLID_105_" class="st1" d="M796.7,122.2L796.7,122.2L796.7,122.2z"/>
				<path id="XMLID_104_" class="st1" d="M797.6,122.2L797.6,122.2L797.6,122.2z"/>
				<path id="XMLID_103_" class="st1" d="M798.6,122.2L798.6,122.2L798.6,122.2z"/>
				<path id="XMLID_102_" class="st1" d="M799.6,122.2L799.6,122.2L799.6,122.2z"/>
				<path id="XMLID_101_" class="st1" d="M800.6,122.2L800.6,122.2L800.6,122.2z"/>
				<path id="XMLID_100_" class="st1" d="M801.6,122.2L801.6,122.2L801.6,122.2z"/>
				<path id="XMLID_99_" class="st1" d="M802.5,122.2L802.5,122.2L802.5,122.2z"/>
				<path id="XMLID_98_" class="st1" d="M803.5,122.2L803.5,122.2L803.5,122.2z"/>
				<path id="XMLID_97_" class="st1" d="M804.5,122.2L804.5,122.2L804.5,122.2z"/>
				<path id="XMLID_96_" class="st1" d="M805.5,122.2L805.5,122.2L805.5,122.2z"/>
				<path id="XMLID_95_" class="st1" d="M806.5,122.2L806.5,122.2L806.5,122.2z"/>
				<path id="XMLID_94_" class="st1" d="M807.5,122.2L807.5,122.2L807.5,122.2z"/>
				<path id="XMLID_93_" class="st1" d="M808.4,122.2L808.4,122.2L808.4,122.2z"/>
				<path id="XMLID_92_" class="st1" d="M809.4,122.2L809.4,122.2L809.4,122.2z"/>
				<path id="XMLID_91_" class="st1" d="M810.4,122.2L810.4,122.2L810.4,122.2z"/>
				<path id="XMLID_90_" class="st1" d="M811.4,122.2L811.4,122.2L811.4,122.2z"/>
				<path id="XMLID_89_" class="st1" d="M812.4,122.2L812.4,122.2L812.4,122.2z"/>
				<path id="XMLID_88_" class="st1" d="M813.3,122.2L813.3,122.2L813.3,122.2z"/>
				<path id="XMLID_87_" class="st1" d="M814.3,122.2L814.3,122.2L814.3,122.2z"/>
				<path id="XMLID_86_" class="st1" d="M815.3,122.2L815.3,122.2L815.3,122.2z"/>
				<path id="XMLID_85_" class="st1" d="M816.3,122.2L816.3,122.2L816.3,122.2z"/>
				<path id="XMLID_84_" class="st1" d="M817.3,122.2L817.3,122.2L817.3,122.2z"/>
				<path id="XMLID_83_" class="st1" d="M818.2,122.2L818.2,122.2L818.2,122.2z"/>
				<path id="XMLID_82_" class="st1" d="M819.2,122.2L819.2,122.2L819.2,122.2z"/>
				<path id="XMLID_81_" class="st1" d="M820.2,122.2L820.2,122.2L820.2,122.2z"/>
				<path id="XMLID_80_" class="st1" d="M821.2,122.2L821.2,122.2L821.2,122.2z"/>
				<path id="XMLID_79_" class="st1" d="M822.2,122.2L822.2,122.2L822.2,122.2z"/>
				<path id="XMLID_78_" class="st1" d="M823.1,122.2L823.1,122.2L823.1,122.2z"/>
				<path id="XMLID_77_" class="st1" d="M824.1,122.2L824.1,122.2L824.1,122.2z"/>
				<path id="XMLID_76_" class="st1" d="M825.1,122.2L825.1,122.2L825.1,122.2z"/>
				<path id="XMLID_75_" class="st1" d="M826.1,122.2L826.1,122.2L826.1,122.2z"/>
				<path id="XMLID_74_" class="st1" d="M827.1,122.2L827.1,122.2L827.1,122.2z"/>
				<path id="XMLID_73_" class="st1" d="M828,122.2L828,122.2L828,122.2z"/>
				<path id="XMLID_72_" class="st1" d="M829,122.2L829,122.2L829,122.2z"/>
				<path id="XMLID_71_" class="st1" d="M830,122.2L830,122.2L830,122.2z"/>
				<path id="XMLID_70_" class="st1" d="M831,122.2L831,122.2L831,122.2z"/>
				<path id="XMLID_69_" class="st1" d="M832,122.2L832,122.2L832,122.2z"/>
				<path id="XMLID_68_" class="st1" d="M832.9,122.2L832.9,122.2L832.9,122.2z"/>
				<path id="XMLID_67_" class="st1" d="M833.9,122.2L833.9,122.2L833.9,122.2z"/>
				<path id="XMLID_66_" class="st1" d="M834.9,122.2L834.9,122.2L834.9,122.2z"/>
				<path id="XMLID_65_" class="st1" d="M835.9,122.2L835.9,122.2L835.9,122.2z"/>
				<path id="XMLID_64_" class="st1" d="M836.9,122.2L836.9,122.2L836.9,122.2z"/>
				<path id="XMLID_63_" class="st1" d="M837.8,122.2L837.8,122.2L837.8,122.2z"/>
				<path id="XMLID_62_" class="st1" d="M838.8,122.2L838.8,122.2L838.8,122.2z"/>
				<path id="XMLID_61_" class="st1" d="M839.8,122.2L839.8,122.2L839.8,122.2z"/>
				<path id="XMLID_60_" class="st1" d="M840.8,122.2L840.8,122.2L840.8,122.2z"/>
				<path id="XMLID_59_" class="st1" d="M841.8,122.2L841.8,122.2L841.8,122.2z"/>
				<path id="XMLID_58_" class="st1" d="M842.8,122.2L842.8,122.2L842.8,122.2z"/>
				<path id="XMLID_57_" class="st1" d="M843.7,122.2L843.7,122.2L843.7,122.2z"/>
				<path id="XMLID_56_" class="st1" d="M844.7,122.2L844.7,122.2L844.7,122.2z"/>
				<path id="XMLID_55_" class="st1" d="M845.7,122.2L845.7,122.2L845.7,122.2z"/>
				<path id="XMLID_54_" class="st1" d="M846.7,122.2L846.7,122.2L846.7,122.2z"/>
				<path id="XMLID_53_" class="st1" d="M847.7,122.2L847.7,122.2L847.7,122.2z"/>
				<path id="XMLID_52_" class="st1" d="M848.6,122.2L848.6,122.2L848.6,122.2z"/>
				<path id="XMLID_51_" class="st1" d="M849.6,122.2L849.6,122.2L849.6,122.2z"/>
				<path id="XMLID_50_" class="st1" d="M850.6,122.2L850.6,122.2L850.6,122.2z"/>
				<path id="XMLID_49_" class="st1" d="M851.6,122.2L851.6,122.2L851.6,122.2z"/>
				<path id="XMLID_48_" class="st1" d="M852.6,122.2L852.6,122.2L852.6,122.2z"/>
				<path id="XMLID_47_" class="st1" d="M853.5,122.2L853.5,122.2L853.5,122.2z"/>
				<path id="XMLID_46_" class="st1" d="M854.5,122.2L854.5,122.2L854.5,122.2z"/>
				<path id="XMLID_45_" class="st1" d="M855.5,122.2L855.5,122.2L855.5,122.2z"/>
				<path id="XMLID_44_" class="st1" d="M856.5,122.2L856.5,122.2L856.5,122.2z"/>
				<path id="XMLID_43_" class="st1" d="M857.5,122.2L857.5,122.2L857.5,122.2z"/>
				<path id="XMLID_42_" class="st1" d="M858.4,122.2L858.4,122.2L858.4,122.2z"/>
				<path id="XMLID_41_" class="st1" d="M859.4,122.2L859.4,122.2L859.4,122.2z"/>
				<path id="XMLID_40_" class="st1" d="M860.4,122.2L860.4,122.2L860.4,122.2z"/>
				<path id="XMLID_39_" class="st1" d="M861.4,122.2L861.4,122.2L861.4,122.2z"/>
				<path id="XMLID_38_" class="st1" d="M862.4,122.2L862.4,122.2L862.4,122.2z"/>
				<path id="XMLID_37_" class="st1" d="M863.3,122.2L863.3,122.2L863.3,122.2z"/>
				<path id="XMLID_36_" class="st1" d="M864.3,122.2L864.3,122.2L864.3,122.2z"/>
				<path id="XMLID_35_" class="st1" d="M865.3,122.2L865.3,122.2L865.3,122.2z"/>
				<path id="XMLID_34_" class="st1" d="M866.3,122.2L866.3,122.2L866.3,122.2z"/>
				<path id="XMLID_33_" class="st1" d="M867.3,122.2L867.3,122.2L867.3,122.2z"/>
				<path id="XMLID_32_" class="st1" d="M868.2,122.2L868.2,122.2L868.2,122.2z"/>
				<path id="XMLID_31_" class="st1" d="M869.2,122.2L869.2,122.2L869.2,122.2z"/>
				<path id="XMLID_30_" class="st1" d="M870.2,122.2L870.2,122.2L870.2,122.2z"/>
				<path id="XMLID_29_" class="st1" d="M871.2,122.2L871.2,122.2L871.2,122.2z"/>
				<path id="XMLID_28_" class="st1" d="M872.2,122.2L872.2,122.2L872.2,122.2z"/>
				<path id="XMLID_27_" class="st1" d="M873.1,122.2L873.1,122.2L873.1,122.2z"/>
				<path id="XMLID_26_" class="st1" d="M874.1,122.2L874.1,122.2L874.1,122.2z"/>
				<path id="XMLID_25_" class="st1" d="M875.1,122.2L875.1,122.2L875.1,122.2z"/>
				<path id="XMLID_24_" class="st1" d="M876.1,122.2L876.1,122.2L876.1,122.2z"/>
				<path id="XMLID_23_" class="st1" d="M877.1,122.2L877.1,122.2L877.1,122.2z"/>
				<path id="XMLID_22_" class="st1" d="M878.1,122.2L878.1,122.2L878.1,122.2z"/>
				<path id="XMLID_21_" class="st1" d="M879,122.2L879,122.2L879,122.2z"/>
				<path id="XMLID_20_" class="st1" d="M880,122.2L880,122.2L880,122.2z"/>
				<path id="XMLID_19_" class="st1" d="M881,122.2L881,122.2L881,122.2z"/>
				<path id="XMLID_18_" class="st1" d="M882,122.2L882,122.2L882,122.2z"/>
				<path id="XMLID_17_" class="st1" d="M883,122.2L883,122.2L883,122.2z"/>
				<path id="XMLID_16_" class="st1" d="M883.9,122.2L883.9,122.2L883.9,122.2z"/>
				<path id="XMLID_15_" class="st1" d="M884.9,122.2L884.9,122.2L884.9,122.2z"/>
				<path id="XMLID_14_" class="st1" d="M885.9,122.2L885.9,122.2L885.9,122.2z"/>
				<path id="XMLID_13_" class="st1" d="M886.9,122.2L886.9,122.2L886.9,122.2z"/>
				<path id="XMLID_12_" class="st1" d="M887.9,122.2L887.9,122.2L887.9,122.2z"/>
				<path id="XMLID_11_" class="st1" d="M888.8,122.2L888.8,122.2L888.8,122.2z"/>
				<path id="XMLID_10_" class="st1" d="M889.8,122.2L889.8,122.2L889.8,122.2z"/>
				<path id="XMLID_9_" class="st1" d="M890.8,122.2L890.8,122.2L890.8,122.2z"/>
				<path id="XMLID_8_" class="st1" d="M891.8,122.2L891.8,122.2L891.8,122.2z"/>
				<path id="XMLID_7_" class="st1" d="M891.8,122.2L891.8,122.2L891.8,122.2z"/>
			</g>
			<rect id="XMLID_5_" x="679" y="117.6" class="st1" width="212.8" height="9.3"/>
		</g>
	</g>
</g>
</svg>
