<?xml version="1.0" encoding="utf-8"?>
<!-- Generator: Adobe Illustrator 19.0.0, SVG Export Plug-In . SVG Version: 6.00 Build 0)  -->
<!DOCTYPE svg PUBLIC "-//W3C//DTD SVG 1.1//EN" "http://www.w3.org/Graphics/SVG/1.1/DTD/svg11.dtd">
<svg version="1.1" id="Layer_1" xmlns="http://www.w3.org/2000/svg" xmlns:xlink="http://www.w3.org/1999/xlink" x="0px" y="0px"
	 viewBox="0 0 396.5 390.2" style="enable-background:new 0 0 396.5 390.2;" xml:space="preserve">
<style type="text/css">
	.st0{fill:#FFFFFF;}
</style>
<path id="XMLID_3_" class="st0" d="M67.7,216l104.6,61.3c21.7,12.7,57.2,33.5,78.9,46.2l104.6,61.3c21.7,12.7,39.6,2.5,39.7-22.6
	l0.8-121.2c0.2-25.1,0.4-66.3,0.6-91.4l0.8-121.2C397.7,3.2,380-7.2,358.1,5.3L252.8,65.2c-21.9,12.4-57.6,32.8-79.5,45.2L68,170.3
	C46.1,182.7,46,203.3,67.7,216z"/>
<path id="XMLID_2_" class="st0" d="M33.7,379.2c18.6,0,33.7-15.1,33.7-33.7V38c0-18.6-15.1-33.7-33.7-33.7C15.1,4.3,0,19.4,0,38
	l0,307.5C0,364.1,15.1,379.2,33.7,379.2z"/>
</svg>
